<svg width="847" height="847" viewBox="0 0 847 847" fill="none" xmlns="http://www.w3.org/2000/svg">
<g clip-path="url(#clip0_718_10)">
<path d="M0 0V42.3333H42.3333V0H0ZM42.3333 42.3333V84.6667H84.6667V42.3333H42.3333ZM84.6667 42.3333H127V0H84.6667V42.3333ZM127 42.3333V84.6667H169.333V42.3333H127ZM169.333 42.3333H211.667V0H169.333V42.3333ZM211.667 42.3333V84.6667H254V42.3333H211.667ZM254 42.3333H296.333V0H254V42.3333ZM296.333 42.3333V84.6667H338.667V42.3333H296.333ZM338.667 42.3333H381V0H338.667V42.3333ZM381 42.3333V84.6667H423.333V42.3333H381ZM423.333 42.3333H465.667V0H423.333V42.3333ZM465.667 42.3333V84.6667H508V42.3333H465.667ZM508 42.3333H550.333V0H508V42.3333ZM550.333 42.3333V84.6667H592.667V42.3333H550.333ZM592.667 42.3333H635V0H592.667V42.3333ZM635 42.3333V84.6667H677.333V42.3333H635ZM677.333 42.3333H719.667V0H677.333V42.3333ZM719.667 42.3333V84.6667H762V42.3333H719.667ZM762 42.3333H804.333V0H762V42.3333ZM804.333 42.3333V84.6667H846.667V42.3333H804.333ZM804.333 84.6667H762V127H804.333V84.6667ZM804.333 127V169.333H846.667V127H804.333ZM804.333 169.333H762V211.667H804.333V169.333ZM804.333 211.667V254H846.667V211.667H804.333ZM804.333 254H762V296.333H804.333V254ZM804.333 296.333V338.667H846.667V296.333H804.333ZM804.333 338.667H762V381H804.333V338.667ZM804.333 381V423.333H846.667V381H804.333ZM804.333 423.333H762V465.667H804.333V423.333ZM804.333 465.667V508H846.667V465.667H804.333ZM804.333 508H762V550.333H804.333V508ZM804.333 550.333V592.667H846.667V550.333H804.333ZM804.333 592.667H762V635H804.333V592.667ZM804.333 635V677.333H846.667V635H804.333ZM804.333 677.333H762V719.667H804.333V677.333ZM804.333 719.667V762H846.667V719.667H804.333ZM804.333 762H762V804.333H804.333V762ZM804.333 804.333V846.667H846.667V804.333H804.333ZM762 804.333H719.667V846.667H762V804.333ZM719.667 804.333V762H677.333V804.333H719.667ZM677.333 804.333H635V846.667H677.333V804.333ZM635 804.333V762H592.667V804.333H635ZM592.667 804.333H550.333V846.667H592.667V804.333ZM550.333 804.333V762H508V804.333H550.333ZM508 804.333H465.667V846.667H508V804.333ZM465.667 804.333V762H423.333V804.333H465.667ZM423.333 804.333H381V846.667H423.333V804.333ZM381 804.333V762H338.667V804.333H381ZM338.667 804.333H296.333V846.667H338.667V804.333ZM296.333 804.333V762H254V804.333H296.333ZM254 804.333H211.667V846.667H254V804.333ZM211.667 804.333V762H169.333V804.333H211.667ZM169.333 804.333H127V846.667H169.333V804.333ZM127 804.333V762H84.6667V804.333H127ZM84.6667 804.333H42.3333V846.667H84.6667V804.333ZM42.3333 804.333V762H0V804.333H42.3333ZM42.3333 762H84.6667V719.667H42.3333V762ZM42.3333 719.667V677.333H0V719.667H42.3333ZM42.3333 677.333H84.6667V635H42.3333V677.333ZM42.3333 635V592.667H0V635H42.3333ZM42.3333 592.667H84.6667V550.333H42.3333V592.667ZM42.3333 550.333V508H0V550.333H42.3333ZM42.3333 508H84.6667V465.667H42.3333V508ZM42.3333 465.667V423.333H0V465.667H42.3333ZM42.3333 423.333H84.6667V381H42.3333V423.333ZM42.3333 381V338.667H0V381H42.3333ZM42.3333 338.667H84.6667V296.333H42.3333V338.667ZM42.3333 296.333V254H0V296.333H42.3333ZM42.3333 254H84.6667V211.667H42.3333V254ZM42.3333 211.667V169.333H0V211.667H42.3333ZM42.3333 169.333H84.6667V127H42.3333V169.333ZM42.3333 127V84.6667H0V127H42.3333ZM84.6667 127H127V84.6667H84.6667V127ZM127 127V169.333H169.333V127H127ZM169.333 127H211.667V84.6667H169.333V127ZM211.667 127V169.333H254V127H211.667ZM254 127H296.333V84.6667H254V127ZM296.333 127V169.333H338.667V127H296.333ZM338.667 127H381V84.6667H338.667V127ZM381 127V169.333H423.333V127H381ZM423.333 127H465.667V84.6667H423.333V127ZM465.667 127V169.333H508V127H465.667ZM508 127H550.333V84.6667H508V127ZM550.333 127V169.333H592.667V127H550.333ZM592.667 127H635V84.6667H592.667V127ZM635 127V169.333H677.333V127H635ZM677.333 127H719.667V84.6667H677.333V127ZM719.667 127V169.333H762V127H719.667ZM719.667 169.333H677.333V211.667H719.667V169.333ZM719.667 211.667V254H762V211.667H719.667ZM719.667 254H677.333V296.333H719.667V254ZM719.667 296.333V338.667H762V296.333H719.667ZM719.667 338.667H677.333V381H719.667V338.667ZM719.667 381V423.333H762V381H719.667ZM719.667 423.333H677.333V465.667H719.667V423.333ZM719.667 465.667V508H762V465.667H719.667ZM719.667 508H677.333V550.333H719.667V508ZM719.667 550.333V592.667H762V550.333H719.667ZM719.667 592.667H677.333V635H719.667V592.667ZM719.667 635V677.333H762V635H719.667ZM719.667 677.333H677.333V719.667H719.667V677.333ZM719.667 719.667V762H762V719.667H719.667ZM677.333 719.667H635V762H677.333V719.667ZM635 719.667V677.333H592.667V719.667H635ZM592.667 719.667H550.333V762H592.667V719.667ZM550.333 719.667V677.333H508V719.667H550.333ZM508 719.667H465.667V762H508V719.667ZM465.667 719.667V677.333H423.333V719.667H465.667ZM423.333 719.667H381V762H423.333V719.667ZM381 719.667V677.333H338.667V719.667H381ZM338.667 719.667H296.333V762H338.667V719.667ZM296.333 719.667V677.333H254V719.667H296.333ZM254 719.667H211.667V762H254V719.667ZM211.667 719.667V677.333H169.333V719.667H211.667ZM169.333 719.667H127V762H169.333V719.667ZM127 719.667V677.333H84.6667V719.667H127ZM127 677.333H169.333V635H127V677.333ZM127 635V592.667H84.6667V635H127ZM127 592.667H169.333V550.333H127V592.667ZM127 550.333V508H84.6667V550.333H127ZM127 508H169.333V465.667H127V508ZM127 465.667V423.333H84.6667V465.667H127ZM127 423.333H169.333V381H127V423.333ZM127 381V338.667H84.6667V381H127ZM127 338.667H169.333V296.333H127V338.667ZM127 296.333V254H84.6667V296.333H127ZM127 254H169.333V211.667H127V254ZM127 211.667V169.333H84.6667V211.667H127ZM169.333 211.667H211.667V169.333H169.333V211.667ZM211.667 211.667V254H254V211.667H211.667ZM254 211.667H296.333V169.333H254V211.667ZM296.333 211.667V254H338.667V211.667H296.333ZM338.667 211.667H381V169.333H338.667V211.667ZM381 211.667V254H423.333V211.667H381ZM423.333 211.667H465.667V169.333H423.333V211.667ZM465.667 211.667V254H508V211.667H465.667ZM508 211.667H550.333V169.333H508V211.667ZM550.333 211.667V254H592.667V211.667H550.333ZM592.667 211.667H635V169.333H592.667V211.667ZM635 211.667V254H677.333V211.667H635ZM635 254H592.667V296.333H635V254ZM635 296.333V338.667H677.333V296.333H635ZM635 338.667H592.667V381H635V338.667ZM635 381V423.333H677.333V381H635ZM635 423.333H592.667V465.667H635V423.333ZM635 465.667V508H677.333V465.667H635ZM635 508H592.667V550.333H635V508ZM635 550.333V592.667H677.333V550.333H635ZM635 592.667H592.667V635H635V592.667ZM635 635V677.333H677.333V635H635ZM592.667 635H550.333V677.333H592.667V635ZM550.333 635V592.667H508V635H550.333ZM508 635H465.667V677.333H508V635ZM465.667 635V592.667H423.333V635H465.667ZM423.333 635H381V677.333H423.333V635ZM381 635V592.667H338.667V635H381ZM338.667 635H296.333V677.333H338.667V635ZM296.333 635V592.667H254V635H296.333ZM254 635H211.667V677.333H254V635ZM211.667 635V592.667H169.333V635H211.667ZM211.667 592.667H254V550.333H211.667V592.667ZM211.667 550.333V508H169.333V550.333H211.667ZM211.667 508H254V465.667H211.667V508ZM211.667 465.667V423.333H169.333V465.667H211.667ZM211.667 423.333H254V381H211.667V423.333ZM211.667 381V338.667H169.333V381H211.667ZM211.667 338.667H254V296.333H211.667V338.667ZM211.667 296.333V254H169.333V296.333H211.667ZM254 296.333H296.333V254H254V296.333ZM296.333 296.333V338.667H338.667V296.333H296.333ZM338.667 296.333H381V254H338.667V296.333ZM381 296.333V338.667H423.333V296.333H381ZM423.333 296.333H465.667V254H423.333V296.333ZM465.667 296.333V338.667H508V296.333H465.667ZM508 296.333H550.333V254H508V296.333ZM550.333 296.333V338.667H592.667V296.333H550.333ZM550.333 338.667H508V381H550.333V338.667ZM550.333 381V423.333H592.667V381H550.333ZM550.333 423.333H508V465.667H550.333V423.333ZM550.333 465.667V508H592.667V465.667H550.333ZM550.333 508H508V550.333H550.333V508ZM550.333 550.333V592.667H592.667V550.333H550.333ZM508 550.333H465.667V592.667H508V550.333ZM465.667 550.333V508H423.333V550.333H465.667ZM423.333 550.333H381V592.667H423.333V550.333ZM381 550.333V508H338.667V550.333H381ZM338.667 550.333H296.333V592.667H338.667V550.333ZM296.333 550.333V508H254V550.333H296.333ZM296.333 508H338.667V465.667H296.333V508ZM296.333 465.667V423.333H254V465.667H296.333ZM296.333 423.333H338.667V381H296.333V423.333ZM296.333 381V338.667H254V381H296.333ZM338.667 381H381V338.667H338.667V381ZM381 381V423.333H423.333V381H381ZM423.333 381H465.667V338.667H423.333V381ZM465.667 381V423.333H508V381H465.667ZM465.667 423.333H423.333V465.667H465.667V423.333ZM465.667 465.667V508H508V465.667H465.667ZM423.333 465.667H381V508H423.333V465.667ZM381 465.667V423.333H338.667V465.667H381Z" fill="white" fill-opacity="0.1"/>
</g>
<defs>
<clipPath id="clip0_718_10">
<rect width="846.667" height="846.667" fill="white"/>
</clipPath>
</defs>
</svg>
