<svg width="512" height="480" viewBox="0 0 512 480" fill="none" xmlns="http://www.w3.org/2000/svg">
<path d="M482 420H30L15 390L0 420V465C0 473.399 6.599 480 15 480H497C505.401 480 512 473.399 512 465V420L497 390L482 420ZM15 90H93.58C99.772 107.459 116.444 120 136 120C155.556 120 172.229 107.459 178.42 90H273.58C279.772 107.459 296.444 120 316 120C327.565 120 338.02 115.492 346 108.296C353.98 115.492 364.435 120 376 120C395.556 120 412.229 107.459 418.42 90H497C505.291 90 512 83.291 512 75C512 66.709 505.291 60 497 60H418.42C412.228 42.541 395.556 30 376 30C364.435 30 353.98 34.508 346 41.704C338.02 34.508 327.565 30 316 30C296.444 30 279.771 42.541 273.58 60H178.42C172.228 42.541 155.556 30 136 30C116.444 30 99.771 42.541 93.58 60H15C6.709 60 0 66.709 0 75C0 83.291 6.709 90 15 90ZM497 180H418.42C412.228 162.541 395.556 150 376 150C356.444 150 339.771 162.541 333.58 180H238.42C232.228 162.541 215.556 150 196 150C184.435 150 173.98 154.508 166 161.704C158.02 154.508 147.565 150 136 150C116.444 150 99.771 162.541 93.58 180H15C6.709 180 0 186.709 0 195C0 203.291 6.709 210 15 210H93.58C99.772 227.459 116.444 240 136 240C147.565 240 158.02 235.492 166 228.296C173.98 235.492 184.435 240 196 240C215.556 240 232.229 227.459 238.42 210H333.58C339.772 227.459 356.444 240 376 240C395.556 240 412.229 227.459 418.42 210H497C505.291 210 512 203.291 512 195C512 186.709 505.291 180 497 180ZM497 300H418.42C412.228 282.541 395.556 270 376 270C356.444 270 339.771 282.541 333.58 300H298.42C292.228 282.541 275.556 270 256 270C236.444 270 219.771 282.541 213.58 300H178.42C172.228 282.541 155.556 270 136 270C116.444 270 99.771 282.541 93.58 300H15C6.709 300 0 306.709 0 315C0 323.291 6.709 330 15 330H93.58C99.772 347.459 116.444 360 136 360C155.556 360 172.229 347.459 178.42 330H213.58C219.772 347.459 236.444 360 256 360C275.556 360 292.229 347.459 298.42 330H333.58C339.772 347.459 356.444 360 376 360C395.556 360 412.229 347.459 418.42 330H497C505.291 330 512 323.291 512 315C512 306.709 505.291 300 497 300V300Z" fill="url(#paint0_linear_453_19)"/>
<path d="M15 0C6.599 0 0 6.599 0 15V420H30V15C30 6.599 23.401 0 15 0ZM497 0C488.599 0 482 6.599 482 15V420H512V15C512 6.599 505.401 0 497 0Z" fill="url(#paint1_linear_453_19)"/>
<defs>
<linearGradient id="paint0_linear_453_19" x1="256" y1="480" x2="256" y2="30" gradientUnits="userSpaceOnUse">
<stop stop-color="#FD3A84"/>
<stop offset="1" stop-color="#FFA68D"/>
</linearGradient>
<linearGradient id="paint1_linear_453_19" x1="256" y1="420" x2="256" y2="0" gradientUnits="userSpaceOnUse">
<stop stop-color="#FFC2CC"/>
<stop offset="0.9973" stop-color="#F0FFF4"/>
</linearGradient>
</defs>
</svg>
