<?xml version="1.0" encoding="UTF-8"?>
<svg xmlns="http://www.w3.org/2000/svg" xmlns:xlink="http://www.w3.org/1999/xlink" width="45pt" height="44.999999pt" viewBox="0 0 45 44.999999" version="1.2">
<defs>
<clipPath id="clip1">
  <path d="M 12.09375 40 L 33 40 L 33 45 L 12.09375 45 Z M 12.09375 40 "/>
</clipPath>
</defs>
<g id="surface1">
<path style=" stroke:none;fill-rule:nonzero;fill:rgb(100%,100%,100%);fill-opacity:1;" d="M 30.367188 29.113281 C 30.367188 29.636719 29.929688 30.058594 29.390625 30.058594 L 15.785156 30.058594 C 15.246094 30.058594 14.808594 29.636719 14.808594 29.113281 C 14.808594 28.589844 15.246094 28.167969 15.785156 28.167969 L 29.390625 28.167969 C 29.929688 28.167969 30.367188 28.589844 30.367188 29.113281 "/>
<path style=" stroke:none;fill-rule:nonzero;fill:rgb(100%,100%,100%);fill-opacity:1;" d="M 25.488281 12.816406 L 19.683594 12.816406 L 15.613281 13.90625 L 15.613281 14.464844 C 15.613281 14.464844 18.144531 14.886719 22.585938 14.886719 C 27.027344 14.886719 29.558594 14.464844 29.558594 14.464844 L 29.558594 13.90625 L 25.488281 12.816406 "/>
<path style=" stroke:none;fill-rule:nonzero;fill:rgb(100%,100%,100%);fill-opacity:1;" d="M 17.660156 25.976562 C 18.5 23.738281 19.253906 19.285156 19.253906 19.285156 C 19.117188 23.492188 17.660156 25.976562 17.660156 25.976562 Z M 27.472656 25.976562 C 27.472656 25.976562 26.015625 23.492188 25.878906 19.285156 C 25.878906 19.285156 26.628906 23.738281 27.472656 25.976562 Z M 18.941406 17.957031 C 19.011719 19.597656 18.097656 24.6875 16.605469 27.640625 L 28.570312 27.640625 C 27.074219 24.6875 26.164062 19.597656 26.234375 17.957031 C 26.304688 16.308594 27.941406 14.921875 27.945312 14.921875 C 26.753906 15.03125 24.9375 15.148438 22.585938 15.148438 C 20.234375 15.148438 18.417969 15.03125 17.230469 14.921875 C 17.230469 14.921875 18.871094 16.308594 18.941406 17.957031 "/>
<path style=" stroke:none;fill-rule:nonzero;fill:rgb(100%,100%,100%);fill-opacity:1;" d="M 30.367188 29.113281 C 30.367188 29.636719 29.929688 30.058594 29.390625 30.058594 L 15.785156 30.058594 C 15.246094 30.058594 14.808594 29.636719 14.808594 29.113281 C 14.808594 28.589844 15.246094 28.167969 15.785156 28.167969 L 29.390625 28.167969 C 29.929688 28.167969 30.367188 28.589844 30.367188 29.113281 "/>
<g clip-path="url(#clip1)" clip-rule="nonzero">
<path style=" stroke:none;fill-rule:nonzero;fill:rgb(100%,100%,100%);fill-opacity:1;" d="M 31.800781 40.578125 C 29.707031 42.703125 22.585938 42.269531 22.585938 42.269531 C 22.585938 42.269531 15.46875 42.703125 13.375 40.578125 C 13.375 40.578125 12.128906 40.945312 12.394531 42.3125 C 12.65625 43.679688 17.355469 44.96875 22.585938 44.996094 C 27.816406 44.96875 32.515625 43.679688 32.78125 42.3125 C 33.046875 40.945312 31.800781 40.578125 31.800781 40.578125 "/>
</g>
<path style=" stroke:none;fill-rule:nonzero;fill:rgb(100%,100%,100%);fill-opacity:1;" d="M 14.25 36.332031 C 14.25 36.332031 13.429688 34.445312 15.753906 33.128906 C 15.753906 33.128906 13.894531 34.535156 14.25 36.332031 Z M 30.773438 36.332031 C 31.125 34.535156 29.265625 33.128906 29.265625 33.128906 C 31.589844 34.445312 30.773438 36.332031 30.773438 36.332031 Z M 31.800781 40.183594 C 31.878906 38.972656 30.871094 38.445312 30.871094 38.445312 C 31.238281 37.917969 31.417969 37.355469 31.5 36.992188 C 31.503906 36.972656 31.507812 36.957031 31.511719 36.9375 C 31.554688 36.734375 31.566406 36.605469 31.566406 36.605469 C 31.785156 34.757812 30.488281 33.394531 29.703125 32.832031 C 28.675781 32.09375 28.585938 30.585938 28.585938 30.585938 L 16.585938 30.585938 C 16.585938 30.585938 16.5 32.09375 15.472656 32.832031 C 14.6875 33.394531 13.386719 34.757812 13.609375 36.605469 L 13.605469 36.605469 C 13.605469 36.605469 13.609375 36.652344 13.625 36.730469 C 13.632812 36.78125 13.644531 36.851562 13.660156 36.929688 C 13.664062 36.953125 13.671875 36.976562 13.675781 37 C 13.761719 37.363281 13.9375 37.917969 14.304688 38.445312 C 14.304688 38.445312 13.296875 38.972656 13.375 40.183594 C 13.375 40.183594 14.996094 41.742188 22.585938 41.875 C 30.179688 41.742188 31.800781 40.183594 31.800781 40.183594 "/>
<path style=" stroke:none;fill-rule:nonzero;fill:rgb(100%,100%,100%);fill-opacity:1;" d="M 18.789062 1.96875 C 15.953125 6.402344 19.453125 10.351562 19.453125 10.351562 C 14.933594 6.226562 18.789062 1.96875 18.789062 1.96875 Z M 28.585938 5.949219 C 28.585938 2.664062 25.902344 0.00390625 22.585938 0.00390625 C 19.273438 0.00390625 16.585938 2.664062 16.585938 5.949219 C 16.585938 8.582031 18.316406 10.816406 20.710938 11.597656 L 20.710938 12.421875 L 24.464844 12.421875 L 24.464844 11.597656 C 26.859375 10.816406 28.585938 8.582031 28.585938 5.949219 "/>
<path style=" stroke:none;fill-rule:nonzero;fill:rgb(100%,100%,100%);fill-opacity:1;" d="M 7.382812 10.515625 L 4.695312 14.105469 C 4.566406 14.277344 4.5 14.464844 4.5 14.65625 C 4.5 15.070312 4.820312 15.371094 5.257812 15.371094 L 6.863281 15.371094 L 6.863281 33.648438 C 6.878906 34.328125 7.433594 34.871094 8.117188 34.871094 C 8.800781 34.871094 9.355469 34.328125 9.371094 33.648438 L 9.371094 15.371094 L 10.976562 15.371094 C 11.417969 15.371094 11.734375 15.070312 11.734375 14.65625 C 11.734375 14.464844 11.664062 14.277344 11.535156 14.105469 L 8.851562 10.515625 C 8.664062 10.269531 8.394531 10.125 8.117188 10.125 C 7.835938 10.125 7.574219 10.269531 7.382812 10.515625 Z M 7.382812 10.515625 "/>
<path style=" stroke:none;fill-rule:nonzero;fill:rgb(100%,100%,100%);fill-opacity:1;" d="M 36.164062 10.515625 L 33.472656 14.105469 C 33.34375 14.277344 33.28125 14.464844 33.28125 14.65625 C 33.28125 15.070312 33.597656 15.371094 34.039062 15.371094 L 35.640625 15.371094 L 35.640625 33.648438 C 35.65625 34.328125 36.210938 34.871094 36.894531 34.871094 C 37.578125 34.871094 38.132812 34.328125 38.148438 33.648438 L 38.148438 15.371094 L 39.753906 15.371094 C 40.195312 15.371094 40.511719 15.070312 40.511719 14.65625 C 40.511719 14.464844 40.441406 14.277344 40.3125 14.105469 L 37.628906 10.515625 C 37.441406 10.269531 37.171875 10.125 36.894531 10.125 C 36.613281 10.125 36.351562 10.269531 36.164062 10.515625 Z M 36.164062 10.515625 "/>
</g>
</svg>
