<?xml version="1.0" encoding="UTF-8"?>
<svg xmlns="http://www.w3.org/2000/svg" xmlns:xlink="http://www.w3.org/1999/xlink" width="45pt" height="44.999999pt" viewBox="0 0 45 44.999999" version="1.2">
<defs>
<clipPath id="clip1">
  <path d="M 1 7 L 39 7 L 39 44.476562 L 1 44.476562 Z M 1 7 "/>
</clipPath>
<clipPath id="clip2">
  <path d="M 20 0.226562 L 27 0.226562 L 27 7 L 20 7 Z M 20 0.226562 "/>
</clipPath>
</defs>
<g id="surface1">
<g clip-path="url(#clip1)" clip-rule="nonzero">
<path style=" stroke:none;fill-rule:nonzero;fill:rgb(100%,100%,100%);fill-opacity:1;" d="M 17.261719 44.460938 C 21.476562 44.460938 25.433594 42.832031 28.40625 39.878906 L 32.855469 35.460938 C 32.859375 35.457031 32.863281 35.457031 32.867188 35.449219 C 32.871094 35.445312 32.875 35.441406 32.878906 35.4375 L 38.160156 30.191406 C 38.675781 29.679688 38.960938 29 38.960938 28.277344 C 38.960938 27.550781 38.679688 26.867188 38.160156 26.351562 L 34.746094 22.964844 C 34.230469 22.453125 33.542969 22.171875 32.816406 22.171875 C 32.085938 22.171875 31.402344 22.453125 30.882812 22.964844 L 21.128906 32.65625 C 20.097656 33.679688 18.726562 34.242188 17.265625 34.242188 C 15.835938 34.242188 14.484375 33.703125 13.464844 32.71875 C 12.4375 31.730469 11.863281 30.378906 11.851562 28.914062 C 11.839844 27.394531 12.445312 25.917969 13.511719 24.855469 L 23.152344 15.285156 C 24.21875 14.226562 24.21875 12.5 23.152344 11.441406 L 19.742188 8.054688 C 19.226562 7.542969 18.539062 7.261719 17.808594 7.261719 C 17.078125 7.261719 16.390625 7.542969 15.875 8.054688 L 6.320312 17.546875 C 0.210938 23.617188 0.00390625 33.515625 5.855469 39.613281 C 8.855469 42.738281 12.90625 44.460938 17.261719 44.460938 Z M 31.949219 24.023438 C 32.414062 23.5625 33.21875 23.5625 33.683594 24.023438 L 37.097656 27.410156 C 37.328125 27.640625 37.457031 27.949219 37.453125 28.273438 C 37.453125 28.597656 37.328125 28.902344 37.09375 29.128906 L 32.332031 33.863281 L 27.191406 28.75 Z M 16.941406 9.113281 C 17.171875 8.882812 17.480469 8.757812 17.808594 8.757812 C 18.136719 8.757812 18.445312 8.882812 18.679688 9.113281 L 22.085938 12.5 C 22.566406 12.976562 22.566406 13.75 22.089844 14.226562 L 17.324219 18.957031 L 12.179688 13.84375 Z M 16.941406 9.113281 "/>
</g>
<g clip-path="url(#clip2)" clip-rule="nonzero">
<path style=" stroke:none;fill-rule:nonzero;fill:rgb(100%,100%,100%);fill-opacity:1;" d="M 26.183594 2.839844 C 26.226562 2.335938 26.253906 2 26.667969 1.589844 C 26.960938 1.300781 26.960938 0.824219 26.667969 0.535156 C 26.375 0.242188 25.898438 0.242188 25.601562 0.535156 C 24.800781 1.328125 24.734375 2.097656 24.679688 2.710938 C 24.636719 3.21875 24.609375 3.554688 24.191406 3.964844 C 23.777344 4.378906 23.441406 4.410156 22.929688 4.453125 C 22.308594 4.503906 21.539062 4.570312 20.738281 5.367188 C 20.441406 5.660156 20.441406 6.132812 20.738281 6.425781 C 20.882812 6.570312 21.078125 6.644531 21.269531 6.644531 C 21.460938 6.644531 21.65625 6.570312 21.800781 6.425781 C 22.214844 6.015625 22.550781 5.988281 23.058594 5.941406 C 23.679688 5.890625 24.453125 5.824219 25.253906 5.023438 C 26.0625 4.226562 26.128906 3.457031 26.183594 2.839844 Z M 26.183594 2.839844 "/>
</g>
<path style=" stroke:none;fill-rule:nonzero;fill:rgb(100%,100%,100%);fill-opacity:1;" d="M 24.300781 9.652344 C 24.496094 9.652344 24.6875 9.578125 24.835938 9.433594 C 25.246094 9.023438 25.585938 8.992188 26.09375 8.949219 C 26.714844 8.898438 27.488281 8.832031 28.289062 8.035156 C 29.089844 7.238281 29.15625 6.472656 29.210938 5.855469 C 29.253906 5.347656 29.28125 5.011719 29.695312 4.597656 C 29.988281 4.304688 29.988281 3.832031 29.695312 3.539062 C 29.398438 3.25 28.921875 3.25 28.628906 3.542969 C 27.828125 4.339844 27.761719 5.109375 27.710938 5.726562 C 27.664062 6.234375 27.636719 6.566406 27.222656 6.976562 C 26.8125 7.386719 26.476562 7.417969 25.964844 7.460938 C 25.34375 7.511719 24.570312 7.578125 23.769531 8.375 C 23.476562 8.667969 23.476562 9.140625 23.769531 9.433594 C 23.917969 9.578125 24.109375 9.652344 24.300781 9.652344 Z M 24.300781 9.652344 "/>
<path style=" stroke:none;fill-rule:nonzero;fill:rgb(100%,100%,100%);fill-opacity:1;" d="M 41.191406 17.753906 C 41.234375 17.25 41.261719 16.914062 41.675781 16.5 C 41.96875 16.207031 41.96875 15.734375 41.675781 15.441406 C 41.378906 15.152344 40.902344 15.152344 40.609375 15.445312 C 39.808594 16.242188 39.742188 17.011719 39.691406 17.628906 C 39.644531 18.136719 39.617188 18.46875 39.203125 18.878906 C 38.792969 19.289062 38.457031 19.320312 37.945312 19.363281 C 37.324219 19.414062 36.550781 19.480469 35.75 20.277344 C 35.457031 20.570312 35.457031 21.042969 35.75 21.335938 C 35.898438 21.480469 36.089844 21.554688 36.28125 21.554688 C 36.476562 21.554688 36.667969 21.480469 36.816406 21.335938 C 37.226562 20.925781 37.566406 20.894531 38.074219 20.851562 C 38.695312 20.800781 39.46875 20.734375 40.269531 19.9375 C 41.070312 19.140625 41.136719 18.371094 41.191406 17.753906 Z M 41.191406 17.753906 "/>
<path style=" stroke:none;fill-rule:nonzero;fill:rgb(100%,100%,100%);fill-opacity:1;" d="M 42.234375 21.886719 C 41.820312 22.296875 41.484375 22.328125 40.976562 22.371094 C 40.351562 22.421875 39.578125 22.488281 38.777344 23.289062 C 38.484375 23.582031 38.484375 24.058594 38.777344 24.347656 C 38.925781 24.492188 39.117188 24.566406 39.308594 24.566406 C 39.503906 24.566406 39.695312 24.492188 39.84375 24.347656 C 40.257812 23.933594 40.59375 23.90625 41.105469 23.859375 C 41.722656 23.808594 42.496094 23.742188 43.296875 22.945312 C 44.097656 22.148438 44.167969 21.382812 44.21875 20.765625 C 44.265625 20.257812 44.292969 19.925781 44.707031 19.515625 C 45.003906 19.222656 45.003906 18.75 44.707031 18.457031 C 44.414062 18.164062 43.9375 18.164062 43.644531 18.457031 C 42.839844 19.253906 42.773438 20.019531 42.71875 20.636719 C 42.675781 21.140625 42.644531 21.476562 42.234375 21.886719 Z M 42.234375 21.886719 "/>
</g>
</svg>
