<?xml version="1.0" encoding="UTF-8"?>
<svg xmlns="http://www.w3.org/2000/svg" xmlns:xlink="http://www.w3.org/1999/xlink" width="45pt" height="44.999999pt" viewBox="0 0 45 44.999999" version="1.2">
<g id="surface1">
<path style=" stroke:none;fill-rule:nonzero;fill:rgb(100%,100%,100%);fill-opacity:1;" d="M 0 0 L 0 45.089844 L 45.089844 45.089844 L 45.089844 0 Z M 43.652344 43.652344 L 1.40625 43.652344 L 1.40625 1.40625 L 43.652344 1.40625 Z M 43.652344 43.652344 "/>
<path style=" stroke:none;fill-rule:nonzero;fill:rgb(100%,100%,100%);fill-opacity:1;" d="M 7.382812 16.140625 L 4.695312 19.730469 C 4.566406 19.902344 4.5 20.089844 4.5 20.28125 C 4.5 20.695312 4.820312 20.996094 5.257812 20.996094 L 6.863281 20.996094 L 6.863281 39.273438 C 6.878906 39.953125 7.433594 40.496094 8.117188 40.496094 C 8.800781 40.496094 9.355469 39.953125 9.371094 39.273438 L 9.371094 20.996094 L 10.976562 20.996094 C 11.417969 20.996094 11.734375 20.695312 11.734375 20.28125 C 11.734375 20.089844 11.664062 19.902344 11.535156 19.730469 L 8.851562 16.140625 C 8.664062 15.894531 8.394531 15.75 8.117188 15.75 C 7.835938 15.75 7.574219 15.894531 7.382812 16.140625 Z M 7.382812 16.140625 "/>
<path style=" stroke:none;fill-rule:nonzero;fill:rgb(100%,100%,100%);fill-opacity:1;" d="M 28.859375 7.382812 L 25.269531 4.691406 C 25.097656 4.5625 24.910156 4.5 24.714844 4.5 C 24.304688 4.5 24.003906 4.816406 24.003906 5.257812 L 24.003906 6.863281 L 5.722656 6.863281 C 5.046875 6.878906 4.5 7.433594 4.5 8.117188 C 4.5 8.800781 5.046875 9.355469 5.722656 9.371094 L 24.003906 9.371094 L 24.003906 10.972656 C 24.003906 11.414062 24.304688 11.730469 24.714844 11.730469 C 24.910156 11.730469 25.097656 11.664062 25.269531 11.535156 L 28.859375 8.847656 C 29.105469 8.660156 29.25 8.394531 29.25 8.117188 C 29.25 7.832031 29.105469 7.570312 28.859375 7.382812 Z M 28.859375 7.382812 "/>
</g>
</svg>
