<?xml version="1.0" encoding="UTF-8"?>
<svg xmlns="http://www.w3.org/2000/svg" xmlns:xlink="http://www.w3.org/1999/xlink" width="45pt" height="44.999999pt" viewBox="0 0 45 44.999999" version="1.2">
<defs>
<clipPath id="clip1">
  <path d="M 0.199219 0 L 44.449219 0 L 44.449219 44.996094 L 0.199219 44.996094 Z M 0.199219 0 "/>
</clipPath>
</defs>
<g id="surface1">
<g clip-path="url(#clip1)" clip-rule="nonzero">
<path style=" stroke:none;fill-rule:nonzero;fill:rgb(100%,100%,100%);fill-opacity:1;" d="M 0.199219 43.546875 C 0.199219 43.839844 0.3125 44.128906 0.542969 44.339844 C 0.996094 44.796875 1.71875 44.796875 2.136719 44.339844 L 18.597656 27.746094 C 18.828125 27.515625 18.941406 27.210938 18.941406 26.941406 C 18.941406 26.675781 18.828125 26.367188 18.597656 26.136719 C 18.140625 25.679688 17.421875 25.679688 17.003906 26.136719 L 0.542969 42.730469 C 0.3125 42.960938 0.199219 43.257812 0.199219 43.546875 Z M 0.273438 13.1875 C 0.273438 13.839844 0.769531 14.335938 1.414062 14.335938 C 2.0625 14.335938 2.554688 13.839844 2.554688 13.1875 L 2.554688 4.449219 L 42.511719 44.378906 C 42.964844 44.835938 43.6875 44.835938 44.105469 44.378906 C 44.335938 44.148438 44.449219 43.878906 44.449219 43.574219 C 44.449219 43.265625 44.335938 42.996094 44.105469 42.765625 L 4.191406 2.839844 L 12.820312 2.839844 C 13.464844 2.839844 13.960938 2.34375 13.960938 1.691406 C 13.960938 1.039062 13.464844 0.542969 12.820312 0.542969 L 1.414062 0.542969 C 0.769531 0.542969 0.273438 1.039062 0.273438 1.691406 Z M 25.707031 17.835938 C 25.707031 18.128906 25.820312 18.417969 26.050781 18.628906 C 26.507812 19.085938 27.226562 19.085938 27.644531 18.628906 L 42.09375 4.066406 L 42.09375 12.804688 C 42.09375 13.453125 42.585938 13.953125 43.234375 13.953125 C 43.878906 13.953125 44.375 13.453125 44.375 12.804688 L 44.375 1.308594 C 44.375 0.65625 43.878906 0.160156 43.234375 0.160156 L 31.828125 0.160156 C 31.183594 0.160156 30.6875 0.65625 30.6875 1.308594 C 30.6875 1.960938 31.183594 2.457031 31.828125 2.457031 L 40.496094 2.457031 L 26.050781 17.019531 C 25.820312 17.25 25.707031 17.542969 25.707031 17.835938 Z M 25.707031 17.835938 "/>
</g>
</g>
</svg>
