<?xml version="1.0" encoding="UTF-8"?><svg xmlns="http://www.w3.org/2000/svg" xmlns:xlink="http://www.w3.org/1999/xlink" contentScriptType="text/ecmascript" width="810" zoomAndPan="magnify" contentStyleType="text/css" viewBox="0 0 810 809.999993" height="809.999993" preserveAspectRatio="xMidYMid meet" version="1.0"><defs><clipPath id="clip-0"><path d="M 0 136.179688 L 810 136.179688 L 810 606 L 0 606 Z M 0 136.179688 " clip-rule="nonzero"/></clipPath><clipPath id="clip-1"><path d="M 406 370 L 810 370 L 810 673.929688 L 406 673.929688 Z M 406 370 " clip-rule="nonzero"/></clipPath><clipPath id="clip-2"><path d="M 0 370 L 407 370 L 407 673.929688 L 0 673.929688 Z M 0 370 " clip-rule="nonzero"/></clipPath></defs><g clip-path="url(#clip-0)"><path fill="rgb(85.099792%, 85.099792%, 85.099792%)" d="M 691.882812 426.25 L 644.300781 453.910156 L 501.539062 536.894531 L 453.957031 564.550781 L 406.363281 592.21875 L 23.171875 370.933594 L 403.875 149.644531 L 451.769531 177.308594 L 499.671875 204.96875 L 547.570312 232.625 L 595.464844 260.285156 L 643.367188 287.949219 L 739.160156 343.269531 L 787.0625 370.933594 L 739.476562 398.59375 L 691.882812 426.25 M 403.800781 136.339844 L 0.207031 370.933594 L 406.4375 605.523438 L 810.03125 370.925781 L 403.800781 136.339844 " fill-opacity="1" fill-rule="nonzero"/></g><path fill="rgb(89.408875%, 89.408875%, 89.408875%)" d="M 739.167969 343.269531 L 691.578125 370.933594 L 643.675781 343.265625 L 596.089844 370.933594 L 548.191406 343.269531 L 500.605469 370.933594 L 452.703125 343.269531 L 405.121094 370.925781 L 357.222656 343.269531 L 309.628906 370.933594 L 261.734375 343.269531 L 214.148438 370.933594 L 166.242188 343.269531 L 118.664062 370.933594 L 70.765625 343.269531 L 23.171875 370.933594 L 71.070312 398.59375 L 118.664062 370.933594 L 166.566406 398.59375 L 214.148438 370.933594 L 262.042969 398.59375 L 309.628906 370.933594 L 357.527344 398.59375 L 405.121094 370.925781 L 453.023438 398.59375 L 500.605469 370.933594 L 548.5 398.585938 L 596.089844 370.933594 L 643.992188 398.59375 L 691.578125 370.933594 L 739.476562 398.585938 L 691.886719 426.25 L 643.992188 398.59375 L 596.40625 426.25 L 548.5 398.585938 L 500.914062 426.25 L 453.023438 398.59375 L 405.429688 426.253906 L 357.527344 398.59375 L 309.945312 426.25 L 262.042969 398.59375 L 214.460938 426.25 L 166.566406 398.59375 L 118.972656 426.253906 L 166.867188 453.917969 L 214.460938 426.25 L 262.359375 453.910156 L 309.945312 426.25 L 357.84375 453.910156 L 405.429688 426.253906 L 453.328125 453.910156 L 500.914062 426.25 L 548.816406 453.910156 L 596.40625 426.25 L 644.300781 453.910156 L 596.714844 481.570312 L 548.816406 453.910156 L 501.230469 481.570312 L 453.328125 453.910156 L 405.738281 481.570312 L 357.84375 453.910156 L 310.261719 481.570312 L 262.359375 453.910156 L 214.765625 481.570312 L 262.667969 509.234375 L 310.261719 481.570312 L 358.15625 509.234375 L 405.738281 481.570312 L 453.640625 509.234375 L 501.230469 481.570312 L 549.125 509.234375 L 501.539062 536.894531 L 453.640625 509.234375 L 406.058594 536.894531 L 358.15625 509.234375 L 310.5625 536.894531 L 358.464844 564.554688 L 406.058594 536.894531 L 453.957031 564.550781 L 406.363281 592.21875 L 23.171875 370.933594 L 403.875 149.644531 L 451.769531 177.308594 L 404.1875 204.964844 L 356.292969 177.308594 L 308.699219 204.96875 L 356.59375 232.628906 L 404.1875 204.964844 L 452.085938 232.625 L 499.671875 204.96875 L 547.570312 232.625 L 499.980469 260.285156 L 452.085938 232.625 L 404.496094 260.292969 L 356.59375 232.628906 L 309.007812 260.285156 L 261.109375 232.628906 L 213.527344 260.285156 L 261.425781 287.949219 L 309.007812 260.285156 L 356.910156 287.949219 L 404.496094 260.292969 L 452.394531 287.949219 L 499.980469 260.285156 L 547.878906 287.949219 L 595.464844 260.285156 L 643.367188 287.949219 L 595.78125 315.609375 L 547.878906 287.949219 L 500.289062 315.609375 L 452.394531 287.949219 L 404.804688 315.609375 L 356.910156 287.949219 L 309.328125 315.609375 L 261.425781 287.949219 L 213.832031 315.609375 L 165.933594 287.949219 L 118.347656 315.609375 L 166.242188 343.269531 L 213.832031 315.609375 L 261.734375 343.269531 L 309.328125 315.609375 L 357.222656 343.269531 L 404.804688 315.609375 L 452.703125 343.269531 L 500.289062 315.609375 L 548.191406 343.269531 L 595.78125 315.609375 L 643.675781 343.265625 L 691.265625 315.609375 L 739.167969 343.269531 " fill-opacity="1" fill-rule="nonzero"/><path fill="rgb(55.288696%, 47.44873%, 43.919373%)" d="M 499.671875 204.96875 L 452.085938 232.625 L 404.1875 204.964844 L 451.769531 177.308594 L 499.671875 204.96875 " fill-opacity="1" fill-rule="nonzero"/><path fill="rgb(55.288696%, 47.44873%, 43.919373%)" d="M 404.1875 204.964844 L 356.59375 232.628906 L 308.699219 204.96875 L 356.292969 177.308594 L 404.1875 204.964844 " fill-opacity="1" fill-rule="nonzero"/><path fill="rgb(55.288696%, 47.44873%, 43.919373%)" d="M 595.464844 260.285156 L 547.878906 287.949219 L 499.980469 260.285156 L 547.570312 232.625 L 595.464844 260.285156 " fill-opacity="1" fill-rule="nonzero"/><path fill="rgb(55.288696%, 47.44873%, 43.919373%)" d="M 691.265625 315.609375 L 643.675781 343.265625 L 595.78125 315.609375 L 643.367188 287.949219 L 691.265625 315.609375 " fill-opacity="1" fill-rule="nonzero"/><path fill="rgb(55.288696%, 47.44873%, 43.919373%)" d="M 595.78125 315.609375 L 548.191406 343.269531 L 500.289062 315.609375 L 547.878906 287.949219 L 595.78125 315.609375 " fill-opacity="1" fill-rule="nonzero"/><path fill="rgb(55.288696%, 47.44873%, 43.919373%)" d="M 500.289062 315.609375 L 452.703125 343.269531 L 404.804688 315.609375 L 452.394531 287.949219 L 500.289062 315.609375 " fill-opacity="1" fill-rule="nonzero"/><path fill="rgb(55.288696%, 47.44873%, 43.919373%)" d="M 404.804688 315.609375 L 357.222656 343.269531 L 309.328125 315.609375 L 356.910156 287.949219 L 404.804688 315.609375 " fill-opacity="1" fill-rule="nonzero"/><path fill="rgb(55.288696%, 47.44873%, 43.919373%)" d="M 404.496094 260.292969 L 356.910156 287.949219 L 309.007812 260.285156 L 356.59375 232.628906 L 404.496094 260.292969 " fill-opacity="1" fill-rule="nonzero"/><path fill="rgb(55.288696%, 47.44873%, 43.919373%)" d="M 309.328125 315.609375 L 261.734375 343.269531 L 213.832031 315.609375 L 261.425781 287.949219 L 309.328125 315.609375 " fill-opacity="1" fill-rule="nonzero"/><path fill="rgb(55.288696%, 47.44873%, 43.919373%)" d="M 787.0625 370.933594 L 739.476562 398.585938 L 691.578125 370.933594 L 739.167969 343.269531 L 787.0625 370.933594 " fill-opacity="1" fill-rule="nonzero"/><path fill="rgb(55.288696%, 47.44873%, 43.919373%)" d="M 405.121094 370.925781 L 357.527344 398.59375 L 309.628906 370.933594 L 357.222656 343.269531 L 405.121094 370.925781 " fill-opacity="1" fill-rule="nonzero"/><path fill="rgb(55.288696%, 47.44873%, 43.919373%)" d="M 309.628906 370.933594 L 262.042969 398.59375 L 214.148438 370.933594 L 261.734375 343.269531 L 309.628906 370.933594 " fill-opacity="1" fill-rule="nonzero"/><path fill="rgb(55.288696%, 47.44873%, 43.919373%)" d="M 214.148438 370.933594 L 166.566406 398.59375 L 118.664062 370.933594 L 166.242188 343.269531 L 214.148438 370.933594 " fill-opacity="1" fill-rule="nonzero"/><path fill="rgb(55.288696%, 47.44873%, 43.919373%)" d="M 691.578125 370.933594 L 643.992188 398.59375 L 596.089844 370.933594 L 643.675781 343.265625 L 691.578125 370.933594 " fill-opacity="1" fill-rule="nonzero"/><path fill="rgb(55.288696%, 47.44873%, 43.919373%)" d="M 596.40625 426.25 L 548.816406 453.910156 L 500.914062 426.25 L 548.5 398.585938 L 596.40625 426.25 " fill-opacity="1" fill-rule="nonzero"/><path fill="rgb(55.288696%, 47.44873%, 43.919373%)" d="M 405.429688 426.253906 L 357.84375 453.910156 L 309.945312 426.25 L 357.527344 398.59375 L 405.429688 426.253906 " fill-opacity="1" fill-rule="nonzero"/><path fill="rgb(55.288696%, 47.44873%, 43.919373%)" d="M 309.945312 426.25 L 262.359375 453.910156 L 214.460938 426.25 L 262.042969 398.59375 L 309.945312 426.25 " fill-opacity="1" fill-rule="nonzero"/><path fill="rgb(55.288696%, 47.44873%, 43.919373%)" d="M 213.832031 315.609375 L 166.242188 343.269531 L 118.347656 315.609375 L 165.933594 287.949219 L 213.832031 315.609375 " fill-opacity="1" fill-rule="nonzero"/><path fill="rgb(55.288696%, 47.44873%, 43.919373%)" d="M 310.261719 481.570312 L 262.667969 509.234375 L 214.765625 481.570312 L 262.359375 453.910156 L 310.261719 481.570312 " fill-opacity="1" fill-rule="nonzero"/><path fill="rgb(55.288696%, 47.44873%, 43.919373%)" d="M 214.460938 426.25 L 166.867188 453.917969 L 118.972656 426.253906 L 166.566406 398.59375 L 214.460938 426.25 " fill-opacity="1" fill-rule="nonzero"/><path fill="rgb(55.288696%, 47.44873%, 43.919373%)" d="M 596.714844 481.570312 L 549.125 509.234375 L 501.230469 481.570312 L 548.816406 453.910156 L 596.714844 481.570312 " fill-opacity="1" fill-rule="nonzero"/><path fill="rgb(55.288696%, 47.44873%, 43.919373%)" d="M 501.230469 481.570312 L 453.640625 509.234375 L 405.738281 481.570312 L 453.328125 453.910156 L 501.230469 481.570312 " fill-opacity="1" fill-rule="nonzero"/><path fill="rgb(55.288696%, 47.44873%, 43.919373%)" d="M 405.738281 481.570312 L 358.15625 509.234375 L 310.261719 481.570312 L 357.84375 453.910156 L 405.738281 481.570312 " fill-opacity="1" fill-rule="nonzero"/><path fill="rgb(55.288696%, 47.44873%, 43.919373%)" d="M 501.539062 536.894531 L 453.957031 564.550781 L 406.058594 536.894531 L 453.640625 509.234375 L 501.539062 536.894531 " fill-opacity="1" fill-rule="nonzero"/><path fill="rgb(55.288696%, 47.44873%, 43.919373%)" d="M 406.058594 536.894531 L 358.464844 564.554688 L 310.5625 536.894531 L 358.15625 509.234375 L 406.058594 536.894531 " fill-opacity="1" fill-rule="nonzero"/><path fill="rgb(55.288696%, 47.44873%, 43.919373%)" d="M 499.980469 260.285156 L 452.394531 287.949219 L 404.496094 260.292969 L 452.085938 232.625 L 499.980469 260.285156 " fill-opacity="1" fill-rule="nonzero"/><path fill="rgb(55.288696%, 47.44873%, 43.919373%)" d="M 309.007812 260.285156 L 261.425781 287.949219 L 213.527344 260.285156 L 261.109375 232.628906 L 309.007812 260.285156 " fill-opacity="1" fill-rule="nonzero"/><path fill="rgb(55.288696%, 47.44873%, 43.919373%)" d="M 596.089844 370.933594 L 548.5 398.585938 L 500.605469 370.933594 L 548.191406 343.269531 L 596.089844 370.933594 " fill-opacity="1" fill-rule="nonzero"/><path fill="rgb(55.288696%, 47.44873%, 43.919373%)" d="M 500.605469 370.933594 L 453.023438 398.59375 L 405.121094 370.925781 L 452.703125 343.269531 L 500.605469 370.933594 " fill-opacity="1" fill-rule="nonzero"/><path fill="rgb(55.288696%, 47.44873%, 43.919373%)" d="M 118.664062 370.933594 L 71.070312 398.59375 L 23.171875 370.933594 L 70.765625 343.269531 L 118.664062 370.933594 " fill-opacity="1" fill-rule="nonzero"/><path fill="rgb(55.288696%, 47.44873%, 43.919373%)" d="M 691.886719 426.25 L 644.300781 453.910156 L 596.40625 426.25 L 643.992188 398.59375 L 691.886719 426.25 " fill-opacity="1" fill-rule="nonzero"/><path fill="rgb(55.288696%, 47.44873%, 43.919373%)" d="M 500.914062 426.25 L 453.328125 453.910156 L 405.429688 426.253906 L 453.023438 398.59375 L 500.914062 426.25 " fill-opacity="1" fill-rule="nonzero"/><g clip-path="url(#clip-1)"><path fill="rgb(45.098877%, 38.42926%, 35.688782%)" d="M 810.03125 370.925781 L 809.839844 439.207031 L 406.238281 673.796875 L 406.4375 605.523438 L 810.03125 370.925781 " fill-opacity="1" fill-rule="nonzero"/></g><g clip-path="url(#clip-2)"><path fill="rgb(50.19989%, 42.749023%, 39.608765%)" d="M 406.4375 605.523438 L 406.238281 673.796875 L 0.015625 439.214844 L 0.207031 370.933594 L 406.4375 605.523438 " fill-opacity="1" fill-rule="nonzero"/></g></svg>