<?xml version="1.0" encoding="UTF-8"?>
<svg class="" enable-background="new 0 0 512 512" version="1.1" viewBox="0 0 512 512" xml:space="preserve" xmlns="http://www.w3.org/2000/svg"><g fill=""><path class="" d="m276.23 211.88a6 6 0 0 1-3.487-10.887l16.259-11.583a6 6 0 0 1 6.963 9.774l-16.263 11.583a5.974 5.974 0 0 1-3.472 1.113z" data-original="#000000" xmlns="http://www.w3.org/2000/svg"/><path class="" d="m345.27 242.98a6 6 0 0 1-5.959-5.369l-2.1-19.852a6 6 0 1 1 11.934-1.264l2.1 19.853a6.006 6.006 0 0 1-5.975 6.632z" data-original="#000000" xmlns="http://www.w3.org/2000/svg"/><path class="" d="m287.46 144.93a5.972 5.972 0 0 1-2.542-0.569l-18.076-8.472a6 6 0 1 1 5.093-10.865l18.076 8.472a6 6 0 0 1-2.551 11.434z" data-original="#000000" xmlns="http://www.w3.org/2000/svg"/><path class="" d="m425.937 43.57a30.34 30.34 0 0 0 -3.6-23.4 31.446 31.446 0 0 0 -42.306-10.37 30.344 30.344 0 0 0 -14.007 19.085 31.272 31.272 0 0 0 3.564 23.553 8.649 8.649 0 0 1 .419.775 19.889 19.889 0 0 0 -11.866 32.387c-3.569 10.971-7.906 18.2-12.109 25.193-3.849 6.408-7.8 13.012-10.953 22.066a21.482 21.482 0 0 0 -20.523 16.394 18.014 18.014 0 0 0 13.218 21.791l66.371 16.266a18.233 18.233 0 0 0 4.33.525 18.025 18.025 0 0 0 17.464-13.735 21.5 21.5 0 0 0 -10.616-24.027c1.391-9.488.939-17.168.489-24.63-.491-8.142-1-16.548.908-27.914a20.255 20.255 0 0 0 2.595-1.324 19.97 19.97 0 0 0 1.842-32.9 8.659 8.659 0 0 1 .73-.495 31.277 31.277 0 0 0 14.05-19.24zm-48.257-11.826a18.435 18.435 0 0 1 8.471-11.619 19.447 19.447 0 0 1 25.991 6.37 18.431 18.431 0 0 1 2.139 14.219 19.187 19.187 0 0 1 -8.6 11.821 20.933 20.933 0 0 0 -6.4 6.082l-16.58-4.063a21.033 21.033 0 0 0 -2.87-8.352 19.191 19.191 0 0 1 -2.151-14.458zm-11.9 39.237a7.994 7.994 0 0 1 7.741-6.087 8.085 8.085 0 0 1 1.916.232l25.42 6.229a7.985 7.985 0 0 1 -3.8 15.512l-25.421-6.23a7.986 7.986 0 0 1 -5.855-9.656zm2.781 21.246c.074.019.144.047.218.065l25.421 6.229c.074.019.149.031.224.048-1.571 11.217-1.054 19.855-.587 27.593.4 6.559.758 12.858-.14 20.3l-46.637-11.429c2.645-7.016 5.879-12.433 9.262-18.066 3.989-6.645 8.442-14.067 12.236-24.74zm35.726 79.012a6.012 6.012 0 0 1 -7.287 4.412l-66.37-16.264a6.023 6.023 0 0 1 -4.592-5.724 5.935 5.935 0 0 1 .173-1.556 9.538 9.538 0 0 1 9.254-7.275 9.633 9.633 0 0 1 2.286.277l59.536 14.59a9.544 9.544 0 0 1 7 11.54z" data-original="#000000" xmlns="http://www.w3.org/2000/svg"/><path class="" d="m102.04 124.05a17.2 17.2 0 0 0 0-34.39 17.2 17.2 0 0 0 0 34.39zm-1.465-22.177a5.194 5.194 0 1 1-3.515 6.449 5.205 5.205 0 0 1 3.515-6.449z" data-original="#000000" xmlns="http://www.w3.org/2000/svg"/><path class="" d="m126.55 182.03a4.5 4.5 0 1 0-5.584-3.044 4.5 4.5 0 0 0 5.584 3.044z" data-original="#000000" xmlns="http://www.w3.org/2000/svg"/><path class="" d="m153.73 174.03a4.5 4.5 0 1 0-5.584-3.044 4.5 4.5 0 0 0 5.584 3.044z" data-original="#000000" xmlns="http://www.w3.org/2000/svg"/><path class="" d="m102.41 184.45a4.5 4.5 0 1 0-3.044 5.585 4.5 4.5 0 0 0 3.044-5.585z" data-original="#000000" xmlns="http://www.w3.org/2000/svg"/><path class="" d="m293.221 429.623a16.347 16.347 0 0 0 -9.106-10.345 27.551 27.551 0 0 0 .3-16.539 34.058 34.058 0 0 0 -28.08-24.094 15.623 15.623 0 0 0 -16.909-16.213c-7.353-20.843-16.08-33.634-25.25-47.065-10.681-15.642-22.607-33.139-34.344-67.552a18.216 18.216 0 0 0 -2.443-33.3 16.169 16.169 0 0 0 -.549-6.312 16.423 16.423 0 0 0 -8.528-10.055 64.978 64.978 0 0 1 6.753-26.753c4.273-8.68 4.519-15.052 4.781-21.879.078-2.023 0-5.31-.058-7.952l-.037-1.7c-.139-7.343-6.042-13.759-13.161-14.3a14.322 14.322 0 0 0 -13.474 6.824l-.034-.026c-12.992-9.475-28.914-12.416-43.682-8.068s-26.558 15.446-32.343 30.45l-.014.039a14.321 14.321 0 0 0 -15.025 1.565c-5.687 4.311-7.173 12.9-3.31 19.151l.9 1.462c1.377 2.25 3.093 5.05 4.3 6.766 3.874 5.531 7.533 10.755 15.83 15.736a64.929 64.929 0 0 1 20.167 18.829 16.3 16.3 0 0 0 -1.715 13.071 16.1 16.1 0 0 0 2.81 5.437 18.182 18.182 0 0 0 16.138 29.525c8.766 35.249 8.222 56.4 7.721 75.329-.43 16.25-.817 31.743 4.292 53.233a15.555 15.555 0 0 0 -5.441 22.775 34 34 0 0 0 -10.547 35.486 27.549 27.549 0 0 0 9.209 13.74 16.371 16.371 0 0 0 18.3 24.718l141.463-41.644a16.384 16.384 0 0 0 11.09-20.343zm-20.322-23.5a15.648 15.648 0 0 1 -1.27 11.919c-.195.359-.413.7-.633 1.039l-137.687 40.539a15.566 15.566 0 0 1 -8.633-9.857 22 22 0 0 1 14.9-27.337l105.986-31.2a22 22 0 0 1 27.336 14.9zm-45.132-40.6-87.167 25.669c-4.517-19.435-4.159-33.413-3.741-49.215.523-19.766 1.1-41.856-8.111-78.745l39.669-11.678c12.244 36 24.7 54.249 35.847 70.58 8.906 13.048 16.772 24.631 23.503 43.396zm-116.38-135.21a4.353 4.353 0 0 1 1.256-7.759l47.264-13.914a4.361 4.361 0 0 1 5.417 2.953 4.318 4.318 0 0 1 -.172 2.892zm39.176-84.386c-.066 1.063-.139 2.226-.221 3.5a.774.774 0 0 1 -.553.69.77.77 0 0 1 -.981-.634l-.2-1.454a14.379 14.379 0 0 0 -1.286-4.954 41.731 41.731 0 0 1 3.241 2.852zm-37.778-10.127a36.448 36.448 0 0 1 17.864-.653c-.162.041-.326.066-.487.114a14.445 14.445 0 0 0 -10.342 14.117c0 .111.008.222.016.333l.611 8.075a1.168 1.168 0 0 1 -2.19.646l-3.861-7.12c-.053-.1-.109-.194-.167-.289a14.449 14.449 0 0 0 -16.341-6.261c-.162.047-.313.115-.473.168a36.444 36.444 0 0 1 15.37-9.13zm-22.864 31.658a.738.738 0 0 1 -.484.423.772.772 0 0 1 -.838-.28q-1.137-1.536-2.082-2.822a41.455 41.455 0 0 1 1.178-4.153 14.372 14.372 0 0 0 1.6 4.859l.619 1.329a.739.739 0 0 1 .007.644zm-4.021 21.715c-6.109-3.668-8.654-7.3-12.222-12.4-.948-1.352-2.624-4.089-3.848-6.087l-.924-1.5a2.785 2.785 0 0 1 .354-3.279 2.526 2.526 0 0 1 1.543-.56 2.312 2.312 0 0 1 .369.029 2.773 2.773 0 0 1 1.816 1.178c.987 1.423 2.994 4.177 5.963 8.187a12.771 12.771 0 0 0 21.839-13l-.709-1.522q-.1-.224-.225-.436a2.415 2.415 0 0 1 1.417-3.512 2.42 2.42 0 0 1 2.674.952l3.758 6.927a13.167 13.167 0 0 0 24.7-7.272l-.595-7.859a2.419 2.419 0 0 1 1.733-2.249 2.415 2.415 0 0 1 3.093 2.185c.009.163.025.325.047.487l.228 1.663a12.771 12.771 0 0 0 25.4-.91c.324-4.995.518-8.4.576-10.112a2.774 2.774 0 0 1 .888-1.973 2.463 2.463 0 0 1 1.9-.59 2.824 2.824 0 0 1 2.073 2.562l.038 1.754c.054 2.347.128 5.56.061 7.295-.236 6.135-.407 10.568-3.554 16.959a79.042 79.042 0 0 0 -8 31.1l-46.833 13.792a79.039 79.039 0 0 0 -23.56-21.809zm23.33 60.789a6.249 6.249 0 0 1 4.224-7.749l56.092-16.513a6.241 6.241 0 1 1 3.525 11.973l-56.088 16.512a6.246 6.246 0 0 1 -7.749-4.223zm23.77 159.767a3.636 3.636 0 0 1 2.462-4.517l104.229-30.684a3.612 3.612 0 0 1 4.444 4.676c-.655.152-1.31.317-1.963.51l-105.986 31.2c-.652.192-1.292.408-1.926.636a3.569 3.569 0 0 1 -1.26-1.821zm145.74 28.725-141.46 41.646a4.383 4.383 0 0 1 -2.476-8.41l141.463-41.644a4.383 4.383 0 1 1 2.475 8.409z" data-original="#000000" xmlns="http://www.w3.org/2000/svg"/></g></svg>
