<svg id="Capa_1" enable-background="new 0 0 512 512" height="512" viewBox="0 0 512 512" width="512" xmlns="http://www.w3.org/2000/svg"><g><g><path d="m480 135.03-48 44.03 48 35.97v80l-96.01 87.29c-32.05-1.92-64.02-7.12-95.99-12.32l-48-27.71-47.99 15.39c-31.89-1.9-63.87-.55-96.01 7.29l-16-80 56-42.97-72-37.03 16-80 112.01-87.29c32.05 1.92 64.02 7.12 95.99 12.32l48 30.94 47.99-18.62c31.9 1.9 63.87.55 96.01-7.29z" fill="#f6f9f9"/><path d="m480 135.03-48 44.03 48 35.97v80l-96.01 87.29c-32.05-1.92-64.02-7.12-95.99-12.32v-320l48 30.94 47.99-18.62c31.9 1.9 63.87.55 96.01-7.29z" fill="#e2dff5"/><path d="m383.992 142.316v80c31.894 1.905 63.869.556 96.008-7.288 0-26.667 0-53.333 0-80-32.139 7.844-64.115 9.193-96.008 7.288z" fill="#493463"/><path d="m383.992 142.316c0-26.667 0-53.333 0-80-32.053-1.914-64.022-7.114-95.992-12.316v80c31.97 5.202 63.939 10.402 95.992 12.316z" fill="#493463"/><path d="m288 130c-31.97-5.202-63.939-10.402-95.991-12.316v80c32.052 1.914 64.022 7.114 95.991 12.316 0-26.667 0-53.333 0-80z" fill="#5f4380"/><path d="m288 290c31.969 5.201 63.939 10.402 95.991 12.316 0-26.667 0-53.333 0-80-32.052-1.914-64.021-7.114-95.991-12.316z" fill="#493463"/><path d="m192.009 117.684c0-26.667 0-53.333 0-80-31.894-1.905-63.87-.556-96.009 7.288l-16 80h16c32.139-7.844 64.115-9.193 96.009-7.288z" fill="#5f4380"/><path d="m383.992 302.316v80c31.894 1.905 63.869.556 96.008-7.288 0-26.667 0-53.333 0-80-32.139 7.844-64.115 9.193-96.008 7.288z" fill="#493463"/><g fill="#5f4380"><path d="m192.009 277.684c0-26.667 0-53.333 0-80-31.894-1.905-63.87-.556-96.009 7.288h-32l16 80h16c32.139-7.844 64.115-9.193 96.009-7.288z"/><path d="m192.009 277.684v80c32.052 1.914 64.022 7.114 95.991 12.316 0-26.667 0-53.333 0-80-31.969-5.202-63.939-10.402-95.991-12.316z"/></g></g><path d="m32 0h64v512h-64z" fill="#ff8652"/><path d="m64 0h32v512h-32z" fill="#ff3d58"/></g></svg>