<svg height="512" viewBox="0 0 64 64" width="512" xmlns="http://www.w3.org/2000/svg"><g id="flat"><path d="m8 8h48v48h-48z" fill="#143441"/><path d="m57 60h-50l-4-4v-48l4-4h50l4 4v48z" fill="#d3843d"/><path d="m8 8h8v8h-8z" fill="#143441"/><path d="m16 8h8v8h-8z" fill="#f4f4e6"/><path d="m24 8h8v8h-8z" fill="#143441"/><path d="m32 8h8v8h-8z" fill="#f4f4e6"/><path d="m40 8h8v8h-8z" fill="#143441"/><path d="m48 8h8v8h-8z" fill="#f4f4e6"/><path d="m8 16h8v8h-8z" fill="#f4f4e6"/><path d="m16 16h8v8h-8z" fill="#143441"/><path d="m24 16h8v8h-8z" fill="#f4f4e6"/><path d="m32 16h8v8h-8z" fill="#143441"/><path d="m40 16h8v8h-8z" fill="#f4f4e6"/><path d="m48 16h8v8h-8z" fill="#143441"/><path d="m8 24h8v8h-8z" fill="#143441"/><path d="m16 24h8v8h-8z" fill="#f4f4e6"/><path d="m24 24h8v8h-8z" fill="#143441"/><path d="m32 24h8v8h-8z" fill="#f4f4e6"/><path d="m40 24h8v8h-8z" fill="#143441"/><path d="m48 24h8v8h-8z" fill="#f4f4e6"/><path d="m8 32h8v8h-8z" fill="#f4f4e6"/><path d="m16 32h8v8h-8z" fill="#143441"/><path d="m24 32h8v8h-8z" fill="#f4f4e6"/><path d="m32 32h8v8h-8z" fill="#143441"/><path d="m40 32h8v8h-8z" fill="#f4f4e6"/><path d="m48 32h8v8h-8z" fill="#143441"/><path d="m8 40h8v8h-8z" fill="#143441"/><path d="m16 40h8v8h-8z" fill="#f4f4e6"/><path d="m24 40h8v8h-8z" fill="#143441"/><path d="m32 40h8v8h-8z" fill="#f4f4e6"/><path d="m40 40h8v8h-8z" fill="#143441"/><path d="m48 40h8v8h-8z" fill="#f4f4e6"/><path d="m8 48h8v8h-8z" fill="#f4f4e6"/><path d="m16 48h8v8h-8z" fill="#143441"/><path d="m24 48h8v8h-8z" fill="#f4f4e6"/><path d="m32 48h8v8h-8z" fill="#143441"/><path d="m40 48h8v8h-8z" fill="#f4f4e6"/><path d="m48 48h8v8h-8z" fill="#143441"/></g></svg>