<svg id="Layer_1" enable-background="new 0 0 465.47 465.47" height="512" viewBox="0 0 465.47 465.47" width="512" xmlns="http://www.w3.org/2000/svg"><g><path d="m465.47 65.275c-80.961 226.195-61.054 170.628-118.06 329.88-46.74 9.255-232.264 45.997-301.09 59.63l-46.32-54.59c336.859-313.022 28.997-26.966 419.14-389.51z" fill="#ede3e7"/><path d="m329.57 260.975-28.48 79.59-74.38 14.73 29.39-81.23z" fill="#fbf5f7"/><path d="m222.58 419.875c-114.402 22.66-94.3 18.679-132.59 26.26-15.57-11.51-30.64-26.5-40.95-45.31-29.33-53.55 45.34-43.12 90.67-50.3 32.91-5.22 66.53 42.05 82.87 69.35z" fill="#dfd1d7"/><path d="m347.41 395.155c-89.213 17.665-67.503 13.366-107.86 21.36-29.22-26.21-66.84-61.22-66.84-61.22l128.38-14.73z" fill="#dfd1d7"/><path d="m239.98 120.355-29.9 84-74.86 13.74 29.76-83.52z" fill="#fbf5f7"/><path d="m390.09 91.875-30.43 85.03-73.27 13.44 30.61-84.6z" fill="#fbf5f7"/><path d="m151.03 370.275c.102 0 .673-.121-75.38 14.94 21.99-61.681 25.446-71.296 30.07-84.37 2.324-.411 72.598-12.935 74.76-13.32z" fill="#fbf5f7"/><g fill="#52528c"><path d="m419.14 10.685-29.05 81.19-73.09 13.87c.04-.116-.773 2.139 29.73-82.17z"/><path d="m269.54 37.325c-.101.101.208-.604-29.56 83.03l-75 14.22 29.93-83.95c.1 0-4.297.753 74.63-13.3z"/><path d="m359.66 176.905-30.09 84.07-73.47 13.09 30.29-83.72z"/><path d="m210.08 204.355c-.502 1.428-29.103 81.773-29.6 83.17-20.299 3.622-70.797 12.619-74.76 13.32l29.5-82.75c25.366-4.651 9.921-1.816 74.86-13.74z"/></g><path d="m194.91 50.625-29.93 83.95c-17.704 3.358-46.858 8.89-76 14.42l30.06-84.87c79-14.067 75.764-13.5 75.87-13.5z" fill="#fbf5f7"/><path d="m164.98 134.575c-19.504 54.721-12.413 34.823-29.76 83.52l-75.63 13.88 29.39-82.98c29.249-5.55 58.304-11.063 76-14.42z" fill="#52528c"/><path d="m135.22 218.095-29.5 82.75-75.27 13.41c-.101 0-.37 1.016 29.14-82.28z" fill="#fbf5f7"/><path d="m135.22 218.095-29.5 82.75-75.27 13.41c-.101 0-.37 1.016 29.14-82.28z" fill="#ede3e7"/><path d="m105.72 300.845c-3.058 8.645-10.23 28.704-30.07 84.37l-75.65 14.98c28.631-80.845 22.477-63.473 30.44-85.94.1 0-.947.171 75.28-13.41z" fill="#52528c"/><path d="m152.96 136.855-63.98 12.14 30.06-84.87 44.87-7.99c6.72 13.12 19.38 47.58-10.95 80.72z" fill="#ede3e7"/><path d="m151.03 209.705s1.54 1.67 3.77 4.8l-19.58 3.59 14.27-40.06c5.73 5.46 11.15 15.57 1.54 31.67z" fill="#ede3e7"/><path d="m162.49 290.735c-8.96 20.2-28.25 42.2-69.75 46.53 9.279-26.02 9.123-25.516 12.98-36.42 2.302-.407 54.779-9.755 56.77-10.11z" fill="#ede3e7"/><path d="m162.49 290.735c-1.984.353-54.471 9.703-56.77 10.11l29.5-82.75 19.58-3.59c4.98 6.98 13.34 21.2 15.41 40.2 0 0 .61 17.23-7.72 36.03z" fill="#404077"/><path d="m139.71 148.995 2.24 23.93s3.83 1.58 7.54 5.11l-14.27 40.06-75.63 13.88 29.39-82.98 63.98-12.14c-3.73 4.08-8.12 8.14-13.25 12.14z" fill="#404077"/><path d="m346.73 23.575c-40.847 112.896-26.72 73.571-29.73 82.17-.277.046 3.437-.656-77.02 14.61l29.55-83.02c.101 0 4.359-.785 77.2-13.76z" fill="#fbf5f7"/><path d="m317 105.745-30.61 84.6c-.817.15-74.89 13.75-76.31 14.01l29.9-84c75.941-14.409 76.743-14.564 77.02-14.61z" fill="#52528c"/><path d="m286.39 190.345-30.29 83.72-75.62 13.46c.589-1.654 29.098-81.743 29.6-83.17 1.37-.251 75.435-13.849 76.31-14.01z" fill="#fbf5f7"/><path d="m256.1 274.065-29.39 81.23-75.67 14.99c-.1-.099-.356.963 29.44-82.76z" fill="#52528c"/><path d="m465.47 65.275-29.06 81.19-46.32-54.59 29.05-81.19z" fill="#404077"/><path d="m405.98 231.485c0 .1.186-.509-30.08 84.08l-46.33-54.59 30.09-84.07z" fill="#404077"/><path d="m121.97 439.795c.101 0 .707-.132-75.65 14.99l-46.32-54.59 75.65-14.98z" fill="#303060"/><path d="m273.02 409.885-74.47 14.74c-19.07-22.42-46.91-53.66-47.51-54.34 76.615-15.177 75.67-15.08 75.67-14.98z" fill="#303060"/><path d="m21.246 248.725c-.37 23.239 27.165 42.52 61.501 43.066s62.469-17.85 62.839-41.088l-3.611-15.294-116.632-1.855z" fill="#ffd5b8"/><ellipse cx="83.664" cy="234.481" fill="#ffebd4" rx="37.091" ry="58.323" transform="matrix(.016 -1 1 .016 -152.118 314.405)"/><path d="m129.44 206.125c-.23 14.07-16.29 25.54-37.31 27.72-2.74.28-5.56.41-8.45.36-25.02-.39-45.09-13.61-44.84-29.52.333-21.217 36.045-35.075 66.46-24.56 14.5 5.01 24.32 14.85 24.14 26z" fill="#fae26b"/><path d="m129.44 206.125c-.23 14.07-16.29 25.54-37.31 27.72 4.05-6.36-7.23-14.8-7.23-14.8s10.31-14.34 14.2-28.7c.93-3.44 3.11-7.24 6.2-10.22 14.5 5.01 24.32 14.85 24.14 26z" fill="#edd15a"/><path d="m113.3 208.105c-5.25 6.57-16 11.01-28.4 10.94-.17-.01-.35-.01-.52-.01-13.42-.21-24.83-5.65-29.45-13.18 0 0 15.38-34.77 7.73-86.67l45.71.73c-.22 2.32-.41 4.62-.56 6.88-3.33 47.25 5.49 81.31 5.49 81.31z" fill="#ffebd4"/><path d="m113.3 208.105c-5.25 6.57-16 11.01-28.4 10.94 15.38-42.98 6.81-89.34 6.81-89.34s6.78-2.51 16.1-2.91c-3.33 47.25 5.49 81.31 5.49 81.31z" fill="#ffd5b8"/><path d="m137.35 114.115c-.23 13.64-20 24.6-45.41 25.91-2.2.11-4.45.16-6.73.12-28.56-.46-51.52-12.85-51.28-27.67.23-14.83 23.58-26.49 52.14-26.03 13.85.22 26.38 3.25 35.59 8 9.78 5.04 15.81 12.03 15.69 19.67z" fill="#fae26b"/><path d="m137.35 114.115c-.23 13.64-20 24.6-45.41 25.91 7-9.32-2.96-15.78-2.96-15.78s14.23-4.04 28.04-24.44c1.45-2.14 3.01-3.91 4.64-5.36 9.78 5.04 15.81 12.03 15.69 19.67z" fill="#edd15a"/><circle cx="86.242" cy="76.278" fill="#ffebd4" r="48.049"/><path d="m79.377 91.038s-1.773-16.641 9.603-38.667-32.015-27.15-34.05 15.667 35.78 54 24.447 23z" fill="#fff6ee"/><path d="m105.72 300.845c-2.981 8.427-5.567 15.634-12.98 36.42-18.18 1.9-40.61.41-68.29-6.11l5.99-16.9c.1 0-.947.171 75.28-13.41z" fill="#404077"/></g></svg>