<svg width="512" height="512" viewBox="0 0 512 512" fill="none" xmlns="http://www.w3.org/2000/svg">
<path d="M362 151H150H30V391H482V151H362ZM165 136V91H180C188.291 91 195 84.291 195 76C195 67.709 188.291 61 180 61H120C111.709 61 105 67.709 105 76C105 84.291 111.709 91 120 91H135V136C135 144.291 141.709 151 150 151C158.291 151 165 144.291 165 136ZM377 136V91H392C400.291 91 407 84.291 407 76C407 67.709 400.291 61 392 61H332C323.709 61 317 67.709 317 76C317 84.291 323.709 91 332 91H347V136C347 144.291 353.709 151 362 151C370.291 151 377 144.291 377 136Z" fill="url(#paint0_linear_455_50)"/>
<path d="M467 121H45C20.099 121 0 141.099 0 166V376C0 395.499 12.599 412.299 30 418.299V436C30 444.399 36.599 451 45 451H105C113.401 451 120 444.399 120 436V421H392V436C392 444.399 398.599 451 407 451H467C475.401 451 482 444.399 482 436V418.299C499.401 412.299 512 395.499 512 376V166C512 141.099 491.901 121 467 121ZM150 361C100.499 361 60 320.499 60 271C60 221.499 100.499 181 150 181C199.501 181 240 221.499 240 271C240 320.499 199.501 361 150 361ZM362 361C312.499 361 272 320.499 272 271C272 221.499 312.499 181 362 181C411.501 181 452 221.499 452 271C452 320.499 411.501 361 362 361ZM165 264.789V256C165 247.709 158.291 241 150 241C141.709 241 135 247.709 135 256V271C135 274.891 136.59 278.809 139.413 281.624L154.395 296.606C160.254 302.465 169.746 302.465 175.606 296.606C181.465 290.747 181.465 281.254 175.606 275.395L165 264.789ZM377 264.789V256C377 247.709 370.291 241 362 241C353.709 241 347 247.709 347 256V271C347 274.891 348.59 278.809 351.413 281.624L366.395 296.606C372.254 302.465 381.746 302.465 387.606 296.606C393.465 290.747 393.465 281.254 387.606 275.395L377 264.789Z" fill="url(#paint1_linear_455_50)"/>
<defs>
<linearGradient id="paint0_linear_455_50" x1="256" y1="390.999" x2="256" y2="60.9987" gradientUnits="userSpaceOnUse">
<stop stop-color="#C3D7FF"/>
<stop offset="0.9973" stop-color="#F0F0FF"/>
</linearGradient>
<linearGradient id="paint1_linear_455_50" x1="256" y1="451" x2="256" y2="121" gradientUnits="userSpaceOnUse">
<stop stop-color="#5F44F8"/>
<stop offset="0.0001" stop-color="#6344F8"/>
<stop offset="1" stop-color="#9CA6FF"/>
</linearGradient>
</defs>
</svg>
