<svg id="Capa_1" enable-background="new 0 0 512 512" height="512" viewBox="0 0 512 512" width="512" xmlns="http://www.w3.org/2000/svg"><path d="m342.1 328.299h-172.2l41.1-147.299 30-30h30l30 30z" fill="#fdbf00"/><path d="m342.1 328.299h-86.1v-177.299h15l30 30z" fill="#ff9100"/><path d="m301 30v30h-30v45h-30v-45h-30v-30h30v-30h30v30z" fill="#fdbf00"/><path d="m271 105h-15v-105h15v30h30v30h-30z" fill="#ff9100"/><path d="m166.205 449.022c-29.561-20.42-50.625-40.693-64.38-61.978l25.195-16.289c11.426 17.666 30.337 35.698 56.235 53.569z" fill="#90cc1c"/><path d="m73.744 330.546c-9.272-25.928-14.106-52.852-14.385-80.01l30-.322c.249 23.833 4.497 47.461 12.627 70.254z" fill="#90cc1c"/><path d="m345.824 449.022-17.051-24.697c25.898-17.871 44.81-35.903 56.235-53.569l25.195 16.289c-13.754 21.284-34.818 41.558-64.379 61.977z" fill="#6b0"/><path d="m438.285 330.546-28.242-10.078c8.13-22.793 12.378-46.421 12.627-70.254l30 .322c-.278 27.158-5.112 54.082-14.385 80.01z" fill="#6b0"/><path d="m151 301h210v60h-210z" fill="#ffda2d"/><path d="m294.401 480.399c-3.301 1.5-27.001 14.399-31.201 16.5l-7.2 4.2-7.2-4.2c-4.501-2.399-27.9-15-30.901-16.5l14.401-26.4c2.999 1.5 20.7 11.1 23.699 12.9 2.999-1.8 20.7-11.4 24-12.9z" fill="#90cc1c"/><path d="m294.401 480.399c-3.301 1.5-27.001 14.399-31.201 16.5l-7.2 4.2v-34.2c2.999-1.8 20.7-11.4 24-12.9z" fill="#6b0"/><path d="m256 301h105v60h-105z" fill="#fdbf00"/><path d="m166 512c-39.39 0-69.888-34.56-71.177-35.995l-8.965-10.005 8.965-10.005c1.289-1.435 31.787-34.995 71.177-34.995s69.888 33.56 71.177 34.995l8.965 10.005-8.965 10.005c-1.289 1.435-31.787 35.995-71.177 35.995z" fill="#b9dd39"/><path d="m40.844 382.87c-32.285-22.602-39.013-67.588-39.247-69.492l-1.597-13.33 13.081-3.062c1.846-.425 47.069-10.444 79.369 12.144 32.271 22.603 37.998 67.588 38.232 69.492l1.597 13.33-13.081 3.062c-23.136 5.398-56.173 3.373-78.354-12.144z" fill="#b9dd39"/><path d="m82.87 268.627-12.861-3.896c-1.831-.557-46.146-14.004-62.787-49.702-16.641-35.713.879-77.534 1.641-79.307l5.273-12.349 12.861 3.896c1.831.557 46.146 14.004 62.787 49.702 16.641 35.713-.879 77.534-1.641 79.307z" fill="#b9dd39"/><g fill="#90cc1c"><path d="m346.029 512c-39.39 0-69.888-34.56-71.177-35.995l-8.964-10.005 8.965-10.005c1.289-1.435 31.787-34.995 71.176-34.995s69.888 33.56 71.177 34.995l8.965 10.005-8.965 10.005c-1.289 1.435-31.787 35.995-71.177 35.995z"/><path d="m392.802 395.014-13.081-3.062 1.597-13.33c.234-1.904 5.962-46.89 38.218-69.492 32.314-22.544 77.538-12.554 79.384-12.144l13.08 3.062-1.597 13.33c-.234 1.904-6.977 46.89-39.232 69.492-22.23 15.538-55.355 17.514-78.369 12.144z"/><path d="m429.159 268.627-5.273-12.349c-.762-1.772-18.281-43.594-1.641-79.307 16.641-35.698 60.956-49.146 62.787-49.702l12.861-3.896 5.273 12.349c.762 1.772 18.281 43.594 1.641 79.307-16.641 35.698-60.956 49.146-62.787 49.702z"/></g><path d="m181 90v52.299l30 38.701h90l30-38.701v-52.299z" fill="#ffda2d"/><path d="m301 181h-45v-91h75v52.299z" fill="#fdbf00"/></svg>