<svg id="Capa_1" enable-background="new 0 0 512 512" height="512" viewBox="0 0 512 512" width="512" xmlns="http://www.w3.org/2000/svg" xmlns:xlink="http://www.w3.org/1999/xlink"><linearGradient id="SVGID_1_" gradientUnits="userSpaceOnUse" x1="256" x2="256" y1="451" y2="61"><stop offset="0" stop-color="#ffc2cc"/><stop offset="1" stop-color="#fff2f4"/></linearGradient><linearGradient id="SVGID_00000137133259821350552490000005654403171882302348_" gradientUnits="userSpaceOnUse" x1="256" x2="256" y1="421" y2="121"><stop offset="0" stop-color="#fd3a84"/><stop offset="1" stop-color="#ffa68d"/></linearGradient><g><g><g><path d="m151 166c-57.891 0-106 47.109-106 105s48.109 105 106 105 105-47.109 105-105-47.109-105-105-105zm316 105c0-57.891-48.109-105-106-105s-105 47.109-105 105 47.109 105 105 105 106-47.109 106-105zm-391 120c-8.291 0-15 6.709-15 15v30c0 8.291 6.709 15 15 15s15-6.709 15-15v-30c0-8.291-6.709-15-15-15zm360 0c-8.291 0-15 6.709-15 15v30c0 8.291 6.709 15 15 15s15-6.709 15-15v-30c0-8.291-6.709-15-15-15zm-330-300h15v45c0 8.291 6.709 15 15 15s15-6.709 15-15v-45h15c8.291 0 15-6.709 15-15s-6.709-15-15-15h-60c-8.291 0-15 6.709-15 15s6.709 15 15 15zm240 0h15v45c0 8.291 6.709 15 15 15s15-6.709 15-15v-45h15c8.291 0 15-6.709 15-15s-6.709-15-15-15h-60c-8.291 0-15 6.709-15 15s6.709 15 15 15z" fill="url(#SVGID_1_)"/></g></g><g><g><path d="m467 121h-422c-24.901 0-45 20.1-45 45v210c0 24.898 20.099 45 45 45h422c24.901 0 45-20.102 45-45v-210c0-24.9-20.099-45-45-45zm-316 240c-49.501 0-90-40.501-90-90 0-49.501 40.499-90 90-90s90 40.499 90 90c0 49.499-40.499 90-90 90zm210 0c-49.501 0-90-40.501-90-90 0-49.501 40.499-90 90-90s90 40.499 90 90c0 49.499-40.499 90-90 90zm-210-120c-8.291 0-15 6.709-15 15v30c0 8.291 6.709 15 15 15s15-6.709 15-15v-30c0-8.291-6.709-15-15-15zm210 0c-8.291 0-15 6.709-15 15v30c0 8.291 6.709 15 15 15s15-6.709 15-15v-30c0-8.291-6.709-15-15-15z" fill="url(#SVGID_00000137133259821350552490000005654403171882302348_)"/></g></g></g></svg>