<svg xmlns="http://www.w3.org/2000/svg" height="640pt" version="1.1" viewBox="0 0 640 640" width="640pt">
<g id="surface1">
<path d="M 320 113.75 C 206.273438 113.75 113.75 206.273438 113.75 320 C 113.75 433.726562 206.273438 526.25 320 526.25 C 433.726562 526.25 526.25 433.726562 526.25 320 C 526.25 206.273438 433.726562 113.75 320 113.75 Z M 451.25 338.75 L 301.25 338.75 L 301.25 151.25 L 338.75 151.25 L 338.75 301.25 L 451.25 301.25 Z M 451.25 338.75 " style=" stroke:none;fill-rule:nonzero;fill:rgb(255,255,255);fill-opacity:1;" />
<path d="M 320 0 C 144.238281 0 0 144.238281 0 320 C 0 495.761719 144.238281 640 320 640 C 495.761719 640 640 495.761719 640 320 C 640 144.238281 495.761719 0 320 0 Z M 320 565 C 185.601562 565 75 454.398438 75 320 C 75 185.601562 185.601562 75 320 75 C 454.398438 75 565 185.601562 565 320 C 565 454.398438 454.398438 565 320 565 Z M 320 565 " style=" stroke:none;fill-rule:nonzero;fill:rgb(255,255,255);fill-opacity:1;" />
</g>
</svg>