<?xml version="1.0" encoding="UTF-8"?>
<svg xmlns="http://www.w3.org/2000/svg" xmlns:xlink="http://www.w3.org/1999/xlink" width="45pt" height="44.999999pt" viewBox="0 0 45 44.999999" version="1.2">
<defs>
<clipPath id="clip1">
  <path d="M 15.464844 26.023438 L 29.683594 26.023438 L 29.683594 44.910156 L 15.464844 44.910156 Z M 15.464844 26.023438 "/>
</clipPath>
</defs>
<g id="surface1">
<g clip-path="url(#clip1)" clip-rule="nonzero">
<path style=" stroke:none;fill-rule:nonzero;fill:rgb(100%,100%,100%);fill-opacity:1;" d="M 21.9375 32.285156 C 21.863281 32.167969 21.824219 32.03125 21.824219 31.898438 C 21.824219 31.765625 21.859375 31.632812 21.933594 31.511719 C 22.070312 31.289062 22.308594 31.152344 22.574219 31.152344 C 22.835938 31.152344 23.074219 31.285156 23.214844 31.507812 C 23.285156 31.625 23.324219 31.757812 23.324219 31.894531 C 23.324219 32.027344 23.289062 32.164062 23.214844 32.28125 C 23.082031 32.503906 22.839844 32.640625 22.578125 32.640625 C 22.578125 32.640625 22.578125 32.640625 22.574219 32.640625 C 22.3125 32.640625 22.074219 32.507812 21.9375 32.285156 Z M 29.679688 35.894531 C 29.679688 35.769531 29.601562 35.664062 29.484375 35.628906 C 29.363281 35.589844 29.238281 35.632812 29.164062 35.734375 L 27.089844 38.714844 C 27.03125 38.800781 27.023438 38.910156 27.070312 39.003906 C 27.117188 39.097656 27.214844 39.152344 27.320312 39.152344 L 28.363281 39.152344 C 28.359375 39.609375 28.351562 40.863281 28.351562 40.863281 C 28.351562 41.476562 28.175781 42.066406 27.855469 42.53125 C 27.234375 43.433594 25.910156 43.824219 24.839844 43.425781 C 24.667969 43.359375 24.496094 43.265625 24.347656 43.148438 C 23.792969 42.71875 23.371094 41.910156 23.246094 41.035156 C 23.214844 40.824219 23.199219 40.601562 23.207031 40.378906 L 23.230469 33.632812 C 23.457031 33.550781 23.660156 33.433594 23.835938 33.277344 C 24.230469 32.929688 24.460938 32.410156 24.460938 31.886719 C 24.457031 31.105469 23.96875 30.421875 23.230469 30.152344 L 23.230469 26.8125 C 23.230469 26.640625 23.160156 26.472656 23.035156 26.347656 C 22.910156 26.226562 22.742188 26.15625 22.566406 26.15625 C 22.566406 26.15625 22.566406 26.15625 22.5625 26.15625 C 22.199219 26.160156 21.902344 26.457031 21.902344 26.820312 L 21.902344 30.15625 C 21.171875 30.433594 20.6875 31.121094 20.691406 31.90625 C 20.695312 32.570312 21.058594 33.183594 21.644531 33.515625 C 21.726562 33.5625 21.816406 33.601562 21.917969 33.636719 L 21.941406 40.382812 C 21.945312 40.59375 21.933594 40.8125 21.90625 41.027344 C 21.777344 41.910156 21.355469 42.722656 20.800781 43.148438 C 19.875 43.863281 18.277344 43.683594 17.449219 42.773438 C 17.03125 42.3125 16.792969 41.617188 16.792969 40.863281 L 16.785156 39.152344 L 17.828125 39.152344 C 17.933594 39.152344 18.027344 39.097656 18.078125 39.003906 C 18.125 38.910156 18.117188 38.800781 18.058594 38.71875 L 15.984375 35.738281 C 15.914062 35.636719 15.789062 35.589844 15.667969 35.625 C 15.550781 35.664062 15.472656 35.769531 15.472656 35.894531 C 15.472656 35.894531 15.464844 41.019531 15.464844 41.019531 C 15.464844 42.398438 16.148438 43.671875 17.253906 44.351562 C 17.851562 44.71875 18.574219 44.910156 19.355469 44.910156 C 19.359375 44.910156 19.363281 44.910156 19.371094 44.910156 C 20.160156 44.90625 21.011719 44.636719 21.59375 44.207031 C 21.980469 43.917969 22.3125 43.558594 22.578125 43.128906 C 22.835938 43.554688 23.164062 43.917969 23.554688 44.207031 C 24.144531 44.644531 24.976562 44.90625 25.78125 44.910156 C 25.785156 44.910156 25.792969 44.910156 25.800781 44.910156 C 26.511719 44.910156 27.21875 44.714844 27.835938 44.351562 C 28.496094 43.957031 29.027344 43.371094 29.332031 42.703125 C 29.5625 42.199219 29.683594 41.617188 29.683594 41.019531 L 29.679688 35.894531 "/>
</g>
<path style=" stroke:none;fill-rule:nonzero;fill:rgb(100%,100%,100%);fill-opacity:1;" d="M 22.574219 2.945312 C 23.335938 2.945312 23.949219 3.558594 23.949219 4.308594 C 23.949219 5.0625 23.335938 5.671875 22.574219 5.671875 C 21.816406 5.671875 21.203125 5.0625 21.203125 4.308594 C 21.203125 3.558594 21.816406 2.945312 22.574219 2.945312 Z M 21.203125 26.480469 C 21.203125 25.726562 21.816406 25.117188 22.574219 25.117188 C 23.335938 25.117188 23.949219 25.726562 23.949219 26.480469 C 23.949219 26.773438 23.851562 27.046875 23.691406 27.269531 L 23.691406 29.710938 C 35.324219 16.234375 25.339844 3.066406 23.027344 0.359375 C 22.789062 0.0820312 22.363281 0.0820312 22.125 0.359375 C 19.808594 3.066406 9.828125 16.234375 21.457031 29.710938 L 21.457031 27.269531 C 21.296875 27.046875 21.203125 26.773438 21.203125 26.480469 "/>
</g>
</svg>
