<?xml version="1.0" encoding="UTF-8"?>
<svg xmlns="http://www.w3.org/2000/svg" xmlns:xlink="http://www.w3.org/1999/xlink" width="45pt" height="44.999999pt" viewBox="0 0 45 44.999999" version="1.2">
<defs>
<clipPath id="clip1">
  <path d="M 0.246094 9 L 36 9 L 36 45 L 0.246094 45 Z M 0.246094 9 "/>
</clipPath>
</defs>
<g id="surface1">
<path style=" stroke:none;fill-rule:nonzero;fill:rgb(14.118958%,48.629761%,94.509888%);fill-opacity:1;" d="M 25.464844 16.316406 L 27.664062 22.527344 C 27.769531 22.886719 28.136719 23.042969 28.5 22.941406 L 34.519531 20.871094 C 34.625 20.871094 34.675781 20.921875 34.726562 20.972656 C 34.726562 21.023438 34.726562 21.078125 34.726562 21.128906 C 33.679688 22.734375 34.152344 24.855469 35.722656 25.839844 C 36.296875 26.199219 37.660156 26.613281 38.757812 26.199219 C 40.535156 25.578125 41.53125 23.613281 40.902344 21.851562 C 40.535156 20.871094 39.75 20.09375 38.757812 19.730469 C 38.703125 19.730469 38.652344 19.679688 38.652344 19.628906 C 38.601562 19.574219 38.652344 19.472656 38.703125 19.421875 L 44.722656 17.351562 C 45.089844 17.246094 45.246094 16.882812 45.140625 16.523438 L 39.386719 0.53125 C 39.28125 0.21875 38.914062 0.0117188 38.546875 0.117188 L 22.429688 5.757812 C 22.066406 5.859375 21.910156 6.222656 22.011719 6.585938 L 24.210938 12.796875 C 24.523438 13.417969 25.257812 13.675781 25.9375 13.417969 C 26.355469 13.261719 26.722656 12.949219 26.828125 12.484375 C 27.191406 11.347656 28.449219 10.777344 29.546875 11.140625 C 30.175781 11.347656 30.648438 11.8125 30.910156 12.433594 C 31.328125 13.519531 30.699219 14.761719 29.601562 15.125 C 28.972656 15.332031 28.238281 15.28125 27.714844 14.917969 C 27.351562 14.660156 26.878906 14.605469 26.410156 14.761719 C 26.410156 14.8125 25.101562 15.28125 25.464844 16.316406 Z M 25.464844 16.316406 "/>
<g clip-path="url(#clip1)" clip-rule="nonzero">
<path style=" stroke:none;fill-rule:nonzero;fill:rgb(14.118958%,48.629761%,94.509888%);fill-opacity:1;" d="M 35.148438 26.820312 C 35.148438 26.820312 28.449219 26.820312 28.398438 26.820312 C 27.769531 26.820312 27.140625 27.804688 27.296875 28.582031 C 27.402344 28.890625 27.558594 29.203125 27.875 29.410156 C 28.816406 30.132812 28.972656 31.480469 28.238281 32.410156 C 27.820312 32.929688 27.191406 33.238281 26.566406 33.238281 C 25.363281 33.238281 24.417969 32.308594 24.417969 31.117188 C 24.417969 30.445312 24.734375 29.824219 25.257812 29.410156 C 25.886719 28.890625 25.988281 27.960938 25.519531 27.339844 C 25.308594 27.082031 24.941406 26.820312 24.734375 26.820312 C 24.679688 26.820312 18.558594 26.769531 18.558594 26.769531 L 18.558594 21.078125 C 18.558594 20.972656 18.664062 20.921875 18.714844 20.921875 C 18.769531 20.921875 18.820312 20.921875 18.820312 20.972656 C 19.449219 21.800781 20.496094 22.320312 21.542969 22.320312 C 23.476562 22.320312 24.996094 20.816406 25.046875 18.902344 C 25.101562 16.988281 23.53125 15.488281 21.59375 15.433594 C 20.496094 15.433594 19.5 15.902344 18.820312 16.78125 C 18.769531 16.832031 18.714844 16.832031 18.664062 16.832031 C 18.558594 16.832031 18.507812 16.78125 18.507812 16.675781 L 18.507812 10.519531 C 18.507812 10.15625 18.191406 9.898438 17.878906 9.898438 L 0.875 9.898438 C 0.507812 9.898438 0.246094 10.207031 0.246094 10.519531 L 0.246094 44.367188 C 0.246094 44.730469 0.507812 44.988281 0.875 44.988281 L 35.148438 44.988281 C 35.511719 44.988281 35.828125 44.730469 35.828125 44.367188 L 35.828125 27.441406 C 35.828125 27.289062 35.773438 27.132812 35.617188 26.976562 C 35.511719 26.875 35.355469 26.820312 35.148438 26.820312 Z M 24.472656 28.0625 C 24.523438 28.117188 24.523438 28.167969 24.523438 28.21875 C 24.523438 28.269531 24.523438 28.324219 24.472656 28.324219 C 22.953125 29.460938 22.691406 31.636719 23.84375 33.136719 C 23.898438 33.1875 23.949219 33.238281 23.949219 33.292969 C 23.320312 32.773438 22.535156 32.464844 21.699219 32.464844 C 20.128906 32.410156 19.5 33.03125 18.875 33.808594 C 18.769531 33.964844 18.664062 33.808594 18.664062 33.707031 L 18.664062 28.0625 Z M 1.5 11.140625 L 17.304688 11.140625 C 17.304688 11.140625 17.304688 16.882812 17.304688 16.882812 C 17.410156 17.660156 18.140625 18.28125 18.925781 18.179688 C 19.292969 18.125 19.660156 17.917969 19.917969 17.660156 C 20.652344 16.730469 22.011719 16.574219 22.953125 17.246094 C 23.898438 17.972656 24.054688 19.316406 23.375 20.25 C 22.640625 21.179688 21.28125 21.335938 20.339844 20.664062 C 20.179688 20.558594 20.078125 20.402344 19.917969 20.25 C 19.398438 19.628906 18.453125 19.523438 17.828125 20.042969 C 17.511719 20.300781 17.304688 20.609375 17.304688 21.023438 C 17.304688 21.023438 17.304688 26.769531 17.304688 26.769531 L 11.496094 26.769531 C 11.441406 26.769531 11.441406 26.613281 11.546875 26.5625 C 12.386719 25.941406 12.910156 24.90625 12.910156 23.871094 C 12.910156 21.957031 11.339844 20.457031 9.453125 20.457031 C 7.570312 20.457031 6 22.007812 6 23.871094 C 6 24.90625 6.472656 25.941406 7.363281 26.5625 C 7.464844 26.613281 7.464844 26.820312 7.363281 26.820312 L 1.5 26.820312 Z M 34.464844 43.746094 L 18.664062 43.746094 L 18.664062 38.105469 C 18.664062 38 18.820312 37.847656 18.925781 38 C 20.078125 39.503906 21.75 39.347656 21.75 39.347656 C 23.6875 39.347656 25.203125 37.792969 25.203125 35.929688 C 25.203125 35.101562 24.890625 34.328125 24.367188 33.707031 C 24.996094 34.222656 25.78125 34.535156 26.617188 34.535156 C 28.554688 34.535156 30.070312 32.980469 30.070312 31.117188 C 30.070312 30.082031 29.601562 29.046875 28.710938 28.425781 C 28.660156 28.375 28.660156 28.324219 28.660156 28.269531 C 28.660156 28.21875 28.710938 28.167969 28.761719 28.117188 L 34.519531 28.117188 Z M 34.464844 43.746094 "/>
</g>
</g>
</svg>
