<?xml version="1.0" encoding="UTF-8"?>
<svg xmlns="http://www.w3.org/2000/svg" xmlns:xlink="http://www.w3.org/1999/xlink" width="45pt" height="44.999999pt" viewBox="0 0 45 44.999999" version="1.2">
<defs>
<clipPath id="clip1">
  <path d="M 29 0 L 39.675781 0 L 39.675781 45 L 29 45 Z M 29 0 "/>
</clipPath>
<clipPath id="clip2">
  <path d="M 5.175781 3 L 10 3 L 10 9 L 5.175781 9 Z M 5.175781 3 "/>
</clipPath>
<clipPath id="clip3">
  <path d="M 5.175781 10 L 25 10 L 25 42 L 5.175781 42 Z M 5.175781 10 "/>
</clipPath>
</defs>
<g id="surface1">
<g clip-path="url(#clip1)" clip-rule="nonzero">
<path style=" stroke:none;fill-rule:nonzero;fill:rgb(100%,100%,100%);fill-opacity:1;" d="M 37.546875 44.609375 C 37.761719 44.859375 38.042969 45 38.363281 45 C 38.609375 45 38.859375 44.929688 39.035156 44.75 C 39.496094 44.359375 39.53125 43.683594 39.179688 43.253906 C 29.25 31.257812 29.25 13.882812 39.179688 1.886719 C 39.566406 1.425781 39.496094 0.746094 39.035156 0.390625 C 38.574219 0 37.902344 0.0703125 37.546875 0.535156 C 26.945312 13.316406 26.945312 31.828125 37.546875 44.609375 Z M 37.546875 44.609375 "/>
</g>
<g clip-path="url(#clip2)" clip-rule="nonzero">
<path style=" stroke:none;fill-rule:nonzero;fill:rgb(100%,100%,100%);fill-opacity:1;" d="M 8.1875 8.011719 C 8.402344 8.222656 8.683594 8.332031 8.933594 8.332031 C 9.183594 8.332031 9.464844 8.222656 9.679688 8.011719 C 10.105469 7.582031 10.105469 6.90625 9.679688 6.515625 L 7.195312 4.023438 C 6.769531 3.597656 6.097656 3.597656 5.707031 4.023438 C 5.28125 4.449219 5.28125 5.125 5.707031 5.519531 Z M 8.1875 8.011719 "/>
</g>
<g clip-path="url(#clip3)" clip-rule="nonzero">
<path style=" stroke:none;fill-rule:nonzero;fill:rgb(100%,100%,100%);fill-opacity:1;" d="M 24.5 22.570312 C 24.5 21.824219 24.214844 21.113281 23.683594 20.542969 L 14.289062 11.144531 C 13.863281 10.714844 13.1875 10.714844 12.796875 11.144531 C 12.371094 11.570312 12.371094 12.246094 12.796875 12.636719 L 22.195312 22.074219 C 22.476562 22.359375 22.476562 22.785156 22.195312 23.070312 L 7.515625 37.808594 L 7.515625 31.472656 C 7.515625 30.867188 7.054688 30.402344 6.453125 30.402344 C 5.847656 30.402344 5.386719 30.867188 5.386719 31.472656 L 5.386719 40.371094 C 5.386719 40.976562 5.847656 41.441406 6.453125 41.441406 L 15.316406 41.441406 C 15.917969 41.441406 16.378906 40.976562 16.378906 40.371094 C 16.378906 39.765625 15.917969 39.304688 15.316406 39.304688 L 9.003906 39.304688 L 23.648438 24.601562 C 24.214844 24.03125 24.5 23.320312 24.5 22.570312 Z M 24.5 22.570312 "/>
</g>
</g>
</svg>
