<?xml version="1.0" encoding="UTF-8"?>
<svg xmlns="http://www.w3.org/2000/svg" xmlns:xlink="http://www.w3.org/1999/xlink" width="45pt" height="44.999999pt" viewBox="0 0 45 44.999999" version="1.2">
<defs>
<clipPath id="clip1">
  <path d="M 1.152344 0 L 43.902344 0 L 43.902344 45 L 1.152344 45 Z M 1.152344 0 "/>
</clipPath>
</defs>
<g id="surface1">
<g clip-path="url(#clip1)" clip-rule="nonzero">
<path style=" stroke:none;fill-rule:nonzero;fill:rgb(100%,100%,100%);fill-opacity:1;" d="M 30.574219 17.820312 C 30.417969 20.933594 29.082031 23.964844 26.578125 26.21875 C 24.082031 28.476562 20.929688 29.5 17.8125 29.34375 C 14.691406 29.183594 11.65625 27.847656 9.394531 25.355469 C 7.140625 22.859375 6.121094 19.710938 6.273438 16.59375 C 6.433594 13.484375 7.769531 10.449219 10.265625 8.195312 C 12.765625 5.945312 15.921875 4.917969 19.039062 5.078125 C 22.15625 5.234375 25.191406 6.566406 27.449219 9.0625 C 29.707031 11.554688 30.726562 14.707031 30.574219 17.820312 Z M 42.828125 39.945312 L 31.777344 27.738281 C 34.019531 24.90625 35.257812 21.511719 35.433594 18.070312 C 35.660156 13.726562 34.207031 9.28125 31.0625 5.800781 C 27.914062 2.324219 23.625 0.4375 19.28125 0.222656 C 14.9375 0 10.484375 1.445312 7.007812 4.589844 C 3.519531 7.738281 1.632812 12.011719 1.417969 16.347656 C 1.1875 20.6875 2.640625 25.136719 5.785156 28.613281 C 8.9375 32.089844 13.222656 33.976562 17.566406 34.195312 C 21.011719 34.371094 24.523438 33.480469 27.570312 31.535156 L 38.613281 43.742188 C 39.667969 44.90625 41.460938 44.996094 42.625 43.945312 C 43.789062 42.898438 43.878906 41.105469 42.828125 39.945312 "/>
</g>
</g>
</svg>
