<?xml version="1.0" encoding="UTF-8"?>
<svg xmlns="http://www.w3.org/2000/svg" xmlns:xlink="http://www.w3.org/1999/xlink" width="45pt" height="44.999999pt" viewBox="0 0 45 44.999999" version="1.2">
<defs>
<clipPath id="clip1">
  <path d="M 0 8.210938 L 45 8.210938 L 45 36.710938 L 0 36.710938 Z M 0 8.210938 "/>
</clipPath>
</defs>
<g id="surface1">
<g clip-path="url(#clip1)" clip-rule="nonzero">
<path style=" stroke:none;fill-rule:evenodd;fill:rgb(100%,100%,100%);fill-opacity:1;" d="M 0.0976562 14.269531 C 1.25 13.742188 2.179688 13.167969 2.765625 12.492188 C 3.929688 11.15625 6.191406 10.238281 7.738281 11.554688 C 8.957031 12.589844 10.097656 13.882812 11.507812 14.84375 C 14.445312 16.839844 17.082031 13.398438 18.992188 11.761719 C 21.199219 9.867188 23.664062 8.210938 27.363281 8.265625 C 30.480469 8.308594 33.242188 9.070312 35.949219 9.726562 C 38.992188 10.464844 41.980469 10.019531 44.898438 8.890625 C 42.882812 10.527344 40.097656 11.660156 35.738281 10.875 C 32.855469 10.355469 30.050781 9.613281 27.207031 9.726562 C 23.425781 9.878906 21.28125 11.246094 19.410156 12.910156 C 17.039062 15.023438 14.351562 18.019531 10.984375 15.625 C 9.59375 14.636719 8.445312 13.332031 7.058594 12.335938 C 5.128906 10.953125 3.714844 12.847656 2.242188 13.800781 C 4.125 14.09375 6.855469 14.351562 6.902344 16.933594 C 6.933594 18.605469 6.78125 20.289062 7.058594 21.839844 C 8.238281 28.457031 11.566406 27.265625 16.742188 28.417969 C 20.402344 29.230469 20.953125 32.195312 22.132812 34.628906 C 22.796875 36.011719 23.855469 34.898438 24.808594 33.75 C 27.117188 33.53125 27.699219 33.058594 27.5 32.003906 C 30.863281 30.558594 32.800781 29.550781 31.605469 29.511719 C 28.238281 29.410156 20.011719 29.480469 19.410156 22.464844 C 19.292969 21.09375 18.730469 19.714844 18.101562 18.339844 C 21.808594 20.558594 23.351562 21.433594 27.46875 20.742188 C 26.507812 20.253906 26.160156 19.769531 25.898438 19.28125 C 26.589844 19.785156 27.410156 20.289062 28.515625 20.796875 C 24.039062 22.289062 23.257812 22.320312 18.78125 19.4375 C 19.339844 20.390625 20.097656 21.511719 20.148438 22.613281 C 20.378906 27.707031 28.421875 28.789062 32.179688 29.097656 C 33.570312 29.210938 33.992188 30.136719 28.464844 32.488281 C 28.996094 33.882812 28.4375 34.75 25.480469 34.472656 C 24.121094 36.71875 22.703125 36.636719 21.871094 35.101562 C 20.535156 32.636719 19.464844 30.039062 16.269531 29.566406 C 11.164062 28.8125 7.914062 29.496094 5.855469 23.71875 C 5.226562 21.953125 5.40625 19.699219 5.488281 17.507812 C 5.605469 14.304688 2.320312 14.464844 0.0976562 14.269531 Z M 0.0976562 14.269531 "/>
</g>
<path style=" stroke:none;fill-rule:evenodd;fill:rgb(100%,100%,100%);fill-opacity:1;" d="M 27.15625 12.859375 C 30.863281 15.242188 36.734375 16.34375 39.980469 12.703125 C 38.792969 12.738281 37.746094 12.5625 36.839844 12.179688 C 37.292969 12.632812 38.023438 12.945312 39.035156 13.121094 C 35.242188 14.523438 31.230469 13.964844 27.15625 12.859375 Z M 27.15625 12.859375 "/>
<path style=" stroke:none;fill-rule:evenodd;fill:rgb(100%,100%,100%);fill-opacity:1;" d="M 22.238281 16.199219 C 25.679688 18.246094 30.820312 20.839844 34.167969 17.035156 C 33.035156 16.820312 32.09375 16.3125 31.238281 15.679688 C 31.546875 16.21875 31.894531 16.757812 33.332031 17.296875 C 29.824219 18.847656 26.027344 17.609375 22.238281 16.199219 Z M 22.238281 16.199219 "/>
<path style=" stroke:none;fill-rule:evenodd;fill:rgb(100%,100%,100%);fill-opacity:1;" d="M 3.855469 12.789062 C 4.109375 12.789062 4.3125 12.996094 4.3125 13.246094 C 4.3125 13.5 4.109375 13.707031 3.855469 13.707031 C 3.601562 13.707031 3.394531 13.5 3.394531 13.246094 C 3.394531 12.996094 3.601562 12.789062 3.855469 12.789062 Z M 3.855469 12.789062 "/>
</g>
</svg>
