<?xml version="1.0" encoding="UTF-8"?>
<svg xmlns="http://www.w3.org/2000/svg" xmlns:xlink="http://www.w3.org/1999/xlink" width="45pt" height="44.999999pt" viewBox="0 0 45 44.999999" version="1.2">
<defs>
<clipPath id="clip1">
  <path d="M 0 9.394531 L 45 9.394531 L 45 35.644531 L 0 35.644531 Z M 0 9.394531 "/>
</clipPath>
</defs>
<g id="surface1">
<g clip-path="url(#clip1)" clip-rule="nonzero">
<path style=" stroke:none;fill-rule:nonzero;fill:rgb(100%,100%,100%);fill-opacity:1;" d="M 37.617188 32.707031 L 32.027344 32.707031 C 30 32.707031 27.375 31.722656 25.851562 30.40625 L 10.976562 17.484375 C 10.210938 16.816406 8.527344 16.1875 7.503906 16.1875 L 2.574219 16.1875 C 1.433594 16.1875 0.511719 15.261719 0.511719 14.121094 C 0.511719 12.980469 1.433594 12.054688 2.574219 12.054688 L 7.503906 12.054688 C 9.515625 12.054688 12.15625 13.046875 13.675781 14.355469 L 28.546875 27.277344 C 29.320312 27.953125 30.988281 28.578125 32.027344 28.578125 L 37.617188 28.578125 L 37.617188 25.824219 L 44.488281 30.640625 L 37.617188 35.460938 Z M 37.617188 12.054688 L 37.617188 9.300781 L 44.488281 14.121094 L 37.617188 18.9375 L 37.617188 16.1875 L 32.027344 16.1875 C 30.988281 16.1875 29.320312 16.808594 28.546875 17.484375 L 23.960938 21.46875 L 20.8125 18.738281 L 25.851562 14.355469 C 27.375 13.039062 30 12.054688 32.027344 12.054688 Z M 15.5625 23.292969 L 18.714844 26.023438 L 13.675781 30.40625 C 12.15625 31.71875 9.515625 32.707031 7.503906 32.707031 L 2.574219 32.707031 C 1.433594 32.707031 0.511719 31.78125 0.511719 30.640625 C 0.511719 29.5 1.433594 28.578125 2.574219 28.578125 L 7.503906 28.578125 C 8.527344 28.578125 10.210938 27.945312 10.976562 27.277344 Z M 15.5625 23.292969 "/>
</g>
</g>
</svg>
