<?xml version="1.0" encoding="UTF-8"?>
<svg xmlns="http://www.w3.org/2000/svg" xmlns:xlink="http://www.w3.org/1999/xlink" width="45pt" height="44.999999pt" viewBox="0 0 45 44.999999" version="1.2">
<defs>
<clipPath id="clip1">
  <path d="M 14.511719 0 L 30 0 L 30 45 L 14.511719 45 Z M 14.511719 0 "/>
</clipPath>
</defs>
<g id="surface1">
<g clip-path="url(#clip1)" clip-rule="nonzero">
<path style=" stroke:none;fill-rule:nonzero;fill:rgb(100%,100%,100%);fill-opacity:1;" d="M 20.15625 9.265625 C 18.355469 10.074219 17.085938 9.703125 15.96875 8.113281 C 18.515625 5.957031 21.070312 3.796875 23.625 1.640625 C 23.84375 1.460938 24.097656 1.320312 24.34375 1.171875 C 26.273438 0.0078125 27.566406 0.148438 29.28125 1.667969 C 29.792969 2.121094 29.960938 2.582031 29.820312 3.304688 C 29.394531 5.464844 28.992188 7.632812 28.710938 9.816406 C 28.335938 12.753906 28.210938 15.710938 28.945312 18.628906 C 28.964844 18.699219 28.910156 18.785156 28.867188 18.945312 C 28.359375 18.917969 27.820312 19.234375 27.304688 18.792969 C 27.199219 18.707031 27.019531 18.699219 26.875 18.691406 C 25.566406 18.632812 24.78125 18.125 24.480469 16.871094 C 24.175781 15.585938 24.027344 14.257812 23.800781 12.878906 C 23.695312 13.003906 23.535156 13.117188 23.480469 13.277344 C 21.929688 17.570312 20.402344 21.894531 20.183594 26.527344 C 20.039062 29.601562 20.097656 32.6875 20.179688 35.769531 C 20.257812 38.550781 20.234375 41.355469 20.917969 44.089844 C 21.046875 44.589844 20.84375 44.957031 20.347656 44.976562 C 19.347656 45.011719 18.347656 45.015625 17.351562 44.941406 C 16.800781 44.898438 16.550781 44.382812 16.425781 43.890625 C 16.023438 42.28125 15.546875 40.683594 15.300781 39.050781 C 14.597656 34.417969 14.742188 29.75 14.980469 25.09375 C 15.160156 21.605469 16.140625 18.296875 17.496094 15.109375 C 18.175781 13.511719 18.925781 11.941406 19.648438 10.359375 C 19.777344 10.066406 19.917969 9.773438 20.15625 9.265625 Z M 20.15625 9.265625 "/>
</g>
</g>
</svg>
