<svg width="436" height="616" viewBox="0 0 436 616" fill="none" xmlns="http://www.w3.org/2000/svg">
<path d="M167.19 0C167.19 0 208.961 83.5461 167.19 101.269C125.419 118.992 107.519 40.5086 107.519 40.5086C107.519 40.5086 65.7477 50.6345 71.7142 91.1431C77.6807 131.652 98.5664 155.702 83.6472 172.155C68.728 188.608 58.2852 172.155 47.8423 141.772C37.3995 111.39 0.104492 101.264 0.104492 101.264C0.104492 101.264 19.5 154.427 23.9704 192.407C28.4408 230.387 21.7442 311.399 161.971 324.054C302.199 336.708 367.794 219.484 334.269 151.898C310.834 104.651 322.336 50.6294 322.336 50.6294C322.336 50.6294 281.696 66.3921 274.598 101.264C267.1 138.106 268.632 169.621 250.733 141.772C232.827 113.924 276.089 17.7228 167.19 0Z" fill="url(#paint0_linear_505_119)"/>
<path d="M329.531 441.344H24.0935C14.8123 441.344 7.21854 433.75 7.21854 424.469V205.094C7.21854 195.812 14.8123 188.219 24.0935 188.219H329.531C338.812 188.219 346.406 195.812 346.406 205.094V424.469C346.406 433.75 338.812 441.344 329.531 441.344Z" fill="#504C43"/>
<path d="M329.531 441.344H24.0935C14.8123 441.344 7.21854 433.75 7.21854 424.469V392.406H346.406V424.469C346.406 433.75 338.812 441.344 329.531 441.344Z" fill="#D8D6C1"/>
<path d="M255.281 441.344H329.531C338.812 441.344 346.406 433.75 346.406 424.469V392.406H297.469L255.281 441.344Z" fill="#C5C2A1"/>
<path d="M208.453 441.344H145.172C145.172 472.478 138.59 503.275 125.934 531.709L124.078 535.844H229.547L227.69 531.709C215.034 503.275 208.453 472.478 208.453 441.344Z" fill="#D8D6C1"/>
<path d="M102.984 535.844H250.64V552.719H102.984V535.844Z" fill="#EBEBDF"/>
<path d="M176.812 429.531C183.802 429.531 189.469 423.865 189.469 416.875C189.469 409.885 183.802 404.219 176.812 404.219C169.822 404.219 164.156 409.885 164.156 416.875C164.156 423.865 169.822 429.531 176.812 429.531Z" fill="#C5C2A1"/>
<path d="M24.0935 205.094H329.531V375.531H24.0935V205.094Z" fill="#DB3529"/>
<path d="M113.531 227.031H240.094V353.594H113.531V227.031Z" fill="#EBEBDF"/>
<path d="M113.531 227.031H176.812V290.312H113.531V227.031Z" fill="#504C43"/>
<path d="M176.812 290.312H240.094V353.594H176.812V290.312Z" fill="#504C43"/>
<path d="M144.497 458.219H209.044C208.622 452.65 208.369 446.997 208.369 441.344H145.087C145.172 446.997 144.919 452.65 144.497 458.219Z" fill="#C5C2A1"/>
<path d="M176.812 227.031L113.531 290.312V258.672L145.172 227.031H176.812Z" fill="#35322B"/>
<path d="M176.812 258.672V290.312H145.172L176.812 258.672Z" fill="#35322B"/>
<path d="M240.094 290.312L176.812 353.594V321.953L208.453 290.312H240.094Z" fill="#35322B"/>
<path d="M240.094 321.953V353.594H208.453L240.094 321.953Z" fill="#35322B"/>
<path d="M325.312 535.844H409.687V552.719H325.312V535.844Z" fill="#F0917B"/>
<path d="M304.219 594.906H430.781V611.781H304.219V594.906Z" fill="#F0917B"/>
<path d="M304.219 594.906H430.781L409.687 552.719H325.312L304.219 594.906Z" fill="#FFC96F"/>
<path d="M430.781 535.844V455.688C430.781 420.756 402.431 392.406 367.5 392.406V413.5L314.006 432.822L304.219 448.684V467.5H317.719L336.619 461.341L342.778 467.078H362.015L318.647 493.403C309.703 498.803 304.219 508.591 304.219 519.053L325.312 535.928H430.781V535.844Z" fill="#FFC96F"/>
<path d="M304.219 448.684V467.5H317.719L321.094 449.022L325.228 442.778L367.5 427.844V413.5L314.006 432.822L304.219 448.684Z" fill="#FFDCA4"/>
<path d="M430.781 455.688V535.844H409.687V455.688C409.687 432.4 390.787 413.5 367.5 413.5V392.406C402.431 392.406 430.781 420.756 430.781 455.688Z" fill="#F0917B"/>
<path d="M369.486 422.703L372.431 430.609L356.461 436.557L353.516 428.651L369.486 422.703Z" fill="#FFB234"/>
<path d="M371.96 447.935L378.508 453.259L365.091 469.758L358.544 464.434L371.96 447.935Z" fill="#FFB234"/>
<path d="M367.5 552.719H344.972L333.75 594.906H367.5V552.719Z" fill="#FFDCA4"/>
<path d="M369.486 422.703L372.431 430.609L356.461 436.557L353.516 428.651L369.486 422.703Z" fill="#272526"/>
<path d="M371.96 447.935L378.508 453.259L365.091 469.758L358.544 464.434L371.96 447.935Z" fill="#272526"/>
<path d="M409.687 556.938H325.312C322.95 556.938 321.094 555.081 321.094 552.719V535.844C321.094 533.481 322.95 531.625 325.312 531.625H409.687C412.05 531.625 413.906 533.481 413.906 535.844V552.719C413.906 555.081 412.05 556.938 409.687 556.938ZM329.531 548.5H405.469V540.062H329.531V548.5Z" fill="#272526"/>
<path d="M430.781 616H304.219C301.856 616 300 614.144 300 611.781V594.906C300 592.544 301.856 590.688 304.219 590.688H430.781C433.144 590.688 435 592.544 435 594.906V611.781C435 614.144 433.144 616 430.781 616ZM308.437 607.562H426.562V599.125H308.437V607.562Z" fill="#272526"/>
<path d="M430.781 599.125H304.219C302.784 599.125 301.434 598.366 300.59 597.1C299.831 595.834 299.747 594.316 300.422 592.966L321.515 550.778C322.19 549.344 323.709 548.416 325.312 548.416H409.687C411.29 548.416 412.725 549.344 413.484 550.778L434.578 592.966C435.253 594.231 435.168 595.834 434.409 597.1C433.565 598.366 432.215 599.125 430.781 599.125ZM311.053 590.688H423.947L407.072 556.938H327.928L311.053 590.688Z" fill="#272526"/>
<path d="M430.781 540.062H325.312C324.384 540.062 323.456 539.725 322.697 539.134L301.603 522.259C300.59 521.5 300 520.234 300 518.969C300 507.072 306.328 495.85 316.453 489.691L346.912 471.212H342.694C341.597 471.212 340.584 470.791 339.825 470.116L335.522 466.066L318.984 471.466C318.562 471.634 318.14 471.634 317.634 471.634H304.134C301.772 471.634 299.915 469.778 299.915 467.416V448.6C299.915 447.841 300.169 447.081 300.506 446.406L310.294 430.544C310.8 429.7 311.559 429.109 312.487 428.772L363.197 410.462V392.406C363.197 390.044 365.053 388.188 367.415 388.188C404.625 388.188 434.915 418.478 434.915 455.688V535.844C435 538.206 433.144 540.062 430.781 540.062ZM326.831 531.625H426.562V455.688C426.562 424.553 402.347 398.988 371.719 396.794V413.5C371.719 415.272 370.622 416.875 368.934 417.466L316.79 436.281L308.437 449.866V463.281H317.044L335.269 457.291C336.703 456.784 338.306 457.206 339.487 458.219L344.381 462.775H362.015C363.872 462.775 365.559 464.041 366.065 465.897C366.572 467.753 365.812 469.694 364.209 470.622L320.84 496.947C313.753 501.25 309.197 508.844 308.522 517.028L326.831 531.625Z" fill="#272526"/>
<path d="M430.781 540.062H409.687C407.325 540.062 405.469 538.206 405.469 535.844V455.688C405.469 434.763 388.425 417.719 367.5 417.719C365.137 417.719 363.281 415.862 363.281 413.5V392.406C363.281 390.044 365.137 388.188 367.5 388.188C404.709 388.188 435 418.478 435 455.688V535.844C435 536.941 434.578 538.038 433.734 538.797C432.89 539.556 431.878 540.062 430.781 540.062ZM413.906 531.625H426.562V455.688C426.562 424.553 402.347 398.988 371.719 396.794V409.45C395.344 411.559 413.906 431.472 413.906 455.688V531.625Z" fill="#272526"/>
<path d="M291.815 445.562H24.0935C12.4498 445.562 2.99979 436.113 2.99979 424.469V205.094C2.99979 193.45 12.4498 184 24.0935 184H329.531C341.175 184 350.625 193.45 350.625 205.094V421.094H342.187V205.094C342.187 198.091 336.534 192.438 329.531 192.438H24.0935C17.0904 192.438 11.4373 198.091 11.4373 205.094V424.469C11.4373 431.472 17.0904 437.125 24.0935 437.125H291.815V445.562Z" fill="#272526"/>
<path d="M229.547 540.062H124.078C122.644 540.062 121.294 539.303 120.534 538.122C119.775 536.941 119.606 535.422 120.197 534.072L122.053 529.938C134.625 501.841 140.953 472.056 140.953 441.259C140.953 438.897 142.809 437.041 145.172 437.041H208.453C210.815 437.041 212.672 438.897 212.672 441.259C212.672 472.056 219 501.841 231.572 529.938L233.428 534.072C234.019 535.338 233.934 536.856 233.09 538.122C232.331 539.303 230.981 540.062 229.547 540.062ZM130.575 531.625H223.05C211.153 504.287 204.825 475.347 204.234 445.562H149.306C148.8 475.347 142.472 504.287 130.575 531.625Z" fill="#272526"/>
<path d="M250.64 556.938H102.984C100.622 556.938 98.7654 555.081 98.7654 552.719V535.844C98.7654 533.481 100.622 531.625 102.984 531.625H250.64C253.003 531.625 254.859 533.481 254.859 535.844V552.719C254.859 555.081 253.003 556.938 250.64 556.938ZM107.203 548.5H246.422V540.062H107.203V548.5Z" fill="#272526"/>
<path d="M7.21854 388.188H346.406V396.625H7.21854V388.188Z" fill="#272526"/>
<path d="M176.812 433.75C167.531 433.75 159.937 426.156 159.937 416.875C159.937 407.594 167.531 400 176.812 400C186.094 400 193.687 407.594 193.687 416.875C193.687 426.156 186.094 433.75 176.812 433.75ZM176.812 408.438C172.172 408.438 168.375 412.234 168.375 416.875C168.375 421.516 172.172 425.312 176.812 425.312C181.453 425.312 185.25 421.516 185.25 416.875C185.25 412.234 181.453 408.438 176.812 408.438Z" fill="#272526"/>
<path d="M329.531 379.75H24.0935C21.731 379.75 19.8748 377.894 19.8748 375.531V205.094C19.8748 202.731 21.731 200.875 24.0935 200.875H329.531C331.894 200.875 333.75 202.731 333.75 205.094V375.531C333.75 377.894 331.894 379.75 329.531 379.75ZM28.3123 371.312H325.312V209.312H28.3123V371.312Z" fill="#272526"/>
<path d="M240.094 357.812H113.531C111.169 357.812 109.312 355.956 109.312 353.594V227.031H117.75V349.375H235.875V231.25H193.687V222.812H240.094C242.456 222.812 244.312 224.669 244.312 227.031V353.594C244.312 355.956 242.456 357.812 240.094 357.812Z" fill="#272526"/>
<path d="M176.812 294.531H113.531C111.169 294.531 109.312 292.675 109.312 290.312V227.031C109.312 224.669 111.169 222.812 113.531 222.812H176.812C179.175 222.812 181.031 224.669 181.031 227.031V290.312C181.031 292.675 179.175 294.531 176.812 294.531ZM117.75 286.094H172.594V231.25H117.75V286.094Z" fill="#272526"/>
<path d="M173.809 224.047L179.774 230.012L116.482 293.304L110.517 287.339L173.809 224.047Z" fill="#272526"/>
<path d="M142.238 224.038L148.203 230.003L116.587 261.619L110.622 255.654L142.238 224.038Z" fill="#272526"/>
<path d="M173.882 255.672L179.847 261.637L148.231 293.253L142.266 287.288L173.882 255.672Z" fill="#272526"/>
<path d="M240.094 357.812H176.812C174.45 357.812 172.594 355.956 172.594 353.594V290.312C172.594 287.95 174.45 286.094 176.812 286.094H240.094C242.456 286.094 244.312 287.95 244.312 290.312V353.594C244.312 355.956 242.456 357.812 240.094 357.812ZM181.031 349.375H235.875V294.531H181.031V349.375Z" fill="#272526"/>
<path d="M237.096 287.315L243.061 293.28L179.769 356.572L173.804 350.607L237.096 287.315Z" fill="#272526"/>
<path d="M237.169 318.939L243.135 324.905L211.518 356.521L205.553 350.555L237.169 318.939Z" fill="#272526"/>
<path d="M205.526 287.305L211.491 293.271L179.875 324.887L173.91 318.922L205.526 287.305Z" fill="#272526"/>
<defs>
<linearGradient id="paint0_linear_505_119" x1="217.57" y1="0" x2="217.57" y2="616" gradientUnits="userSpaceOnUse">
<stop stop-color="#E21B1B"/>
<stop offset="1" stop-color="#FFB932" stop-opacity="0.94"/>
</linearGradient>
</defs>
</svg>
