<?xml version="1.0" encoding="UTF-8"?>
<svg xmlns="http://www.w3.org/2000/svg" xmlns:xlink="http://www.w3.org/1999/xlink" width="45pt" height="44.999999pt" viewBox="0 0 45 44.999999" version="1.2">
<defs>
<clipPath id="clip1">
  <path d="M 5.511719 7 L 12 7 L 12 8 L 5.511719 8 Z M 5.511719 7 "/>
</clipPath>
<clipPath id="clip2">
  <path d="M 17 7 L 23.511719 7 L 23.511719 9 L 17 9 Z M 17 7 "/>
</clipPath>
<clipPath id="clip3">
  <path d="M 14 10 L 15 10 L 15 16.714844 L 14 16.714844 Z M 14 10 "/>
</clipPath>
</defs>
<g id="surface1">
<path style=" stroke:none;fill-rule:nonzero;fill:rgb(100%,100%,100%);fill-opacity:1;" d="M 23.605469 6.839844 L 21.386719 6.839844 L 17.464844 8.550781 L 27.527344 8.550781 L 23.605469 6.839844 "/>
<path style=" stroke:none;fill-rule:nonzero;fill:rgb(100%,100%,100%);fill-opacity:1;" d="M 22.496094 14.617188 L 19.585938 14.617188 L 19.585938 15.410156 L 25.40625 15.410156 L 25.40625 14.617188 L 22.496094 14.617188 "/>
<path style=" stroke:none;fill-rule:nonzero;fill:rgb(100%,100%,100%);fill-opacity:1;" d="M 28.003906 33.953125 C 28.003906 33.953125 26.863281 34.472656 22.496094 34.496094 C 18.128906 34.472656 16.988281 33.953125 16.988281 33.953125 C 16.292969 33.992188 16.070312 34.339844 16.070312 34.339844 C 16.609375 35.035156 22.496094 35.132812 22.496094 35.132812 C 22.496094 35.132812 28.382812 35.035156 28.921875 34.339844 C 28.921875 34.339844 28.699219 33.992188 28.003906 33.953125 "/>
<path style=" stroke:none;fill-rule:nonzero;fill:rgb(100%,100%,100%);fill-opacity:1;" d="M 26.058594 19.121094 L 18.9375 19.121094 C 18.9375 19.121094 21.378906 27.160156 16.988281 33.953125 C 16.988281 33.953125 18.128906 34.472656 22.496094 34.496094 C 26.863281 34.472656 28.003906 33.953125 28.003906 33.953125 C 23.613281 27.160156 26.058594 19.121094 26.058594 19.121094 "/>
<path style=" stroke:none;fill-rule:nonzero;fill:rgb(100%,100%,100%);fill-opacity:1;" d="M 31.660156 42.253906 C 31.660156 42.996094 27.558594 43.597656 22.496094 43.597656 C 17.4375 43.597656 13.332031 42.996094 13.332031 42.253906 C 13.332031 42.253906 13.023438 43.289062 15.113281 44.144531 C 17.203125 45 22.496094 44.90625 22.496094 44.90625 C 22.496094 44.90625 27.789062 45 29.878906 44.144531 C 31.96875 43.289062 31.660156 42.253906 31.660156 42.253906 "/>
<path style=" stroke:none;fill-rule:nonzero;fill:rgb(100%,100%,100%);fill-opacity:1;" d="M 30.460938 41.585938 C 28.597656 42.5625 22.496094 42.492188 22.496094 42.492188 C 22.496094 42.492188 16.394531 42.5625 14.53125 41.585938 C 13.769531 41.785156 13.332031 42.011719 13.332031 42.253906 C 13.332031 42.996094 17.4375 43.597656 22.496094 43.597656 C 27.558594 43.597656 31.660156 42.996094 31.660156 42.253906 C 31.660156 42.011719 31.222656 41.785156 30.460938 41.585938 "/>
<path style=" stroke:none;fill-rule:nonzero;fill:rgb(100%,100%,100%);fill-opacity:1;" d="M 22.496094 0.847656 L 22.097656 0.847656 L 22.097656 1.046875 L 22.894531 1.046875 L 22.894531 0.847656 L 22.496094 0.847656 "/>
<path style=" stroke:none;fill-rule:nonzero;fill:rgb(100%,100%,100%);fill-opacity:1;" d="M 22.894531 0.00390625 L 22.097656 0.00390625 C 21.851562 0.00390625 21.773438 0.191406 21.773438 0.425781 C 21.773438 0.660156 21.851562 0.847656 22.097656 0.847656 L 22.894531 0.847656 C 23.140625 0.847656 23.21875 0.660156 23.21875 0.425781 C 23.21875 0.191406 23.140625 0.00390625 22.894531 0.00390625 "/>
<path style=" stroke:none;fill-rule:nonzero;fill:rgb(100%,100%,100%);fill-opacity:1;" d="M 25.183594 12.96875 C 25.183594 12.96875 25.582031 10.769531 26.816406 8.871094 Z M 22.496094 8.550781 L 17.464844 8.550781 L 19.488281 13.394531 L 25.503906 13.394531 L 27.527344 8.550781 L 22.496094 8.550781 "/>
<path style=" stroke:none;fill-rule:nonzero;fill:rgb(100%,100%,100%);fill-opacity:1;" d="M 30.695312 39.757812 C 30.746094 38.707031 29.652344 38.003906 28.921875 37.519531 C 28.1875 37.035156 28.386719 35.914062 28.386719 35.914062 C 28.378906 37.183594 29.039062 37.503906 29.039062 37.503906 C 31.140625 38.789062 30.695312 39.757812 30.695312 39.757812 Z M 16.289062 37.519531 C 15.554688 38.003906 14.464844 38.707031 14.511719 39.757812 C 14.511719 39.757812 14.066406 38.789062 16.171875 37.503906 C 16.171875 37.503906 16.832031 37.183594 16.820312 35.914062 C 16.820312 35.914062 17.019531 37.035156 16.289062 37.519531 Z M 30.425781 37.925781 C 29.601562 37.386719 28.984375 37.007812 28.921875 36.484375 L 28.921875 35.121094 C 28.382812 35.820312 22.496094 35.914062 22.496094 35.914062 C 22.496094 35.914062 16.609375 35.820312 16.070312 35.121094 L 16.070312 36.484375 C 16.007812 37.007812 15.390625 37.386719 14.566406 37.925781 C 13.746094 38.464844 12.75 39.714844 14.347656 40.804688 C 15.945312 41.898438 22.496094 41.820312 22.496094 41.820312 C 22.496094 41.820312 29.046875 41.898438 30.644531 40.804688 C 32.242188 39.714844 31.246094 38.464844 30.425781 37.925781 "/>
<path style=" stroke:none;fill-rule:nonzero;fill:rgb(100%,100%,100%);fill-opacity:1;" d="M 26.898438 18.527344 C 26.898438 18.527344 27.199219 18.226562 27.1875 17.738281 C 27.171875 17.214844 27.054688 17.101562 26.738281 17.011719 C 26.738281 17.011719 27.285156 16.988281 27.25 17.765625 C 27.25 17.765625 27.234375 18.382812 26.898438 18.527344 Z M 26.648438 16.855469 L 18.34375 16.855469 C 17.597656 16.855469 17.480469 17.261719 17.480469 17.765625 C 17.480469 18.269531 17.597656 18.675781 18.34375 18.675781 L 26.648438 18.675781 C 27.394531 18.675781 27.511719 18.269531 27.511719 17.765625 C 27.511719 17.261719 27.394531 16.855469 26.648438 16.855469 "/>
<path style=" stroke:none;fill-rule:nonzero;fill:rgb(100%,100%,100%);fill-opacity:1;" d="M 26.59375 16.488281 C 26.59375 16.488281 26.710938 16.367188 26.707031 16.175781 C 26.703125 15.96875 26.65625 15.925781 26.53125 15.890625 C 26.53125 15.890625 26.746094 15.882812 26.734375 16.1875 C 26.734375 16.1875 26.726562 16.429688 26.59375 16.488281 Z M 26.070312 15.746094 L 18.921875 15.746094 C 18.277344 15.746094 18.175781 15.941406 18.175781 16.1875 C 18.175781 16.433594 18.277344 16.632812 18.921875 16.632812 L 26.070312 16.632812 C 26.714844 16.632812 26.816406 16.433594 26.816406 16.1875 C 26.816406 15.941406 26.714844 15.746094 26.070312 15.746094 "/>
<path style=" stroke:none;fill-rule:nonzero;fill:rgb(100%,100%,100%);fill-opacity:1;" d="M 25.835938 14.460938 C 25.835938 14.460938 25.953125 14.34375 25.949219 14.152344 C 25.941406 13.945312 25.898438 13.902344 25.773438 13.867188 C 25.773438 13.867188 25.988281 13.859375 25.972656 14.164062 C 25.972656 14.164062 25.964844 14.40625 25.835938 14.460938 Z M 25.46875 13.730469 L 19.523438 13.730469 C 18.988281 13.730469 18.902344 13.929688 18.902344 14.175781 C 18.902344 14.417969 18.988281 14.617188 19.523438 14.617188 L 25.46875 14.617188 C 26.003906 14.617188 26.089844 14.417969 26.089844 14.175781 C 26.089844 13.929688 26.003906 13.730469 25.46875 13.730469 "/>
<path style=" stroke:none;fill-rule:nonzero;fill:rgb(100%,100%,100%);fill-opacity:1;" d="M 23.898438 6.257812 C 23.898438 6.257812 24.125 6.027344 24.117188 5.660156 C 24.105469 5.265625 24.019531 5.183594 23.777344 5.113281 C 23.777344 5.113281 24.191406 5.09375 24.164062 5.679688 C 24.164062 5.679688 24.152344 6.148438 23.898438 6.257812 Z M 23.636719 5.015625 L 21.355469 5.015625 C 20.777344 5.015625 20.703125 5.324219 20.703125 5.703125 C 20.703125 6.085938 20.777344 6.394531 21.355469 6.394531 L 23.636719 6.394531 C 24.214844 6.394531 24.289062 6.085938 24.289062 5.703125 C 24.289062 5.324219 24.214844 5.015625 23.636719 5.015625 "/>
<path style=" stroke:none;fill-rule:nonzero;fill:rgb(100%,100%,100%);fill-opacity:1;" d="M 23.21875 2.425781 C 23.21875 2.425781 23.492188 1.9375 24 1.519531 Z M 24.097656 4.390625 C 24.097656 4.390625 23.449219 3.96875 23.183594 3.542969 Z M 24.425781 2.363281 L 23.359375 2.480469 L 24.253906 1.507812 C 24.253906 1.507812 23.445312 1.046875 22.914062 1.046875 L 22.078125 1.046875 C 21.546875 1.046875 20.738281 1.507812 20.738281 1.507812 L 21.632812 2.480469 L 20.566406 2.363281 L 20.566406 3.46875 L 21.6875 3.46875 L 20.703125 4.425781 L 21.847656 4.792969 L 23.144531 4.792969 L 24.289062 4.425781 L 23.304688 3.46875 L 24.425781 3.46875 L 24.425781 2.363281 "/>
<path style=" stroke:none;fill-rule:nonzero;fill:rgb(100%,100%,100%);fill-opacity:1;" d="M 14.621094 14.132812 C 11.085938 14.132812 8.210938 11.257812 8.210938 7.722656 C 8.210938 4.191406 11.085938 1.316406 14.621094 1.316406 C 18.15625 1.316406 21.03125 4.191406 21.03125 7.722656 C 21.03125 11.257812 18.15625 14.132812 14.621094 14.132812 Z M 14.621094 1.894531 C 11.40625 1.894531 8.789062 4.507812 8.789062 7.722656 C 8.789062 10.9375 11.40625 13.554688 14.621094 13.554688 C 17.835938 13.554688 20.449219 10.9375 20.449219 7.722656 C 20.449219 4.507812 17.835938 1.894531 14.621094 1.894531 Z M 14.621094 1.894531 "/>
<g clip-path="url(#clip1)" clip-rule="nonzero">
<path style=" stroke:none;fill-rule:nonzero;fill:rgb(100%,100%,100%);fill-opacity:1;" d="M 5.511719 7.398438 L 11.972656 7.398438 L 11.972656 7.976562 L 5.511719 7.976562 Z M 5.511719 7.398438 "/>
</g>
<path style=" stroke:none;fill-rule:nonzero;fill:rgb(100%,100%,100%);fill-opacity:1;" d="M 15.1875 7.746094 C 15.1875 8.058594 14.933594 8.3125 14.621094 8.3125 C 14.308594 8.3125 14.054688 8.058594 14.054688 7.746094 C 14.054688 7.433594 14.308594 7.179688 14.621094 7.179688 C 14.933594 7.179688 15.1875 7.433594 15.1875 7.746094 Z M 15.1875 7.746094 "/>
<g clip-path="url(#clip2)" clip-rule="nonzero">
<path style=" stroke:none;fill-rule:nonzero;fill:rgb(100%,100%,100%);fill-opacity:1;" d="M 17.066406 7.457031 L 23.53125 7.457031 L 23.53125 8.035156 L 17.066406 8.035156 Z M 17.066406 7.457031 "/>
</g>
<g clip-path="url(#clip3)" clip-rule="nonzero">
<path style=" stroke:none;fill-rule:nonzero;fill:rgb(100%,100%,100%);fill-opacity:1;" d="M 14.300781 10.269531 L 14.878906 10.269531 L 14.878906 16.734375 L 14.300781 16.734375 Z M 14.300781 10.269531 "/>
</g>
<path style=" stroke:none;fill-rule:nonzero;fill:rgb(100%,100%,100%);fill-opacity:1;" d="M 14.359375 -1.285156 L 14.9375 -1.285156 L 14.9375 5.175781 L 14.359375 5.175781 Z M 14.359375 -1.285156 "/>
</g>
</svg>
