<svg width="512" height="512" viewBox="0 0 512 512" fill="none" xmlns="http://www.w3.org/2000/svg">
<path d="M346.51 225L361.51 180L346.51 135L301.51 120L256.51 135V225H346.51ZM436 135C436 124.039 436 55.889 436 45C425.111 45 357.327 45 346.51 45L331.51 90L346.51 135L391.255 150L436 135ZM256.51 135C256.51 124.039 256.51 55.889 256.51 45C245.549 45 177.399 45 166.51 45L151.51 90L166.51 135L211.51 150L256.51 135ZM181.51 180L166.51 135L121.255 120L76 135V225H166.51L181.51 180ZM507.605 486.395C503.738 482.542 410.424 392 256 392C101.576 392 8.262 482.542 4.395 486.395C0.118004 490.687 -1.171 497.132 1.143 502.743C3.457 508.354 8.936 512 15 512H497C503.064 512 508.543 508.353 510.857 502.742C513.171 497.131 511.883 490.687 507.605 486.395V486.395Z" fill="url(#paint0_linear_455_43)"/>
<path d="M166.51 225H256.51V135H166.51V225ZM91 45V15C91 6.716 84.284 0 76 0C67.716 0 61 6.716 61 15V444.904C70.005 439.624 80.013 434.25 91 429.048V135H166.51V45H91ZM436 0C427.716 0 421 6.716 421 15V135H346.51V225H421V429.048C431.987 434.25 441.995 439.624 451 444.904V15C451 6.716 444.284 0 436 0ZM256.51 45V135H346.51V45H256.51Z" fill="url(#paint1_linear_455_43)"/>
<defs>
<linearGradient id="paint0_linear_455_43" x1="256" y1="511.998" x2="256" y2="44.9982" gradientUnits="userSpaceOnUse">
<stop stop-color="#C3D7FF"/>
<stop offset="0.9973" stop-color="#F0F0FF"/>
</linearGradient>
<linearGradient id="paint1_linear_455_43" x1="256" y1="444.904" x2="256" y2="0.000583403" gradientUnits="userSpaceOnUse">
<stop stop-color="#5F44F8"/>
<stop offset="0.0001" stop-color="#6344F8"/>
<stop offset="1" stop-color="#9CA6FF"/>
</linearGradient>
</defs>
</svg>
