<?xml version="1.0" encoding="UTF-8"?>
<svg width="464pt" height="464pt" viewBox="0 -20 464 464" xmlns="http://www.w3.org/2000/svg">
<path d="m340 0c-44.773 0.0039062-86.066 24.164-108 63.199-21.934-39.035-63.227-63.195-108-63.199-68.48 0-124 63.52-124 132 0 172 232 292 232 292s232-120 232-292c0-68.48-55.52-132-124-132z" fill="#ff6243"/>
<path d="m32 132c0-63.359 47.551-122.36 108.89-130.85-5.5977-0.76953-11.242-1.1563-16.895-1.1523-68.48 0-124 63.52-124 132 0 172 232 292 232 292s6-3.1133 16-8.9922c-52.414-30.824-216-138.56-216-283.01z" fill="#ff5023"/>
</svg>