<?xml version="1.0" encoding="UTF-8"?>
<svg xmlns="http://www.w3.org/2000/svg" xmlns:xlink="http://www.w3.org/1999/xlink" width="45pt" height="44.999999pt" viewBox="0 0 45 44.999999" version="1.2">
<defs>
<clipPath id="clip1">
  <path d="M 1 7.398438 L 45 7.398438 L 45 37.398438 L 1 37.398438 Z M 1 7.398438 "/>
</clipPath>
</defs>
<g id="surface1">
<g clip-path="url(#clip1)" clip-rule="nonzero">
<path style=" stroke:none;fill-rule:nonzero;fill:rgb(100%,100%,100%);fill-opacity:1;" d="M 42.378906 9.324219 C 41.085938 8.042969 39.390625 7.398438 37.695312 7.398438 C 36 7.398438 34.304688 8.042969 33.011719 9.324219 C 31.035156 11.285156 30.570312 14.175781 31.609375 16.578125 L 17.488281 30.597656 C 16.226562 31.851562 14.542969 32.542969 12.753906 32.542969 C 10.96875 32.542969 9.289062 31.851562 8.019531 30.597656 C 6.757812 29.339844 6.0625 27.675781 6.0625 25.902344 C 6.0625 24.125 6.757812 22.453125 8.019531 21.199219 L 9.242188 22.414062 L 11.585938 10.789062 L 4.558594 17.765625 C 0.03125 22.257812 0.03125 29.542969 4.558594 34.03125 C 6.824219 36.28125 9.789062 37.402344 12.753906 37.402344 C 15.722656 37.402344 18.6875 36.28125 20.949219 34.03125 L 35.070312 20.011719 C 35.90625 20.371094 36.800781 20.550781 37.695312 20.550781 C 39.390625 20.550781 41.085938 19.90625 42.378906 18.625 C 44.960938 16.058594 44.960938 11.890625 42.378906 9.324219 Z M 40.039062 16.296875 C 39.414062 16.921875 38.582031 17.261719 37.695312 17.261719 C 37.238281 17.261719 36.792969 17.171875 36.378906 16.996094 L 35.167969 16.476562 L 34.652344 15.273438 C 34.390625 14.679688 34.316406 14.023438 34.4375 13.378906 C 34.554688 12.722656 34.871094 12.128906 35.347656 11.652344 C 35.976562 11.03125 36.808594 10.6875 37.695312 10.6875 C 38.582031 10.6875 39.414062 11.03125 40.039062 11.652344 C 40.664062 12.273438 41.007812 13.097656 41.007812 13.976562 C 41.007812 14.851562 40.664062 15.679688 40.039062 16.296875 Z M 40.039062 16.296875 "/>
</g>
</g>
</svg>
