<?xml version="1.0" encoding="UTF-8"?>
<svg xmlns="http://www.w3.org/2000/svg" xmlns:xlink="http://www.w3.org/1999/xlink" width="45pt" height="44.999999pt" viewBox="0 0 45 44.999999" version="1.2">
<defs>
<clipPath id="clip1">
  <path d="M 17 9 L 28 9 L 28 35.972656 L 17 35.972656 Z M 17 9 "/>
</clipPath>
</defs>
<g id="surface1">
<path style=" stroke:none;fill-rule:nonzero;fill:rgb(100%,100%,100%);fill-opacity:1;" d="M 44.296875 15.5 L 41.488281 15.5 C 41.105469 15.5 40.789062 15.8125 40.789062 16.199219 L 40.789062 28.8125 C 40.789062 29.199219 41.105469 29.515625 41.488281 29.515625 L 44.296875 29.515625 C 44.683594 29.515625 45 29.199219 45 28.8125 L 45 16.199219 C 45 15.8125 44.683594 15.5 44.296875 15.5 Z M 43.597656 28.113281 L 42.191406 28.113281 L 42.191406 16.902344 L 43.597656 16.902344 Z M 43.597656 28.113281 "/>
<path style=" stroke:none;fill-rule:nonzero;fill:rgb(100%,100%,100%);fill-opacity:1;" d="M 38.683594 15.5 L 35.875 15.5 C 35.488281 15.5 35.171875 15.8125 35.171875 16.199219 L 35.171875 28.8125 C 35.171875 29.199219 35.488281 29.515625 35.875 29.515625 L 38.683594 29.515625 C 39.066406 29.515625 39.382812 29.199219 39.382812 28.8125 L 39.382812 16.199219 C 39.382812 15.8125 39.066406 15.5 38.683594 15.5 Z M 37.980469 28.113281 L 36.574219 28.113281 L 36.574219 16.902344 L 37.980469 16.902344 Z M 37.980469 28.113281 "/>
<path style=" stroke:none;fill-rule:nonzero;fill:rgb(100%,100%,100%);fill-opacity:1;" d="M 33.066406 15.5 L 30.257812 15.5 C 29.871094 15.5 29.554688 15.8125 29.554688 16.199219 L 29.554688 28.8125 C 29.554688 29.199219 29.871094 29.515625 30.257812 29.515625 L 33.066406 29.515625 C 33.453125 29.515625 33.765625 29.199219 33.765625 28.8125 L 33.765625 16.199219 C 33.765625 15.8125 33.453125 15.5 33.066406 15.5 Z M 32.363281 28.113281 L 30.960938 28.113281 L 30.960938 16.902344 L 32.363281 16.902344 Z M 32.363281 28.113281 "/>
<path style=" stroke:none;fill-rule:nonzero;fill:rgb(100%,100%,100%);fill-opacity:1;" d="M 7.300781 16.375 C 7.300781 16.375 4.738281 15.535156 4.738281 15.535156 C 4.386719 15.429688 3.964844 15.605469 3.859375 15.988281 L 0.105469 27.761719 C 0 28.113281 0.175781 28.535156 0.5625 28.640625 C 0.5625 28.640625 3.125 29.480469 3.125 29.480469 C 3.476562 29.585938 3.894531 29.410156 4 29.023438 L 7.757812 17.25 C 7.863281 16.902344 7.6875 16.515625 7.300781 16.375 Z M 2.878906 27.9375 L 1.648438 27.519531 L 4.984375 17.074219 L 6.214844 17.496094 Z M 2.878906 27.9375 "/>
<path style=" stroke:none;fill-rule:nonzero;fill:rgb(100%,100%,100%);fill-opacity:1;" d="M 12.917969 16.375 C 12.917969 16.375 10.355469 15.535156 10.355469 15.535156 C 10.003906 15.429688 9.582031 15.605469 9.476562 15.988281 L 5.722656 27.761719 C 5.617188 28.113281 5.792969 28.535156 6.179688 28.640625 C 6.179688 28.640625 8.742188 29.480469 8.742188 29.480469 C 9.089844 29.585938 9.511719 29.375 9.617188 29.023438 L 13.375 17.25 C 13.480469 16.902344 13.304688 16.515625 12.917969 16.375 Z M 8.496094 27.9375 L 7.265625 27.519531 L 10.601562 17.074219 L 11.828125 17.496094 Z M 8.496094 27.9375 "/>
<path style=" stroke:none;fill-rule:nonzero;fill:rgb(100%,100%,100%);fill-opacity:1;" d="M 18.535156 16.375 C 18.535156 16.375 15.972656 15.535156 15.972656 15.535156 C 15.621094 15.429688 15.199219 15.605469 15.09375 15.988281 L 11.335938 27.761719 C 11.234375 28.113281 11.40625 28.535156 11.792969 28.640625 C 11.792969 28.640625 14.355469 29.480469 14.355469 29.480469 C 14.707031 29.585938 15.128906 29.410156 15.234375 29.023438 L 18.988281 17.25 C 19.09375 16.902344 18.917969 16.515625 18.535156 16.375 Z M 14.109375 27.9375 L 12.882812 27.519531 L 16.21875 17.074219 L 17.445312 17.496094 Z M 14.109375 27.9375 "/>
<g clip-path="url(#clip1)" clip-rule="nonzero">
<path style=" stroke:none;fill-rule:nonzero;fill:rgb(100%,100%,100%);fill-opacity:1;" d="M 23.9375 9.71875 C 23.867188 9.507812 23.695312 9.332031 23.449219 9.261719 C 23.027344 9.15625 22.007812 9.050781 21.269531 10.417969 C 20.78125 11.363281 20.886719 12.941406 21.027344 13.640625 L 21.902344 18.125 C 21.480469 18.476562 21.097656 19.074219 20.710938 19.84375 L 18.148438 26.011719 C 17.480469 27.34375 16.953125 30.496094 19.550781 33.265625 C 19.550781 33.265625 20.183594 35.332031 20.183594 35.332031 C 20.289062 35.683594 20.710938 35.890625 21.0625 35.789062 C 21.445312 35.683594 21.65625 35.296875 21.515625 34.910156 L 20.851562 32.667969 C 20.816406 32.5625 20.746094 32.457031 20.675781 32.386719 C 17.972656 29.621094 19.375 26.710938 19.445312 26.605469 C 19.445312 26.605469 22.042969 20.40625 22.042969 20.40625 C 22.570312 19.316406 22.992188 19.003906 23.132812 19.003906 C 23.167969 19.003906 23.238281 19.039062 23.273438 19.039062 C 22.394531 21.664062 21.585938 25.800781 21.550781 25.976562 C 21.480469 26.363281 21.726562 26.710938 22.113281 26.78125 C 22.5 26.851562 22.851562 26.605469 22.921875 26.222656 C 22.921875 26.1875 23.832031 21.5625 24.710938 19.109375 C 24.78125 18.898438 24.746094 18.6875 24.640625 18.511719 C 24.570312 18.40625 24.113281 17.671875 23.238281 17.601562 L 22.394531 13.359375 C 22.253906 12.625 22.253906 11.503906 22.5 11.046875 C 22.605469 10.875 22.675781 10.769531 22.746094 10.699219 L 25.976562 20.40625 C 26.046875 20.648438 26.046875 21.140625 26.011719 21.351562 L 23.695312 28.882812 C 23.660156 29.023438 23.660156 29.199219 23.695312 29.339844 C 23.695312 29.339844 25.484375 33.964844 25.484375 33.964844 C 25.625 34.316406 26.046875 34.492188 26.394531 34.386719 C 26.746094 34.246094 26.921875 33.824219 26.816406 33.476562 L 25.132812 29.058594 L 27.378906 21.734375 C 27.519531 21.246094 27.484375 20.507812 27.34375 19.984375 Z M 23.9375 9.71875 "/>
</g>
</g>
</svg>
