<?xml version="1.0" encoding="UTF-8"?>
<svg xmlns="http://www.w3.org/2000/svg" xmlns:xlink="http://www.w3.org/1999/xlink" width="45pt" height="44.999999pt" viewBox="0 0 45 44.999999" version="1.2">
<defs>
<clipPath id="clip1">
  <path d="M 21 11.867188 L 45 11.867188 L 45 32.867188 L 21 32.867188 Z M 21 11.867188 "/>
</clipPath>
</defs>
<g id="surface1">
<path style=" stroke:none;fill-rule:nonzero;fill:rgb(100%,100%,100%);fill-opacity:1;" d="M 33.71875 26.453125 L 21.910156 26.453125 L 21.910156 18.285156 L 33.71875 18.285156 L 33.71875 13.179688 L 44.054688 22.367188 L 33.71875 31.558594 Z M 33.71875 26.453125 "/>
<g clip-path="url(#clip1)" clip-rule="nonzero">
<path style=" stroke:none;fill-rule:nonzero;fill:rgb(100%,100%,100%);fill-opacity:1;" d="M 34.308594 14.488281 L 43.171875 22.367188 L 34.308594 30.25 L 34.308594 25.867188 L 22.5 25.867188 L 22.5 18.867188 L 34.308594 18.867188 L 34.308594 14.488281 M 33.128906 11.867188 L 33.128906 17.703125 L 21.320312 17.703125 L 21.320312 27.035156 L 33.128906 27.035156 L 33.128906 32.867188 L 44.9375 22.367188 Z M 33.128906 11.867188 "/>
</g>
<path style=" stroke:none;fill-rule:nonzero;fill:rgb(100%,100%,100%);fill-opacity:1;" d="M 7.738281 18.285156 L 11.28125 18.285156 L 11.28125 26.453125 L 7.738281 26.453125 Z M 7.738281 18.285156 "/>
<path style=" stroke:none;fill-rule:nonzero;fill:rgb(100%,100%,100%);fill-opacity:1;" d="M 10.691406 18.867188 L 10.691406 25.867188 L 8.328125 25.867188 L 8.328125 18.867188 L 10.691406 18.867188 M 11.871094 17.703125 L 7.148438 17.703125 L 7.148438 27.035156 L 11.871094 27.035156 Z M 11.871094 17.703125 "/>
<path style=" stroke:none;fill-rule:nonzero;fill:rgb(100%,100%,100%);fill-opacity:1;" d="M 14.824219 18.285156 L 18.367188 18.285156 L 18.367188 26.453125 L 14.824219 26.453125 Z M 14.824219 18.285156 "/>
<path style=" stroke:none;fill-rule:nonzero;fill:rgb(100%,100%,100%);fill-opacity:1;" d="M 17.777344 18.867188 L 17.777344 25.867188 L 15.414062 25.867188 L 15.414062 18.867188 L 17.777344 18.867188 M 18.957031 17.703125 L 14.234375 17.703125 L 14.234375 27.035156 L 18.957031 27.035156 Z M 18.957031 17.703125 "/>
<path style=" stroke:none;fill-rule:nonzero;fill:rgb(100%,100%,100%);fill-opacity:1;" d="M 0.652344 18.285156 L 4.195312 18.285156 L 4.195312 26.453125 L 0.652344 26.453125 Z M 0.652344 18.285156 "/>
<path style=" stroke:none;fill-rule:nonzero;fill:rgb(100%,100%,100%);fill-opacity:1;" d="M 3.605469 18.867188 L 3.605469 25.867188 L 1.242188 25.867188 L 1.242188 18.867188 L 3.605469 18.867188 M 4.785156 17.703125 L 0.0625 17.703125 L 0.0625 27.035156 L 4.785156 27.035156 Z M 4.785156 17.703125 "/>
</g>
</svg>
