<?xml version="1.0"?>
<svg xmlns="http://www.w3.org/2000/svg" xmlns:xlink="http://www.w3.org/1999/xlink" xmlns:svgjs="http://svgjs.com/svgjs" version="1.1" width="512" height="512" x="0" y="0" viewBox="0 0 60 68" style="enable-background:new 0 0 512 512" xml:space="preserve" class=""><g><g xmlns="http://www.w3.org/2000/svg" id="Page-1" fill="none" fill-rule="evenodd"><g id="shield_export" fill="rgb(0,0,0)" fill-rule="nonzero" transform="translate(-660 -536)"><path id="graph,-data,-statystics,-shield,-security,-protection" d="m661.327327 546.116516 28-10c.434994-.155355.910352-.155355 1.345346 0l28 10c.795986.284281 1.327327 1.038257 1.327327 1.883484v15.811232c0 17.749772-11.158167 33.583266-27.873871 39.55316l-1.453456.519092c-.434994.155355-.910352.155355-1.345346 0l-1.453456-.519092c-16.715704-5.969894-27.873871-21.803388-27.873871-39.55316v-15.811232c0-.845227.531341-1.599203 1.327327-1.883484zm2.672673 3.292922v14.401794c0 16.059318 10.095484 30.38486 25.219217 35.786193l.780783.278851.780783-.278851c15.123733-5.401333 25.219217-19.726875 25.219217-35.786193v-14.401794l-26-9.285714zm20 25.590562c0 1.104569-.895431 2-2 2s-2-.895431-2-2v-5c0-1.104569.895431-2 2-2s2 .895431 2 2zm8 0c0 1.104569-.895431 2-2 2s-2-.895431-2-2v-13c0-1.104569.895431-2 2-2s2 .895431 2 2zm8 0c0 1.104569-.895431 2-2 2s-2-.895431-2-2v-8c0-1.104569.895431-2 2-2s2 .895431 2 2z" fill="#247cf1" data-original="#000000" class=""/></g></g></g></svg>
