<?xml version="1.0" encoding="UTF-8"?>
<svg xmlns="http://www.w3.org/2000/svg" xmlns:xlink="http://www.w3.org/1999/xlink" width="45pt" height="44.999999pt" viewBox="0 0 45 44.999999" version="1.2">
<defs>
<clipPath id="clip1">
  <path d="M 0.675781 0.464844 L 44.175781 0.464844 L 44.175781 44.488281 L 0.675781 44.488281 Z M 0.675781 0.464844 "/>
</clipPath>
</defs>
<g id="surface1">
<g clip-path="url(#clip1)" clip-rule="nonzero">
<path style=" stroke:none;fill-rule:nonzero;fill:rgb(100%,100%,100%);fill-opacity:1;" d="M 42.769531 43.082031 L 31.546875 43.082031 L 31.546875 39.570312 C 31.546875 39.183594 31.859375 38.867188 32.246094 38.867188 L 42.070312 38.867188 C 42.457031 38.867188 42.769531 39.183594 42.769531 39.570312 Z M 28.085938 39.054688 L 30.035156 36.613281 L 31.363281 37.660156 C 30.644531 37.996094 30.140625 38.722656 30.140625 39.570312 L 30.140625 41.285156 Z M 13.484375 37.660156 L 14.8125 36.613281 L 16.761719 39.054688 L 14.707031 41.285156 L 14.707031 39.570312 C 14.707031 38.722656 14.203125 37.996094 13.484375 37.660156 Z M 13.304688 43.082031 L 2.078125 43.082031 L 2.078125 39.570312 C 2.078125 39.183594 2.394531 38.867188 2.777344 38.867188 L 12.601562 38.867188 C 12.988281 38.867188 13.304688 39.183594 13.304688 39.570312 Z M 7.691406 2.753906 L 11.714844 7.9375 L 3.667969 7.9375 Z M 18.917969 11.449219 L 18.917969 14.261719 L 13.304688 14.261719 L 13.304688 11.449219 Z M 22.425781 7.800781 L 24.527344 10.960938 L 24.527344 14.261719 L 20.320312 14.261719 L 20.320312 10.960938 Z M 31.546875 14.261719 L 25.933594 14.261719 L 25.933594 11.449219 L 31.546875 11.449219 Z M 37.160156 2.753906 L 41.179688 7.9375 L 33.136719 7.9375 Z M 41.367188 17.777344 L 39.964844 17.777344 L 39.964844 10.75 L 34.351562 10.75 L 34.351562 17.777344 L 32.949219 17.777344 L 32.949219 9.34375 L 41.367188 9.34375 Z M 38.5625 17.777344 L 35.753906 17.777344 L 35.753906 12.152344 L 38.5625 12.152344 Z M 38.5625 27.617188 L 35.753906 27.617188 L 35.753906 21.996094 L 38.5625 21.996094 Z M 41.367188 27.617188 L 39.964844 27.617188 L 39.964844 20.589844 L 34.351562 20.589844 L 34.351562 27.617188 L 32.949219 27.617188 L 32.949219 19.183594 L 41.367188 19.183594 Z M 9.09375 27.617188 L 6.289062 27.617188 L 6.289062 21.996094 L 9.09375 21.996094 Z M 3.480469 19.183594 L 11.898438 19.183594 L 11.898438 27.617188 L 10.496094 27.617188 L 10.496094 20.589844 L 4.882812 20.589844 L 4.882812 27.617188 L 3.480469 27.617188 Z M 9.09375 17.777344 L 6.289062 17.777344 L 6.289062 12.152344 L 9.09375 12.152344 Z M 11.898438 17.777344 L 10.496094 17.777344 L 10.496094 10.75 L 4.882812 10.75 L 4.882812 17.777344 L 3.480469 17.777344 L 3.480469 9.34375 L 11.898438 9.34375 Z M 4.882812 30.429688 L 4.882812 37.460938 L 3.480469 37.460938 L 3.480469 29.023438 L 11.898438 29.023438 L 11.898438 37.460938 L 10.496094 37.460938 L 10.496094 30.429688 Z M 9.09375 37.460938 L 6.289062 37.460938 L 6.289062 31.835938 L 9.09375 31.835938 Z M 22.425781 28.835938 L 13.304688 36.015625 L 13.304688 15.667969 L 31.546875 15.667969 L 31.546875 36.015625 Z M 26.859375 34.113281 L 28.929688 35.742188 L 27.121094 38.007812 L 25.367188 36.105469 Z M 23.125 31.175781 L 25.757812 33.246094 L 24.402344 35.054688 L 23.125 33.671875 Z M 19.089844 33.246094 L 21.722656 31.175781 L 21.722656 33.671875 L 20.449219 35.054688 Z M 17.988281 34.113281 L 19.480469 36.105469 L 17.726562 38.007812 L 15.917969 35.742188 Z M 34.351562 30.429688 L 34.351562 37.460938 L 32.949219 37.460938 L 32.949219 29.023438 L 41.367188 29.023438 L 41.367188 37.460938 L 39.964844 37.460938 L 39.964844 30.429688 Z M 38.5625 37.460938 L 35.753906 37.460938 L 35.753906 31.835938 L 38.5625 31.835938 Z M 42.769531 37.59375 L 42.769531 7.695312 L 37.160156 0.464844 L 31.546875 7.695312 L 31.546875 10.046875 L 25.605469 10.046875 L 22.425781 5.265625 L 19.242188 10.046875 L 13.304688 10.046875 L 13.304688 7.695312 L 7.691406 0.464844 L 2.078125 7.695312 L 2.078125 37.59375 C 1.261719 37.878906 0.675781 38.65625 0.675781 39.570312 L 0.675781 44.488281 L 14.707031 44.488281 L 14.707031 43.359375 L 22.425781 34.984375 L 30.140625 43.359375 L 30.140625 44.488281 L 44.175781 44.488281 L 44.175781 39.570312 C 44.175781 38.65625 43.585938 37.878906 42.769531 37.59375 "/>
</g>
</g>
</svg>
