<svg width="512" height="512" viewBox="0 0 512 512" fill="none" xmlns="http://www.w3.org/2000/svg">
<g clip-path="url(#clip0_456_92)">
<path d="M431.973 80.327C385.015 33.369 309.002 33.597 262.285 80.283C215.377 126.858 215.147 202.89 262.256 250.029C309.372 297.114 385.686 296.346 431.973 250.029C478.438 203.624 478.933 127.226 431.973 80.327V80.327ZM230.41 260.62L166.777 324.253C160.918 330.112 160.918 339.605 166.777 345.464C172.637 351.324 182.129 351.323 187.988 345.464L251.621 281.831C257.48 275.972 257.48 266.479 251.621 260.62C245.762 254.761 236.27 254.761 230.41 260.62Z" fill="url(#paint0_linear_456_92)"/>
<path d="M463.672 48.6259C398.968 -16.0821 295.232 -16.3351 230.271 48.6259C166.072 112.825 166.072 217.526 230.271 281.725C294.336 345.79 398.863 346.537 463.672 281.725C528.706 216.691 527.51 111.849 463.672 48.6259V48.6259ZM421.373 239.425C380.833 279.961 313.92 280.473 272.873 239.425C231.773 198.325 231.773 131.724 272.873 90.9249C313.673 50.1249 380.272 49.8249 421.373 90.9249C462.695 132.251 461.695 199.104 421.373 239.425ZM124.356 324.253L13.162 435.173C-4.38701 452.722 -4.38701 481.272 13.162 498.82C30.778 516.437 59.267 516.348 76.795 498.82L187.988 387.9C205.537 370.351 205.537 341.801 187.988 324.238C170.41 306.719 141.875 306.733 124.356 324.253Z" fill="url(#paint1_linear_456_92)"/>
</g>
<defs>
<linearGradient id="paint0_linear_456_92" x1="314.695" y1="349.859" x2="314.695" y2="45.1885" gradientUnits="userSpaceOnUse">
<stop stop-color="#BEFFF7"/>
<stop offset="1" stop-color="#F1FFFD"/>
</linearGradient>
<linearGradient id="paint1_linear_456_92" x1="256" y1="511.999" x2="256" y2="0" gradientUnits="userSpaceOnUse">
<stop stop-color="#01B7A8"/>
<stop offset="1" stop-color="#81FFE8"/>
</linearGradient>
<clipPath id="clip0_456_92">
<rect width="512" height="512" fill="white"/>
</clipPath>
</defs>
</svg>
