<svg width="512" height="450" viewBox="0 0 512 450" fill="none" xmlns="http://www.w3.org/2000/svg">
<path d="M256 180C247.709 180 241 186.709 241 195V375C241 383.291 247.709 390 256 390C264.291 390 271 383.291 271 375V195C271 186.709 264.291 180 256 180ZM482 182.699V30L467 15L452 30V182.699C434.6 188.699 422 205.499 422 225V285C422 293.399 428.599 300 437 300H497C505.401 300 512 293.399 512 285V225C512 205.499 499.4 188.699 482 182.699Z" fill="url(#paint0_linear_457_117)"/>
<path d="M467 360C447.444 360 430.771 372.541 424.58 390H298.42C292.228 372.541 275.556 360 256 360C236.444 360 219.771 372.541 213.58 390H87.42C81.228 372.541 64.556 360 45 360C20.186 360 0 380.186 0 405C0 429.814 20.186 450 45 450C64.556 450 81.229 437.459 87.42 420H213.58C219.772 437.459 236.444 450 256 450C275.556 450 292.229 437.459 298.42 420H424.58C430.772 437.459 447.444 450 467 450C491.814 450 512 429.814 512 405C512 380.186 491.814 360 467 360V360ZM15 30H121V195C121 203.399 127.599 210 136 210H376C384.401 210 391 203.399 391 195V30H497C505.401 30 512 23.399 512 15C512 6.599 505.401 0 497 0H15C6.599 0 0 6.599 0 15C0 23.399 6.599 30 15 30Z" fill="url(#paint1_linear_457_117)"/>
<defs>
<linearGradient id="paint0_linear_457_117" x1="376.5" y1="390" x2="376.5" y2="15" gradientUnits="userSpaceOnUse">
<stop stop-color="#FFE59A"/>
<stop offset="1" stop-color="#FFFFD5"/>
</linearGradient>
<linearGradient id="paint1_linear_457_117" x1="256" y1="450" x2="256" y2="0" gradientUnits="userSpaceOnUse">
<stop stop-color="#FD5900"/>
<stop offset="1" stop-color="#FFDE00"/>
</linearGradient>
</defs>
</svg>
