<?xml version="1.0" encoding="UTF-8"?>
<svg xmlns="http://www.w3.org/2000/svg" xmlns:xlink="http://www.w3.org/1999/xlink" width="45pt" height="44.999999pt" viewBox="0 0 45 44.999999" version="1.2">
<defs>
<clipPath id="clip1">
  <path d="M 0 30 L 44 30 L 44 44.429688 L 0 44.429688 Z M 0 30 "/>
</clipPath>
<clipPath id="clip2">
  <path d="M 16 41 L 22 41 L 22 44.429688 L 16 44.429688 Z M 16 41 "/>
</clipPath>
<clipPath id="clip3">
  <path d="M 26 41 L 31 41 L 31 44.429688 L 26 44.429688 Z M 26 41 "/>
</clipPath>
<clipPath id="clip4">
  <path d="M 36 24.191406 L 39.652344 24.191406 L 39.652344 30.703125 L 36 30.703125 Z M 36 24.191406 "/>
</clipPath>
<clipPath id="clip5">
  <path d="M 38.839844 30.6875 L 36.742188 30.6875 L 36.238281 30.3125 L 36.304688 30.3125 C 36.140625 30.3125 36.007812 30.21875 36.007812 30.050781 C 36.007812 29.882812 36.140625 29.746094 36.304688 29.746094 L 36.378906 29.746094 L 36.378906 29.371094 L 36.15625 29.371094 C 36.074219 29.371094 36.007812 29.34375 36.007812 29.261719 L 36.007812 29.226562 C 36.007812 29.140625 36.074219 29.089844 36.15625 29.089844 L 36.378906 29.089844 L 36.378906 28.902344 L 36.570312 28.902344 C 36.570312 28.902344 37.125 28.148438 37.253906 26.363281 L 37.0625 26.363281 C 36.992188 26.363281 36.933594 26.328125 36.933594 26.253906 L 36.933594 26.25 C 36.933594 26.175781 36.992188 26.082031 37.0625 26.082031 L 37.273438 26.082031 C 37.273438 26.082031 37.277344 25.988281 37.277344 25.890625 L 37.0625 25.890625 C 36.992188 25.890625 36.933594 25.855469 36.933594 25.785156 L 36.933594 25.777344 C 36.933594 25.703125 36.992188 25.609375 37.0625 25.609375 L 37.171875 25.609375 C 37.042969 25.515625 36.964844 25.28125 36.964844 25.066406 C 36.964844 24.601562 37.339844 24.234375 37.796875 24.234375 C 38.257812 24.234375 38.628906 24.605469 38.628906 25.070312 C 38.628906 25.285156 38.550781 25.515625 38.421875 25.609375 L 38.457031 25.609375 C 38.53125 25.609375 38.597656 25.703125 38.597656 25.777344 L 38.597656 25.785156 C 38.597656 25.855469 38.53125 25.890625 38.457031 25.890625 L 38.316406 25.890625 C 38.316406 25.988281 38.320312 26.082031 38.324219 26.082031 L 38.457031 26.082031 C 38.53125 26.082031 38.597656 26.175781 38.597656 26.25 L 38.597656 26.253906 C 38.597656 26.328125 38.53125 26.363281 38.457031 26.363281 L 38.339844 26.363281 C 38.46875 28.148438 39.023438 28.902344 39.023438 28.902344 L 39.246094 28.902344 L 39.246094 29.089844 L 39.429688 29.089844 C 39.511719 29.089844 39.617188 29.140625 39.617188 29.226562 L 39.617188 29.261719 C 39.617188 29.34375 39.511719 29.371094 39.429688 29.371094 L 39.246094 29.371094 L 39.246094 29.746094 L 39.28125 29.746094 C 39.445312 29.746094 39.617188 29.882812 39.617188 30.050781 C 39.617188 30.21875 39.445312 30.3125 39.28125 30.3125 L 39.347656 30.3125 L 38.839844 30.6875 "/>
</clipPath>
</defs>
<g id="surface1">
<path style=" stroke:none;fill-rule:nonzero;fill:rgb(19.219971%,26.269531%,36.079407%);fill-opacity:1;" d="M 4.132812 4.449219 C 3.335938 5.332031 2.605469 6.277344 1.945312 7.273438 C 1.347656 8.171875 0.808594 9.113281 0.335938 10.09375 L 5.214844 10.09375 L 5.214844 4.449219 L 4.132812 4.449219 "/>
<path style=" stroke:none;fill-rule:nonzero;fill:rgb(16.468811%,22.349548%,30.198669%);fill-opacity:1;" d="M 5.214844 7.273438 L 1.945312 7.273438 C 1.347656 8.171875 0.808594 9.113281 0.335938 10.09375 L 5.214844 10.09375 L 5.214844 7.273438 "/>
<path style=" stroke:none;fill-rule:nonzero;fill:rgb(89.019775%,72.938538%,45.878601%);fill-opacity:1;" d="M 33.03125 12.796875 C 35.382812 12.796875 37.300781 14.742188 37.300781 17.132812 C 37.300781 18.40625 36.757812 19.609375 35.800781 20.4375 C 35.574219 20.632812 35.300781 20.726562 35.027344 20.726562 C 34.683594 20.726562 34.347656 20.582031 34.109375 20.296875 C 33.679688 19.78125 33.742188 19.007812 34.25 18.574219 C 34.664062 18.210938 34.90625 17.6875 34.90625 17.132812 C 34.90625 16.089844 34.058594 15.242188 33.03125 15.242188 C 33.011719 15.242188 33.050781 15.246094 32.957031 15.246094 L 32.957031 12.796875 C 33.050781 12.796875 33.011719 12.796875 33.03125 12.796875 "/>
<g clip-path="url(#clip1)" clip-rule="nonzero">
<path style=" stroke:none;fill-rule:nonzero;fill:rgb(93.728638%,95.689392%,95.689392%);fill-opacity:1;" d="M 43.136719 30.6875 L 0.0273438 30.6875 C 3.753906 39.007812 12.003906 44.792969 21.582031 44.792969 C 31.160156 44.792969 39.410156 39.007812 43.136719 30.6875 "/>
</g>
<path style=" stroke:none;fill-rule:nonzero;fill:rgb(16.468811%,22.349548%,30.198669%);fill-opacity:1;" d="M 0.0273438 30.6875 C 0.464844 31.664062 0.964844 32.605469 1.523438 33.507812 L 3.085938 33.507812 L 3.085938 30.6875 L 0.0273438 30.6875 "/>
<path style=" stroke:none;fill-rule:nonzero;fill:rgb(16.468811%,22.349548%,30.198669%);fill-opacity:1;" d="M 3.085938 33.507812 L 3.085938 35.746094 C 3.242188 35.945312 3.402344 36.140625 3.5625 36.332031 L 7.710938 36.332031 L 7.710938 33.507812 L 3.085938 33.507812 "/>
<path style=" stroke:none;fill-rule:nonzero;fill:rgb(16.468811%,22.349548%,30.198669%);fill-opacity:1;" d="M 7.710938 40.230469 L 7.710938 39.152344 L 6.355469 39.152344 C 6.792969 39.527344 7.246094 39.886719 7.710938 40.230469 "/>
<path style=" stroke:none;fill-rule:nonzero;fill:rgb(16.468811%,22.349548%,30.198669%);fill-opacity:1;" d="M 12.335938 30.6875 L 7.710938 30.6875 L 7.710938 33.507812 L 12.335938 33.507812 L 12.335938 30.6875 "/>
<path style=" stroke:none;fill-rule:nonzero;fill:rgb(16.468811%,22.349548%,30.198669%);fill-opacity:1;" d="M 7.710938 36.332031 L 7.710938 39.152344 L 12.335938 39.152344 L 12.335938 36.332031 L 7.710938 36.332031 "/>
<path style=" stroke:none;fill-rule:nonzero;fill:rgb(16.468811%,22.349548%,30.198669%);fill-opacity:1;" d="M 12.335938 42.886719 L 12.335938 41.972656 L 10.457031 41.972656 C 11.066406 42.304688 11.691406 42.609375 12.335938 42.886719 "/>
<path style=" stroke:none;fill-rule:nonzero;fill:rgb(16.468811%,22.349548%,30.198669%);fill-opacity:1;" d="M 16.957031 36.332031 L 16.957031 33.507812 L 12.335938 33.507812 L 12.335938 36.332031 L 16.957031 36.332031 "/>
<path style=" stroke:none;fill-rule:nonzero;fill:rgb(16.468811%,22.349548%,30.198669%);fill-opacity:1;" d="M 12.335938 39.152344 L 12.335938 41.972656 L 16.957031 41.972656 L 16.957031 39.152344 L 12.335938 39.152344 "/>
<path style=" stroke:none;fill-rule:nonzero;fill:rgb(16.468811%,22.349548%,30.198669%);fill-opacity:1;" d="M 21.582031 30.6875 L 16.957031 30.6875 L 16.957031 33.507812 L 21.582031 33.507812 L 21.582031 30.6875 "/>
<path style=" stroke:none;fill-rule:nonzero;fill:rgb(16.468811%,22.349548%,30.198669%);fill-opacity:1;" d="M 16.957031 36.332031 L 16.957031 39.152344 L 21.582031 39.152344 L 21.582031 36.332031 L 16.957031 36.332031 "/>
<g clip-path="url(#clip2)" clip-rule="nonzero">
<path style=" stroke:none;fill-rule:nonzero;fill:rgb(16.468811%,22.349548%,30.198669%);fill-opacity:1;" d="M 16.957031 44.332031 C 18.453125 44.636719 20 44.792969 21.582031 44.792969 L 21.582031 41.972656 L 16.957031 41.972656 L 16.957031 44.332031 "/>
</g>
<path style=" stroke:none;fill-rule:nonzero;fill:rgb(16.468811%,22.349548%,30.198669%);fill-opacity:1;" d="M 26.207031 36.332031 L 26.207031 33.507812 L 21.582031 33.507812 L 21.582031 36.332031 L 26.207031 36.332031 "/>
<path style=" stroke:none;fill-rule:nonzero;fill:rgb(16.468811%,22.349548%,30.198669%);fill-opacity:1;" d="M 21.582031 39.152344 L 21.582031 41.972656 L 26.207031 41.972656 L 26.207031 39.152344 L 21.582031 39.152344 "/>
<path style=" stroke:none;fill-rule:nonzero;fill:rgb(16.468811%,22.349548%,30.198669%);fill-opacity:1;" d="M 26.207031 33.507812 L 30.828125 33.507812 L 30.828125 30.6875 L 26.207031 30.6875 Z M 26.207031 33.507812 "/>
<path style=" stroke:none;fill-rule:nonzero;fill:rgb(16.468811%,22.349548%,30.198669%);fill-opacity:1;" d="M 26.207031 39.152344 L 30.828125 39.152344 L 30.828125 36.332031 L 26.207031 36.332031 L 26.207031 39.152344 "/>
<g clip-path="url(#clip3)" clip-rule="nonzero">
<path style=" stroke:none;fill-rule:nonzero;fill:rgb(16.468811%,22.349548%,30.198669%);fill-opacity:1;" d="M 26.207031 44.332031 C 27.8125 44.011719 29.359375 43.523438 30.828125 42.886719 L 30.828125 41.972656 L 26.207031 41.972656 L 26.207031 44.332031 "/>
</g>
<path style=" stroke:none;fill-rule:nonzero;fill:rgb(16.468811%,22.349548%,30.198669%);fill-opacity:1;" d="M 30.828125 36.332031 L 35.453125 36.332031 L 35.453125 33.507812 L 30.828125 33.507812 L 30.828125 36.332031 "/>
<path style=" stroke:none;fill-rule:nonzero;fill:rgb(16.468811%,22.349548%,30.198669%);fill-opacity:1;" d="M 30.828125 41.972656 L 32.710938 41.972656 C 33.664062 41.453125 34.582031 40.871094 35.453125 40.230469 L 35.453125 39.152344 L 30.828125 39.152344 L 30.828125 41.972656 "/>
<path style=" stroke:none;fill-rule:nonzero;fill:rgb(16.468811%,22.349548%,30.198669%);fill-opacity:1;" d="M 35.453125 33.507812 L 40.078125 33.507812 L 40.078125 30.6875 L 35.453125 30.6875 Z M 35.453125 33.507812 "/>
<path style=" stroke:none;fill-rule:nonzero;fill:rgb(16.468811%,22.349548%,30.198669%);fill-opacity:1;" d="M 36.808594 39.152344 C 37.816406 38.292969 38.75 37.347656 39.601562 36.332031 L 35.453125 36.332031 L 35.453125 39.152344 L 36.808594 39.152344 "/>
<path style=" stroke:none;fill-rule:nonzero;fill:rgb(16.468811%,22.349548%,30.198669%);fill-opacity:1;" d="M 41.640625 33.507812 L 40.078125 33.507812 L 40.078125 35.746094 C 40.640625 35.03125 41.160156 34.285156 41.640625 33.507812 "/>
<path style=" stroke:none;fill-rule:nonzero;fill:rgb(95.289612%,96.469116%,96.859741%);fill-opacity:1;" d="M 6.382812 30.6875 L 4.28125 30.6875 L 3.78125 30.3125 L 3.847656 30.3125 C 3.683594 30.3125 3.550781 30.21875 3.550781 30.050781 C 3.550781 29.882812 3.683594 29.746094 3.847656 29.746094 L 3.917969 29.746094 L 3.917969 29.371094 L 3.699219 29.371094 C 3.617188 29.371094 3.550781 29.34375 3.550781 29.261719 L 3.550781 29.226562 C 3.550781 29.140625 3.617188 29.089844 3.699219 29.089844 L 3.917969 29.089844 L 3.917969 28.902344 L 4.109375 28.902344 C 4.109375 28.902344 4.667969 28.148438 4.796875 26.363281 L 4.605469 26.363281 C 4.53125 26.363281 4.472656 26.328125 4.472656 26.253906 L 4.472656 26.25 C 4.472656 26.175781 4.53125 26.082031 4.605469 26.082031 L 4.8125 26.082031 C 4.816406 26.082031 4.816406 25.988281 4.820312 25.890625 L 4.605469 25.890625 C 4.53125 25.890625 4.472656 25.855469 4.472656 25.785156 L 4.472656 25.777344 C 4.472656 25.703125 4.53125 25.609375 4.605469 25.609375 L 4.710938 25.609375 C 4.585938 25.515625 4.507812 25.28125 4.507812 25.066406 C 4.507812 24.601562 4.878906 24.234375 5.339844 24.234375 C 5.796875 24.234375 6.167969 24.605469 6.167969 25.070312 C 6.167969 25.285156 6.089844 25.515625 5.964844 25.609375 L 6 25.609375 C 6.070312 25.609375 6.136719 25.703125 6.136719 25.777344 L 6.136719 25.785156 C 6.136719 25.855469 6.070312 25.890625 6 25.890625 L 5.855469 25.890625 C 5.859375 25.988281 5.859375 26.082031 5.863281 26.082031 L 6 26.082031 C 6.070312 26.082031 6.136719 26.175781 6.136719 26.25 L 6.136719 26.253906 C 6.136719 26.328125 6.070312 26.363281 6 26.363281 L 5.878906 26.363281 C 6.007812 28.148438 6.566406 28.902344 6.566406 28.902344 L 6.785156 28.902344 L 6.785156 29.089844 L 6.96875 29.089844 C 7.050781 29.089844 7.15625 29.140625 7.15625 29.226562 L 7.15625 29.261719 C 7.15625 29.34375 7.050781 29.371094 6.96875 29.371094 L 6.785156 29.371094 L 6.785156 29.746094 L 6.820312 29.746094 C 6.984375 29.746094 7.15625 29.882812 7.15625 30.050781 C 7.15625 30.21875 6.984375 30.3125 6.820312 30.3125 L 6.890625 30.3125 L 6.382812 30.6875 "/>
<path style=" stroke:none;fill-rule:nonzero;fill:rgb(58.428955%,63.139343%,67.83905%);fill-opacity:1;" d="M 15.386719 30.6875 L 13.878906 30.6875 L 13.519531 30.40625 L 13.566406 30.40625 C 13.449219 30.40625 13.351562 30.351562 13.351562 30.230469 C 13.351562 30.109375 13.449219 30.03125 13.566406 30.03125 L 13.628906 30.03125 L 13.628906 29.746094 L 13.457031 29.746094 C 13.398438 29.746094 13.351562 29.722656 13.351562 29.664062 L 13.351562 29.636719 C 13.351562 29.578125 13.398438 29.558594 13.457031 29.558594 L 13.628906 29.558594 L 13.628906 29.371094 L 13.753906 29.371094 C 13.753906 29.371094 14.15625 28.902344 14.246094 27.585938 L 14.109375 27.585938 C 14.058594 27.585938 14 27.558594 14 27.503906 L 14 27.5 C 14 27.449219 14.058594 27.398438 14.109375 27.398438 L 14.257812 27.398438 C 14.261719 27.398438 14.261719 27.304688 14.265625 27.207031 L 14.109375 27.207031 C 14.09375 27.207031 14.078125 27.210938 14.066406 27.210938 C 14.027344 27.210938 14 27.203125 14 27.167969 L 14 27.164062 C 14 27.109375 14.058594 27.019531 14.109375 27.019531 L 14.1875 27.019531 C 14.09375 27.019531 14.039062 26.792969 14.039062 26.640625 C 14.039062 26.304688 14.304688 26.050781 14.636719 26.050781 C 14.964844 26.050781 15.234375 26.308594 15.234375 26.644531 C 15.234375 26.796875 15.175781 27.019531 15.085938 27.019531 L 15.109375 27.019531 C 15.160156 27.019531 15.203125 27.109375 15.203125 27.164062 L 15.203125 27.167969 C 15.203125 27.203125 15.179688 27.210938 15.152344 27.210938 C 15.140625 27.210938 15.125 27.207031 15.109375 27.207031 L 15.007812 27.207031 C 15.011719 27.304688 15.011719 27.398438 15.015625 27.398438 L 15.109375 27.398438 C 15.160156 27.398438 15.203125 27.449219 15.203125 27.5 L 15.203125 27.503906 C 15.203125 27.558594 15.160156 27.585938 15.109375 27.585938 L 15.023438 27.585938 C 15.117188 28.902344 15.519531 29.371094 15.519531 29.371094 L 15.664062 29.371094 L 15.664062 29.558594 L 15.808594 29.558594 C 15.867188 29.558594 15.941406 29.578125 15.941406 29.636719 L 15.941406 29.664062 C 15.941406 29.722656 15.867188 29.746094 15.808594 29.746094 L 15.664062 29.746094 L 15.664062 30.03125 L 15.703125 30.03125 C 15.820312 30.03125 15.941406 30.109375 15.941406 30.230469 C 15.941406 30.351562 15.820312 30.40625 15.703125 30.40625 L 15.75 30.40625 L 15.386719 30.6875 "/>
<path style=" stroke:none;fill-rule:nonzero;fill:rgb(95.289612%,96.469116%,96.859741%);fill-opacity:1;" d="M 24.632812 30.6875 L 23.125 30.6875 L 22.765625 30.40625 L 22.8125 30.40625 C 22.695312 30.40625 22.601562 30.351562 22.601562 30.230469 C 22.601562 30.109375 22.695312 30.03125 22.8125 30.03125 L 22.878906 30.03125 L 22.878906 29.746094 L 22.707031 29.746094 C 22.648438 29.746094 22.601562 29.722656 22.601562 29.664062 L 22.601562 29.636719 C 22.601562 29.578125 22.648438 29.558594 22.707031 29.558594 L 22.878906 29.558594 L 22.878906 29.371094 L 23.003906 29.371094 C 23.003906 29.371094 23.402344 28.902344 23.496094 27.585938 L 23.355469 27.585938 C 23.304688 27.585938 23.246094 27.558594 23.246094 27.503906 L 23.246094 27.5 C 23.246094 27.449219 23.304688 27.398438 23.355469 27.398438 L 23.507812 27.398438 C 23.507812 27.398438 23.511719 27.304688 23.511719 27.207031 L 23.355469 27.207031 C 23.34375 27.207031 23.328125 27.210938 23.3125 27.210938 C 23.277344 27.210938 23.246094 27.203125 23.246094 27.167969 L 23.246094 27.164062 C 23.246094 27.109375 23.304688 27.019531 23.355469 27.019531 L 23.433594 27.019531 C 23.34375 27.019531 23.285156 26.792969 23.285156 26.640625 C 23.285156 26.304688 23.554688 26.050781 23.882812 26.050781 C 24.214844 26.050781 24.480469 26.308594 24.480469 26.644531 C 24.480469 26.796875 24.425781 27.019531 24.332031 27.019531 L 24.359375 27.019531 C 24.410156 27.019531 24.449219 27.109375 24.449219 27.164062 L 24.449219 27.167969 C 24.449219 27.203125 24.429688 27.210938 24.398438 27.210938 C 24.386719 27.210938 24.371094 27.207031 24.359375 27.207031 L 24.257812 27.207031 C 24.257812 27.304688 24.257812 27.398438 24.261719 27.398438 L 24.359375 27.398438 C 24.410156 27.398438 24.449219 27.449219 24.449219 27.5 L 24.449219 27.503906 C 24.449219 27.558594 24.410156 27.585938 24.359375 27.585938 L 24.273438 27.585938 C 24.367188 28.902344 24.765625 29.371094 24.765625 29.371094 L 24.910156 29.371094 L 24.910156 29.558594 L 25.054688 29.558594 C 25.113281 29.558594 25.1875 29.578125 25.1875 29.636719 L 25.1875 29.664062 C 25.1875 29.722656 25.113281 29.746094 25.054688 29.746094 L 24.910156 29.746094 L 24.910156 30.03125 L 24.949219 30.03125 C 25.066406 30.03125 25.1875 30.109375 25.1875 30.230469 C 25.1875 30.351562 25.066406 30.40625 24.949219 30.40625 L 24.996094 30.40625 L 24.632812 30.6875 "/>
<path style=" stroke:none;fill-rule:nonzero;fill:rgb(74.119568%,76.078796%,77.249146%);fill-opacity:1;" d="M 17.070312 30.21875 L 17.773438 30.6875 L 20.710938 30.6875 L 21.421875 30.21875 L 17.070312 30.21875 "/>
<path style=" stroke:none;fill-rule:nonzero;fill:rgb(74.119568%,76.078796%,77.249146%);fill-opacity:1;" d="M 21.304688 29.371094 L 17.234375 29.371094 L 17.234375 28.148438 L 21.304688 28.148438 L 21.304688 29.371094 "/>
<path style=" stroke:none;fill-rule:nonzero;fill:rgb(93.728638%,95.689392%,95.689392%);fill-opacity:1;" d="M 21.765625 29.796875 C 21.765625 30.027344 21.582031 30.21875 21.351562 30.21875 L 17.1875 30.21875 C 16.960938 30.21875 16.773438 30.027344 16.773438 29.796875 L 16.773438 29.792969 C 16.773438 29.5625 16.960938 29.371094 17.1875 29.371094 L 21.351562 29.371094 C 21.582031 29.371094 21.765625 29.5625 21.765625 29.792969 L 21.765625 29.796875 "/>
<path style=" stroke:none;fill-rule:nonzero;fill:rgb(93.728638%,95.689392%,95.689392%);fill-opacity:1;" d="M 21.765625 28.691406 C 21.765625 28.808594 21.675781 28.902344 21.558594 28.902344 L 16.980469 28.902344 C 16.867188 28.902344 16.773438 28.808594 16.773438 28.691406 L 16.773438 28.644531 C 16.773438 28.527344 16.867188 28.429688 16.980469 28.429688 L 21.558594 28.429688 C 21.675781 28.429688 21.765625 28.527344 21.765625 28.644531 L 21.765625 28.691406 "/>
<path style=" stroke:none;fill-rule:nonzero;fill:rgb(93.728638%,95.689392%,95.689392%);fill-opacity:1;" d="M 19.972656 23.636719 L 18.53125 23.636719 C 18.53125 26.832031 17.535156 28.148438 17.535156 28.148438 L 20.96875 28.148438 C 20.96875 28.148438 19.972656 26.832031 19.972656 23.636719 "/>
<path style=" stroke:none;fill-rule:nonzero;fill:rgb(93.728638%,95.689392%,95.689392%);fill-opacity:1;" d="M 20.414062 22.855469 C 20.414062 23.511719 19.894531 24.039062 19.25 24.039062 C 18.609375 24.039062 18.085938 23.511719 18.085938 22.855469 C 18.085938 22.203125 18.609375 21.675781 19.25 21.675781 C 19.894531 21.675781 20.414062 22.203125 20.414062 22.855469 "/>
<path style=" stroke:none;fill-rule:nonzero;fill:rgb(74.119568%,76.078796%,77.249146%);fill-opacity:1;" d="M 20.378906 23.828125 C 20.378906 23.929688 20.300781 24.011719 20.199219 24.011719 L 18.25 24.011719 C 18.148438 24.011719 18.066406 23.929688 18.066406 23.828125 L 18.066406 23.820312 C 18.066406 23.71875 18.148438 23.636719 18.25 23.636719 L 20.199219 23.636719 C 20.300781 23.636719 20.378906 23.71875 20.378906 23.820312 L 20.378906 23.828125 "/>
<path style=" stroke:none;fill-rule:nonzero;fill:rgb(74.119568%,76.078796%,77.249146%);fill-opacity:1;" d="M 20.378906 24.488281 C 20.378906 24.589844 20.300781 24.667969 20.199219 24.667969 L 18.25 24.667969 C 18.148438 24.667969 18.066406 24.589844 18.066406 24.488281 L 18.066406 24.476562 C 18.066406 24.375 18.148438 24.292969 18.25 24.292969 L 20.199219 24.292969 C 20.300781 24.292969 20.378906 24.375 20.378906 24.476562 L 20.378906 24.488281 "/>
<path style=" stroke:none;fill-rule:nonzero;fill:rgb(19.219971%,26.269531%,36.079407%);fill-opacity:1;" d="M 33.890625 21.472656 L 32.449219 21.472656 C 32.449219 24.667969 31.453125 27.113281 31.453125 27.113281 L 34.886719 27.113281 C 34.886719 27.113281 33.890625 24.667969 33.890625 21.472656 "/>
<path style=" stroke:none;fill-rule:nonzero;fill:rgb(16.468811%,22.349548%,30.198669%);fill-opacity:1;" d="M 30.992188 29.183594 L 31.691406 29.652344 L 34.628906 29.652344 L 35.339844 29.183594 L 30.992188 29.183594 "/>
<path style=" stroke:none;fill-rule:nonzero;fill:rgb(16.468811%,22.349548%,30.198669%);fill-opacity:1;" d="M 35.175781 28.335938 L 31.105469 28.335938 L 31.105469 27.113281 L 35.175781 27.113281 L 35.175781 28.335938 "/>
<path style=" stroke:none;fill-rule:nonzero;fill:rgb(19.219971%,26.269531%,36.079407%);fill-opacity:1;" d="M 35.640625 28.761719 C 35.640625 28.996094 35.453125 29.183594 35.222656 29.183594 L 31.0625 29.183594 C 30.832031 29.183594 30.644531 28.996094 30.644531 28.761719 C 30.644531 28.527344 30.832031 28.335938 31.0625 28.335938 L 35.222656 28.335938 C 35.453125 28.335938 35.640625 28.527344 35.640625 28.761719 "/>
<path style=" stroke:none;fill-rule:nonzero;fill:rgb(19.219971%,26.269531%,36.079407%);fill-opacity:1;" d="M 35.640625 27.65625 C 35.640625 27.773438 35.546875 27.867188 35.429688 27.867188 L 30.851562 27.867188 C 30.738281 27.867188 30.644531 27.773438 30.644531 27.65625 L 30.644531 27.609375 C 30.644531 27.492188 30.738281 27.398438 30.851562 27.398438 L 35.429688 27.398438 C 35.546875 27.398438 35.640625 27.492188 35.640625 27.609375 L 35.640625 27.65625 "/>
<path style=" stroke:none;fill-rule:nonzero;fill:rgb(19.219971%,26.269531%,36.079407%);fill-opacity:1;" d="M 34.332031 18.328125 C 34.332031 18.984375 33.8125 19.511719 33.167969 19.511719 C 32.527344 19.511719 32.007812 18.984375 32.007812 18.328125 C 32.007812 17.675781 32.527344 17.148438 33.167969 17.148438 C 33.8125 17.148438 34.332031 17.675781 34.332031 18.328125 "/>
<path style=" stroke:none;fill-rule:nonzero;fill:rgb(19.219971%,26.269531%,36.079407%);fill-opacity:1;" d="M 34.722656 19.496094 L 31.617188 19.496094 L 32.171875 21.472656 L 34.167969 21.472656 L 34.722656 19.496094 "/>
<path style=" stroke:none;fill-rule:nonzero;fill:rgb(16.468811%,22.349548%,30.198669%);fill-opacity:1;" d="M 35.082031 19.410156 C 35.082031 19.507812 35.003906 19.589844 34.902344 19.589844 L 31.566406 19.589844 C 31.464844 19.589844 31.386719 19.507812 31.386719 19.410156 L 31.386719 19.398438 C 31.386719 19.296875 31.464844 19.214844 31.566406 19.214844 L 34.902344 19.214844 C 35.003906 19.214844 35.082031 19.296875 35.082031 19.398438 L 35.082031 19.410156 "/>
<path style=" stroke:none;fill-rule:nonzero;fill:rgb(16.468811%,22.349548%,30.198669%);fill-opacity:1;" d="M 34.34375 21.476562 C 34.34375 21.578125 34.261719 21.660156 34.164062 21.660156 L 32.210938 21.660156 C 32.113281 21.660156 32.03125 21.578125 32.03125 21.476562 L 32.03125 21.46875 C 32.03125 21.367188 32.113281 21.285156 32.210938 21.285156 L 34.164062 21.285156 C 34.261719 21.285156 34.34375 21.367188 34.34375 21.46875 L 34.34375 21.476562 "/>
<path style=" stroke:none;fill-rule:nonzero;fill:rgb(16.468811%,22.349548%,30.198669%);fill-opacity:1;" d="M 34.34375 22.792969 C 34.34375 22.894531 34.261719 22.976562 34.164062 22.976562 L 32.210938 22.976562 C 32.113281 22.976562 32.03125 22.894531 32.03125 22.792969 L 32.03125 22.785156 C 32.03125 22.683594 32.113281 22.601562 32.210938 22.601562 L 34.164062 22.601562 C 34.261719 22.601562 34.34375 22.683594 34.34375 22.785156 L 34.34375 22.792969 "/>
<path style=" stroke:none;fill-rule:nonzero;fill:rgb(16.468811%,22.349548%,30.198669%);fill-opacity:1;" d="M 34.34375 23.453125 C 34.34375 23.554688 34.261719 23.636719 34.164062 23.636719 L 32.210938 23.636719 C 32.113281 23.636719 32.03125 23.554688 32.03125 23.453125 L 32.03125 23.441406 C 32.03125 23.339844 32.113281 23.257812 32.210938 23.257812 L 34.164062 23.257812 C 34.261719 23.257812 34.34375 23.339844 34.34375 23.441406 L 34.34375 23.453125 "/>
<g clip-path="url(#clip4)" clip-rule="nonzero">
<g clip-path="url(#clip5)" clip-rule="nonzero">
<path style=" stroke:none;fill-rule:nonzero;fill:rgb(95.289612%,96.469116%,96.859741%);fill-opacity:1;" d="M 36.007812 30.6875 L 39.617188 30.6875 L 39.617188 24.234375 L 36.007812 24.234375 Z M 36.007812 30.6875 "/>
</g>
</g>
<path style=" stroke:none;fill-rule:nonzero;fill:rgb(58.428955%,63.139343%,67.83905%);fill-opacity:1;" d="M 29.125 30.6875 L 27.574219 30.6875 L 27.328125 30.5 L 27.257812 30.5 C 27.136719 30.5 27.039062 30.402344 27.039062 30.277344 L 27.039062 30.253906 C 27.039062 30.128906 27.136719 30.03125 27.257812 30.03125 L 27.316406 30.03125 L 27.316406 29.746094 L 27.148438 29.746094 C 27.085938 29.746094 27.039062 29.699219 27.039062 29.636719 L 27.039062 29.578125 C 27.039062 29.515625 27.085938 29.464844 27.148438 29.464844 L 27.316406 29.464844 L 27.316406 29.371094 L 27.4375 29.371094 L 27.460938 28.566406 C 27.460938 28.566406 28.765625 27.539062 28.207031 26.707031 L 27.59375 27.179688 L 27.402344 26.554688 L 28.207031 25.703125 L 28.214844 25.703125 L 28.207031 25.691406 L 28.140625 25.253906 C 28.140625 25.253906 28.226562 25.246094 28.359375 25.246094 C 28.4375 25.246094 28.527344 25.25 28.625 25.257812 L 28.6875 25.007812 L 28.804688 25.066406 L 28.835938 25.289062 C 29.25 25.363281 29.714844 25.570312 29.835938 26.105469 C 30.070312 27.113281 29.910156 27.792969 29.910156 27.792969 L 29.507812 27.933594 C 29.457031 28.339844 29.359375 28.8125 29.203125 29.371094 L 29.441406 29.371094 L 29.441406 29.464844 L 29.609375 29.464844 C 29.671875 29.464844 29.71875 29.515625 29.71875 29.578125 L 29.71875 29.636719 C 29.71875 29.699219 29.671875 29.746094 29.609375 29.746094 L 29.441406 29.746094 L 29.441406 30.03125 L 29.5 30.03125 C 29.621094 30.03125 29.71875 30.128906 29.71875 30.253906 L 29.71875 30.277344 C 29.71875 30.402344 29.621094 30.5 29.5 30.5 L 29.375 30.5 L 29.125 30.6875 "/>
<path style=" stroke:none;fill-rule:nonzero;fill:rgb(89.019775%,72.938538%,45.878601%);fill-opacity:1;" d="M 11.625 5.933594 C 9.277344 5.933594 7.363281 7.875 7.363281 10.265625 C 7.363281 11.542969 7.914062 12.746094 8.871094 13.570312 C 9.09375 13.765625 9.371094 13.863281 9.648438 13.863281 C 9.988281 13.863281 10.324219 13.714844 10.5625 13.429688 C 10.992188 12.914062 10.929688 12.144531 10.425781 11.707031 C 10.007812 11.347656 9.769531 10.820312 9.769531 10.265625 C 9.769531 9.226562 10.601562 8.378906 11.625 8.378906 C 11.648438 8.378906 11.667969 8.378906 11.6875 8.378906 L 11.6875 5.933594 C 11.667969 5.933594 11.648438 5.933594 11.625 5.933594 "/>
<path style=" stroke:none;fill-rule:nonzero;fill:rgb(74.119568%,76.078796%,77.249146%);fill-opacity:1;" d="M 8.671875 21.097656 L 9.375 21.566406 L 12.308594 21.566406 L 13.019531 21.097656 L 8.671875 21.097656 "/>
<path style=" stroke:none;fill-rule:nonzero;fill:rgb(74.119568%,76.078796%,77.249146%);fill-opacity:1;" d="M 10.574219 12.101562 L 10.445312 11.273438 C 10.445312 11.273438 13.214844 10.96875 13.660156 12.882812 C 14.101562 14.796875 13.796875 16.082031 13.796875 16.082031 L 12.789062 16.441406 L 10.574219 12.101562 "/>
<path style=" stroke:none;fill-rule:nonzero;fill:rgb(74.119568%,76.078796%,77.249146%);fill-opacity:1;" d="M 12.890625 20.25 L 8.820312 20.25 L 8.820312 19.027344 L 12.890625 19.027344 L 12.890625 20.25 "/>
<path style=" stroke:none;fill-rule:nonzero;fill:rgb(93.728638%,95.689392%,95.689392%);fill-opacity:1;" d="M 13.351562 20.671875 C 13.351562 20.90625 13.164062 21.097656 12.9375 21.097656 L 8.773438 21.097656 C 8.542969 21.097656 8.359375 20.90625 8.359375 20.671875 C 8.359375 20.4375 8.542969 20.25 8.773438 20.25 L 12.9375 20.25 C 13.164062 20.25 13.351562 20.4375 13.351562 20.671875 "/>
<path style=" stroke:none;fill-rule:nonzero;fill:rgb(93.728638%,95.689392%,95.689392%);fill-opacity:1;" d="M 13.351562 19.566406 C 13.351562 19.683594 13.257812 19.78125 13.144531 19.78125 L 8.566406 19.78125 C 8.449219 19.78125 8.359375 19.683594 8.359375 19.566406 L 8.359375 19.519531 C 8.359375 19.402344 8.449219 19.308594 8.566406 19.308594 L 13.144531 19.308594 C 13.257812 19.308594 13.351562 19.402344 13.351562 19.519531 L 13.351562 19.566406 "/>
<path style=" stroke:none;fill-rule:nonzero;fill:rgb(93.728638%,95.689392%,95.689392%);fill-opacity:1;" d="M 9.117188 19.027344 L 9.160156 17.523438 C 9.160156 17.523438 11.628906 15.59375 10.574219 14.015625 L 9.410156 14.917969 L 9.050781 13.734375 L 10.574219 12.097656 C 10.574219 12.097656 14.730469 10.847656 12.457031 19.027344 L 9.117188 19.027344 "/>
<path style=" stroke:none;fill-rule:nonzero;fill:rgb(93.728638%,95.689392%,95.689392%);fill-opacity:1;" d="M 11.164062 12.101562 L 11.480469 10.804688 L 11.699219 10.917969 L 11.902344 12.25 L 11.164062 12.101562 "/>
<path style=" stroke:none;fill-rule:nonzero;fill:rgb(74.119568%,76.078796%,77.249146%);fill-opacity:1;" d="M 11.503906 11.367188 L 11.503906 11.875 L 11.648438 12.027344 Z M 11.503906 11.367188 "/>
<path style=" stroke:none;fill-rule:nonzero;fill:rgb(89.019775%,72.938538%,45.878601%);fill-opacity:1;" d="M 22.328125 8.433594 C 21.269531 6.171875 19.296875 4.796875 16.625 4.46875 C 16.171875 4.410156 15.734375 4.390625 15.332031 4.390625 C 16.3125 4.007812 17.605469 3.761719 18.707031 4.421875 C 19.277344 4.765625 20.015625 4.574219 20.351562 3.992188 C 20.691406 3.410156 20.5 2.660156 19.925781 2.316406 C 17.613281 0.929688 15.101562 1.746094 13.636719 2.480469 C 13.476562 2.519531 13.273438 2.628906 13.019531 2.816406 C 12.660156 3.03125 12.433594 3.195312 12.390625 3.226562 C 10.246094 4.453125 7.0625 4.828125 7.0625 4.828125 C 7.0625 4.828125 6.371094 8.402344 7.0625 9.527344 C 7.757812 10.65625 7.988281 10.328125 7.988281 10.328125 C 7.988281 10.328125 7.460938 8.988281 9.191406 7.722656 L 11.6875 8.378906 C 12.683594 8.414062 13.484375 9.246094 13.484375 10.265625 C 13.484375 10.800781 13.269531 11.296875 12.882812 11.65625 C 12.394531 12.113281 12.359375 12.886719 12.808594 13.386719 C 13.257812 13.882812 14.019531 13.914062 14.507812 13.460938 C 15.386719 12.640625 15.886719 11.476562 15.886719 10.265625 C 15.886719 9.273438 15.554688 8.355469 15 7.625 C 15.097656 7.671875 15.195312 7.722656 15.292969 7.78125 C 16.691406 8.582031 17.503906 9.828125 17.703125 11.484375 C 17.761719 11.953125 18.074219 12.328125 18.480469 12.480469 C 18.65625 12.546875 18.847656 12.574219 19.046875 12.546875 C 19.703125 12.464844 20.171875 11.855469 20.089844 11.183594 C 19.941406 9.9375 19.539062 8.828125 18.90625 7.882812 C 19.433594 8.296875 19.851562 8.832031 20.15625 9.484375 C 20.441406 10.09375 21.160156 10.351562 21.757812 10.0625 C 22.359375 9.773438 22.613281 9.042969 22.328125 8.433594 "/>
<path style=" stroke:none;fill-rule:nonzero;fill:rgb(93.728638%,95.689392%,95.689392%);fill-opacity:1;" d="M 7.0625 9.8125 L 5.214844 9.8125 L 5.214844 4.640625 L 7.0625 4.640625 L 7.0625 9.8125 "/>
<path style=" stroke:none;fill-rule:nonzero;fill:rgb(74.119568%,76.078796%,77.249146%);fill-opacity:1;" d="M 7.0625 9.8125 L 5.214844 9.8125 L 5.214844 7.273438 L 7.0625 7.273438 L 7.0625 9.8125 "/>
<path style=" stroke:none;fill-rule:nonzero;fill:rgb(89.019775%,72.938538%,45.878601%);fill-opacity:1;" d="M 22.347656 15.296875 C 23.40625 13.035156 25.378906 11.664062 28.046875 11.332031 C 28.503906 11.277344 28.9375 11.253906 29.34375 11.257812 C 28.363281 10.871094 27.070312 10.625 25.96875 11.289062 C 25.398438 11.628906 24.660156 11.4375 24.320312 10.855469 C 23.984375 10.273438 24.175781 9.523438 24.746094 9.183594 C 27.058594 7.792969 29.574219 8.613281 31.035156 9.34375 C 31.199219 9.386719 31.398438 9.492188 31.652344 9.679688 C 32.015625 9.894531 32.238281 10.058594 32.285156 10.09375 C 34.429688 11.316406 37.609375 11.691406 37.609375 11.691406 C 37.609375 11.691406 38.304688 15.265625 37.609375 16.394531 C 36.917969 17.523438 36.671875 17.195312 36.671875 17.195312 C 36.671875 17.195312 36.039062 15.855469 34.28125 14.589844 L 32.957031 15.246094 C 32.03125 15.277344 31.175781 16.109375 31.175781 17.132812 C 31.175781 17.667969 31.398438 18.160156 31.785156 18.523438 C 32.273438 18.980469 32.308594 19.753906 31.859375 20.25 C 31.410156 20.746094 30.652344 20.78125 30.164062 20.324219 C 29.285156 19.503906 28.785156 18.339844 28.785156 17.132812 C 28.785156 16.136719 29.117188 15.21875 29.671875 14.488281 C 29.578125 14.535156 29.480469 14.589844 29.382812 14.644531 C 27.980469 15.445312 27.171875 16.691406 26.96875 18.351562 C 26.914062 18.820312 26.601562 19.195312 26.191406 19.347656 C 26.019531 19.414062 25.824219 19.4375 25.628906 19.414062 C 24.96875 19.332031 24.5 18.71875 24.582031 18.050781 C 24.734375 16.804688 25.136719 15.695312 25.769531 14.75 C 25.242188 15.164062 24.824219 15.695312 24.519531 16.347656 C 24.234375 16.957031 23.515625 17.21875 22.914062 16.925781 C 22.316406 16.636719 22.0625 15.90625 22.347656 15.296875 "/>
<path style=" stroke:none;fill-rule:nonzero;fill:rgb(93.728638%,95.689392%,95.689392%);fill-opacity:1;" d="M 37.582031 16.675781 L 39.429688 16.675781 L 39.429688 11.503906 L 37.582031 11.503906 L 37.582031 16.675781 "/>
<path style=" stroke:none;fill-rule:nonzero;fill:rgb(74.119568%,76.078796%,77.249146%);fill-opacity:1;" d="M 37.582031 16.675781 L 39.429688 16.675781 L 39.429688 14.136719 L 37.582031 14.136719 L 37.582031 16.675781 "/>
<path style=" stroke:none;fill-rule:nonzero;fill:rgb(19.219971%,26.269531%,36.079407%);fill-opacity:1;" d="M 44.96875 16.957031 C 44.820312 15.996094 44.617188 15.054688 44.359375 14.136719 C 44.089844 13.171875 43.761719 12.230469 43.382812 11.316406 L 39.429688 11.316406 L 39.429688 16.957031 L 44.96875 16.957031 "/>
<path style=" stroke:none;fill-rule:nonzero;fill:rgb(16.468811%,22.349548%,30.198669%);fill-opacity:1;" d="M 39.460938 14.136719 L 39.460938 16.957031 L 44.96875 16.957031 C 44.820312 15.996094 44.617188 15.054688 44.359375 14.136719 L 39.460938 14.136719 "/>
</g>
</svg>
