<svg id="Layer_1" enable-background="new 0 0 512 512" height="512" viewBox="0 0 512 512" width="512" xmlns="http://www.w3.org/2000/svg" xmlns:xlink="http://www.w3.org/1999/xlink"><linearGradient id="SVGID_1_" gradientUnits="userSpaceOnUse" x1="256" x2="256" y1="331" y2="181"><stop offset="0" stop-color="#ffc8d1"/><stop offset="1" stop-color="#fff6f7"/></linearGradient><linearGradient id="SVGID_2_" gradientUnits="userSpaceOnUse" x1="256" x2="256" y1="512" y2="0"><stop offset="0" stop-color="#fd3a84"/><stop offset="1" stop-color="#ffa68d"/></linearGradient><path d="m316 331h-120c-8.284 0-15-6.716-15-15v-120c0-8.284 6.716-15 15-15h120c8.284 0 15 6.716 15 15v120c0 8.284-6.716 15-15 15z" fill="url(#SVGID_1_)"/><path d="m382 315.982v-119.964c0-11.656 12.72-18.855 22.717-12.858l100 59.982c9.71 5.824 9.71 19.892 0 25.717l-100 59.982c-9.997 5.996-22.717-1.204-22.717-12.859zm-274.718 12.858-100-59.982c-9.71-5.824-9.71-19.892 0-25.717l100-59.982c9.998-5.997 22.717 1.203 22.717 12.858v119.963c.001 11.657-12.719 18.857-22.717 12.86zm208.7-198.84h-119.964c-11.656 0-18.855-12.72-12.858-22.717l59.982-100c5.824-9.71 19.892-9.71 25.717 0l59.982 100c5.996 9.997-1.204 22.717-12.859 22.717zm-72.84 374.717-59.982-100c-5.997-9.997 1.203-22.717 12.858-22.717h119.963c11.656 0 18.855 12.72 12.858 22.717l-59.982 100c-5.823 9.71-19.891 9.71-25.715 0z" fill="url(#SVGID_2_)"/></svg>