<?xml version="1.0" encoding="UTF-8"?>
<svg xmlns="http://www.w3.org/2000/svg" xmlns:xlink="http://www.w3.org/1999/xlink" width="1012.5pt" height="487.499991pt" viewBox="0 0 1012.5 487.499991" version="1.2">
<defs>
<clipPath id="clip1">
  <path d="M 63.460938 0 L 948.445312 0 L 948.445312 487 L 63.460938 487 Z M 63.460938 0 "/>
</clipPath>
<clipPath id="clip2">
  <path d="M 658 46 L 724 46 L 724 135 L 658 135 Z M 658 46 "/>
</clipPath>
<clipPath id="clip3">
  <path d="M 681.652344 41.601562 L 733.113281 57.875 L 708.25 136.496094 L 656.792969 120.222656 Z M 681.652344 41.601562 "/>
</clipPath>
<clipPath id="clip4">
  <path d="M 681.652344 41.601562 L 733.113281 57.875 L 708.25 136.496094 L 656.792969 120.222656 Z M 681.652344 41.601562 "/>
</clipPath>
<clipPath id="clip5">
  <path d="M 661 52 L 722 52 L 722 132 L 661 132 Z M 661 52 "/>
</clipPath>
<clipPath id="clip6">
  <path d="M 681.652344 41.601562 L 733.113281 57.875 L 708.25 136.496094 L 656.792969 120.222656 Z M 681.652344 41.601562 "/>
</clipPath>
<clipPath id="clip7">
  <path d="M 681.652344 41.601562 L 733.113281 57.875 L 708.25 136.496094 L 656.792969 120.222656 Z M 681.652344 41.601562 "/>
</clipPath>
<clipPath id="clip8">
  <path d="M 251 158 L 338 158 L 338 259 L 251 259 Z M 251 158 "/>
</clipPath>
<clipPath id="clip9">
  <path d="M 237.792969 175.03125 L 285.101562 144.65625 L 340.183594 230.4375 L 292.878906 260.816406 Z M 237.792969 175.03125 "/>
</clipPath>
<clipPath id="clip10">
  <path d="M 237.792969 175.03125 L 285.101562 144.65625 L 340.183594 230.4375 L 292.878906 260.816406 Z M 237.792969 175.03125 "/>
</clipPath>
<clipPath id="clip11">
  <path d="M 257 161 L 335 161 L 335 256 L 257 256 Z M 257 161 "/>
</clipPath>
<clipPath id="clip12">
  <path d="M 237.792969 175.03125 L 285.101562 144.65625 L 340.183594 230.4375 L 292.878906 260.816406 Z M 237.792969 175.03125 "/>
</clipPath>
<clipPath id="clip13">
  <path d="M 237.792969 175.03125 L 285.101562 144.65625 L 340.183594 230.4375 L 292.878906 260.816406 Z M 237.792969 175.03125 "/>
</clipPath>
<clipPath id="clip14">
  <path d="M 626 329 L 688 329 L 688 418 L 626 418 Z M 626 329 "/>
</clipPath>
<clipPath id="clip15">
  <path d="M 644.9375 322.796875 L 704.703125 337.167969 L 684.898438 419.523438 L 625.132812 405.152344 Z M 644.9375 322.796875 "/>
</clipPath>
<clipPath id="clip16">
  <path d="M 644.9375 322.796875 L 704.703125 337.167969 L 684.898438 419.523438 L 625.132812 405.152344 Z M 644.9375 322.796875 "/>
</clipPath>
<clipPath id="clip17">
  <path d="M 630 332 L 685 332 L 685 415 L 630 415 Z M 630 332 "/>
</clipPath>
<clipPath id="clip18">
  <path d="M 644.9375 322.796875 L 704.703125 337.167969 L 684.898438 419.523438 L 625.132812 405.152344 Z M 644.9375 322.796875 "/>
</clipPath>
<clipPath id="clip19">
  <path d="M 644.9375 322.796875 L 704.703125 337.167969 L 684.898438 419.523438 L 625.132812 405.152344 Z M 644.9375 322.796875 "/>
</clipPath>
</defs>
<g id="surface1">
<path style=" stroke:none;fill-rule:nonzero;fill:rgb(24.708557%,23.919678%,33.729553%);fill-opacity:1;" d="M 228.355469 252.894531 C 228.355469 343.484375 154.964844 416.925781 64.433594 416.925781 L 64.433594 88.867188 C 154.964844 88.867188 228.355469 162.308594 228.355469 252.894531 Z M 228.355469 252.894531 "/>
<path style=" stroke:none;fill-rule:nonzero;fill:rgb(24.708557%,23.919678%,33.729553%);fill-opacity:1;" d="M 783.546875 252.894531 C 783.546875 343.484375 856.941406 416.925781 947.46875 416.925781 L 947.46875 88.867188 C 856.941406 88.867188 783.546875 162.308594 783.546875 252.894531 Z M 783.546875 252.894531 "/>
<path style=" stroke:none;fill-rule:nonzero;fill:rgb(24.708557%,23.919678%,33.729553%);fill-opacity:1;" d="M 223.402344 69.152344 C 222.632812 69.152344 221.871094 69.078125 221.117188 68.929688 C 220.363281 68.777344 219.632812 68.554688 218.921875 68.261719 C 218.210938 67.96875 217.539062 67.605469 216.898438 67.179688 C 216.257812 66.75 215.667969 66.265625 215.125 65.722656 C 214.578125 65.175781 214.09375 64.585938 213.667969 63.945312 C 213.242188 63.304688 212.878906 62.632812 212.585938 61.921875 C 212.292969 61.210938 212.070312 60.476562 211.917969 59.722656 C 211.769531 58.96875 211.695312 58.207031 211.695312 57.4375 C 211.695312 56.667969 211.769531 55.90625 211.917969 55.152344 C 212.070312 54.398438 212.292969 53.664062 212.585938 52.953125 C 212.878906 52.242188 213.242188 51.566406 213.667969 50.925781 C 214.09375 50.289062 214.578125 49.695312 215.125 49.152344 C 215.667969 48.609375 216.257812 48.121094 216.898438 47.695312 C 217.539062 47.269531 218.210938 46.90625 218.921875 46.613281 C 219.632812 46.316406 220.363281 46.09375 221.117188 45.945312 C 221.871094 45.796875 222.632812 45.71875 223.402344 45.71875 C 224.171875 45.71875 224.933594 45.796875 225.6875 45.945312 C 226.441406 46.09375 227.171875 46.316406 227.882812 46.613281 C 228.59375 46.90625 229.269531 47.269531 229.90625 47.695312 C 230.546875 48.121094 231.136719 48.609375 231.683594 49.152344 C 232.226562 49.695312 232.710938 50.289062 233.136719 50.925781 C 233.566406 51.566406 233.925781 52.242188 234.21875 52.953125 C 234.515625 53.664062 234.738281 54.398438 234.886719 55.152344 C 235.035156 55.90625 235.113281 56.667969 235.113281 57.4375 C 235.109375 58.207031 235.035156 58.96875 234.882812 59.722656 C 234.734375 60.476562 234.511719 61.207031 234.21875 61.917969 C 233.921875 62.628906 233.5625 63.304688 233.132812 63.941406 C 232.707031 64.582031 232.222656 65.175781 231.679688 65.71875 C 231.136719 66.261719 230.542969 66.746094 229.90625 67.175781 C 229.265625 67.601562 228.589844 67.964844 227.882812 68.257812 C 227.171875 68.550781 226.441406 68.773438 225.6875 68.925781 C 224.933594 69.078125 224.171875 69.152344 223.402344 69.152344 Z M 223.402344 47.671875 C 222.761719 47.671875 222.128906 47.734375 221.5 47.859375 C 220.871094 47.984375 220.261719 48.171875 219.667969 48.417969 C 219.078125 48.660156 218.515625 48.960938 217.980469 49.320312 C 217.449219 49.675781 216.957031 50.078125 216.503906 50.53125 C 216.050781 50.984375 215.644531 51.480469 215.289062 52.011719 C 214.933594 52.546875 214.632812 53.109375 214.386719 53.699219 C 214.144531 54.292969 213.957031 54.902344 213.832031 55.53125 C 213.707031 56.160156 213.644531 56.796875 213.644531 57.4375 C 213.644531 58.078125 213.707031 58.714844 213.832031 59.339844 C 213.957031 59.96875 214.144531 60.582031 214.386719 61.171875 C 214.632812 61.765625 214.933594 62.328125 215.289062 62.863281 C 215.644531 63.394531 216.050781 63.886719 216.503906 64.339844 C 216.957031 64.792969 217.449219 65.199219 217.980469 65.554688 C 218.515625 65.910156 219.078125 66.210938 219.667969 66.457031 C 220.261719 66.703125 220.871094 66.886719 221.5 67.011719 C 222.128906 67.136719 222.761719 67.199219 223.402344 67.199219 C 224.042969 67.199219 224.679688 67.136719 225.304688 67.011719 C 225.933594 66.886719 226.542969 66.703125 227.136719 66.457031 C 227.730469 66.210938 228.292969 65.910156 228.824219 65.554688 C 229.355469 65.199219 229.847656 64.792969 230.300781 64.339844 C 230.753906 63.886719 231.160156 63.394531 231.515625 62.863281 C 231.871094 62.328125 232.171875 61.765625 232.417969 61.171875 C 232.664062 60.582031 232.847656 59.96875 232.972656 59.339844 C 233.097656 58.714844 233.160156 58.078125 233.160156 57.4375 C 233.160156 56.796875 233.097656 56.160156 232.972656 55.53125 C 232.84375 54.90625 232.660156 54.292969 232.414062 53.703125 C 232.167969 53.109375 231.867188 52.546875 231.511719 52.015625 C 231.15625 51.480469 230.753906 50.988281 230.300781 50.535156 C 229.847656 50.082031 229.355469 49.679688 228.820312 49.320312 C 228.289062 48.964844 227.726562 48.664062 227.136719 48.417969 C 226.542969 48.171875 225.933594 47.988281 225.304688 47.863281 C 224.675781 47.738281 224.042969 47.675781 223.402344 47.671875 Z M 223.402344 47.671875 "/>
<path style=" stroke:none;fill-rule:nonzero;fill:rgb(24.708557%,23.919678%,33.729553%);fill-opacity:1;" d="M 744.273438 373.089844 L 725.011719 373.089844 L 725.011719 353.8125 L 744.273438 353.8125 Z M 726.492188 371.605469 L 742.792969 371.605469 L 742.792969 355.296875 L 726.492188 355.296875 Z M 726.492188 371.605469 "/>
<path style=" stroke:none;fill-rule:nonzero;fill:rgb(24.708557%,23.919678%,33.729553%);fill-opacity:1;" d="M 285.332031 355.59375 L 272.195312 341.496094 L 286.28125 328.351562 L 299.417969 342.445312 Z M 274.289062 341.570312 L 285.40625 353.496094 L 297.324219 342.371094 L 286.207031 330.445312 Z M 274.289062 341.570312 "/>
<g clip-path="url(#clip1)" clip-rule="nonzero">
<path style=" stroke:none;fill-rule:nonzero;fill:rgb(24.708557%,23.919678%,33.729553%);fill-opacity:1;" d="M 63.460938 0.015625 L 63.460938 487.226562 L 948.445312 487.226562 L 948.445312 0.015625 Z M 946.496094 485.273438 L 65.410156 485.273438 L 65.410156 1.96875 L 946.496094 1.96875 Z M 946.496094 485.273438 "/>
</g>
<path style=" stroke:none;fill-rule:nonzero;fill:rgb(24.708557%,23.919678%,33.729553%);fill-opacity:1;" d="M 725.402344 486.738281 C 704.304688 483.433594 684.019531 480.621094 664.546875 478.304688 L 672.042969 463.296875 C 669.441406 462.429688 658.160156 471.109375 658.160156 471.109375 L 667.707031 427.699219 C 654.691406 429.4375 648.617188 473.714844 648.617188 473.714844 L 633.867188 458.957031 L 641.128906 475.667969 C 581.539062 469.402344 530.117188 467.445312 486.894531 467.894531 L 493.3125 455.046875 C 490.710938 454.179688 479.429688 462.863281 479.429688 462.863281 L 488.972656 419.453125 C 475.960938 421.1875 469.886719 465.46875 469.886719 465.46875 L 455.136719 450.707031 L 462.828125 468.40625 C 433.199219 469.269531 403.691406 471.644531 374.308594 475.539062 C 380.710938 455.574219 403.078125 436.382812 403.078125 436.382812 C 385.882812 441.734375 376.933594 450.457031 372.304688 458.542969 C 371.835938 438.035156 373.164062 417.644531 376.292969 397.371094 C 379.421875 377.097656 384.300781 357.253906 390.929688 337.839844 C 390.929688 337.839844 356.226562 415.980469 361.433594 468.070312 L 362.09375 477.324219 C 331.898438 482.039062 316.75 486.738281 316.75 486.738281 Z M 725.402344 486.738281 "/>
<path style=" stroke:none;fill-rule:nonzero;fill:rgb(14.118958%,15.289307%,81.17981%);fill-opacity:0.298;" d="M 647.066406 246.078125 C 647.066406 248.296875 647.011719 250.519531 646.902344 252.734375 C 646.796875 254.953125 646.632812 257.167969 646.414062 259.378906 C 646.195312 261.589844 645.925781 263.792969 645.597656 265.992188 C 645.273438 268.1875 644.894531 270.375 644.460938 272.554688 C 644.027344 274.730469 643.542969 276.898438 643.003906 279.054688 C 642.464844 281.207031 641.871094 283.347656 641.226562 285.472656 C 640.582031 287.597656 639.886719 289.707031 639.140625 291.796875 C 638.390625 293.890625 637.59375 295.960938 636.742188 298.011719 C 635.894531 300.066406 634.996094 302.09375 634.046875 304.101562 C 633.097656 306.109375 632.097656 308.09375 631.054688 310.054688 C 630.007812 312.011719 628.914062 313.945312 627.773438 315.847656 C 626.628906 317.753906 625.445312 319.628906 624.210938 321.476562 C 622.976562 323.324219 621.699219 325.140625 620.378906 326.921875 C 619.054688 328.707031 617.691406 330.457031 616.28125 332.175781 C 614.875 333.890625 613.425781 335.574219 611.933594 337.21875 C 610.441406 338.863281 608.914062 340.472656 607.34375 342.042969 C 605.773438 343.613281 604.167969 345.144531 602.523438 346.636719 C 600.878906 348.128906 599.195312 349.578125 597.480469 350.988281 C 595.765625 352.394531 594.015625 353.761719 592.234375 355.085938 C 590.449219 356.410156 588.636719 357.6875 586.789062 358.921875 C 584.945312 360.15625 583.070312 361.34375 581.167969 362.484375 C 579.261719 363.625 577.332031 364.722656 575.375 365.769531 C 573.417969 366.816406 571.433594 367.8125 569.429688 368.761719 C 567.421875 369.710938 565.394531 370.613281 563.34375 371.460938 C 561.292969 372.3125 559.222656 373.113281 557.132812 373.859375 C 555.042969 374.609375 552.933594 375.304688 550.8125 375.949219 C 548.6875 376.59375 546.546875 377.1875 544.394531 377.726562 C 542.242188 378.265625 540.078125 378.753906 537.898438 379.183594 C 535.722656 379.617188 533.535156 380 531.339844 380.324219 C 529.144531 380.648438 526.945312 380.921875 524.734375 381.140625 C 522.527344 381.359375 520.3125 381.519531 518.09375 381.628906 C 515.878906 381.738281 513.660156 381.792969 511.441406 381.792969 C 509.222656 381.792969 507.003906 381.738281 504.785156 381.628906 C 502.570312 381.519531 500.355469 381.359375 498.148438 381.140625 C 495.9375 380.921875 493.734375 380.648438 491.539062 380.324219 C 489.34375 380 487.160156 379.617188 484.980469 379.183594 C 482.804688 378.753906 480.640625 378.265625 478.484375 377.726562 C 476.332031 377.1875 474.195312 376.59375 472.070312 375.949219 C 469.945312 375.304688 467.839844 374.609375 465.75 373.859375 C 463.660156 373.113281 461.589844 372.3125 459.539062 371.460938 C 457.488281 370.613281 455.460938 369.710938 453.453125 368.761719 C 451.445312 367.8125 449.464844 366.816406 447.507812 365.769531 C 445.550781 364.722656 443.617188 363.625 441.714844 362.484375 C 439.8125 361.34375 437.9375 360.15625 436.089844 358.921875 C 434.246094 357.6875 432.429688 356.410156 430.648438 355.085938 C 428.863281 353.761719 427.117188 352.394531 425.398438 350.988281 C 423.683594 349.578125 422.003906 348.128906 420.359375 346.636719 C 418.714844 345.144531 417.109375 343.613281 415.539062 342.042969 C 413.96875 340.472656 412.4375 338.863281 410.949219 337.21875 C 409.457031 335.574219 408.007812 333.890625 406.601562 332.175781 C 405.191406 330.457031 403.828125 328.707031 402.503906 326.921875 C 401.183594 325.140625 399.90625 323.324219 398.671875 321.476562 C 397.4375 319.628906 396.25 317.753906 395.109375 315.847656 C 393.96875 313.945312 392.875 312.011719 391.828125 310.054688 C 390.78125 308.09375 389.785156 306.109375 388.835938 304.101562 C 387.886719 302.09375 386.988281 300.066406 386.136719 298.011719 C 385.289062 295.960938 384.488281 293.890625 383.742188 291.796875 C 382.996094 289.707031 382.296875 287.597656 381.652344 285.472656 C 381.007812 283.347656 380.417969 281.207031 379.878906 279.054688 C 379.339844 276.898438 378.851562 274.730469 378.421875 272.554688 C 377.988281 270.375 377.609375 268.1875 377.28125 265.992188 C 376.957031 263.792969 376.683594 261.589844 376.46875 259.378906 C 376.25 257.167969 376.085938 254.953125 375.976562 252.734375 C 375.867188 250.519531 375.8125 248.296875 375.8125 246.078125 C 375.8125 243.855469 375.867188 241.636719 375.976562 239.417969 C 376.085938 237.199219 376.25 234.984375 376.46875 232.773438 C 376.683594 230.5625 376.957031 228.359375 377.28125 226.164062 C 377.609375 223.964844 377.988281 221.777344 378.421875 219.601562 C 378.851562 217.421875 379.339844 215.253906 379.878906 213.101562 C 380.417969 210.945312 381.007812 208.804688 381.652344 206.679688 C 382.296875 204.554688 382.996094 202.445312 383.742188 200.355469 C 384.488281 198.265625 385.289062 196.191406 386.136719 194.140625 C 386.988281 192.089844 387.886719 190.058594 388.835938 188.050781 C 389.785156 186.042969 390.78125 184.058594 391.828125 182.101562 C 392.875 180.140625 393.96875 178.210938 395.109375 176.304688 C 396.25 174.398438 397.4375 172.523438 398.671875 170.675781 C 399.90625 168.828125 401.183594 167.015625 402.503906 165.230469 C 403.828125 163.445312 405.191406 161.695312 406.601562 159.980469 C 408.007812 158.261719 409.457031 156.582031 410.949219 154.933594 C 412.4375 153.289062 413.96875 151.679688 415.539062 150.109375 C 417.109375 148.539062 418.714844 147.007812 420.359375 145.515625 C 422.003906 144.027344 423.683594 142.574219 425.398438 141.167969 C 427.117188 139.757812 428.863281 138.390625 430.648438 137.066406 C 432.429688 135.746094 434.246094 134.464844 436.089844 133.234375 C 437.9375 132 439.8125 130.8125 441.714844 129.667969 C 443.617188 128.527344 445.550781 127.433594 447.507812 126.386719 C 449.464844 125.339844 451.445312 124.339844 453.453125 123.390625 C 455.460938 122.441406 457.488281 121.542969 459.539062 120.691406 C 461.589844 119.839844 463.660156 119.042969 465.75 118.292969 C 467.839844 117.546875 469.945312 116.847656 472.070312 116.203125 C 474.195312 115.558594 476.332031 114.96875 478.484375 114.425781 C 480.640625 113.886719 482.804688 113.402344 484.980469 112.96875 C 487.160156 112.535156 489.34375 112.15625 491.539062 111.828125 C 493.734375 111.503906 495.9375 111.230469 498.148438 111.015625 C 500.355469 110.796875 502.570312 110.632812 504.785156 110.523438 C 507.003906 110.414062 509.222656 110.359375 511.441406 110.359375 C 513.660156 110.359375 515.878906 110.414062 518.09375 110.523438 C 520.3125 110.632812 522.527344 110.796875 524.734375 111.015625 C 526.945312 111.230469 529.144531 111.503906 531.339844 111.828125 C 533.535156 112.15625 535.722656 112.535156 537.898438 112.96875 C 540.078125 113.402344 542.242188 113.886719 544.394531 114.425781 C 546.546875 114.96875 548.6875 115.558594 550.8125 116.203125 C 552.933594 116.847656 555.042969 117.546875 557.132812 118.292969 C 559.222656 119.042969 561.292969 119.839844 563.34375 120.691406 C 565.394531 121.542969 567.421875 122.441406 569.429688 123.390625 C 571.433594 124.339844 573.417969 125.339844 575.375 126.386719 C 577.332031 127.433594 579.261719 128.527344 581.167969 129.667969 C 583.070312 130.8125 584.945312 132 586.789062 133.234375 C 588.636719 134.464844 590.449219 135.746094 592.234375 137.066406 C 594.015625 138.390625 595.765625 139.757812 597.480469 141.167969 C 599.195312 142.574219 600.878906 144.027344 602.523438 145.515625 C 604.167969 147.007812 605.773438 148.539062 607.34375 150.109375 C 608.914062 151.679688 610.441406 153.289062 611.933594 154.933594 C 613.425781 156.582031 614.875 158.261719 616.28125 159.980469 C 617.691406 161.695312 619.054688 163.445312 620.378906 165.230469 C 621.699219 167.015625 622.976562 168.828125 624.210938 170.675781 C 625.445312 172.523438 626.628906 174.398438 627.773438 176.304688 C 628.914062 178.210938 630.007812 180.140625 631.054688 182.101562 C 632.097656 184.058594 633.097656 186.042969 634.046875 188.050781 C 634.996094 190.058594 635.894531 192.089844 636.742188 194.140625 C 637.59375 196.191406 638.390625 198.265625 639.140625 200.355469 C 639.886719 202.445312 640.582031 204.554688 641.226562 206.679688 C 641.871094 208.804688 642.464844 210.945312 643.003906 213.101562 C 643.542969 215.253906 644.027344 217.421875 644.460938 219.601562 C 644.894531 221.777344 645.273438 223.964844 645.597656 226.164062 C 645.925781 228.359375 646.195312 230.5625 646.414062 232.773438 C 646.632812 234.984375 646.796875 237.199219 646.902344 239.417969 C 647.011719 241.636719 647.066406 243.855469 647.066406 246.078125 Z M 647.066406 246.078125 "/>
<path style=" stroke:none;fill-rule:nonzero;fill:rgb(14.118958%,15.289307%,81.17981%);fill-opacity:1;" d="M 455.742188 73.417969 L 365.4375 183.058594 L 499.089844 340.894531 L 588.1875 236.074219 Z M 455.742188 73.417969 "/>
<path style=" stroke:none;fill-rule:nonzero;fill:rgb(0%,0%,0%);fill-opacity:0.098;" d="M 455.742188 73.417969 L 365.4375 183.058594 L 499.089844 340.894531 L 588.1875 236.074219 Z M 455.742188 73.417969 "/>
<path style=" stroke:none;fill-rule:nonzero;fill:rgb(94.898987%,94.898987%,94.898987%);fill-opacity:1;" d="M 369.050781 184.265625 C 371.058594 180.648438 373.511719 177.371094 376.414062 174.425781 L 459.355469 90.285156 C 459.355469 90.285156 488.253906 85.46875 494.273438 99.925781 L 388.316406 186.675781 Z M 369.050781 184.265625 "/>
<path style=" stroke:none;fill-rule:nonzero;fill:rgb(14.118958%,15.289307%,81.17981%);fill-opacity:1;" d="M 364.835938 182.457031 L 487.648438 370.414062 C 487.648438 370.414062 499.691406 378.847656 511.730469 374.027344 L 637.554688 289.085938 L 503.90625 86.671875 L 383.5 180.648438 Z M 364.835938 182.457031 "/>
<path style=" stroke:none;fill-rule:nonzero;fill:rgb(24.708557%,23.919678%,33.729553%);fill-opacity:1;" d="M 411.824219 171.417969 L 488.890625 116.003906 L 490.03125 117.589844 L 412.964844 173.003906 Z M 411.824219 171.417969 "/>
<path style=" stroke:none;fill-rule:nonzero;fill:rgb(24.708557%,23.919678%,33.729553%);fill-opacity:1;" d="M 409.175781 193.238281 L 410.804688 192.160156 L 511.941406 345.175781 L 510.316406 346.253906 Z M 409.175781 193.238281 "/>
<path style=" stroke:none;fill-rule:nonzero;fill:rgb(24.708557%,23.919678%,33.729553%);fill-opacity:1;" d="M 522.601562 349.757812 L 604.457031 289.492188 L 605.613281 291.066406 L 523.757812 351.332031 Z M 522.601562 349.757812 "/>
<path style=" stroke:none;fill-rule:nonzero;fill:rgb(24.708557%,23.919678%,33.729553%);fill-opacity:1;" d="M 501.902344 119.761719 L 503.503906 118.644531 L 608.253906 269.25 L 606.652344 270.367188 Z M 501.902344 119.761719 "/>
<path style=" stroke:none;fill-rule:nonzero;fill:rgb(24.708557%,23.919678%,33.729553%);fill-opacity:1;" d="M 375.867188 176.589844 L 471.144531 89.09375 L 471.957031 89.980469 L 376.683594 177.480469 Z M 375.867188 176.589844 "/>
<path style=" stroke:none;fill-rule:nonzero;fill:rgb(24.708557%,23.919678%,33.729553%);fill-opacity:1;" d="M 379.507812 177.808594 L 479.082031 89.84375 L 479.878906 90.746094 L 380.304688 178.710938 Z M 379.507812 177.808594 "/>
<path style=" stroke:none;fill-rule:nonzero;fill:rgb(24.708557%,23.919678%,33.729553%);fill-opacity:1;" d="M 381.941406 177.816406 L 485.308594 91.59375 L 486.082031 92.519531 L 382.710938 178.742188 Z M 381.941406 177.816406 "/>
<path style=" stroke:none;fill-rule:nonzero;fill:rgb(100%,100%,100%);fill-opacity:1;" d="M 916.246094 252.894531 C 910.703125 250.839844 903.828125 247.328125 899.566406 243.613281 L 902.570312 251.921875 L 848.921875 251.921875 L 848.921875 253.871094 L 902.570312 253.871094 L 899.566406 262.183594 C 903.828125 258.464844 910.703125 254.953125 916.246094 252.894531 Z M 916.246094 252.894531 "/>
<path style=" stroke:none;fill-rule:nonzero;fill:rgb(100%,100%,100%);fill-opacity:1;" d="M 163.960938 251.921875 L 110.308594 251.921875 L 113.3125 243.609375 C 109.050781 247.328125 102.175781 250.839844 96.632812 252.894531 C 102.175781 254.953125 109.050781 258.464844 113.3125 262.179688 L 110.308594 253.871094 L 163.960938 253.871094 Z M 163.960938 251.921875 "/>
<g clip-path="url(#clip2)" clip-rule="nonzero">
<g clip-path="url(#clip3)" clip-rule="nonzero">
<g clip-path="url(#clip4)" clip-rule="nonzero">
<path style=" stroke:none;fill-rule:nonzero;fill:rgb(100%,100%,100%);fill-opacity:1;" d="M 663.515625 122.359375 C 659.902344 121.214844 657.894531 117.351562 659.035156 113.742188 C 659.695312 111.652344 661.273438 110.074219 663.222656 109.363281 C 663.285156 108.972656 663.371094 108.585938 663.492188 108.203125 C 664.429688 105.238281 667.09375 103.207031 670.085938 102.949219 C 671.144531 101.6875 672.609375 100.578125 674.378906 99.707031 C 673.917969 98.476562 673.5 97.058594 673.242188 95.546875 C 672.214844 89.417969 674.964844 83.554688 680.429688 80.25 C 682.007812 79.296875 683.71875 78.617188 685.433594 78.007812 C 684.546875 78.238281 683.558594 78.203125 682.539062 77.878906 C 681.035156 77.402344 679.851562 76.433594 679.628906 76.246094 C 679.105469 75.816406 677.613281 74.574219 677.566406 72.832031 C 676.925781 72.125 676.609375 71.207031 676.566406 70.359375 C 676.210938 66.855469 676.875 64.15625 678.550781 62.328125 C 680.023438 60.714844 681.773438 60.332031 682.675781 60.246094 L 689.335938 58.320312 C 689.867188 57.699219 690.59375 57.078125 691.515625 56.464844 L 691.886719 56.210938 L 695.914062 55.097656 L 695.617188 46.019531 L 703.601562 53.457031 C 705.449219 53.453125 707.277344 53.730469 709.046875 54.289062 C 714.355469 55.96875 718.640625 59.960938 721.777344 66.15625 C 727.023438 76.5 721.820312 90.675781 713.992188 97.875 C 711.617188 100.054688 709.039062 101.542969 706.542969 102.980469 C 704.875 103.945312 703.300781 104.855469 701.816406 105.941406 C 704.050781 108.585938 705.402344 111.515625 705.625 114.1875 C 707.925781 116.117188 708.929688 119.3125 707.992188 122.277344 C 707.898438 122.582031 707.78125 122.882812 707.648438 123.171875 C 709.003906 124.902344 709.492188 127.242188 708.785156 129.476562 C 707.644531 133.082031 703.773438 135.089844 700.160156 133.949219 Z M 687.792969 76.511719 C 687.328125 77.066406 686.765625 77.492188 686.136719 77.769531 C 686.511719 77.640625 686.894531 77.511719 687.269531 77.390625 C 688.761719 76.890625 690.207031 76.410156 691.503906 75.820312 C 691.460938 75.78125 691.421875 75.734375 691.378906 75.6875 Z M 687.792969 76.511719 "/>
</g>
</g>
</g>
<g clip-path="url(#clip5)" clip-rule="nonzero">
<g clip-path="url(#clip6)" clip-rule="nonzero">
<g clip-path="url(#clip7)" clip-rule="nonzero">
<path style=" stroke:none;fill-rule:nonzero;fill:rgb(14.118958%,15.289307%,81.17981%);fill-opacity:1;" d="M 703.859375 123.652344 C 704.535156 123.085938 705.0625 122.335938 705.34375 121.4375 C 706.074219 119.128906 704.964844 116.683594 702.835938 115.671875 C 703.195312 112.851562 701.351562 109.03125 697.957031 105.921875 C 698.75 104.632812 699.789062 103.984375 700.101562 103.757812 C 704.015625 100.863281 708.4375 99.207031 712.113281 95.832031 C 719.0625 89.4375 723.941406 76.5625 719.300781 67.40625 C 714.007812 56.964844 706.425781 55.992188 702.550781 56.277344 L 698.613281 52.609375 L 698.761719 57.191406 L 693.0625 58.765625 C 693.0625 58.765625 691.324219 59.929688 691.078125 60.707031 L 683.15625 62.996094 C 683.15625 62.996094 678.554688 62.910156 679.34375 70.175781 C 679.34375 70.175781 679.335938 71.285156 680.378906 71.234375 L 683.816406 70.273438 C 683.964844 70.042969 684.273438 69.847656 684.65625 69.796875 C 685.230469 69.714844 685.742188 69.964844 685.796875 70.359375 C 685.851562 70.75 685.433594 71.132812 684.859375 71.214844 C 684.644531 71.242188 684.441406 71.230469 684.261719 71.179688 L 680.824219 72.273438 C 680.824219 72.273438 679.425781 72.472656 681.433594 74.132812 C 681.433594 74.132812 684.785156 76.992188 686.070312 74.0625 L 692.417969 72.597656 C 692.417969 72.597656 693.929688 74.785156 696.308594 76.082031 C 692.402344 79.519531 686.257812 79.96875 681.871094 82.621094 C 677.457031 85.292969 675.125 89.964844 675.984375 95.089844 C 676.335938 97.179688 677.121094 99.347656 678.078125 101.238281 C 674.945312 102.175781 672.53125 103.839844 671.515625 105.765625 C 669.191406 105.371094 666.871094 106.730469 666.140625 109.042969 C 665.851562 109.957031 665.855469 110.894531 666.097656 111.761719 C 664.171875 111.511719 662.285156 112.664062 661.679688 114.578125 C 661 116.730469 662.199219 119.027344 664.355469 119.710938 L 700.996094 131.296875 C 703.15625 131.980469 705.453125 130.789062 706.136719 128.636719 C 706.773438 126.621094 705.761719 124.476562 703.859375 123.652344 Z M 694.636719 61.109375 C 694.636719 61.109375 692.515625 62.609375 692.375 63.875 L 684.054688 66.066406 C 684.054688 66.066406 680.972656 66.582031 680.953125 68.25 C 680.953125 68.25 679.976562 65.101562 684.003906 64.421875 L 691.515625 62.519531 C 691.515625 62.519531 692.652344 60.558594 694.203125 59.980469 L 700.398438 58.824219 Z M 670.785156 114.121094 L 670.519531 114.039062 C 668.820312 113.5 667.878906 111.683594 668.414062 109.988281 C 668.949219 108.289062 670.765625 107.351562 672.464844 107.886719 L 672.730469 107.972656 C 671.484375 108.261719 670.414062 109.179688 670 110.488281 C 669.585938 111.800781 669.929688 113.167969 670.785156 114.121094 Z M 685.109375 103.835938 C 681.230469 103.640625 677.675781 107.824219 677.675781 107.824219 L 674.40625 106.789062 C 677.957031 102.605469 681.367188 102.65625 681.367188 102.65625 C 671.855469 87.75 685.445312 82.71875 685.445312 82.71875 C 691.125 81.25 697.789062 77.71875 697.789062 77.71875 C 695.292969 81.382812 687.023438 84.246094 687.023438 84.246094 C 673.390625 91.058594 685.109375 103.835938 685.109375 103.835938 Z M 685.109375 103.835938 "/>
</g>
</g>
</g>
<g clip-path="url(#clip8)" clip-rule="nonzero">
<g clip-path="url(#clip9)" clip-rule="nonzero">
<g clip-path="url(#clip10)" clip-rule="nonzero">
<path style=" stroke:none;fill-rule:nonzero;fill:rgb(100%,100%,100%);fill-opacity:1;" d="M 298.4375 256.9375 C 295.292969 258.957031 291.101562 258.050781 289.097656 254.925781 C 287.933594 253.113281 287.738281 250.929688 288.429688 249.011719 C 288.171875 248.71875 287.933594 248.40625 287.722656 248.078125 C 285.667969 244.878906 286.398438 240.667969 289.289062 238.300781 C 289.875 228.703125 282.289062 212.144531 274.886719 199.601562 C 272.292969 200.851562 269.109375 200.003906 267.523438 197.535156 C 266.511719 195.957031 266.371094 194.0625 266.984375 192.414062 C 266.800781 192.210938 266.636719 191.988281 266.484375 191.753906 C 265.367188 190.011719 265.308594 187.886719 266.152344 186.140625 C 263.976562 184.28125 260.960938 182.253906 257.101562 180.945312 L 251.746094 179.132812 L 258.261719 174.949219 C 258.300781 173.269531 258.886719 171.496094 259.945312 169.816406 C 259.703125 169.558594 259.480469 169.273438 259.289062 168.972656 C 257.421875 166.066406 258.460938 162.0625 261.597656 160.050781 C 264.734375 158.035156 268.808594 158.757812 270.671875 161.660156 C 270.867188 161.964844 271.03125 162.285156 271.167969 162.617188 C 273.136719 162.347656 274.988281 162.554688 276.535156 163.21875 L 283.046875 159.035156 L 282.46875 164.65625 C 282.050781 168.707031 282.636719 172.296875 283.429688 175.046875 C 285.363281 175.007812 287.273438 175.945312 288.390625 177.683594 C 288.542969 177.921875 288.675781 178.164062 288.789062 178.414062 C 290.539062 178.542969 292.203125 179.460938 293.214844 181.039062 C 294.800781 183.507812 294.25 186.75 292.035156 188.589844 C 300.378906 200.570312 312.3125 214.386719 321.289062 217.8125 C 324.578125 216.402344 328.503906 217.519531 330.492188 220.613281 C 330.664062 220.878906 330.816406 221.15625 330.949219 221.441406 C 333.113281 221.496094 335.1875 222.59375 336.429688 224.53125 C 338.4375 227.65625 337.515625 231.84375 334.371094 233.863281 Z M 298.4375 256.9375 "/>
</g>
</g>
</g>
<g clip-path="url(#clip11)" clip-rule="nonzero">
<g clip-path="url(#clip12)" clip-rule="nonzero">
<g clip-path="url(#clip13)" clip-rule="nonzero">
<path style=" stroke:none;fill-rule:nonzero;fill:rgb(14.118958%,15.289307%,81.17981%);fill-opacity:1;" d="M 328.925781 224.605469 C 328.921875 223.742188 328.6875 222.871094 328.1875 222.09375 C 326.785156 219.90625 323.863281 219.277344 321.664062 220.691406 L 321.527344 220.777344 C 308.226562 216.820312 291.511719 192.765625 288.214844 187.855469 L 289.984375 186.71875 C 291.402344 185.808594 291.816406 183.925781 290.914062 182.515625 C 290.007812 181.105469 288.125 180.703125 286.707031 181.613281 L 286.386719 181.820312 C 286.691406 180.964844 286.613281 179.984375 286.085938 179.164062 C 285.183594 177.753906 283.296875 177.351562 281.882812 178.257812 L 281.664062 178.398438 C 280.5 175.371094 279.136719 170.34375 279.75 164.390625 L 276.578125 166.425781 C 274.859375 164.941406 271.773438 164.835938 268.652344 166.097656 C 269 165.105469 268.9375 164.027344 268.367188 163.140625 C 267.3125 161.496094 264.941406 161.140625 263.070312 162.34375 C 261.199219 163.542969 260.535156 165.847656 261.589844 167.492188 C 262.160156 168.378906 263.113281 168.886719 264.164062 168.980469 C 261.714844 171.296875 260.527344 174.144531 261.160156 176.324219 L 257.992188 178.359375 C 263.65625 180.28125 267.660156 183.613281 269.933594 185.933594 L 269.714844 186.070312 C 268.300781 186.980469 267.882812 188.863281 268.789062 190.273438 C 269.316406 191.09375 270.171875 191.570312 271.078125 191.648438 L 270.753906 191.855469 C 269.339844 192.765625 268.921875 194.644531 269.828125 196.054688 C 270.734375 197.464844 272.621094 197.871094 274.035156 196.960938 L 275.808594 195.824219 C 278.898438 200.867188 293.816406 226.070312 291.882812 239.8125 L 291.464844 240.082031 C 289.269531 241.492188 288.621094 244.410156 290.027344 246.597656 C 290.535156 247.390625 291.25 247.980469 292.054688 248.335938 C 290.652344 249.640625 290.335938 251.789062 291.398438 253.445312 C 292.597656 255.3125 295.085938 255.84375 296.960938 254.640625 L 332.898438 231.566406 C 334.769531 230.363281 335.320312 227.878906 334.125 226.011719 C 333.003906 224.265625 330.746094 223.683594 328.925781 224.605469 Z M 262.542969 177.4375 L 265.59375 175.476562 C 269.5 179.976562 271.246094 184.28125 271.246094 184.28125 C 268.566406 181.003906 262.542969 177.4375 262.542969 177.4375 Z M 296.347656 246.144531 L 296.117188 246.289062 C 294.636719 247.238281 292.671875 246.816406 291.726562 245.34375 C 290.785156 243.875 291.214844 241.910156 292.695312 240.960938 L 292.925781 240.816406 C 292.355469 241.941406 292.375 243.324219 293.105469 244.460938 C 293.835938 245.597656 295.082031 246.191406 296.347656 246.144531 Z M 298.40625 235.628906 L 294.695312 238.011719 C 295.488281 224.167969 277.460938 194.851562 277.460938 194.851562 L 278.679688 194.070312 C 295.699219 219.085938 298.40625 235.628906 298.40625 235.628906 Z M 298.40625 235.628906 "/>
</g>
</g>
</g>
<g clip-path="url(#clip14)" clip-rule="nonzero">
<g clip-path="url(#clip15)" clip-rule="nonzero">
<g clip-path="url(#clip16)" clip-rule="nonzero">
<path style=" stroke:none;fill-rule:nonzero;fill:rgb(100%,100%,100%);fill-opacity:1;" d="M 633.011719 407.042969 C 628.671875 406 625.996094 401.597656 627.046875 397.222656 C 627.65625 394.691406 629.390625 392.691406 631.625 391.675781 C 631.664062 391.210938 631.734375 390.742188 631.847656 390.28125 C 632.933594 385.761719 637.246094 382.859375 641.726562 383.457031 C 646.769531 379.578125 650.113281 374.054688 652.230469 369.304688 C 650.339844 367.652344 649.410156 365.023438 650.039062 362.40625 C 650.570312 360.199219 652.09375 358.484375 654.019531 357.644531 C 654.054688 357.308594 654.109375 356.976562 654.1875 356.644531 C 654.464844 355.492188 655.023438 354.457031 655.78125 353.609375 C 654.148438 350.167969 653.726562 346.246094 654.640625 342.441406 C 656.808594 333.421875 665.859375 327.832031 674.816406 329.984375 C 683.773438 332.136719 689.289062 341.230469 687.121094 350.253906 C 686.207031 354.058594 684.046875 357.355469 681.027344 359.679688 C 681.320312 360.78125 681.347656 361.957031 681.070312 363.109375 C 680.988281 363.441406 680.890625 363.761719 680.765625 364.074219 C 682.09375 365.699219 682.679688 367.917969 682.148438 370.128906 C 681.515625 372.746094 679.492188 374.664062 677.058594 375.273438 C 676.785156 380.488281 677.253906 386.957031 680.011719 392.722656 C 684.015625 394.363281 686.339844 398.761719 685.289062 403.132812 C 685.199219 403.503906 685.085938 403.867188 684.945312 404.222656 C 686.683594 406.152344 687.449219 408.882812 686.796875 411.59375 C 685.746094 415.964844 681.351562 418.667969 677.015625 417.625 L 633.011719 407.042969 "/>
</g>
</g>
</g>
<g clip-path="url(#clip17)" clip-rule="nonzero">
<g clip-path="url(#clip18)" clip-rule="nonzero">
<g clip-path="url(#clip19)" clip-rule="nonzero">
<path style=" stroke:none;fill-rule:nonzero;fill:rgb(14.118958%,15.289307%,81.17981%);fill-opacity:1;" d="M 680.539062 405.121094 C 681.285156 404.390625 681.84375 403.453125 682.105469 402.367188 C 682.839844 399.3125 680.976562 396.238281 677.941406 395.507812 L 677.71875 395.453125 C 673.585938 387.828125 673.273438 378.992188 674.042969 371.957031 L 674.5625 372.082031 C 676.515625 372.550781 678.488281 371.335938 678.960938 369.363281 C 679.4375 367.390625 678.234375 365.414062 676.277344 364.945312 L 675.832031 364.835938 C 676.828125 364.382812 677.609375 363.492188 677.886719 362.34375 C 678.234375 360.890625 677.675781 359.4375 676.570312 358.582031 C 680.132812 356.886719 682.945312 353.644531 683.945312 349.488281 C 685.691406 342.222656 681.261719 334.925781 674.046875 333.191406 C 666.835938 331.457031 659.570312 335.941406 657.820312 343.207031 C 656.824219 347.363281 657.847656 351.53125 660.253906 354.65625 C 658.886719 354.917969 657.71875 355.957031 657.371094 357.410156 C 657.09375 358.558594 657.390625 359.710938 658.066406 360.5625 L 657.625 360.457031 C 655.664062 359.984375 653.691406 361.203125 653.21875 363.171875 C 652.746094 365.144531 653.945312 367.125 655.90625 367.597656 L 656.425781 367.71875 C 653.90625 374.335938 649.617188 382.0625 642.460938 386.976562 L 641.855469 386.832031 C 638.824219 386.101562 635.769531 387.992188 635.035156 391.046875 C 634.765625 392.160156 634.84375 393.269531 635.191406 394.269531 C 632.914062 394.148438 630.789062 395.671875 630.230469 397.988281 C 629.605469 400.597656 631.191406 403.214844 633.78125 403.839844 L 677.785156 414.421875 C 680.375 415.042969 682.984375 413.433594 683.613281 410.828125 C 684.199219 408.386719 682.839844 405.929688 680.539062 405.121094 Z M 640.378906 396.351562 L 640.058594 396.277344 C 638.011719 395.785156 636.761719 393.71875 637.257812 391.660156 C 637.75 389.605469 639.804688 388.332031 641.851562 388.824219 L 642.171875 388.902344 C 640.722656 389.351562 639.542969 390.535156 639.160156 392.117188 C 638.78125 393.707031 639.292969 395.292969 640.378906 396.351562 Z M 650.535156 388.917969 L 647.027344 388.074219 C 653.609375 381.28125 658.476562 368.890625 658.476562 368.890625 L 659.496094 369.136719 C 655.476562 380.933594 650.535156 388.917969 650.535156 388.917969 Z M 671.285156 342.355469 C 668.707031 341.734375 666.828125 340.054688 666.601562 338.339844 C 663.8125 339.847656 661.640625 342.488281 660.839844 345.824219 C 660.335938 347.921875 660.429688 350.015625 661.019531 351.929688 C 659.507812 349.421875 658.945312 346.328125 659.6875 343.246094 C 661.179688 337.039062 667.375 333.210938 673.535156 334.695312 C 677.617188 335.675781 680.648438 338.738281 681.800781 342.5 C 680.773438 340.792969 679.296875 339.363281 677.503906 338.375 C 677.734375 338.933594 677.804688 339.507812 677.671875 340.066406 C 677.191406 342.0625 674.332031 343.089844 671.285156 342.355469 "/>
</g>
</g>
</g>
</g>
</svg>
