<svg width="512" height="512" viewBox="0 0 512 512" fill="none" xmlns="http://www.w3.org/2000/svg">
<path d="M407 0H105C47.109 0 0 47.109 0 105V407C0 464.891 47.109 512 105 512H407C464.891 512 512 464.891 512 407V105C512 47.109 464.891 0 407 0Z" fill="url(#paint0_linear_455_58)"/>
<path d="M106 151C130.814 151 151 130.814 151 106C151 81.186 130.814 61 106 61C81.186 61 61 81.186 61 106C61 130.814 81.186 151 106 151ZM256 151C280.814 151 301 130.814 301 106C301 81.186 280.814 61 256 61C231.186 61 211 81.186 211 106C211 130.814 231.186 151 256 151ZM256 361C231.186 361 211 381.186 211 406C211 430.814 231.186 451 256 451C280.814 451 301 430.814 301 406C301 381.186 280.814 361 256 361ZM421 213.763V148.237C438.422 142.024 451 125.53 451 106C451 81.186 430.814 61 406 61C381.186 61 361 81.186 361 106C361 125.53 373.578 142.024 391 148.237V213.763C378.292 218.295 368.295 228.292 363.763 241H298.237C292.024 223.578 275.53 211 256 211C236.47 211 219.976 223.578 213.763 241H148.237C142.024 223.578 125.53 211 106 211C81.186 211 61 231.186 61 256C61 275.53 73.578 292.024 91 298.237V363.763C73.578 369.976 61 386.47 61 406C61 430.814 81.186 451 106 451C130.814 451 151 430.814 151 406C151 386.47 138.422 369.976 121 363.763V298.237C133.708 293.705 143.705 283.708 148.237 271H213.763C219.976 288.422 236.47 301 256 301C275.53 301 292.024 288.422 298.237 271H363.763C369.976 288.422 386.47 301 406 301C430.814 301 451 280.814 451 256C451 236.47 438.422 219.976 421 213.763ZM406 361C381.186 361 361 381.186 361 406C361 430.814 381.186 451 406 451C430.814 451 451 430.814 451 406C451 381.186 430.814 361 406 361Z" fill="url(#paint1_linear_455_58)"/>
<defs>
<linearGradient id="paint0_linear_455_58" x1="256" y1="512" x2="256" y2="0.000671386" gradientUnits="userSpaceOnUse">
<stop stop-color="#5F44F8"/>
<stop offset="0.0001" stop-color="#6344F8"/>
<stop offset="1" stop-color="#9CA6FF"/>
</linearGradient>
<linearGradient id="paint1_linear_455_58" x1="256" y1="450.998" x2="256" y2="60.9985" gradientUnits="userSpaceOnUse">
<stop stop-color="#C3D7FF"/>
<stop offset="0.9973" stop-color="#F0F0FF"/>
</linearGradient>
</defs>
</svg>
