<?xml version="1.0" encoding="UTF-8"?>
<svg xmlns="http://www.w3.org/2000/svg" xmlns:xlink="http://www.w3.org/1999/xlink" width="1012.5pt" height="487.499991pt" viewBox="0 0 1012.5 487.499991" version="1.2">
<defs>
<clipPath id="clip1">
  <path d="M 569 196 L 820.125 196 L 820.125 436 L 569 436 Z M 569 196 "/>
</clipPath>
<clipPath id="clip2">
  <path d="M 192.707031 451 L 386 451 L 386 487 L 192.707031 487 Z M 192.707031 451 "/>
</clipPath>
<clipPath id="clip3">
  <path d="M 514.640625 176.566406 L 537.878906 176.566406 L 537.878906 212.546875 L 514.640625 212.546875 Z M 514.640625 176.566406 "/>
</clipPath>
<clipPath id="clip4">
  <path d="M 636.425781 132.796875 L 660.414062 132.796875 L 660.414062 176.277344 L 636.425781 176.277344 Z M 636.425781 132.796875 "/>
</clipPath>
<clipPath id="clip5">
  <path d="M 425.65625 161.964844 L 451.890625 161.964844 L 451.890625 197.945312 L 425.65625 197.945312 Z M 425.65625 161.964844 "/>
</clipPath>
<clipPath id="clip6">
  <path d="M 372.015625 161.964844 L 398.25 161.964844 L 398.25 197.945312 L 372.015625 197.945312 Z M 372.015625 161.964844 "/>
</clipPath>
<clipPath id="clip7">
  <path d="M 576.09375 161.964844 L 602.328125 161.964844 L 602.328125 197.945312 L 576.09375 197.945312 Z M 576.09375 161.964844 "/>
</clipPath>
</defs>
<g id="surface1">
<path style=" stroke:none;fill-rule:nonzero;fill:rgb(94.898987%,94.898987%,94.898987%);fill-opacity:1;" d="M 376.128906 0 L 276.15625 54.089844 C 276.582031 54.824219 276.972656 55.578125 277.324219 56.347656 C 277.671875 57.121094 277.984375 57.910156 278.257812 58.710938 C 278.527344 59.515625 278.761719 60.328125 278.949219 61.15625 C 279.140625 61.980469 279.289062 62.816406 279.394531 63.65625 C 279.503906 64.5 279.566406 65.34375 279.589844 66.191406 C 279.609375 67.039062 279.589844 67.882812 279.527344 68.730469 C 279.464844 69.574219 279.359375 70.414062 279.214844 71.25 C 279.066406 72.085938 278.878906 72.910156 278.648438 73.726562 C 278.417969 74.542969 278.148438 75.347656 277.839844 76.136719 C 277.527344 76.925781 277.179688 77.695312 276.792969 78.449219 C 276.402344 79.203125 275.980469 79.9375 275.519531 80.648438 C 275.058594 81.363281 274.5625 82.046875 274.03125 82.710938 C 273.503906 83.375 272.941406 84.007812 272.347656 84.613281 C 271.753906 85.21875 271.132812 85.796875 270.480469 86.339844 C 269.828125 86.882812 269.152344 87.394531 268.449219 87.867188 C 267.75 88.34375 267.023438 88.785156 266.277344 89.1875 C 265.53125 89.59375 264.765625 89.957031 263.984375 90.285156 C 263.203125 90.613281 262.402344 90.902344 261.59375 91.148438 C 260.78125 91.394531 259.957031 91.601562 259.125 91.769531 C 258.292969 91.933594 257.453125 92.054688 256.609375 92.136719 C 255.765625 92.21875 254.917969 92.257812 254.070312 92.253906 C 253.222656 92.253906 252.375 92.207031 251.53125 92.117188 C 250.6875 92.03125 249.847656 91.902344 249.015625 91.730469 C 248.1875 91.558594 247.367188 91.34375 246.554688 91.089844 C 245.746094 90.835938 244.949219 90.542969 244.171875 90.210938 C 243.390625 89.878906 242.628906 89.507812 241.886719 89.097656 C 241.140625 88.6875 240.421875 88.242188 239.722656 87.761719 C 239.023438 87.28125 238.351562 86.765625 237.703125 86.214844 C 237.058594 85.667969 236.4375 85.085938 235.851562 84.476562 C 235.261719 83.867188 234.703125 83.226562 234.179688 82.5625 C 233.65625 81.894531 233.164062 81.203125 232.710938 80.488281 C 232.253906 79.773438 231.835938 79.035156 231.453125 78.28125 L 197.367188 96.722656 L 285.664062 259.558594 L 464.425781 162.835938 Z M 376.128906 0 "/>
<path style=" stroke:none;fill-rule:nonzero;fill:rgb(14.118958%,48.629761%,94.509888%);fill-opacity:1;" d="M 273.285156 66.847656 C 273.285156 67.523438 273.25 68.199219 273.183594 68.871094 C 273.117188 69.542969 273.019531 70.207031 272.886719 70.871094 C 272.753906 71.535156 272.589844 72.1875 272.394531 72.832031 C 272.199219 73.480469 271.972656 74.113281 271.710938 74.738281 C 271.453125 75.363281 271.164062 75.972656 270.847656 76.566406 C 270.527344 77.164062 270.179688 77.742188 269.804688 78.300781 C 269.429688 78.863281 269.027344 79.40625 268.597656 79.925781 C 268.171875 80.449219 267.71875 80.949219 267.238281 81.425781 C 266.761719 81.902344 266.261719 82.355469 265.738281 82.785156 C 265.214844 83.214844 264.671875 83.617188 264.113281 83.992188 C 263.550781 84.367188 262.96875 84.710938 262.375 85.03125 C 261.777344 85.347656 261.167969 85.636719 260.542969 85.894531 C 259.917969 86.152344 259.285156 86.382812 258.636719 86.578125 C 257.988281 86.773438 257.335938 86.9375 256.671875 87.070312 C 256.007812 87.199219 255.339844 87.300781 254.667969 87.367188 C 253.996094 87.433594 253.320312 87.464844 252.644531 87.464844 C 251.96875 87.464844 251.296875 87.433594 250.621094 87.367188 C 249.949219 87.300781 249.28125 87.199219 248.621094 87.070312 C 247.957031 86.9375 247.300781 86.773438 246.65625 86.578125 C 246.007812 86.382812 245.371094 86.152344 244.746094 85.894531 C 244.125 85.636719 243.511719 85.347656 242.917969 85.03125 C 242.320312 84.710938 241.742188 84.367188 241.179688 83.992188 C 240.617188 83.617188 240.074219 83.214844 239.554688 82.785156 C 239.03125 82.355469 238.53125 81.902344 238.050781 81.425781 C 237.574219 80.949219 237.121094 80.449219 236.691406 79.925781 C 236.261719 79.40625 235.859375 78.863281 235.484375 78.300781 C 235.109375 77.742188 234.761719 77.164062 234.445312 76.566406 C 234.125 75.972656 233.835938 75.363281 233.578125 74.738281 C 233.320312 74.113281 233.09375 73.480469 232.894531 72.832031 C 232.699219 72.1875 232.535156 71.535156 232.402344 70.871094 C 232.273438 70.207031 232.171875 69.542969 232.105469 68.871094 C 232.039062 68.199219 232.007812 67.523438 232.007812 66.847656 C 232.007812 66.175781 232.039062 65.5 232.105469 64.828125 C 232.171875 64.15625 232.273438 63.488281 232.402344 62.828125 C 232.535156 62.164062 232.699219 61.511719 232.894531 60.863281 C 233.09375 60.21875 233.320312 59.582031 233.578125 58.960938 C 233.835938 58.335938 234.125 57.726562 234.445312 57.132812 C 234.761719 56.535156 235.109375 55.957031 235.484375 55.394531 C 235.859375 54.835938 236.261719 54.292969 236.691406 53.769531 C 237.121094 53.25 237.574219 52.75 238.050781 52.273438 C 238.53125 51.792969 239.03125 51.339844 239.554688 50.914062 C 240.074219 50.484375 240.617188 50.082031 241.179688 49.707031 C 241.742188 49.332031 242.320312 48.984375 242.917969 48.667969 C 243.511719 48.347656 244.125 48.0625 244.746094 47.804688 C 245.371094 47.542969 246.007812 47.316406 246.65625 47.121094 C 247.300781 46.925781 247.957031 46.761719 248.621094 46.628906 C 249.28125 46.496094 249.949219 46.398438 250.621094 46.332031 C 251.296875 46.265625 251.96875 46.234375 252.644531 46.234375 C 253.320312 46.234375 253.996094 46.265625 254.667969 46.332031 C 255.339844 46.398438 256.007812 46.496094 256.671875 46.628906 C 257.335938 46.761719 257.988281 46.925781 258.636719 47.121094 C 259.285156 47.316406 259.917969 47.542969 260.542969 47.804688 C 261.167969 48.0625 261.777344 48.347656 262.375 48.667969 C 262.96875 48.984375 263.550781 49.332031 264.113281 49.707031 C 264.671875 50.082031 265.214844 50.484375 265.738281 50.914062 C 266.261719 51.339844 266.761719 51.792969 267.238281 52.273438 C 267.71875 52.75 268.171875 53.25 268.597656 53.769531 C 269.027344 54.292969 269.429688 54.835938 269.804688 55.394531 C 270.179688 55.957031 270.527344 56.535156 270.847656 57.132812 C 271.164062 57.726562 271.453125 58.335938 271.710938 58.960938 C 271.972656 59.582031 272.199219 60.21875 272.394531 60.863281 C 272.589844 61.511719 272.753906 62.164062 272.886719 62.828125 C 273.019531 63.488281 273.117188 64.15625 273.183594 64.828125 C 273.25 65.5 273.285156 66.175781 273.285156 66.847656 Z M 273.285156 66.847656 "/>
<g clip-path="url(#clip1)" clip-rule="nonzero">
<path style=" stroke:none;fill-rule:nonzero;fill:rgb(94.898987%,94.898987%,94.898987%);fill-opacity:1;" d="M 627.160156 435.925781 L 735.25 400.707031 C 734.960938 399.910156 734.714844 399.097656 734.511719 398.277344 C 734.304688 397.453125 734.140625 396.621094 734.015625 395.785156 C 733.894531 394.945312 733.816406 394.101562 733.777344 393.253906 C 733.738281 392.40625 733.742188 391.5625 733.789062 390.714844 C 733.835938 389.867188 733.925781 389.027344 734.054688 388.1875 C 734.1875 387.351562 734.359375 386.523438 734.574219 385.703125 C 734.789062 384.882812 735.042969 384.074219 735.335938 383.277344 C 735.632812 382.484375 735.96875 381.707031 736.339844 380.945312 C 736.714844 380.183594 737.125 379.441406 737.570312 378.722656 C 738.019531 378 738.5 377.304688 739.019531 376.632812 C 739.535156 375.960938 740.085938 375.316406 740.667969 374.699219 C 741.25 374.082031 741.859375 373.492188 742.5 372.9375 C 743.140625 372.382812 743.808594 371.859375 744.5 371.371094 C 745.195312 370.878906 745.910156 370.425781 746.648438 370.007812 C 747.386719 369.589844 748.144531 369.210938 748.921875 368.867188 C 749.695312 368.527344 750.488281 368.222656 751.296875 367.960938 C 752.101562 367.699219 752.921875 367.476562 753.75 367.296875 C 754.578125 367.113281 755.414062 366.976562 756.257812 366.878906 C 757.101562 366.78125 757.945312 366.722656 758.796875 366.710938 C 759.644531 366.699219 760.492188 366.726562 761.335938 366.800781 C 762.183594 366.871094 763.023438 366.984375 763.855469 367.140625 C 764.691406 367.296875 765.515625 367.496094 766.332031 367.734375 C 767.144531 367.972656 767.945312 368.25 768.730469 368.566406 C 769.519531 368.886719 770.289062 369.242188 771.039062 369.636719 C 771.789062 370.035156 772.519531 370.464844 773.226562 370.933594 C 773.933594 371.402344 774.617188 371.902344 775.273438 372.441406 C 775.929688 372.976562 776.558594 373.542969 777.160156 374.144531 C 777.761719 374.742188 778.328125 375.371094 778.867188 376.027344 C 779.402344 376.683594 779.90625 377.363281 780.375 378.070312 C 780.84375 378.777344 781.277344 379.503906 781.671875 380.253906 C 782.070312 381.003906 782.425781 381.773438 782.746094 382.558594 C 783.066406 383.34375 783.34375 384.144531 783.585938 384.957031 L 820.441406 372.949219 L 762.949219 196.886719 L 569.667969 259.867188 Z M 627.160156 435.925781 "/>
</g>
<path style=" stroke:none;fill-rule:nonzero;fill:rgb(14.118958%,48.629761%,94.509888%);fill-opacity:1;" d="M 781.316406 392.386719 C 781.316406 393.0625 781.28125 393.738281 781.214844 394.410156 C 781.148438 395.082031 781.050781 395.746094 780.917969 396.410156 C 780.785156 397.070312 780.621094 397.726562 780.425781 398.371094 C 780.230469 399.019531 780.003906 399.652344 779.742188 400.277344 C 779.484375 400.902344 779.195312 401.511719 778.878906 402.105469 C 778.558594 402.703125 778.210938 403.28125 777.835938 403.839844 C 777.460938 404.402344 777.058594 404.945312 776.628906 405.464844 C 776.203125 405.988281 775.75 406.488281 775.269531 406.964844 C 774.792969 407.441406 774.292969 407.894531 773.769531 408.324219 C 773.246094 408.753906 772.703125 409.152344 772.144531 409.527344 C 771.582031 409.902344 771 410.25 770.40625 410.570312 C 769.808594 410.886719 769.199219 411.175781 768.574219 411.433594 C 767.949219 411.691406 767.316406 411.917969 766.667969 412.117188 C 766.019531 412.3125 765.367188 412.476562 764.703125 412.605469 C 764.039062 412.738281 763.371094 412.835938 762.699219 412.902344 C 762.027344 412.96875 761.351562 413.003906 760.675781 413.003906 C 760 413.003906 759.328125 412.96875 758.652344 412.902344 C 757.980469 412.835938 757.3125 412.738281 756.652344 412.605469 C 755.988281 412.476562 755.332031 412.3125 754.6875 412.117188 C 754.039062 411.917969 753.402344 411.691406 752.777344 411.433594 C 752.15625 411.175781 751.542969 410.886719 750.949219 410.570312 C 750.351562 410.25 749.773438 409.902344 749.210938 409.527344 C 748.648438 409.152344 748.105469 408.753906 747.585938 408.324219 C 747.0625 407.894531 746.5625 407.441406 746.082031 406.964844 C 745.605469 406.488281 745.152344 405.988281 744.722656 405.464844 C 744.292969 404.945312 743.894531 404.402344 743.515625 403.839844 C 743.140625 403.28125 742.792969 402.699219 742.476562 402.105469 C 742.15625 401.511719 741.867188 400.902344 741.609375 400.277344 C 741.351562 399.652344 741.125 399.019531 740.929688 398.371094 C 740.730469 397.726562 740.566406 397.070312 740.4375 396.410156 C 740.304688 395.746094 740.203125 395.082031 740.136719 394.410156 C 740.070312 393.738281 740.039062 393.0625 740.039062 392.386719 C 740.039062 391.710938 740.070312 391.039062 740.136719 390.367188 C 740.203125 389.695312 740.304688 389.027344 740.4375 388.367188 C 740.566406 387.703125 740.730469 387.050781 740.929688 386.402344 C 741.125 385.757812 741.351562 385.121094 741.609375 384.5 C 741.867188 383.875 742.15625 383.265625 742.476562 382.667969 C 742.792969 382.074219 743.140625 381.496094 743.515625 380.933594 C 743.894531 380.371094 744.292969 379.832031 744.722656 379.308594 C 745.152344 378.789062 745.605469 378.289062 746.082031 377.808594 C 746.5625 377.332031 747.0625 376.878906 747.585938 376.453125 C 748.105469 376.023438 748.648438 375.621094 749.210938 375.246094 C 749.773438 374.871094 750.351562 374.523438 750.949219 374.207031 C 751.542969 373.886719 752.15625 373.601562 752.777344 373.339844 C 753.402344 373.082031 754.039062 372.855469 754.6875 372.660156 C 755.332031 372.464844 755.988281 372.300781 756.652344 372.167969 C 757.3125 372.035156 757.980469 371.9375 758.652344 371.871094 C 759.328125 371.804688 760 371.773438 760.675781 371.773438 C 761.351562 371.773438 762.027344 371.804688 762.699219 371.871094 C 763.371094 371.9375 764.039062 372.035156 764.703125 372.167969 C 765.367188 372.300781 766.019531 372.464844 766.667969 372.660156 C 767.316406 372.855469 767.949219 373.082031 768.574219 373.339844 C 769.199219 373.597656 769.808594 373.886719 770.40625 374.207031 C 771 374.523438 771.582031 374.871094 772.144531 375.246094 C 772.703125 375.621094 773.246094 376.023438 773.769531 376.453125 C 774.292969 376.878906 774.792969 377.332031 775.269531 377.808594 C 775.75 378.289062 776.203125 378.789062 776.628906 379.308594 C 777.058594 379.832031 777.460938 380.371094 777.835938 380.933594 C 778.210938 381.496094 778.558594 382.074219 778.878906 382.667969 C 779.195312 383.265625 779.484375 383.875 779.742188 384.5 C 780.003906 385.121094 780.230469 385.757812 780.425781 386.402344 C 780.621094 387.050781 780.785156 387.703125 780.917969 388.367188 C 781.050781 389.027344 781.148438 389.695312 781.214844 390.367188 C 781.28125 391.039062 781.316406 391.710938 781.316406 392.386719 Z M 781.316406 392.386719 "/>
<path style=" stroke:none;fill-rule:nonzero;fill:rgb(24.708557%,23.919678%,33.729553%);fill-opacity:1;" d="M 265.878906 96.589844 L 764.933594 96.589844 L 764.933594 323.074219 L 265.878906 323.074219 Z M 265.878906 96.589844 "/>
<path style=" stroke:none;fill-rule:nonzero;fill:rgb(100%,100%,100%);fill-opacity:1;" d="M 274.113281 104.8125 L 756.703125 104.8125 L 756.703125 310.417969 L 274.113281 310.417969 Z M 274.113281 104.8125 "/>
<path style=" stroke:none;fill-rule:nonzero;fill:rgb(24.708557%,23.919678%,33.729553%);fill-opacity:1;" d="M 660.753906 300.613281 L 707.621094 300.613281 L 707.621094 316.429688 L 660.753906 316.429688 Z M 660.753906 300.613281 "/>
<path style=" stroke:none;fill-rule:nonzero;fill:rgb(14.118958%,48.629761%,94.509888%);fill-opacity:1;" d="M 624.023438 312.632812 L 658.222656 312.632812 L 658.222656 317.0625 L 624.023438 317.0625 Z M 624.023438 312.632812 "/>
<path style="fill:none;stroke-width:2;stroke-linecap:butt;stroke-linejoin:miter;stroke:rgb(24.708557%,23.919678%,33.729553%);stroke-opacity:1;stroke-miterlimit:10;" d="M 190.500638 288.680088 L 481.501906 288.680088 L 526.613888 310.655414 L 598.5007 345.677626 L 645.500057 257.677527 L 778.498368 257.677527 " transform="matrix(0.63332,0,0,0.632634,192.731073,0.00000000000021305)"/>
<path style="fill:none;stroke-width:2;stroke-linecap:butt;stroke-linejoin:miter;stroke:rgb(24.708557%,23.919678%,33.729553%);stroke-opacity:1;stroke-miterlimit:10;" d="M 304.927419 288.680088 L 326.502715 339.675935 L 379.497265 339.675935 " transform="matrix(0.63332,0,0,0.632634,192.731073,0.00000000000021305)"/>
<path style="fill:none;stroke-width:2;stroke-linecap:butt;stroke-linejoin:miter;stroke:rgb(24.708557%,23.919678%,33.729553%);stroke-opacity:1;stroke-miterlimit:10;" d="M 385.807021 288.680088 L 459.501026 248.674991 L 511.502546 248.674991 " transform="matrix(0.63332,0,0,0.632634,192.731073,0.00000000000021305)"/>
<path style=" stroke:none;fill-rule:nonzero;fill:rgb(14.118958%,48.629761%,94.509888%);fill-opacity:1;" d="M 391.277344 182.628906 C 391.277344 183 391.242188 183.371094 391.167969 183.738281 C 391.09375 184.105469 390.984375 184.460938 390.84375 184.804688 C 390.699219 185.152344 390.523438 185.480469 390.316406 185.789062 C 390.109375 186.101562 389.871094 186.390625 389.605469 186.652344 C 389.34375 186.917969 389.054688 187.152344 388.742188 187.363281 C 388.433594 187.570312 388.105469 187.746094 387.757812 187.886719 C 387.414062 188.03125 387.054688 188.140625 386.6875 188.210938 C 386.320312 188.285156 385.953125 188.320312 385.578125 188.320312 C 385.203125 188.320312 384.832031 188.285156 384.464844 188.210938 C 384.097656 188.140625 383.742188 188.03125 383.394531 187.886719 C 383.050781 187.746094 382.722656 187.570312 382.410156 187.363281 C 382.097656 187.152344 381.8125 186.917969 381.546875 186.652344 C 381.28125 186.390625 381.046875 186.101562 380.835938 185.789062 C 380.628906 185.480469 380.453125 185.152344 380.3125 184.804688 C 380.167969 184.460938 380.058594 184.105469 379.988281 183.738281 C 379.914062 183.371094 379.878906 183 379.878906 182.628906 C 379.878906 182.253906 379.914062 181.882812 379.988281 181.515625 C 380.058594 181.148438 380.167969 180.792969 380.3125 180.449219 C 380.453125 180.101562 380.628906 179.773438 380.835938 179.464844 C 381.046875 179.152344 381.28125 178.867188 381.546875 178.601562 C 381.8125 178.335938 382.097656 178.101562 382.410156 177.894531 C 382.722656 177.6875 383.050781 177.511719 383.394531 177.367188 C 383.742188 177.222656 384.097656 177.117188 384.464844 177.042969 C 384.832031 176.96875 385.203125 176.933594 385.578125 176.933594 C 385.953125 176.933594 386.320312 176.96875 386.6875 177.042969 C 387.054688 177.117188 387.414062 177.222656 387.757812 177.367188 C 388.105469 177.511719 388.433594 177.6875 388.742188 177.894531 C 389.054688 178.101562 389.34375 178.335938 389.605469 178.601562 C 389.871094 178.867188 390.109375 179.152344 390.316406 179.464844 C 390.523438 179.773438 390.699219 180.101562 390.84375 180.449219 C 390.984375 180.792969 391.09375 181.148438 391.167969 181.515625 C 391.242188 181.882812 391.277344 182.253906 391.277344 182.628906 Z M 391.277344 182.628906 "/>
<path style=" stroke:none;fill-rule:nonzero;fill:rgb(14.118958%,48.629761%,94.509888%);fill-opacity:1;" d="M 444.476562 182.628906 C 444.476562 183 444.4375 183.371094 444.367188 183.738281 C 444.292969 184.105469 444.183594 184.460938 444.042969 184.804688 C 443.898438 185.152344 443.722656 185.480469 443.515625 185.789062 C 443.308594 186.101562 443.070312 186.390625 442.804688 186.652344 C 442.542969 186.917969 442.253906 187.152344 441.941406 187.363281 C 441.632812 187.570312 441.304688 187.746094 440.957031 187.886719 C 440.609375 188.03125 440.253906 188.140625 439.886719 188.210938 C 439.519531 188.285156 439.148438 188.320312 438.777344 188.320312 C 438.402344 188.320312 438.03125 188.285156 437.664062 188.210938 C 437.296875 188.140625 436.941406 188.03125 436.59375 187.886719 C 436.25 187.746094 435.921875 187.570312 435.609375 187.363281 C 435.296875 187.152344 435.011719 186.917969 434.746094 186.652344 C 434.480469 186.390625 434.246094 186.101562 434.035156 185.789062 C 433.828125 185.480469 433.652344 185.152344 433.511719 184.804688 C 433.367188 184.460938 433.257812 184.105469 433.183594 183.738281 C 433.113281 183.371094 433.074219 183 433.074219 182.628906 C 433.074219 182.253906 433.113281 181.882812 433.183594 181.515625 C 433.257812 181.148438 433.367188 180.792969 433.511719 180.449219 C 433.652344 180.101562 433.828125 179.773438 434.035156 179.464844 C 434.246094 179.152344 434.480469 178.867188 434.746094 178.601562 C 435.011719 178.335938 435.296875 178.101562 435.609375 177.894531 C 435.921875 177.6875 436.25 177.511719 436.59375 177.367188 C 436.941406 177.222656 437.296875 177.117188 437.664062 177.042969 C 438.03125 176.96875 438.402344 176.933594 438.777344 176.933594 C 439.148438 176.933594 439.519531 176.96875 439.886719 177.042969 C 440.253906 177.117188 440.609375 177.222656 440.957031 177.367188 C 441.304688 177.511719 441.632812 177.6875 441.941406 177.894531 C 442.253906 178.101562 442.542969 178.335938 442.804688 178.601562 C 443.070312 178.867188 443.308594 179.152344 443.515625 179.464844 C 443.722656 179.773438 443.898438 180.101562 444.042969 180.449219 C 444.183594 180.792969 444.292969 181.148438 444.367188 181.515625 C 444.4375 181.882812 444.476562 182.253906 444.476562 182.628906 Z M 444.476562 182.628906 "/>
<path style="fill:none;stroke-width:2;stroke-linecap:butt;stroke-linejoin:miter;stroke:rgb(24.708557%,23.919678%,33.729553%);stroke-opacity:1;stroke-miterlimit:10;" d="M 526.502866 310.680113 L 532.498059 399.680493 L 584.499579 399.680493 " transform="matrix(0.63332,0,0,0.632634,192.731073,0.00000000000021305)"/>
<path style="fill:none;stroke-width:2;stroke-linecap:butt;stroke-linejoin:miter;stroke:rgb(24.708557%,23.919678%,33.729553%);stroke-opacity:1;stroke-miterlimit:10;" d="M 626.650971 292.97142 L 569.499259 248.674991 L 623.499176 248.674991 " transform="matrix(0.63332,0,0,0.632634,192.731073,0.00000000000021305)"/>
<path style="fill:none;stroke-width:2;stroke-linecap:butt;stroke-linejoin:miter;stroke:rgb(24.708557%,23.919678%,33.729553%);stroke-opacity:1;stroke-miterlimit:10;" d="M 721.050598 257.677527 L 776.49997 301.677577 L 828.50149 301.677577 " transform="matrix(0.63332,0,0,0.632634,192.731073,0.00000000000021305)"/>
<path style=" stroke:none;fill-rule:nonzero;fill:rgb(14.118958%,48.629761%,94.509888%);fill-opacity:1;" d="M 531.875 196.546875 C 531.875 196.917969 531.835938 197.289062 531.765625 197.65625 C 531.691406 198.023438 531.582031 198.378906 531.441406 198.722656 C 531.296875 199.070312 531.121094 199.398438 530.914062 199.707031 C 530.707031 200.019531 530.46875 200.308594 530.203125 200.570312 C 529.941406 200.835938 529.652344 201.070312 529.339844 201.28125 C 529.03125 201.488281 528.699219 201.664062 528.355469 201.804688 C 528.007812 201.949219 527.652344 202.058594 527.285156 202.128906 C 526.917969 202.203125 526.546875 202.238281 526.175781 202.238281 C 525.800781 202.238281 525.429688 202.203125 525.0625 202.128906 C 524.695312 202.058594 524.339844 201.949219 523.992188 201.804688 C 523.648438 201.664062 523.320312 201.488281 523.007812 201.28125 C 522.695312 201.070312 522.40625 200.835938 522.144531 200.570312 C 521.878906 200.308594 521.644531 200.019531 521.433594 199.707031 C 521.226562 199.398438 521.050781 199.070312 520.90625 198.722656 C 520.765625 198.378906 520.65625 198.023438 520.582031 197.65625 C 520.511719 197.289062 520.472656 196.917969 520.472656 196.546875 C 520.472656 196.171875 520.511719 195.800781 520.582031 195.433594 C 520.65625 195.066406 520.765625 194.710938 520.90625 194.367188 C 521.050781 194.019531 521.226562 193.691406 521.433594 193.382812 C 521.640625 193.070312 521.878906 192.785156 522.144531 192.519531 C 522.40625 192.253906 522.695312 192.019531 523.007812 191.8125 C 523.320312 191.605469 523.648438 191.429688 523.992188 191.285156 C 524.339844 191.140625 524.695312 191.035156 525.0625 190.960938 C 525.429688 190.886719 525.800781 190.851562 526.175781 190.851562 C 526.546875 190.851562 526.917969 190.886719 527.285156 190.960938 C 527.652344 191.035156 528.007812 191.140625 528.355469 191.285156 C 528.699219 191.429688 529.03125 191.605469 529.339844 191.8125 C 529.652344 192.019531 529.941406 192.253906 530.203125 192.519531 C 530.46875 192.785156 530.707031 193.070312 530.914062 193.382812 C 531.121094 193.691406 531.296875 194.019531 531.441406 194.367188 C 531.582031 194.710938 531.691406 195.066406 531.765625 195.433594 C 531.835938 195.800781 531.875 196.171875 531.875 196.546875 Z M 531.875 196.546875 "/>
<path style=" stroke:none;fill-rule:nonzero;fill:rgb(14.118958%,48.629761%,94.509888%);fill-opacity:1;" d="M 654.738281 163.015625 C 654.738281 163.390625 654.703125 163.761719 654.628906 164.125 C 654.554688 164.492188 654.445312 164.847656 654.304688 165.195312 C 654.160156 165.539062 653.984375 165.867188 653.777344 166.179688 C 653.570312 166.488281 653.332031 166.777344 653.070312 167.042969 C 652.804688 167.304688 652.515625 167.542969 652.203125 167.75 C 651.894531 167.957031 651.566406 168.132812 651.21875 168.277344 C 650.875 168.417969 650.515625 168.527344 650.148438 168.601562 C 649.78125 168.671875 649.414062 168.710938 649.039062 168.710938 C 648.664062 168.710938 648.292969 168.671875 647.925781 168.601562 C 647.558594 168.527344 647.203125 168.417969 646.855469 168.277344 C 646.511719 168.132812 646.183594 167.957031 645.871094 167.75 C 645.558594 167.542969 645.273438 167.304688 645.007812 167.042969 C 644.742188 166.777344 644.507812 166.488281 644.296875 166.179688 C 644.089844 165.867188 643.914062 165.539062 643.773438 165.195312 C 643.628906 164.847656 643.519531 164.492188 643.449219 164.125 C 643.375 163.761719 643.339844 163.390625 643.339844 163.015625 C 643.339844 162.640625 643.375 162.273438 643.449219 161.90625 C 643.519531 161.539062 643.628906 161.183594 643.773438 160.835938 C 643.914062 160.492188 644.089844 160.164062 644.296875 159.851562 C 644.507812 159.542969 644.742188 159.253906 645.007812 158.988281 C 645.273438 158.726562 645.558594 158.488281 645.871094 158.28125 C 646.183594 158.074219 646.511719 157.898438 646.855469 157.753906 C 647.203125 157.613281 647.558594 157.503906 647.925781 157.429688 C 648.292969 157.359375 648.664062 157.320312 649.039062 157.320312 C 649.414062 157.320312 649.78125 157.359375 650.148438 157.429688 C 650.515625 157.503906 650.875 157.613281 651.21875 157.753906 C 651.566406 157.898438 651.894531 158.074219 652.203125 158.28125 C 652.515625 158.488281 652.804688 158.726562 653.070312 158.988281 C 653.332031 159.253906 653.570312 159.542969 653.777344 159.851562 C 653.984375 160.164062 654.160156 160.492188 654.304688 160.835938 C 654.445312 161.183594 654.554688 161.539062 654.628906 161.90625 C 654.703125 162.273438 654.738281 162.640625 654.738281 163.015625 Z M 654.738281 163.015625 "/>
<path style=" stroke:none;fill-rule:nonzero;fill:rgb(14.118958%,48.629761%,94.509888%);fill-opacity:1;" d="M 595.207031 185.15625 C 595.207031 185.53125 595.167969 185.902344 595.097656 186.269531 C 595.023438 186.636719 594.914062 186.992188 594.773438 187.335938 C 594.628906 187.683594 594.453125 188.011719 594.246094 188.320312 C 594.039062 188.632812 593.800781 188.917969 593.535156 189.183594 C 593.273438 189.449219 592.984375 189.683594 592.671875 189.890625 C 592.363281 190.101562 592.03125 190.273438 591.6875 190.417969 C 591.339844 190.5625 590.984375 190.667969 590.617188 190.742188 C 590.25 190.816406 589.878906 190.851562 589.507812 190.851562 C 589.132812 190.851562 588.761719 190.816406 588.394531 190.742188 C 588.027344 190.667969 587.671875 190.5625 587.324219 190.417969 C 586.980469 190.273438 586.652344 190.101562 586.339844 189.890625 C 586.027344 189.683594 585.738281 189.449219 585.476562 189.183594 C 585.210938 188.917969 584.972656 188.632812 584.765625 188.320312 C 584.558594 188.011719 584.382812 187.683594 584.238281 187.335938 C 584.097656 186.992188 583.988281 186.636719 583.914062 186.269531 C 583.84375 185.902344 583.804688 185.53125 583.804688 185.15625 C 583.804688 184.785156 583.84375 184.414062 583.914062 184.046875 C 583.988281 183.679688 584.097656 183.324219 584.238281 182.980469 C 584.382812 182.632812 584.558594 182.304688 584.765625 181.996094 C 584.972656 181.683594 585.210938 181.394531 585.476562 181.132812 C 585.738281 180.867188 586.027344 180.632812 586.339844 180.425781 C 586.652344 180.214844 586.980469 180.039062 587.324219 179.898438 C 587.671875 179.753906 588.027344 179.648438 588.394531 179.574219 C 588.761719 179.5 589.132812 179.464844 589.507812 179.464844 C 589.878906 179.464844 590.25 179.5 590.617188 179.574219 C 590.984375 179.648438 591.339844 179.753906 591.6875 179.898438 C 592.03125 180.039062 592.363281 180.214844 592.671875 180.425781 C 592.984375 180.632812 593.273438 180.867188 593.535156 181.132812 C 593.800781 181.394531 594.039062 181.683594 594.246094 181.996094 C 594.453125 182.304688 594.628906 182.632812 594.773438 182.980469 C 594.914062 183.324219 595.023438 183.679688 595.097656 184.046875 C 595.167969 184.414062 595.207031 184.785156 595.207031 185.15625 Z M 595.207031 185.15625 "/>
<path style="fill:none;stroke-width:2;stroke-linecap:butt;stroke-linejoin:miter;stroke:rgb(24.708557%,23.919678%,33.729553%);stroke-opacity:1;stroke-miterlimit:10;" d="M 327.501914 347.678189 L 379.497265 347.678189 " transform="matrix(0.63332,0,0,0.632634,192.731073,0.00000000000021305)"/>
<path style="fill:none;stroke-width:2;stroke-linecap:butt;stroke-linejoin:miter;stroke:rgb(24.708557%,23.919678%,33.729553%);stroke-opacity:1;stroke-miterlimit:10;" d="M 615.932527 322.588528 Z M 615.932527 322.588528 " transform="matrix(0.63332,0,0,0.632634,126.593495,-41.064921)"/>
<path style="fill:none;stroke-width:2;stroke-linecap:butt;stroke-linejoin:miter;stroke:rgb(24.708557%,23.919678%,33.729553%);stroke-opacity:1;stroke-miterlimit:10;" d="M 727.929158 321.588246 Z M 727.929158 321.588246 " transform="matrix(0.63332,0,0,0.632634,126.593495,-41.064921)"/>
<path style="fill:none;stroke-width:2;stroke-linecap:butt;stroke-linejoin:miter;stroke:rgb(24.708557%,23.919678%,33.729553%);stroke-opacity:1;stroke-miterlimit:10;" d="M 727.929158 329.5905 Z M 727.929158 329.5905 " transform="matrix(0.63332,0,0,0.632634,126.593495,-41.064921)"/>
<path style="fill:none;stroke-width:2;stroke-linecap:butt;stroke-linejoin:miter;stroke:rgb(24.708557%,23.919678%,33.729553%);stroke-opacity:1;stroke-miterlimit:10;" d="M 932.931471 374.590832 Z M 932.931471 374.590832 " transform="matrix(0.63332,0,0,0.632634,126.593495,-41.064921)"/>
<path style="fill:none;stroke-width:2;stroke-linecap:butt;stroke-linejoin:miter;stroke:rgb(24.708557%,23.919678%,33.729553%);stroke-opacity:1;stroke-miterlimit:10;" d="M 913.928188 382.586911 Z M 913.928188 382.586911 " transform="matrix(0.63332,0,0,0.632634,126.593495,-41.064921)"/>
<path style="fill:none;stroke-width:2;stroke-linecap:butt;stroke-linejoin:miter;stroke:rgb(24.708557%,23.919678%,33.729553%);stroke-opacity:1;stroke-miterlimit:10;" d="M 688.92956 472.587574 Z M 688.92956 472.587574 " transform="matrix(0.63332,0,0,0.632634,126.593495,-41.064921)"/>
<path style="fill:none;stroke-width:2;stroke-linecap:butt;stroke-linejoin:miter;stroke:rgb(24.708557%,23.919678%,33.729553%);stroke-opacity:1;stroke-miterlimit:10;" d="M 824.294986 75.527449 C 824.294986 76.496858 824.202467 77.460092 824.01743 78.410978 C 823.826226 79.361863 823.542503 80.281875 823.172429 81.177189 C 822.802355 82.072503 822.352099 82.924595 821.809324 83.72729 C 821.272717 84.53616 820.662096 85.277109 819.97746 85.962488 C 819.292823 86.647866 818.546508 87.259149 817.738514 87.796338 C 816.936687 88.339701 816.085518 88.790445 815.191173 89.16092 C 814.290661 89.531394 813.371644 89.815425 812.421789 90.000662 C 811.471933 90.192074 810.509741 90.284693 809.541382 90.284693 C 808.573022 90.284693 807.610831 90.192074 806.660975 90.000662 C 805.711119 89.815425 804.792103 89.531394 803.897758 89.16092 C 802.997246 88.790445 802.152244 88.339701 801.34425 87.796338 C 800.536256 87.259149 799.796108 86.647866 799.105304 85.962488 C 798.420668 85.277109 797.810046 84.53616 797.273439 83.72729 C 796.736833 82.924595 796.280408 82.072503 795.910335 81.177189 C 795.540261 80.281875 795.256538 79.361863 795.071501 78.410978 C 794.880296 77.460092 794.787778 76.496858 794.787778 75.527449 C 794.787778 74.55804 794.880296 73.600981 795.071501 72.650095 C 795.256538 71.69921 795.540261 70.779198 795.910335 69.883884 C 796.280408 68.98857 796.736833 68.136478 797.273439 67.333783 C 797.810046 66.524913 798.420668 65.783964 799.105304 65.098585 C 799.796108 64.413207 800.536256 63.801924 801.34425 63.258561 C 802.152244 62.721373 802.997246 62.270628 803.897758 61.900154 C 804.792103 61.523504 805.711119 61.245648 806.660975 61.060411 C 807.610831 60.868999 808.573022 60.77638 809.541382 60.77638 C 810.509741 60.77638 811.471933 60.868999 812.421789 61.060411 C 813.371644 61.245648 814.290661 61.523504 815.191173 61.900154 C 816.085518 62.270628 816.936687 62.721373 817.738514 63.258561 C 818.546508 63.801924 819.292823 64.413207 819.97746 65.098585 C 820.662096 65.783964 821.272717 66.524913 821.809324 67.333783 C 822.352099 68.136478 822.802355 68.98857 823.172429 69.883884 C 823.542503 70.779198 823.826226 71.69921 824.01743 72.650095 C 824.202467 73.600981 824.294986 74.55804 824.294986 75.527449 Z M 824.294986 75.527449 " transform="matrix(0.63332,0,0,0.632634,192.731073,0.00000000000021305)"/>
<g clip-path="url(#clip2)" clip-rule="nonzero">
<path style=" stroke:none;fill-rule:nonzero;fill:rgb(94.898987%,94.898987%,94.898987%);fill-opacity:1;" d="M 385.261719 469.527344 C 385.261719 469.816406 385.222656 470.105469 385.144531 470.394531 C 385.066406 470.6875 384.949219 470.976562 384.796875 471.261719 C 384.640625 471.550781 384.449219 471.839844 384.21875 472.125 C 383.988281 472.414062 383.71875 472.699219 383.410156 472.984375 C 383.101562 473.265625 382.757812 473.550781 382.375 473.832031 C 381.992188 474.113281 381.574219 474.390625 381.113281 474.667969 C 380.65625 474.945312 380.164062 475.222656 379.632812 475.496094 C 379.101562 475.769531 378.535156 476.039062 377.933594 476.304688 C 377.328125 476.574219 376.691406 476.839844 376.019531 477.101562 C 375.34375 477.363281 374.636719 477.621094 373.894531 477.878906 C 373.152344 478.132812 372.375 478.386719 371.566406 478.632812 C 370.753906 478.882812 369.910156 479.128906 369.035156 479.367188 C 368.160156 479.609375 367.253906 479.847656 366.316406 480.078125 C 365.378906 480.3125 364.410156 480.539062 363.410156 480.765625 C 362.410156 480.988281 361.382812 481.207031 360.324219 481.421875 C 359.265625 481.636719 358.179688 481.847656 357.066406 482.050781 C 355.949219 482.257812 354.808594 482.457031 353.644531 482.652344 C 352.476562 482.847656 351.28125 483.035156 350.066406 483.21875 C 348.847656 483.402344 347.605469 483.582031 346.339844 483.753906 C 345.074219 483.925781 343.789062 484.09375 342.476562 484.253906 C 341.167969 484.417969 339.835938 484.570312 338.484375 484.722656 C 337.132812 484.871094 335.765625 485.011719 334.375 485.148438 C 332.984375 485.285156 331.578125 485.417969 330.152344 485.539062 C 328.730469 485.664062 327.289062 485.78125 325.835938 485.890625 C 324.378906 486.003906 322.910156 486.109375 321.425781 486.207031 C 319.941406 486.304688 318.449219 486.394531 316.941406 486.476562 C 315.433594 486.5625 313.914062 486.640625 312.386719 486.710938 C 310.859375 486.78125 309.320312 486.84375 307.777344 486.902344 C 306.230469 486.957031 304.679688 487.007812 303.121094 487.050781 C 301.5625 487.089844 300 487.128906 298.429688 487.15625 C 296.863281 487.183594 295.292969 487.207031 293.71875 487.21875 C 292.144531 487.234375 290.570312 487.242188 288.996094 487.242188 C 287.421875 487.242188 285.847656 487.234375 284.273438 487.21875 C 282.699219 487.207031 281.128906 487.183594 279.558594 487.15625 C 277.992188 487.128906 276.429688 487.089844 274.871094 487.050781 C 273.3125 487.007812 271.761719 486.957031 270.214844 486.902344 C 268.671875 486.84375 267.132812 486.78125 265.605469 486.710938 C 264.078125 486.640625 262.558594 486.5625 261.050781 486.476562 C 259.542969 486.394531 258.046875 486.304688 256.566406 486.207031 C 255.082031 486.109375 253.613281 486.003906 252.15625 485.890625 C 250.703125 485.78125 249.261719 485.664062 247.835938 485.539062 C 246.414062 485.417969 245.007812 485.285156 243.617188 485.148438 C 242.226562 485.011719 240.855469 484.871094 239.503906 484.722656 C 238.15625 484.570312 236.824219 484.417969 235.515625 484.253906 C 234.203125 484.09375 232.917969 483.925781 231.652344 483.753906 C 230.386719 483.582031 229.144531 483.402344 227.925781 483.21875 C 226.707031 483.035156 225.515625 482.847656 224.347656 482.652344 C 223.179688 482.457031 222.039062 482.257812 220.925781 482.050781 C 219.8125 481.847656 218.726562 481.636719 217.667969 481.421875 C 216.609375 481.207031 215.582031 480.988281 214.582031 480.765625 C 213.582031 480.539062 212.613281 480.3125 211.675781 480.078125 C 210.738281 479.847656 209.828125 479.609375 208.953125 479.367188 C 208.078125 479.128906 207.238281 478.882812 206.425781 478.632812 C 205.617188 478.386719 204.839844 478.132812 204.097656 477.878906 C 203.355469 477.621094 202.648438 477.363281 201.972656 477.101562 C 201.300781 476.839844 200.660156 476.574219 200.058594 476.304688 C 199.457031 476.039062 198.890625 475.769531 198.359375 475.496094 C 197.828125 475.222656 197.332031 474.945312 196.875 474.667969 C 196.417969 474.390625 196 474.113281 195.617188 473.832031 C 195.234375 473.550781 194.886719 473.265625 194.582031 472.984375 C 194.273438 472.699219 194.003906 472.414062 193.773438 472.125 C 193.542969 471.839844 193.347656 471.550781 193.195312 471.261719 C 193.039062 470.976562 192.925781 470.6875 192.847656 470.394531 C 192.769531 470.105469 192.730469 469.816406 192.730469 469.527344 C 192.730469 469.238281 192.769531 468.949219 192.847656 468.65625 C 192.925781 468.367188 193.039062 468.078125 193.195312 467.789062 C 193.347656 467.503906 193.542969 467.214844 193.773438 466.929688 C 194.003906 466.640625 194.273438 466.355469 194.582031 466.070312 C 194.886719 465.785156 195.234375 465.503906 195.617188 465.222656 C 196 464.941406 196.417969 464.664062 196.875 464.386719 C 197.332031 464.109375 197.828125 463.832031 198.359375 463.558594 C 198.890625 463.285156 199.457031 463.015625 200.058594 462.75 C 200.660156 462.480469 201.300781 462.214844 201.972656 461.953125 C 202.648438 461.691406 203.355469 461.433594 204.097656 461.175781 C 204.839844 460.921875 205.617188 460.667969 206.425781 460.421875 C 207.238281 460.171875 208.078125 459.925781 208.953125 459.6875 C 209.828125 459.445312 210.738281 459.207031 211.675781 458.976562 C 212.613281 458.742188 213.582031 458.515625 214.582031 458.289062 C 215.582031 458.066406 216.609375 457.847656 217.667969 457.632812 C 218.726562 457.417969 219.8125 457.207031 220.925781 457 C 222.039062 456.796875 223.179688 456.597656 224.347656 456.402344 C 225.515625 456.207031 226.707031 456.019531 227.925781 455.835938 C 229.144531 455.648438 230.386719 455.472656 231.652344 455.300781 C 232.917969 455.125 234.203125 454.960938 235.515625 454.796875 C 236.824219 454.636719 238.15625 454.484375 239.503906 454.332031 C 240.855469 454.183594 242.226562 454.042969 243.617188 453.90625 C 245.007812 453.769531 246.414062 453.636719 247.835938 453.515625 C 249.261719 453.390625 250.703125 453.273438 252.15625 453.160156 C 253.613281 453.050781 255.082031 452.945312 256.566406 452.847656 C 258.046875 452.75 259.542969 452.660156 261.050781 452.578125 C 262.558594 452.492188 264.078125 452.414062 265.605469 452.34375 C 267.132812 452.273438 268.671875 452.210938 270.214844 452.152344 C 271.761719 452.097656 273.3125 452.046875 274.871094 452.003906 C 276.429688 451.960938 277.992188 451.925781 279.558594 451.898438 C 281.128906 451.871094 282.699219 451.847656 284.273438 451.835938 C 285.847656 451.820312 287.421875 451.8125 288.996094 451.8125 C 290.570312 451.8125 292.144531 451.820312 293.71875 451.835938 C 295.292969 451.847656 296.863281 451.871094 298.429688 451.898438 C 300 451.925781 301.5625 451.960938 303.121094 452.003906 C 304.679688 452.046875 306.230469 452.097656 307.777344 452.152344 C 309.320312 452.210938 310.859375 452.273438 312.386719 452.34375 C 313.914062 452.414062 315.433594 452.492188 316.941406 452.574219 C 318.449219 452.660156 319.941406 452.75 321.425781 452.847656 C 322.910156 452.945312 324.378906 453.050781 325.835938 453.160156 C 327.289062 453.273438 328.730469 453.390625 330.152344 453.515625 C 331.578125 453.636719 332.984375 453.769531 334.375 453.90625 C 335.765625 454.042969 337.132812 454.183594 338.484375 454.332031 C 339.835938 454.484375 341.167969 454.636719 342.476562 454.796875 C 343.789062 454.960938 345.074219 455.125 346.339844 455.300781 C 347.605469 455.472656 348.847656 455.648438 350.066406 455.835938 C 351.28125 456.019531 352.476562 456.207031 353.644531 456.402344 C 354.808594 456.597656 355.949219 456.796875 357.066406 457 C 358.179688 457.207031 359.265625 457.417969 360.324219 457.632812 C 361.382812 457.847656 362.410156 458.066406 363.410156 458.289062 C 364.410156 458.515625 365.378906 458.742188 366.316406 458.976562 C 367.253906 459.207031 368.160156 459.445312 369.035156 459.6875 C 369.910156 459.925781 370.753906 460.171875 371.566406 460.421875 C 372.375 460.667969 373.152344 460.921875 373.894531 461.175781 C 374.636719 461.433594 375.34375 461.691406 376.019531 461.953125 C 376.691406 462.214844 377.328125 462.480469 377.933594 462.75 C 378.535156 463.015625 379.101562 463.285156 379.632812 463.558594 C 380.164062 463.832031 380.65625 464.109375 381.113281 464.386719 C 381.574219 464.664062 381.992188 464.941406 382.375 465.222656 C 382.757812 465.503906 383.101562 465.785156 383.410156 466.070312 C 383.71875 466.355469 383.988281 466.640625 384.21875 466.929688 C 384.449219 467.214844 384.640625 467.503906 384.796875 467.789062 C 384.949219 468.078125 385.066406 468.367188 385.144531 468.65625 C 385.222656 468.949219 385.261719 469.238281 385.261719 469.527344 Z M 385.261719 469.527344 "/>
</g>
<path style=" stroke:none;fill-rule:nonzero;fill:rgb(14.118958%,48.629761%,94.509888%);fill-opacity:1;" d="M 355.105469 312.304688 L 337.933594 320.960938 L 339.046875 323.171875 L 356.21875 314.515625 Z M 355.105469 312.304688 "/>
<path style=" stroke:none;fill-rule:nonzero;fill:rgb(98.429871%,74.508667%,74.508667%);fill-opacity:1;" d="M 352.316406 296.207031 L 351.542969 300.832031 C 351.542969 300.832031 352.699219 332.816406 344.214844 322.796875 C 335.726562 312.777344 341.515625 299.289062 341.515625 299.289062 L 343.828125 295.4375 Z M 352.316406 296.207031 "/>
<path style=" stroke:none;fill-rule:nonzero;fill:rgb(98.429871%,74.508667%,74.508667%);fill-opacity:1;" d="M 302.9375 148.234375 C 302.9375 148.234375 301.394531 164.417969 300.621094 165.1875 C 299.851562 165.957031 312.195312 180.601562 312.195312 180.601562 L 322.996094 170.582031 C 322.996094 170.582031 322.226562 155.941406 324.539062 152.855469 C 326.855469 149.773438 302.9375 148.234375 302.9375 148.234375 Z M 302.9375 148.234375 "/>
<path style=" stroke:none;fill-rule:nonzero;fill:rgb(0%,0%,0%);fill-opacity:0.098;" d="M 302.9375 148.234375 C 302.9375 148.234375 301.394531 164.417969 300.621094 165.1875 C 299.851562 165.957031 312.195312 180.601562 312.195312 180.601562 L 322.996094 170.582031 C 322.996094 170.582031 322.226562 155.941406 324.539062 152.855469 C 326.855469 149.773438 302.9375 148.234375 302.9375 148.234375 Z M 302.9375 148.234375 "/>
<path style=" stroke:none;fill-rule:nonzero;fill:rgb(24.708557%,23.919678%,33.729553%);fill-opacity:1;" d="M 274.390625 443.410156 L 274.390625 457.28125 L 268.988281 458.054688 L 261.273438 455.742188 L 263.589844 441.097656 Z M 274.390625 443.410156 "/>
<path style=" stroke:none;fill-rule:nonzero;fill:rgb(18.429565%,18.03894%,25.489807%);fill-opacity:1;" d="M 267.445312 450.347656 C 267.445312 450.347656 265.132812 444.179688 261.273438 444.949219 C 257.417969 445.722656 256.644531 450.347656 256.644531 450.347656 C 256.644531 450.347656 253.558594 461.90625 248.929688 465.761719 C 244.300781 469.613281 239.671875 479.632812 248.929688 481.171875 C 258.1875 482.714844 265.902344 478.863281 265.902344 478.089844 C 265.902344 477.320312 268.21875 472.695312 272.074219 471.925781 C 275.933594 471.15625 279.019531 470.382812 279.019531 467.300781 C 279.019531 464.21875 276.703125 461.136719 276.703125 461.136719 C 276.703125 461.136719 275.933594 446.515625 274.390625 448.429688 C 273.316406 449.957031 272.542969 451.621094 272.074219 453.429688 Z M 267.445312 450.347656 "/>
<path style=" stroke:none;fill-rule:nonzero;fill:rgb(24.708557%,23.919678%,33.729553%);fill-opacity:1;" d="M 307.566406 436.472656 L 304.480469 448.035156 L 312.195312 449.574219 L 316.054688 445.722656 L 316.824219 435.703125 Z M 307.566406 436.472656 "/>
<path style=" stroke:none;fill-rule:nonzero;fill:rgb(18.429565%,18.03894%,25.489807%);fill-opacity:1;" d="M 306.792969 446.492188 C 306.792969 446.492188 309.882812 444.179688 311.425781 444.179688 L 313.738281 444.179688 C 313.738281 444.179688 313.738281 438.785156 317.597656 438.785156 C 321.453125 438.785156 320.683594 442.640625 320.683594 442.640625 C 320.683594 442.640625 329.167969 455.742188 331.484375 458.054688 C 333.796875 460.363281 346.144531 467.300781 336.113281 470.382812 C 326.082031 473.46875 319.140625 473.46875 314.511719 468.070312 C 314.511719 468.070312 309.882812 465.761719 306.792969 465.761719 C 303.707031 465.761719 299.851562 464.21875 299.851562 461.90625 C 299.851562 459.59375 302.164062 454.96875 302.164062 454.96875 C 302.164062 454.96875 303.707031 441.097656 304.480469 442.640625 C 305.25 444.179688 306.792969 446.492188 306.792969 446.492188 Z M 306.792969 446.492188 "/>
<path style=" stroke:none;fill-rule:nonzero;fill:rgb(18.429565%,18.03894%,25.489807%);fill-opacity:1;" d="M 273.617188 259.214844 L 273.617188 284.644531 C 273.617188 284.644531 265.132812 333.972656 265.132812 350.15625 C 265.132812 366.339844 252.015625 443.410156 258.1875 444.949219 C 264.359375 446.492188 279.019531 448.804688 279.792969 446.492188 C 280.5625 444.179688 285.964844 370.964844 286.734375 370.195312 C 287.507812 369.421875 303.707031 308.539062 303.707031 308.539062 L 306.792969 309.308594 L 308.335938 378.671875 C 308.335938 378.671875 300.621094 441.097656 304.480469 441.097656 C 308.339844 441.097656 324.539062 440.328125 324.539062 435.703125 C 324.539062 431.078125 333.027344 345.53125 333.027344 345.53125 C 333.027344 345.53125 343.058594 277.710938 339.199219 270.773438 C 335.339844 263.835938 335.339844 259.984375 335.339844 259.984375 Z M 273.617188 259.214844 "/>
<path style=" stroke:none;fill-rule:nonzero;fill:rgb(98.429871%,74.508667%,74.508667%);fill-opacity:1;" d="M 331.097656 144.765625 C 331.097656 145.777344 331 146.777344 330.800781 147.773438 C 330.605469 148.765625 330.3125 149.726562 329.921875 150.664062 C 329.535156 151.597656 329.058594 152.488281 328.496094 153.328125 C 327.933594 154.167969 327.296875 154.949219 326.578125 155.664062 C 325.863281 156.378906 325.082031 157.019531 324.238281 157.582031 C 323.398438 158.144531 322.507812 158.617188 321.574219 159.003906 C 320.636719 159.390625 319.671875 159.683594 318.675781 159.882812 C 317.683594 160.078125 316.679688 160.179688 315.667969 160.179688 C 314.652344 160.179688 313.652344 160.078125 312.65625 159.882812 C 311.664062 159.683594 310.699219 159.390625 309.761719 159.003906 C 308.824219 158.617188 307.9375 158.144531 307.09375 157.582031 C 306.25 157.019531 305.472656 156.378906 304.757812 155.664062 C 304.039062 154.949219 303.398438 154.167969 302.835938 153.328125 C 302.273438 152.488281 301.796875 151.597656 301.410156 150.664062 C 301.023438 149.726562 300.730469 148.765625 300.53125 147.773438 C 300.335938 146.777344 300.238281 145.777344 300.238281 144.765625 C 300.238281 143.753906 300.335938 142.75 300.53125 141.757812 C 300.730469 140.765625 301.023438 139.800781 301.410156 138.867188 C 301.796875 137.929688 302.273438 137.042969 302.835938 136.199219 C 303.398438 135.359375 304.039062 134.582031 304.757812 133.863281 C 305.472656 133.148438 306.25 132.511719 307.09375 131.949219 C 307.9375 131.386719 308.824219 130.910156 309.761719 130.523438 C 310.699219 130.136719 311.664062 129.84375 312.65625 129.644531 C 313.652344 129.449219 314.652344 129.351562 315.667969 129.351562 C 316.679688 129.351562 317.683594 129.449219 318.675781 129.644531 C 319.671875 129.84375 320.636719 130.136719 321.574219 130.523438 C 322.507812 130.910156 323.398438 131.386719 324.238281 131.949219 C 325.082031 132.511719 325.863281 133.148438 326.578125 133.863281 C 327.296875 134.582031 327.933594 135.359375 328.496094 136.199219 C 329.058594 137.042969 329.535156 137.929688 329.921875 138.867188 C 330.3125 139.800781 330.605469 140.765625 330.800781 141.757812 C 331 142.75 331.097656 143.753906 331.097656 144.765625 Z M 331.097656 144.765625 "/>
<path style=" stroke:none;fill-rule:nonzero;fill:rgb(81.568909%,80.389404%,88.238525%);fill-opacity:1;" d="M 312.195312 171.355469 C 312.195312 171.355469 302.550781 163.261719 301.78125 160.179688 C 301.78125 160.179688 296.765625 165.1875 296.765625 165.957031 C 296.765625 166.730469 275.160156 169.042969 269.761719 175.207031 C 264.359375 181.371094 259.730469 194.476562 259.730469 194.476562 L 272.847656 219.136719 C 272.847656 219.136719 273.617188 233.007812 273.617188 234.550781 C 273.617188 236.09375 269.761719 260.753906 271.304688 261.523438 C 272.847656 262.296875 288.277344 270.003906 301.394531 268.460938 C 314.511719 266.921875 327.625 264.609375 331.484375 264.609375 C 335.339844 264.609375 338.425781 266.148438 338.425781 264.609375 C 338.425781 263.066406 336.113281 259.984375 336.113281 258.441406 C 336.113281 256.902344 335.339844 253.046875 335.339844 250.734375 C 335.339844 248.421875 333.796875 244.570312 333.796875 241.488281 C 333.796875 238.40625 350.773438 196.785156 350.773438 196.785156 C 350.773438 196.785156 350 183.683594 337.65625 177.519531 C 325.3125 171.355469 323.769531 169.042969 323.769531 169.042969 C 323.769531 169.042969 323.527344 164.417969 322.875 164.417969 C 322.226562 164.417969 319.910156 171.355469 313.738281 172.125 Z M 312.195312 171.355469 "/>
<path style=" stroke:none;fill-rule:nonzero;fill:rgb(98.429871%,74.508667%,74.508667%);fill-opacity:1;" d="M 270.53125 273.855469 L 275.933594 282.332031 L 289.820312 279.25 L 279.792969 267.691406 Z M 270.53125 273.855469 "/>
<path style=" stroke:none;fill-rule:nonzero;fill:rgb(81.568909%,80.389404%,88.238525%);fill-opacity:1;" d="M 346.144531 190.621094 L 350.773438 196.785156 C 350.773438 196.785156 360.03125 241.488281 358.488281 257.671875 C 356.945312 273.855469 355.402344 286.1875 355.402344 286.1875 C 355.402344 286.1875 358.488281 297.746094 356.171875 297.746094 C 353.859375 297.746094 339.96875 298.519531 339.96875 296.207031 C 339.96875 293.894531 341.515625 279.25 341.515625 279.25 L 337.65625 245.339844 L 329.167969 233.78125 Z M 346.144531 190.621094 "/>
<path style=" stroke:none;fill-rule:nonzero;fill:rgb(18.429565%,18.03894%,25.489807%);fill-opacity:1;" d="M 305.1875 137.28125 C 306.132812 136.882812 307.226562 137.207031 308.238281 137.035156 C 309.429688 136.835938 310.492188 135.953125 311.695312 136.066406 C 312.265625 136.171875 312.8125 136.347656 313.339844 136.597656 C 313.890625 136.859375 314.453125 136.878906 315.023438 136.660156 C 315.15625 136.597656 315.265625 136.511719 315.359375 136.402344 C 315.449219 136.292969 315.511719 136.167969 315.550781 136.027344 C 315.585938 135.886719 315.589844 135.75 315.5625 135.605469 C 315.53125 135.464844 315.476562 135.335938 315.390625 135.222656 C 316.433594 135.128906 317.347656 134.738281 318.132812 134.042969 C 318.285156 133.886719 318.457031 133.753906 318.652344 133.652344 C 319.132812 133.527344 319.582031 133.597656 320 133.859375 L 321.765625 134.675781 C 322.167969 134.816406 322.507812 135.058594 322.773438 135.394531 C 322.984375 135.722656 323.023438 136.160156 323.320312 136.410156 C 323.699219 136.730469 324.269531 136.574219 324.761719 136.605469 C 324.988281 136.628906 325.203125 136.691406 325.40625 136.789062 C 325.605469 136.890625 325.785156 137.023438 325.9375 137.1875 C 326.089844 137.355469 326.210938 137.542969 326.296875 137.75 C 326.378906 137.960938 326.425781 138.175781 326.429688 138.402344 C 326.421875 138.921875 326.234375 139.554688 326.644531 139.871094 C 326.882812 140.054688 327.21875 140.027344 327.496094 140.140625 C 328.21875 140.433594 328.222656 141.4375 328.113281 142.207031 C 328.007812 142.976562 328.0625 143.992188 328.800781 144.230469 C 329.324219 144.398438 329.859375 144.042969 330.402344 143.960938 C 331.21875 143.84375 331.976562 144.355469 332.707031 144.746094 C 333.433594 145.136719 334.402344 145.402344 335.035156 144.867188 C 335.621094 144.371094 335.585938 143.460938 335.421875 142.710938 C 335.1875 141.625 334.8125 140.597656 334.289062 139.617188 C 334.09375 139.328125 333.984375 139.007812 333.960938 138.65625 C 334.054688 138.140625 334.324219 137.75 334.773438 137.480469 C 335.664062 136.773438 336.691406 136.0625 336.980469 134.964844 C 337.191406 134.15625 336.953125 133.304688 336.972656 132.472656 C 336.996094 131.457031 337.398438 130.445312 337.210938 129.449219 C 336.867188 127.640625 334.851562 126.769531 333.550781 125.464844 C 331.765625 123.675781 331.183594 120.808594 329.074219 119.410156 C 327.386719 118.292969 325.179688 118.425781 323.261719 117.785156 C 321.148438 117.082031 319.449219 115.464844 317.367188 114.679688 C 316.21875 114.257812 315.03125 114.097656 313.8125 114.207031 C 312.589844 114.3125 311.449219 114.675781 310.390625 115.292969 C 309.765625 115.753906 309.082031 116.105469 308.339844 116.339844 C 307.714844 116.410156 307.09375 116.402344 306.472656 116.316406 C 305.21875 116.253906 304.035156 116.496094 302.910156 117.050781 C 302.472656 117.226562 302.140625 117.515625 301.914062 117.925781 C 301.539062 118.753906 302.082031 120.042969 301.265625 120.441406 C 300.882812 120.625 300.433594 120.449219 300.011719 120.457031 C 299.1875 120.476562 298.554688 121.191406 298.164062 121.914062 C 297.855469 122.683594 297.421875 123.378906 296.867188 123.996094 C 295.863281 124.875 294.035156 125.019531 293.773438 126.328125 C 293.765625 126.886719 293.796875 127.4375 293.867188 127.988281 C 293.789062 129.148438 292.546875 130.03125 292.613281 131.191406 C 292.6875 132.53125 294.390625 133.1875 294.847656 134.449219 C 295.191406 135.410156 294.734375 136.449219 294.421875 137.421875 C 294.109375 138.394531 294.011719 139.640625 294.824219 140.261719 C 295.140625 140.503906 295.550781 140.605469 295.875 140.839844 C 296.714844 141.449219 296.703125 142.679688 296.609375 143.714844 C 296.496094 144.175781 296.597656 144.585938 296.914062 144.941406 C 297.210938 145.121094 297.519531 145.15625 297.847656 145.054688 C 298.910156 144.796875 299.714844 144.195312 300.257812 143.242188 C 300.527344 142.796875 300.582031 142.40625 301.074219 142.167969 C 301.40625 142.007812 301.808594 142.148438 302.148438 141.941406 C 303.761719 140.949219 303.207031 138.121094 305.1875 137.28125 Z M 305.1875 137.28125 "/>
<path style=" stroke:none;fill-rule:nonzero;fill:rgb(81.568909%,80.389404%,88.238525%);fill-opacity:1;" d="M 262.046875 192.164062 L 259.730469 194.476562 C 259.730469 194.476562 245.84375 236.09375 250.472656 245.339844 C 255.101562 254.589844 264.359375 277.710938 267.445312 276.9375 C 270.53125 276.167969 281.335938 269.230469 281.335938 268.460938 C 281.335938 267.691406 268.21875 246.109375 268.21875 246.109375 C 268.21875 246.109375 266.675781 241.488281 267.445312 240.714844 C 268.21875 239.945312 268.21875 240.714844 267.445312 239.175781 C 266.675781 237.632812 266.675781 239.175781 268.21875 237.632812 C 269.761719 236.09375 269.761719 236.09375 269.761719 235.320312 C 269.761719 234.550781 274.390625 215.285156 274.390625 215.285156 Z M 262.046875 192.164062 "/>
<path style=" stroke:none;fill-rule:nonzero;fill:rgb(18.429565%,18.03894%,25.489807%);fill-opacity:1;" d="M 274.003906 282.71875 L 290.980469 277.324219 L 293.292969 282.71875 L 274.777344 286.574219 Z M 274.003906 282.71875 "/>
<path style=" stroke:none;fill-rule:nonzero;fill:rgb(0%,0%,0%);fill-opacity:0.098;" d="M 274.003906 282.71875 L 290.980469 277.324219 L 293.292969 282.71875 L 274.777344 286.574219 Z M 274.003906 282.71875 "/>
<path style=" stroke:none;fill-rule:nonzero;fill:rgb(0%,0%,0%);fill-opacity:0.098;" d="M 297.148438 166.34375 L 310.265625 177.132812 L 311.808594 174.820312 Z M 297.148438 166.34375 "/>
<path style=" stroke:none;fill-rule:nonzero;fill:rgb(0%,0%,0%);fill-opacity:0.098;" d="M 323.382812 169.425781 L 314.125 174.820312 L 314.894531 177.132812 Z M 323.382812 169.425781 "/>
<g clip-path="url(#clip3)" clip-rule="nonzero">
<path style=" stroke:none;fill-rule:nonzero;fill:rgb(100%,100%,100%);fill-opacity:1;" d="M 517.679688 212.554688 C 516.046875 212.554688 514.71875 211.210938 514.71875 209.558594 C 514.71875 208.601562 515.164062 207.738281 515.871094 207.183594 C 515.84375 207.015625 515.832031 206.839844 515.832031 206.667969 C 515.832031 205.3125 516.660156 204.113281 517.855469 203.613281 C 518.125 202.949219 518.585938 202.296875 519.199219 201.699219 C 518.847656 201.246094 518.492188 200.714844 518.191406 200.117188 C 516.972656 197.703125 517.339844 194.902344 519.15625 192.808594 C 519.679688 192.203125 520.292969 191.695312 520.917969 191.21875 C 520.585938 191.429688 520.175781 191.542969 519.714844 191.542969 C 519.035156 191.542969 518.421875 191.296875 518.304688 191.246094 C 518.035156 191.136719 517.261719 190.816406 517.015625 190.097656 C 516.660156 189.890625 516.414062 189.550781 516.285156 189.203125 C 515.683594 187.789062 515.605469 186.582031 516.054688 185.601562 C 516.453125 184.734375 517.121094 184.34375 517.480469 184.191406 L 519.964844 182.511719 C 520.101562 182.183594 520.320312 181.832031 520.617188 181.453125 L 520.738281 181.300781 L 522.246094 180.308594 L 520.945312 176.566406 L 525.191406 178.613281 C 525.949219 178.367188 526.734375 178.242188 527.535156 178.242188 C 529.933594 178.242188 532.210938 179.339844 534.304688 181.503906 C 537.800781 185.117188 537.503906 191.699219 535.222656 195.726562 C 534.53125 196.945312 533.667969 197.902344 532.828125 198.832031 C 532.269531 199.449219 531.742188 200.035156 531.273438 200.683594 C 532.53125 201.492188 533.46875 202.53125 533.90625 203.613281 C 535.101562 204.113281 535.929688 205.3125 535.929688 206.667969 C 535.929688 206.804688 535.921875 206.949219 535.90625 207.085938 C 536.6875 207.625 537.191406 208.535156 537.191406 209.558594 C 537.191406 211.210938 535.859375 212.554688 534.226562 212.554688 Z M 521.691406 190.285156 C 521.574219 190.578125 521.398438 190.828125 521.175781 191.023438 C 521.3125 190.921875 521.453125 190.820312 521.59375 190.71875 C 522.140625 190.316406 522.671875 189.925781 523.128906 189.507812 C 523.105469 189.496094 523.082031 189.484375 523.058594 189.46875 Z M 521.691406 190.285156 "/>
</g>
<path style=" stroke:none;fill-rule:nonzero;fill:rgb(14.118958%,48.629761%,94.509888%);fill-opacity:1;" d="M 534.410156 207.78125 C 534.613281 207.460938 534.734375 207.078125 534.734375 206.667969 C 534.734375 205.609375 533.960938 204.738281 532.953125 204.597656 C 532.734375 203.378906 531.484375 202.03125 529.683594 201.183594 C 529.84375 200.542969 530.183594 200.136719 530.285156 200 C 531.515625 198.28125 533.117188 197.011719 534.1875 195.121094 C 536.210938 191.546875 536.542969 185.550781 533.445312 182.351562 C 529.917969 178.703125 526.679688 179.296875 525.125 179.921875 L 523.03125 178.914062 L 523.6875 180.800781 L 521.554688 182.207031 C 521.554688 182.207031 520.988281 182.921875 520.988281 183.277344 L 518.035156 185.269531 C 518.035156 185.269531 516.132812 185.839844 517.402344 188.761719 C 517.402344 188.761719 517.542969 189.222656 517.964844 189.066406 L 519.25 188.210938 C 519.28125 188.097656 519.382812 187.976562 519.535156 187.902344 C 519.757812 187.792969 520 187.832031 520.074219 187.988281 C 520.148438 188.140625 520.027344 188.355469 519.800781 188.464844 C 519.714844 188.507812 519.628906 188.527344 519.550781 188.53125 L 518.28125 189.4375 C 518.28125 189.4375 517.734375 189.703125 518.773438 190.132812 C 518.773438 190.132812 520.519531 190.878906 520.667969 189.492188 L 523.085938 188.046875 C 523.085938 188.046875 523.988281 188.757812 525.132812 188.984375 C 523.976562 190.929688 521.511719 191.925781 520.054688 193.605469 C 518.589844 195.296875 518.238281 197.546875 519.257812 199.570312 C 519.671875 200.390625 520.277344 201.191406 520.914062 201.851562 C 519.75 202.652344 518.976562 203.664062 518.808594 204.597656 C 517.804688 204.738281 517.027344 205.609375 517.027344 206.667969 C 517.027344 207.085938 517.148438 207.476562 517.363281 207.804688 C 516.539062 207.957031 515.914062 208.683594 515.914062 209.558594 C 515.914062 210.542969 516.703125 211.339844 517.679688 211.339844 L 534.226562 211.339844 C 535.203125 211.339844 535.992188 210.542969 535.992188 209.558594 C 535.992188 208.636719 535.300781 207.875 534.410156 207.78125 Z M 522.503906 182.976562 C 522.503906 182.976562 521.828125 183.878906 521.933594 184.425781 L 518.800781 186.429688 C 518.800781 186.429688 517.605469 187.050781 517.8125 187.746094 C 517.8125 187.746094 517 186.566406 518.566406 185.753906 L 521.40625 183.972656 C 521.40625 183.972656 521.617188 183.007812 522.179688 182.5625 L 524.570312 181.269531 Z M 519.59375 208.167969 L 519.472656 208.167969 C 518.707031 208.167969 518.082031 207.539062 518.082031 206.761719 C 518.082031 205.984375 518.707031 205.355469 519.472656 205.355469 L 519.59375 205.355469 C 519.117188 205.640625 518.800781 206.164062 518.800781 206.761719 C 518.800781 207.363281 519.117188 207.886719 519.59375 208.167969 Z M 524.140625 202.007812 C 522.519531 202.433594 521.605469 204.644531 521.605469 204.644531 L 520.128906 204.644531 C 521.042969 202.433594 522.449219 202.007812 522.449219 202.007812 C 516.609375 197.058594 521.535156 193.175781 521.535156 193.175781 C 523.675781 191.816406 525.953125 189.472656 525.953125 189.472656 C 525.40625 191.324219 522.382812 193.601562 522.382812 193.601562 C 517.667969 198.230469 524.140625 202.007812 524.140625 202.007812 Z M 524.140625 202.007812 "/>
<g clip-path="url(#clip4)" clip-rule="nonzero">
<path style=" stroke:none;fill-rule:nonzero;fill:rgb(100%,100%,100%);fill-opacity:1;" d="M 639.316406 176.167969 C 637.722656 176.167969 636.425781 174.875 636.425781 173.292969 C 636.425781 172.375 636.859375 171.546875 637.550781 171.015625 C 637.523438 170.851562 637.511719 170.683594 637.511719 170.519531 C 637.511719 168.894531 638.742188 167.550781 640.328125 167.371094 C 642.75 164.058594 643.84375 156.371094 644.078125 150.160156 C 642.859375 150.011719 641.910156 148.976562 641.910156 147.722656 C 641.910156 146.925781 642.296875 146.210938 642.898438 145.761719 C 642.878906 145.644531 642.871094 145.527344 642.871094 145.410156 C 642.871094 144.527344 643.339844 143.75 644.046875 143.320312 C 643.691406 142.148438 643.078125 140.726562 641.992188 139.367188 L 640.488281 137.484375 L 643.792969 137.484375 C 644.195312 136.890625 644.8125 136.390625 645.582031 136.03125 C 645.554688 135.882812 645.539062 135.726562 645.539062 135.574219 C 645.539062 134.101562 646.835938 132.90625 648.425781 132.90625 C 650.015625 132.90625 651.3125 134.101562 651.3125 135.574219 C 651.3125 135.726562 651.296875 135.882812 651.269531 136.03125 C 652.039062 136.390625 652.65625 136.890625 653.058594 137.484375 L 656.359375 137.484375 L 654.855469 139.367188 C 653.773438 140.726562 653.15625 142.148438 652.804688 143.320312 C 653.507812 143.75 653.980469 144.527344 653.980469 145.410156 C 653.980469 145.527344 653.972656 145.644531 653.953125 145.761719 C 654.554688 146.210938 654.9375 146.925781 654.9375 147.722656 C 654.9375 148.976562 653.992188 150.011719 652.773438 150.160156 C 653.007812 156.386719 654.105469 164.09375 656.539062 167.390625 C 658.046875 167.644531 659.199219 168.949219 659.199219 170.519531 C 659.199219 170.652344 659.1875 170.785156 659.171875 170.921875 C 659.933594 171.4375 660.425781 172.308594 660.425781 173.292969 C 660.425781 174.875 659.128906 176.167969 657.535156 176.167969 Z M 639.316406 176.167969 "/>
</g>
<path style=" stroke:none;fill-rule:nonzero;fill:rgb(14.118958%,48.629761%,94.509888%);fill-opacity:1;" d="M 657.714844 171.589844 C 657.914062 171.28125 658.027344 170.914062 658.027344 170.519531 C 658.027344 169.410156 657.125 168.511719 656.011719 168.511719 L 655.941406 168.511719 C 652.078125 164.023438 651.625 151.539062 651.570312 149.019531 L 652.46875 149.019531 C 653.1875 149.019531 653.769531 148.4375 653.769531 147.722656 C 653.769531 147.007812 653.1875 146.429688 652.46875 146.429688 L 652.304688 146.429688 C 652.613281 146.195312 652.8125 145.824219 652.8125 145.410156 C 652.8125 144.695312 652.226562 144.113281 651.511719 144.113281 L 651.398438 144.113281 C 651.679688 142.757812 652.347656 140.640625 653.941406 138.644531 L 652.335938 138.644531 C 652.058594 137.714844 650.976562 136.96875 649.5625 136.703125 C 649.917969 136.425781 650.144531 136.023438 650.144531 135.574219 C 650.144531 134.742188 649.375 134.066406 648.425781 134.066406 C 647.476562 134.066406 646.707031 134.742188 646.707031 135.574219 C 646.707031 136.023438 646.933594 136.425781 647.289062 136.703125 C 645.875 136.96875 644.792969 137.714844 644.515625 138.644531 L 642.910156 138.644531 C 644.5 140.640625 645.171875 142.757812 645.449219 144.113281 L 645.339844 144.113281 C 644.621094 144.113281 644.039062 144.695312 644.039062 145.410156 C 644.039062 145.824219 644.238281 146.195312 644.542969 146.429688 L 644.382812 146.429688 C 643.664062 146.429688 643.082031 147.007812 643.082031 147.722656 C 643.082031 148.4375 643.664062 149.019531 644.382812 149.019531 L 645.28125 149.019531 C 645.226562 151.539062 644.773438 164.023438 640.910156 168.511719 L 640.699219 168.511719 C 639.582031 168.511719 638.679688 169.410156 638.679688 170.519531 C 638.679688 170.921875 638.800781 171.296875 639.007812 171.609375 C 638.203125 171.753906 637.59375 172.453125 637.59375 173.292969 C 637.59375 174.238281 638.363281 175.003906 639.316406 175.003906 L 657.535156 175.003906 C 658.488281 175.003906 659.257812 174.238281 659.257812 173.292969 C 659.257812 172.40625 658.582031 171.679688 657.714844 171.589844 Z M 644.757812 139.363281 L 646.304688 139.363281 C 646.667969 141.878906 646.304688 143.824219 646.304688 143.824219 C 646.097656 142.03125 644.757812 139.363281 644.757812 139.363281 Z M 641.054688 171.8125 L 640.9375 171.8125 C 640.1875 171.8125 639.578125 171.207031 639.578125 170.460938 C 639.578125 169.714844 640.1875 169.109375 640.9375 169.109375 L 641.054688 169.109375 C 640.589844 169.382812 640.277344 169.886719 640.277344 170.460938 C 640.277344 171.035156 640.589844 171.535156 641.054688 171.8125 Z M 644.214844 168.511719 L 642.335938 168.511719 C 645.8125 163.726562 646.097656 149.050781 646.097656 149.050781 L 646.714844 149.050781 C 647.058594 161.949219 644.214844 168.511719 644.214844 168.511719 Z M 644.214844 168.511719 "/>
<g clip-path="url(#clip5)" clip-rule="nonzero">
<path style=" stroke:none;fill-rule:nonzero;fill:rgb(100%,100%,100%);fill-opacity:1;" d="M 429.113281 197.945312 C 427.207031 197.945312 425.65625 196.390625 425.65625 194.480469 C 425.65625 193.375 426.175781 192.375 427.003906 191.734375 C 426.972656 191.539062 426.957031 191.339844 426.957031 191.136719 C 426.957031 189.164062 428.457031 187.535156 430.375 187.335938 C 432.082031 185.234375 432.917969 182.621094 433.320312 180.449219 C 432.375 179.957031 431.722656 178.960938 431.722656 177.820312 C 431.722656 176.851562 432.1875 175.996094 432.902344 175.457031 C 432.882812 175.3125 432.871094 175.171875 432.871094 175.027344 C 432.871094 174.523438 433 174.039062 433.230469 173.613281 C 432.207031 172.355469 431.640625 170.777344 431.640625 169.117188 C 431.640625 165.175781 434.839844 161.964844 438.773438 161.964844 C 442.703125 161.964844 445.902344 165.175781 445.902344 169.117188 C 445.902344 170.777344 445.335938 172.355469 444.3125 173.613281 C 444.546875 174.039062 444.671875 174.523438 444.671875 175.027344 C 444.671875 175.171875 444.664062 175.3125 444.644531 175.457031 C 445.355469 175.996094 445.820312 176.851562 445.820312 177.820312 C 445.820312 178.960938 445.171875 179.957031 444.222656 180.449219 C 444.628906 182.628906 445.472656 185.253906 447.191406 187.363281 C 449.015625 187.644531 450.417969 189.226562 450.417969 191.136719 C 450.417969 191.300781 450.40625 191.460938 450.386719 191.621094 C 451.300781 192.246094 451.890625 193.296875 451.890625 194.480469 C 451.890625 196.390625 450.335938 197.945312 448.433594 197.945312 L 429.113281 197.945312 "/>
</g>
<path style=" stroke:none;fill-rule:nonzero;fill:rgb(14.118958%,48.629761%,94.509888%);fill-opacity:1;" d="M 448.644531 192.429688 C 448.882812 192.054688 449.019531 191.613281 449.019531 191.136719 C 449.019531 189.800781 447.941406 188.71875 446.609375 188.71875 L 446.511719 188.71875 C 444.035156 185.980469 443.023438 182.359375 442.640625 179.378906 L 442.867188 179.378906 C 443.726562 179.378906 444.421875 178.679688 444.421875 177.820312 C 444.421875 176.957031 443.726562 176.261719 442.867188 176.261719 L 442.671875 176.261719 C 443.039062 175.972656 443.277344 175.527344 443.277344 175.027344 C 443.277344 174.390625 442.898438 173.847656 442.351562 173.601562 C 443.664062 172.550781 444.507812 170.929688 444.507812 169.117188 C 444.507812 165.941406 441.941406 163.367188 438.773438 163.367188 C 435.605469 163.367188 433.039062 165.941406 433.039062 169.117188 C 433.039062 170.929688 433.878906 172.550781 435.191406 173.601562 C 434.648438 173.847656 434.269531 174.390625 434.269531 175.027344 C 434.269531 175.527344 434.507812 175.972656 434.871094 176.261719 L 434.679688 176.261719 C 433.816406 176.261719 433.121094 176.957031 433.121094 177.820312 C 433.121094 178.679688 433.816406 179.378906 434.679688 179.378906 L 434.90625 179.378906 C 434.519531 182.359375 433.511719 185.980469 431.03125 188.71875 L 430.765625 188.71875 C 429.433594 188.71875 428.355469 189.800781 428.355469 191.136719 C 428.355469 191.621094 428.496094 192.074219 428.742188 192.453125 C 427.785156 192.628906 427.054688 193.46875 427.054688 194.480469 C 427.054688 195.621094 427.976562 196.542969 429.113281 196.542969 L 448.433594 196.542969 C 449.566406 196.542969 450.492188 195.621094 450.492188 194.480469 C 450.492188 193.414062 449.683594 192.535156 448.644531 192.429688 Z M 431.101562 192.796875 L 430.960938 192.796875 C 430.066406 192.796875 429.339844 192.070312 429.339844 191.167969 C 429.339844 190.273438 430.066406 189.542969 430.960938 189.542969 L 431.101562 189.542969 C 430.546875 189.871094 430.175781 190.476562 430.175781 191.167969 C 430.175781 191.863281 430.546875 192.46875 431.101562 192.796875 Z M 434.578125 188.71875 L 433.035156 188.71875 C 435.089844 185.257812 435.871094 179.65625 435.871094 179.65625 L 436.320312 179.65625 C 435.832031 184.929688 434.578125 188.71875 434.578125 188.71875 Z M 438.542969 167.425781 C 437.410156 167.425781 436.460938 166.917969 436.195312 166.234375 C 435.1875 167.132812 434.550781 168.4375 434.550781 169.898438 C 434.550781 170.8125 434.800781 171.667969 435.234375 172.402344 C 434.359375 171.515625 433.816406 170.292969 433.816406 168.945312 C 433.816406 166.234375 436.007812 164.039062 438.710938 164.039062 C 440.503906 164.039062 442.066406 165.003906 442.921875 166.441406 C 442.324219 165.839844 441.566406 165.394531 440.726562 165.167969 C 440.875 165.371094 440.964844 165.601562 440.964844 165.847656 C 440.964844 166.71875 439.878906 167.425781 438.542969 167.425781 "/>
<g clip-path="url(#clip6)" clip-rule="nonzero">
<path style=" stroke:none;fill-rule:nonzero;fill:rgb(100%,100%,100%);fill-opacity:1;" d="M 375.472656 197.945312 C 373.566406 197.945312 372.015625 196.390625 372.015625 194.480469 C 372.015625 193.375 372.539062 192.375 373.363281 191.734375 C 373.332031 191.539062 373.316406 191.339844 373.316406 191.136719 C 373.316406 189.164062 374.816406 187.535156 376.734375 187.335938 C 378.441406 185.234375 379.277344 182.621094 379.679688 180.449219 C 378.734375 179.957031 378.082031 178.960938 378.082031 177.820312 C 378.082031 176.851562 378.546875 175.996094 379.261719 175.457031 C 379.242188 175.3125 379.230469 175.171875 379.230469 175.027344 C 379.230469 174.523438 379.359375 174.039062 379.589844 173.613281 C 378.570312 172.355469 378 170.777344 378 169.117188 C 378 165.175781 381.199219 161.964844 385.132812 161.964844 C 389.0625 161.964844 392.261719 165.175781 392.261719 169.117188 C 392.261719 170.777344 391.695312 172.355469 390.671875 173.613281 C 390.90625 174.039062 391.03125 174.523438 391.03125 175.027344 C 391.03125 175.171875 391.023438 175.3125 391.003906 175.457031 C 391.714844 175.996094 392.179688 176.851562 392.179688 177.820312 C 392.179688 178.960938 391.53125 179.957031 390.582031 180.449219 C 390.988281 182.628906 391.832031 185.253906 393.550781 187.363281 C 395.375 187.644531 396.777344 189.226562 396.777344 191.136719 C 396.777344 191.300781 396.769531 191.460938 396.746094 191.621094 C 397.660156 192.246094 398.25 193.296875 398.25 194.480469 C 398.25 196.390625 396.695312 197.945312 394.792969 197.945312 L 375.472656 197.945312 "/>
</g>
<path style=" stroke:none;fill-rule:nonzero;fill:rgb(14.118958%,48.629761%,94.509888%);fill-opacity:1;" d="M 395.007812 192.429688 C 395.242188 192.054688 395.382812 191.613281 395.382812 191.136719 C 395.382812 189.800781 394.300781 188.71875 392.96875 188.71875 L 392.871094 188.71875 C 390.394531 185.980469 389.382812 182.359375 389 179.378906 L 389.226562 179.378906 C 390.085938 179.378906 390.78125 178.679688 390.78125 177.820312 C 390.78125 176.957031 390.085938 176.261719 389.226562 176.261719 L 389.03125 176.261719 C 389.402344 175.972656 389.636719 175.527344 389.636719 175.027344 C 389.636719 174.390625 389.257812 173.847656 388.714844 173.601562 C 390.023438 172.550781 390.867188 170.929688 390.867188 169.117188 C 390.867188 165.941406 388.300781 163.367188 385.132812 163.367188 C 381.964844 163.367188 379.398438 165.941406 379.398438 169.117188 C 379.398438 170.929688 380.238281 172.550781 381.550781 173.601562 C 381.007812 173.847656 380.628906 174.390625 380.628906 175.027344 C 380.628906 175.527344 380.867188 175.972656 381.230469 176.261719 L 381.039062 176.261719 C 380.175781 176.261719 379.480469 176.957031 379.480469 177.820312 C 379.480469 178.679688 380.175781 179.378906 381.039062 179.378906 L 381.265625 179.378906 C 380.878906 182.359375 379.871094 185.980469 377.390625 188.71875 L 377.125 188.71875 C 375.792969 188.71875 374.714844 189.800781 374.714844 191.136719 C 374.714844 191.621094 374.859375 192.074219 375.101562 192.453125 C 374.144531 192.628906 373.414062 193.46875 373.414062 194.480469 C 373.414062 195.621094 374.335938 196.542969 375.472656 196.542969 L 394.792969 196.542969 C 395.929688 196.542969 396.851562 195.621094 396.851562 194.480469 C 396.851562 193.414062 396.042969 192.535156 395.007812 192.429688 Z M 377.464844 192.796875 L 377.320312 192.796875 C 376.425781 192.796875 375.699219 192.070312 375.699219 191.167969 C 375.699219 190.273438 376.425781 189.542969 377.320312 189.542969 L 377.464844 189.542969 C 376.90625 189.871094 376.535156 190.476562 376.535156 191.167969 C 376.535156 191.863281 376.90625 192.46875 377.464844 192.796875 Z M 380.9375 188.71875 L 379.394531 188.71875 C 381.449219 185.257812 382.234375 179.65625 382.234375 179.65625 L 382.679688 179.65625 C 382.191406 184.929688 380.9375 188.71875 380.9375 188.71875 Z M 384.902344 167.425781 C 383.769531 167.425781 382.820312 166.917969 382.554688 166.234375 C 381.546875 167.132812 380.910156 168.4375 380.910156 169.898438 C 380.910156 170.8125 381.160156 171.667969 381.59375 172.402344 C 380.71875 171.515625 380.175781 170.292969 380.175781 168.945312 C 380.175781 166.234375 382.367188 164.039062 385.070312 164.039062 C 386.863281 164.039062 388.425781 165.003906 389.28125 166.441406 C 388.683594 165.839844 387.925781 165.394531 387.085938 165.167969 C 387.234375 165.371094 387.324219 165.601562 387.324219 165.847656 C 387.324219 166.71875 386.238281 167.425781 384.902344 167.425781 "/>
<g clip-path="url(#clip7)" clip-rule="nonzero">
<path style=" stroke:none;fill-rule:nonzero;fill:rgb(100%,100%,100%);fill-opacity:1;" d="M 579.550781 197.945312 C 577.644531 197.945312 576.09375 196.390625 576.09375 194.480469 C 576.09375 193.375 576.613281 192.375 577.441406 191.734375 C 577.410156 191.539062 577.394531 191.339844 577.394531 191.136719 C 577.394531 189.164062 578.894531 187.535156 580.8125 187.335938 C 582.519531 185.234375 583.355469 182.621094 583.757812 180.449219 C 582.808594 179.957031 582.160156 178.960938 582.160156 177.820312 C 582.160156 176.851562 582.625 175.996094 583.339844 175.457031 C 583.320312 175.3125 583.308594 175.171875 583.308594 175.027344 C 583.308594 174.523438 583.4375 174.039062 583.667969 173.613281 C 582.644531 172.355469 582.078125 170.777344 582.078125 169.117188 C 582.078125 165.175781 585.277344 161.964844 589.210938 161.964844 C 593.140625 161.964844 596.339844 165.175781 596.339844 169.117188 C 596.339844 170.777344 595.773438 172.355469 594.75 173.613281 C 594.980469 174.039062 595.109375 174.523438 595.109375 175.027344 C 595.109375 175.171875 595.101562 175.3125 595.082031 175.457031 C 595.792969 175.996094 596.257812 176.851562 596.257812 177.820312 C 596.257812 178.960938 595.609375 179.957031 594.660156 180.449219 C 595.066406 182.628906 595.90625 185.253906 597.628906 187.363281 C 599.453125 187.644531 600.855469 189.226562 600.855469 191.136719 C 600.855469 191.300781 600.84375 191.460938 600.824219 191.621094 C 601.738281 192.246094 602.328125 193.296875 602.328125 194.480469 C 602.328125 196.390625 600.773438 197.945312 598.867188 197.945312 L 579.550781 197.945312 "/>
</g>
<path style=" stroke:none;fill-rule:nonzero;fill:rgb(14.118958%,48.629761%,94.509888%);fill-opacity:1;" d="M 599.082031 192.429688 C 599.320312 192.054688 599.457031 191.613281 599.457031 191.136719 C 599.457031 189.800781 598.378906 188.71875 597.046875 188.71875 L 596.949219 188.71875 C 594.472656 185.980469 593.460938 182.359375 593.078125 179.378906 L 593.304688 179.378906 C 594.164062 179.378906 594.859375 178.679688 594.859375 177.820312 C 594.859375 176.957031 594.164062 176.261719 593.304688 176.261719 L 593.109375 176.261719 C 593.476562 175.972656 593.714844 175.527344 593.714844 175.027344 C 593.714844 174.390625 593.335938 173.847656 592.789062 173.601562 C 594.101562 172.550781 594.945312 170.929688 594.945312 169.117188 C 594.945312 165.941406 592.375 163.367188 589.210938 163.367188 C 586.042969 163.367188 583.476562 165.941406 583.476562 169.117188 C 583.476562 170.929688 584.316406 172.550781 585.628906 173.601562 C 585.085938 173.847656 584.707031 174.390625 584.707031 175.027344 C 584.707031 175.527344 584.945312 175.972656 585.308594 176.261719 L 585.113281 176.261719 C 584.253906 176.261719 583.558594 176.957031 583.558594 177.820312 C 583.558594 178.679688 584.253906 179.378906 585.113281 179.378906 L 585.34375 179.378906 C 584.957031 182.359375 583.949219 185.980469 581.46875 188.71875 L 581.203125 188.71875 C 579.871094 188.71875 578.792969 189.800781 578.792969 191.136719 C 578.792969 191.621094 578.933594 192.074219 579.179688 192.453125 C 578.222656 192.628906 577.492188 193.46875 577.492188 194.480469 C 577.492188 195.621094 578.414062 196.542969 579.550781 196.542969 L 598.867188 196.542969 C 600.003906 196.542969 600.929688 195.621094 600.929688 194.480469 C 600.929688 193.414062 600.121094 192.535156 599.082031 192.429688 Z M 581.539062 192.796875 L 581.398438 192.796875 C 580.5 192.796875 579.777344 192.070312 579.777344 191.167969 C 579.777344 190.273438 580.5 189.542969 581.398438 189.542969 L 581.539062 189.542969 C 580.984375 189.871094 580.613281 190.476562 580.613281 191.167969 C 580.613281 191.863281 580.984375 192.46875 581.539062 192.796875 Z M 585.015625 188.71875 L 583.472656 188.71875 C 585.527344 185.257812 586.308594 179.65625 586.308594 179.65625 L 586.757812 179.65625 C 586.269531 184.929688 585.015625 188.71875 585.015625 188.71875 Z M 588.980469 167.425781 C 587.847656 167.425781 586.898438 166.917969 586.632812 166.234375 C 585.625 167.132812 584.988281 168.4375 584.988281 169.898438 C 584.988281 170.8125 585.238281 171.667969 585.671875 172.402344 C 584.792969 171.515625 584.253906 170.292969 584.253906 168.945312 C 584.253906 166.234375 586.445312 164.039062 589.148438 164.039062 C 590.941406 164.039062 592.503906 165.003906 593.355469 166.441406 C 592.761719 165.839844 592.003906 165.394531 591.160156 165.167969 C 591.3125 165.371094 591.398438 165.601562 591.398438 165.847656 C 591.398438 166.71875 590.316406 167.425781 588.980469 167.425781 "/>
</g>
</svg>
