<?xml version="1.0" encoding="UTF-8"?>
<svg xmlns="http://www.w3.org/2000/svg" xmlns:xlink="http://www.w3.org/1999/xlink" width="45pt" height="44.999999pt" viewBox="0 0 45 44.999999" version="1.2">
<defs>
<clipPath id="clip1">
  <path d="M 11.660156 0 L 33.378906 0 L 33.378906 16.726562 L 11.660156 16.726562 Z M 11.660156 0 "/>
</clipPath>
<clipPath id="clip2">
  <path d="M 15.332031 14.773438 L 29.769531 14.773438 L 29.769531 45 L 15.332031 45 Z M 15.332031 14.773438 "/>
</clipPath>
</defs>
<g id="surface1">
<g clip-path="url(#clip1)" clip-rule="nonzero">
<path style=" stroke:none;fill-rule:nonzero;fill:rgb(100%,100%,100%);fill-opacity:1;" d="M 23.3125 0.433594 L 33.222656 15.265625 C 33.511719 15.695312 33.394531 16.277344 32.960938 16.566406 C 32.796875 16.675781 32.613281 16.726562 32.429688 16.722656 L 12.601562 16.722656 C 12.082031 16.722656 11.660156 16.304688 11.660156 15.785156 C 11.660156 15.589844 11.722656 15.40625 11.824219 15.257812 L 21.738281 0.417969 L 22.519531 0.9375 L 21.738281 0.417969 C 22.027344 -0.0117188 22.609375 -0.128906 23.042969 0.15625 C 23.152344 0.230469 23.246094 0.328125 23.3125 0.433594 Z M 30.683594 14.847656 L 22.519531 2.628906 L 14.355469 14.847656 Z M 30.683594 14.847656 "/>
</g>
<g clip-path="url(#clip2)" clip-rule="nonzero">
<path style=" stroke:none;fill-rule:nonzero;fill:rgb(100%,100%,100%);fill-opacity:1;" d="M 29.652344 15.785156 C 29.652344 15.269531 29.230469 14.847656 28.714844 14.847656 C 28.195312 14.847656 27.773438 15.269531 27.773438 15.785156 L 27.773438 43.128906 L 17.265625 43.128906 L 17.265625 15.785156 C 17.265625 15.269531 16.847656 14.847656 16.328125 14.847656 C 15.808594 14.847656 15.386719 15.269531 15.386719 15.785156 L 15.386719 44.066406 C 15.386719 44.585938 15.808594 45.003906 16.328125 45.003906 L 28.714844 45.003906 C 29.230469 45.003906 29.652344 44.585938 29.652344 44.066406 L 29.652344 15.785156 "/>
</g>
<path style=" stroke:none;fill-rule:nonzero;fill:rgb(100%,100%,100%);fill-opacity:1;" d="M 26.832031 20.886719 L 18.207031 25.855469 L 18.207031 23.699219 L 26.832031 18.730469 Z M 26.832031 35.96875 L 18.207031 40.9375 L 18.207031 38.78125 L 26.832031 33.8125 Z M 26.832031 30.941406 L 26.832031 28.785156 L 18.207031 33.753906 L 18.207031 35.910156 Z M 26.832031 25.914062 L 26.832031 23.757812 L 18.207031 28.726562 L 18.207031 30.882812 L 26.832031 25.914062 "/>
</g>
</svg>
