<?xml version="1.0"?>
<svg xmlns="http://www.w3.org/2000/svg" xmlns:xlink="http://www.w3.org/1999/xlink" xmlns:svgjs="http://svgjs.com/svgjs" version="1.1" width="512" height="512" x="0" y="0" viewBox="0 0 512 512" style="enable-background:new 0 0 512 512" xml:space="preserve" class=""><g><g xmlns="http://www.w3.org/2000/svg" id="interrogation_mark_1_"><g><path d="m301 392h-90v-49.607c0-57.612 28.945-110.669 77.417-141.899 17.271-11.119 27.583-30.001 27.583-50.494 0-33.091-26.909-60-60-60s-60 26.909-60 60v45h-90v-45c0-82.705 67.295-150 150-150s150 67.295 150 150c0 51.226-25.737 98.394-68.848 126.152-22.632 14.59-36.152 39.36-36.152 66.24z" fill="#ffffff" data-original="#000000" class=""/></g><g><path d="m301 512h-90v-90h90z" fill="#ffffff" data-original="#000000" class=""/></g></g></g></svg>
