<?xml version="1.0" encoding="UTF-8"?>
<svg xmlns="http://www.w3.org/2000/svg" xmlns:xlink="http://www.w3.org/1999/xlink" width="45pt" height="44.999999pt" viewBox="0 0 45 44.999999" version="1.2">
<defs>
<clipPath id="clip1">
  <path d="M 1.492188 0 L 43.492188 0 L 43.492188 45 L 1.492188 45 Z M 1.492188 0 "/>
</clipPath>
</defs>
<g id="surface1">
<g clip-path="url(#clip1)" clip-rule="nonzero">
<path style=" stroke:none;fill-rule:nonzero;fill:rgb(100%,100%,100%);fill-opacity:1;" d="M 22.492188 0.0273438 L 16.96875 5.550781 C 16.871094 5.644531 16.796875 5.753906 16.746094 5.875 C 16.691406 6 16.664062 6.128906 16.664062 6.261719 C 16.660156 6.394531 16.6875 6.523438 16.738281 6.648438 C 16.789062 6.773438 16.859375 6.882812 16.953125 6.976562 C 17.050781 7.074219 17.160156 7.144531 17.28125 7.195312 C 17.40625 7.246094 17.535156 7.273438 17.671875 7.269531 C 17.804688 7.269531 17.933594 7.242188 18.054688 7.1875 C 18.179688 7.136719 18.285156 7.058594 18.378906 6.964844 L 21.492188 3.847656 L 21.492188 13.070312 C 21.492188 13.203125 21.515625 13.332031 21.566406 13.457031 C 21.613281 13.582031 21.6875 13.691406 21.78125 13.785156 C 21.875 13.878906 21.984375 13.953125 22.105469 14.003906 C 22.230469 14.058594 22.355469 14.082031 22.492188 14.082031 C 22.625 14.082031 22.753906 14.058594 22.875 14.003906 C 23 13.953125 23.105469 13.878906 23.199219 13.785156 C 23.292969 13.691406 23.367188 13.582031 23.417969 13.457031 C 23.464844 13.332031 23.488281 13.203125 23.488281 13.070312 L 23.488281 3.847656 L 26.601562 6.964844 C 26.695312 7.058594 26.800781 7.136719 26.925781 7.1875 C 27.046875 7.242188 27.175781 7.269531 27.3125 7.269531 C 27.445312 7.273438 27.574219 7.246094 27.699219 7.195312 C 27.820312 7.144531 27.933594 7.074219 28.027344 6.976562 C 28.121094 6.882812 28.195312 6.773438 28.246094 6.648438 C 28.296875 6.523438 28.320312 6.394531 28.320312 6.261719 C 28.316406 6.128906 28.289062 6 28.238281 5.875 C 28.183594 5.753906 28.109375 5.644531 28.011719 5.550781 Z M 37.453125 8.011719 L 31.933594 13.535156 C 31.835938 13.628906 31.761719 13.734375 31.707031 13.859375 C 31.652344 13.980469 31.625 14.109375 31.625 14.246094 C 31.625 14.378906 31.648438 14.507812 31.699219 14.632812 C 31.75 14.757812 31.824219 14.867188 31.917969 14.960938 C 32.011719 15.054688 32.121094 15.128906 32.246094 15.179688 C 32.371094 15.230469 32.5 15.253906 32.632812 15.253906 C 32.765625 15.25 32.894531 15.222656 33.019531 15.171875 C 33.140625 15.117188 33.25 15.042969 33.34375 14.945312 L 36.457031 11.832031 L 36.457031 21.054688 C 36.453125 21.1875 36.476562 21.316406 36.527344 21.4375 C 36.578125 21.5625 36.648438 21.671875 36.742188 21.769531 C 36.835938 21.863281 36.945312 21.9375 37.066406 21.988281 C 37.191406 22.039062 37.320312 22.066406 37.453125 22.066406 C 37.585938 22.066406 37.714844 22.039062 37.839844 21.988281 C 37.960938 21.9375 38.070312 21.863281 38.164062 21.769531 C 38.257812 21.671875 38.328125 21.5625 38.378906 21.4375 C 38.429688 21.316406 38.453125 21.1875 38.449219 21.054688 L 38.449219 11.832031 L 41.5625 14.945312 C 41.65625 15.042969 41.765625 15.117188 41.886719 15.171875 C 42.011719 15.222656 42.140625 15.25 42.273438 15.253906 C 42.40625 15.253906 42.535156 15.230469 42.660156 15.179688 C 42.785156 15.128906 42.894531 15.054688 42.988281 14.960938 C 43.082031 14.867188 43.15625 14.757812 43.207031 14.632812 C 43.257812 14.507812 43.28125 14.378906 43.28125 14.246094 C 43.28125 14.109375 43.253906 13.980469 43.199219 13.859375 C 43.144531 13.734375 43.070312 13.628906 42.972656 13.535156 Z M 7.527344 14.996094 L 2.007812 20.519531 C 1.910156 20.613281 1.835938 20.71875 1.78125 20.84375 C 1.730469 20.964844 1.703125 21.09375 1.699219 21.230469 C 1.699219 21.363281 1.722656 21.492188 1.773438 21.617188 C 1.824219 21.742188 1.898438 21.851562 1.992188 21.945312 C 2.085938 22.039062 2.195312 22.113281 2.320312 22.164062 C 2.445312 22.214844 2.574219 22.238281 2.707031 22.238281 C 2.84375 22.234375 2.96875 22.207031 3.09375 22.15625 C 3.214844 22.101562 3.324219 22.027344 3.417969 21.929688 L 6.53125 18.816406 L 6.53125 28.039062 C 6.527344 28.171875 6.550781 28.300781 6.601562 28.425781 C 6.652344 28.546875 6.722656 28.65625 6.816406 28.753906 C 6.910156 28.847656 7.019531 28.921875 7.144531 28.972656 C 7.265625 29.023438 7.394531 29.050781 7.527344 29.050781 C 7.660156 29.050781 7.789062 29.023438 7.914062 28.972656 C 8.035156 28.921875 8.144531 28.847656 8.238281 28.753906 C 8.332031 28.65625 8.402344 28.546875 8.453125 28.425781 C 8.503906 28.300781 8.527344 28.171875 8.527344 28.039062 L 8.527344 18.816406 L 11.640625 21.929688 C 11.730469 22.027344 11.839844 22.101562 11.960938 22.15625 C 12.085938 22.207031 12.214844 22.234375 12.347656 22.238281 C 12.480469 22.238281 12.613281 22.214844 12.734375 22.164062 C 12.859375 22.113281 12.96875 22.039062 13.0625 21.945312 C 13.160156 21.851562 13.230469 21.742188 13.28125 21.617188 C 13.332031 21.492188 13.355469 21.363281 13.355469 21.230469 C 13.355469 21.09375 13.328125 20.964844 13.273438 20.84375 C 13.222656 20.71875 13.144531 20.613281 13.050781 20.519531 Z M 17.503906 16.0625 C 17.371094 16.0625 17.242188 16.089844 17.121094 16.140625 C 17 16.191406 16.890625 16.261719 16.796875 16.355469 C 16.703125 16.449219 16.632812 16.558594 16.582031 16.679688 C 16.53125 16.800781 16.503906 16.929688 16.503906 17.0625 L 16.503906 44.003906 C 16.503906 44.132812 16.53125 44.261719 16.582031 44.382812 C 16.632812 44.507812 16.703125 44.613281 16.796875 44.707031 C 16.890625 44.800781 17 44.875 17.121094 44.925781 C 17.242188 44.976562 17.371094 45 17.503906 45 L 27.476562 45 C 27.609375 45 27.738281 44.976562 27.859375 44.925781 C 27.980469 44.875 28.089844 44.800781 28.183594 44.707031 C 28.277344 44.613281 28.347656 44.507812 28.398438 44.382812 C 28.449219 44.261719 28.476562 44.132812 28.476562 44.003906 L 28.476562 17.0625 C 28.476562 16.929688 28.449219 16.800781 28.398438 16.679688 C 28.347656 16.558594 28.277344 16.449219 28.183594 16.355469 C 28.089844 16.261719 27.980469 16.191406 27.859375 16.140625 C 27.738281 16.089844 27.609375 16.0625 27.476562 16.0625 Z M 18.5 18.058594 L 26.480469 18.058594 L 26.480469 43.003906 L 18.5 43.003906 Z M 32.464844 24.046875 C 32.332031 24.046875 32.207031 24.070312 32.082031 24.121094 C 31.960938 24.171875 31.855469 24.246094 31.761719 24.339844 C 31.667969 24.433594 31.59375 24.539062 31.542969 24.664062 C 31.492188 24.785156 31.46875 24.910156 31.46875 25.042969 L 31.46875 44.003906 C 31.46875 44.132812 31.492188 44.261719 31.542969 44.382812 C 31.59375 44.507812 31.667969 44.613281 31.761719 44.707031 C 31.855469 44.800781 31.960938 44.875 32.085938 44.925781 C 32.207031 44.976562 32.332031 45 32.464844 45 L 42.441406 45 C 42.574219 45 42.699219 44.976562 42.824219 44.925781 C 42.945312 44.875 43.050781 44.800781 43.144531 44.707031 C 43.238281 44.613281 43.3125 44.507812 43.363281 44.382812 C 43.414062 44.261719 43.4375 44.132812 43.4375 44.003906 L 43.4375 25.042969 C 43.4375 24.910156 43.414062 24.785156 43.363281 24.664062 C 43.3125 24.539062 43.238281 24.433594 43.144531 24.339844 C 43.050781 24.246094 42.945312 24.171875 42.824219 24.121094 C 42.699219 24.070312 42.574219 24.046875 42.441406 24.046875 Z M 33.464844 26.042969 L 41.441406 26.042969 L 41.441406 43.003906 L 33.464844 43.003906 Z M 2.539062 31.03125 C 2.410156 31.03125 2.28125 31.054688 2.160156 31.105469 C 2.035156 31.15625 1.929688 31.230469 1.835938 31.324219 C 1.742188 31.417969 1.667969 31.523438 1.617188 31.648438 C 1.566406 31.769531 1.542969 31.898438 1.542969 32.027344 L 1.542969 44.003906 C 1.542969 44.132812 1.570312 44.261719 1.617188 44.382812 C 1.667969 44.507812 1.742188 44.613281 1.835938 44.707031 C 1.929688 44.800781 2.035156 44.875 2.160156 44.925781 C 2.28125 44.976562 2.410156 45 2.539062 45 L 12.515625 45 C 12.648438 45 12.773438 44.976562 12.898438 44.925781 C 13.019531 44.875 13.128906 44.800781 13.222656 44.707031 C 13.316406 44.613281 13.386719 44.507812 13.4375 44.382812 C 13.488281 44.261719 13.511719 44.132812 13.511719 44.003906 L 13.511719 32.027344 C 13.511719 31.898438 13.488281 31.769531 13.4375 31.648438 C 13.386719 31.523438 13.3125 31.417969 13.222656 31.324219 C 13.128906 31.230469 13.019531 31.15625 12.898438 31.105469 C 12.773438 31.054688 12.648438 31.03125 12.515625 31.03125 Z M 3.539062 33.027344 L 11.519531 33.027344 L 11.519531 43.003906 L 3.539062 43.003906 Z M 3.539062 33.027344 "/>
</g>
</g>
</svg>
