<svg id="svg16" height="512" viewBox="0 0 24 24" width="512" xmlns="http://www.w3.org/2000/svg"><path id="path909" d="m7.1230469 1.6113281c-.37039749-.04614283-.76657819.11016202-.98828125.49023438l-4.0625 6.9628906c-.18879114.32293284-.18073477.72507065.01953125 1.0410156.18458044.2903413.50556806.46478128.84960938.46289063l8.0625-.0351563c.88144784-.00335796 1.328049-1.0640666.71484375-1.6972656l-.89053399-.92003117c-.19205551-.19841697-.1451646-.45559562.11399735-.55070919.63963851-.23475014 1.3306606-.36519713 2.0577866-.36519713 3.3373978 0 6 2.6626022 6 6s-2.6626022 6-6 6c-2.2015312 0-4.0996672-1.1712899-5.1484375-2.9179688-.56911056-.94639904-1.7975715-1.2524213-2.7441406-.68359375-.947099.56845241-1.2540327 1.7970617-.68554688 2.7441406 1.7482418 2.9116166 4.9505777 4.8574219 8.578125 4.8574219 5.4991582 0 10-4.5008418 10-10s-4.5008418-10-10-10c-1.451478 0-2.832784.31762324-4.0823966.87954846-.25182484.11324048-.51239913.00093714-.5883775-.26454713l-.36828836-1.2868763c-.12167786-.42284955-.46749314-.67065405-.83789062-.71679688z" font-feature-settings="normal" font-variant-alternates="normal" font-variant-caps="normal" font-variant-east-asian="normal" font-variant-ligatures="normal" font-variant-numeric="normal" font-variant-position="normal" font-variation-settings="normal" inline-size="0" isolation="auto" mix-blend-mode="normal" paint-order="fill markers stroke" shape-margin="0" shape-padding="0" solid-color="rgb(0,0,0)" text-decoration-color="rgb(0,0,0)" text-decoration-line="none" text-decoration-style="solid" text-indent="0" text-orientation="mixed" text-transform="none" white-space="normal"/></svg>