<?xml version="1.0" encoding="UTF-8"?>
<svg xmlns="http://www.w3.org/2000/svg" xmlns:xlink="http://www.w3.org/1999/xlink" width="45pt" height="44.999999pt" viewBox="0 0 45 44.999999" version="1.2">
<defs>
<clipPath id="clip1">
  <path d="M 0 23 L 45 23 L 45 43.960938 L 0 43.960938 Z M 0 23 "/>
</clipPath>
<clipPath id="clip2">
  <path d="M 0 22 L 45 22 L 45 43.960938 L 0 43.960938 Z M 0 22 "/>
</clipPath>
<clipPath id="clip3">
  <path d="M 0 23 L 28 23 L 28 43.960938 L 0 43.960938 Z M 0 23 "/>
</clipPath>
<clipPath id="clip4">
  <path d="M 0 34 L 10 34 L 10 43.960938 L 0 43.960938 Z M 0 34 "/>
</clipPath>
<clipPath id="clip5">
  <path d="M 0 1.210938 L 45 1.210938 L 45 9 L 0 9 Z M 0 1.210938 "/>
</clipPath>
<clipPath id="clip6">
  <path d="M 0 1.210938 L 45 1.210938 L 45 10 L 0 10 Z M 0 1.210938 "/>
</clipPath>
<clipPath id="clip7">
  <path d="M 36 35 L 45 35 L 45 43.960938 L 36 43.960938 Z M 36 35 "/>
</clipPath>
<clipPath id="clip8">
  <path d="M 35 34 L 45 34 L 45 43.960938 L 35 43.960938 Z M 35 34 "/>
</clipPath>
</defs>
<g id="surface1">
<path style=" stroke:none;fill-rule:nonzero;fill:rgb(14.118958%,48.629761%,94.509888%);fill-opacity:1;" d="M 0.621094 23.601562 L 0.621094 22.707031 L 4.253906 14.191406 L 0.789062 9.546875 L 1.90625 8.25 L 43.09375 8.25 L 44.210938 9.546875 L 40.746094 14.191406 L 44.378906 22.707031 L 44.378906 23.601562 Z M 0.621094 23.601562 "/>
<path style=" stroke:none;fill-rule:nonzero;fill:rgb(14.118958%,48.629761%,94.509888%);fill-opacity:1;" d="M 42.824219 8.84375 L 43.453125 9.574219 L 40.476562 13.558594 L 40.066406 14.109375 L 40.335938 14.738281 L 43.785156 22.828125 L 43.785156 23.007812 L 1.214844 23.007812 L 1.214844 22.828125 L 4.664062 14.738281 L 4.933594 14.109375 L 4.523438 13.558594 L 1.546875 9.574219 L 2.175781 8.84375 L 42.824219 8.84375 M 43.363281 7.65625 L 1.636719 7.65625 L 0.03125 9.523438 L 3.578125 14.273438 L 0.03125 22.585938 L 0.03125 24.195312 L 44.96875 24.195312 L 44.96875 22.585938 L 41.421875 14.273438 L 44.96875 9.523438 Z M 43.363281 7.65625 "/>
<path style=" stroke:none;fill-rule:nonzero;fill:rgb(87.449646%,94.119263%,99.609375%);fill-opacity:1;" d="M 13.039062 24.367188 C 11.96875 24.367188 10.933594 23.9375 10.160156 23.179688 L 5.535156 23.179688 L 5.4375 22.707031 C 5.398438 22.519531 5.351562 22.269531 5.351562 21.992188 C 5.351562 20.027344 6.945312 18.429688 8.898438 18.429688 C 9.03125 18.429688 9.164062 18.4375 9.304688 18.457031 C 9.976562 17 11.417969 16.054688 13.039062 16.054688 C 13.296875 16.054688 13.554688 16.082031 13.820312 16.132812 C 14.285156 14.695312 15.628906 13.679688 17.179688 13.679688 C 17.453125 13.679688 17.726562 13.710938 18 13.78125 C 18.671875 12.964844 19.664062 12.492188 20.726562 12.492188 C 21.867188 12.492188 22.9375 13.054688 23.597656 13.972656 C 23.992188 13.777344 24.421875 13.679688 24.863281 13.679688 C 25.597656 13.679688 26.296875 13.953125 26.832031 14.4375 C 27.453125 13.949219 28.214844 13.679688 29.003906 13.679688 C 30.640625 13.679688 32.019531 14.792969 32.429688 16.308594 C 32.84375 16.140625 33.285156 16.054688 33.734375 16.054688 C 35.261719 16.054688 36.585938 17.027344 37.078125 18.433594 C 37.144531 18.429688 37.214844 18.429688 37.28125 18.429688 C 39.238281 18.429688 40.832031 20.027344 40.832031 21.992188 C 40.832031 22.21875 40.804688 22.449219 40.753906 22.703125 L 40.65625 23.179688 L 15.917969 23.179688 C 15.144531 23.9375 14.109375 24.367188 13.039062 24.367188 Z M 13.039062 24.367188 "/>
<path style=" stroke:none;fill-rule:nonzero;fill:rgb(14.118958%,48.629761%,94.509888%);fill-opacity:1;" d="M 20.726562 13.085938 C 21.910156 13.085938 22.925781 13.789062 23.394531 14.796875 C 23.800781 14.472656 24.308594 14.273438 24.863281 14.273438 C 25.664062 14.273438 26.371094 14.671875 26.796875 15.285156 C 27.339844 14.667969 28.121094 14.273438 29.003906 14.273438 C 30.636719 14.273438 31.960938 15.601562 31.960938 17.242188 C 31.960938 17.246094 31.960938 17.25 31.960938 17.253906 C 32.457031 16.878906 33.066406 16.648438 33.734375 16.648438 C 35.191406 16.648438 36.394531 17.703125 36.640625 19.09375 C 36.847656 19.046875 37.0625 19.023438 37.28125 19.023438 C 38.914062 19.023438 40.238281 20.351562 40.238281 21.992188 C 40.238281 22.195312 40.214844 22.390625 40.175781 22.585938 L 15.664062 22.585938 C 15.015625 23.308594 14.085938 23.773438 13.039062 23.773438 C 11.992188 23.773438 11.0625 23.308594 10.414062 22.585938 L 6.015625 22.585938 C 5.976562 22.390625 5.941406 22.195312 5.941406 21.992188 C 5.941406 20.351562 7.265625 19.023438 8.898438 19.023438 C 9.167969 19.023438 9.425781 19.070312 9.671875 19.136719 C 10.128906 17.699219 11.453125 16.648438 13.039062 16.648438 C 13.46875 16.648438 13.875 16.734375 14.257812 16.875 C 14.4375 15.410156 15.667969 14.273438 17.179688 14.273438 C 17.550781 14.273438 17.902344 14.347656 18.230469 14.476562 C 18.753906 13.640625 19.671875 13.085938 20.726562 13.085938 M 20.726562 11.898438 C 19.605469 11.898438 18.558594 12.347656 17.789062 13.132812 C 17.585938 13.101562 17.382812 13.085938 17.179688 13.085938 C 15.546875 13.085938 14.105469 14.054688 13.445312 15.476562 C 13.308594 15.464844 13.171875 15.460938 13.039062 15.460938 C 11.324219 15.460938 9.789062 16.382812 8.957031 17.835938 C 8.9375 17.835938 8.917969 17.835938 8.898438 17.835938 C 6.617188 17.835938 4.761719 19.699219 4.761719 21.992188 C 4.761719 22.320312 4.8125 22.609375 4.855469 22.824219 L 5.054688 23.773438 L 9.929688 23.773438 C 10.789062 24.53125 11.894531 24.960938 13.039062 24.960938 C 14.183594 24.960938 15.289062 24.53125 16.148438 23.773438 L 41.140625 23.773438 L 41.332031 22.820312 C 41.394531 22.527344 41.421875 22.257812 41.421875 21.992188 C 41.421875 19.761719 39.667969 17.9375 37.472656 17.839844 C 36.804688 16.414062 35.367188 15.460938 33.734375 15.460938 C 33.414062 15.460938 33.101562 15.496094 32.792969 15.570312 C 32.152344 14.109375 30.695312 13.085938 29.003906 13.085938 C 28.242188 13.085938 27.496094 13.300781 26.851562 13.699219 C 26.273438 13.304688 25.582031 13.085938 24.863281 13.085938 C 24.492188 13.085938 24.125 13.144531 23.777344 13.257812 C 23.003906 12.40625 21.898438 11.898438 20.726562 11.898438 Z M 20.726562 11.898438 "/>
<path style=" stroke:none;fill-rule:nonzero;fill:rgb(59.609985%,79.998779%,99.21875%);fill-opacity:1;" d="M 36.691406 19.617188 C 36.691406 17.976562 35.367188 16.648438 33.734375 16.648438 C 33.066406 16.648438 32.457031 16.878906 31.960938 17.253906 C 31.960938 17.25 31.960938 17.246094 31.960938 17.242188 C 31.960938 15.601562 30.636719 14.273438 29.003906 14.273438 C 28.121094 14.273438 27.339844 14.667969 26.796875 15.285156 C 26.371094 14.671875 25.664062 14.273438 24.863281 14.273438 C 24.308594 14.273438 23.800781 14.472656 23.394531 14.796875 C 22.925781 13.789062 21.910156 13.085938 20.726562 13.085938 C 19.671875 13.085938 18.753906 13.640625 18.230469 14.476562 C 17.902344 14.347656 17.550781 14.273438 17.179688 14.273438 C 15.667969 14.273438 14.4375 15.410156 14.257812 16.875 C 13.875 16.734375 13.46875 16.648438 13.039062 16.648438 C 11.078125 16.648438 9.492188 18.242188 9.492188 20.210938 C 9.492188 22.175781 11.078125 23.773438 13.039062 23.773438 C 14.085938 23.773438 15.015625 23.308594 15.664062 22.585938 L 34.324219 22.585938 L 34.324219 22.523438 C 35.675781 22.25 36.691406 21.050781 36.691406 19.617188 Z M 36.691406 19.617188 "/>
<path style=" stroke:none;fill-rule:nonzero;fill:rgb(100%,87.059021%,34.899902%);fill-opacity:1;" d="M 40.175781 22.585938 C 40.214844 22.390625 40.238281 22.195312 40.238281 21.992188 C 40.238281 20.351562 38.914062 19.023438 37.28125 19.023438 C 36.402344 19.023438 35.617188 19.417969 35.074219 20.035156 C 34.648438 19.421875 33.941406 19.023438 33.144531 19.023438 C 31.835938 19.023438 30.777344 20.085938 30.777344 21.398438 C 30.777344 21.515625 30.796875 21.628906 30.8125 21.746094 C 30.457031 21.527344 30.042969 21.398438 29.59375 21.398438 C 29.152344 21.398438 28.742188 21.527344 28.386719 21.738281 C 28.257812 20.21875 27.003906 19.023438 25.457031 19.023438 C 24.699219 19.023438 24.015625 19.316406 23.492188 19.785156 C 23.078125 18.648438 22 17.835938 20.726562 17.835938 C 19.671875 17.835938 18.753906 18.390625 18.230469 19.226562 C 17.902344 19.097656 17.550781 19.023438 17.179688 19.023438 C 16.296875 19.023438 15.511719 19.417969 14.972656 20.035156 C 14.542969 19.421875 13.839844 19.023438 13.039062 19.023438 C 12.238281 19.023438 11.535156 19.421875 11.105469 20.035156 C 10.566406 19.417969 9.78125 19.023438 8.898438 19.023438 C 7.265625 19.023438 5.941406 20.351562 5.941406 21.992188 C 5.941406 22.195312 5.976562 22.390625 6.015625 22.585938 Z M 40.175781 22.585938 "/>
<g clip-path="url(#clip1)" clip-rule="nonzero">
<path style=" stroke:none;fill-rule:nonzero;fill:rgb(59.609985%,79.998779%,99.21875%);fill-opacity:1;" d="M 0.621094 23.179688 L 44.378906 23.179688 L 44.378906 43.367188 L 0.621094 43.367188 Z M 0.621094 23.179688 "/>
</g>
<g clip-path="url(#clip2)" clip-rule="nonzero">
<path style=" stroke:none;fill-rule:nonzero;fill:rgb(14.118958%,48.629761%,94.509888%);fill-opacity:1;" d="M 43.785156 23.773438 L 43.785156 42.773438 L 1.214844 42.773438 L 1.214844 23.773438 L 43.785156 23.773438 M 44.96875 22.585938 L 0.03125 22.585938 L 0.03125 43.960938 L 44.96875 43.960938 Z M 44.96875 22.585938 "/>
</g>
<path style=" stroke:none;fill-rule:nonzero;fill:rgb(14.118958%,48.629761%,94.509888%);fill-opacity:1;" d="M 1.214844 29.710938 L 43.785156 29.710938 L 43.785156 30.898438 L 1.214844 30.898438 Z M 1.214844 36.835938 L 43.785156 36.835938 L 43.785156 38.023438 L 1.214844 38.023438 Z M 1.214844 36.835938 "/>
<g clip-path="url(#clip3)" clip-rule="nonzero">
<path style=" stroke:none;fill-rule:nonzero;fill:rgb(87.449646%,94.119263%,99.609375%);fill-opacity:1;" d="M 17.769531 23.773438 L 17.769531 27.335938 C 17.769531 29.945312 19.898438 32.085938 22.5 32.085938 C 25.101562 32.085938 27.230469 29.945312 27.230469 27.335938 L 27.230469 23.773438 Z M 8.308594 43.960938 C 8.308594 39.171875 4.933594 35.648438 0.03125 35.648438 L 0.03125 43.960938 Z M 8.308594 43.960938 "/>
</g>
<g clip-path="url(#clip4)" clip-rule="nonzero">
<path style=" stroke:none;fill-rule:nonzero;fill:rgb(14.118958%,48.629761%,94.509888%);fill-opacity:1;" d="M 1.214844 35.648438 L 1.214844 42.773438 L 8.308594 42.773438 L 9.492188 43.960938 L 0.03125 43.960938 L 0.03125 34.460938 Z M 1.214844 35.648438 "/>
</g>
<g clip-path="url(#clip5)" clip-rule="nonzero">
<path style=" stroke:none;fill-rule:nonzero;fill:rgb(59.609985%,79.998779%,99.21875%);fill-opacity:1;" d="M 0.652344 8.929688 C 0.808594 7.105469 1.722656 1.804688 7.125 1.804688 L 37.875 1.804688 C 43.234375 1.804688 44.175781 7.101562 44.34375 8.929688 Z M 0.652344 8.929688 "/>
</g>
<g clip-path="url(#clip6)" clip-rule="nonzero">
<path style=" stroke:none;fill-rule:nonzero;fill:rgb(14.118958%,48.629761%,94.509888%);fill-opacity:1;" d="M 37.875 2.398438 C 42.210938 2.398438 43.367188 6.296875 43.675781 8.335938 L 1.316406 8.335938 C 1.613281 6.300781 2.753906 2.398438 7.125 2.398438 L 37.875 2.398438 M 37.875 1.210938 C 31.554688 1.210938 13.445312 1.210938 7.125 1.210938 C 0.0585938 1.210938 0.03125 9.523438 0.03125 9.523438 L 44.96875 9.523438 C 44.96875 9.523438 44.886719 1.210938 37.875 1.210938 Z M 37.875 1.210938 "/>
</g>
<path style=" stroke:none;fill-rule:nonzero;fill:rgb(87.449646%,94.119263%,99.609375%);fill-opacity:1;" d="M 17.769531 8.335938 C 17.769531 5.675781 19.898438 3.585938 22.5 3.585938 C 25.101562 3.585938 27.230469 5.675781 27.230469 8.335938 Z M 17.769531 8.335938 "/>
<path style=" stroke:none;fill-rule:nonzero;fill:rgb(14.118958%,48.629761%,94.509888%);fill-opacity:1;" d="M 15.320312 17.75 L 17.683594 15.375 L 20.046875 17.75 L 17.683594 20.125 Z M 15.320312 17.75 "/>
<path style=" stroke:none;fill-rule:nonzero;fill:rgb(14.118958%,48.629761%,94.509888%);fill-opacity:1;" d="M 26.046875 19.023438 L 28.414062 16.648438 L 30.777344 19.023438 L 28.414062 21.398438 Z M 26.046875 19.023438 "/>
<g clip-path="url(#clip7)" clip-rule="nonzero">
<path style=" stroke:none;fill-rule:nonzero;fill:rgb(87.449646%,94.119263%,99.609375%);fill-opacity:1;" d="M 36.691406 43.960938 C 36.691406 39.171875 40.066406 35.648438 44.96875 35.648438 L 44.96875 43.960938 Z M 36.691406 43.960938 "/>
</g>
<g clip-path="url(#clip8)" clip-rule="nonzero">
<path style=" stroke:none;fill-rule:nonzero;fill:rgb(14.118958%,48.629761%,94.509888%);fill-opacity:1;" d="M 43.785156 35.648438 L 43.785156 42.773438 L 36.691406 42.773438 L 35.507812 43.960938 L 44.96875 43.960938 L 44.96875 34.460938 Z M 43.785156 35.648438 "/>
</g>
</g>
</svg>
