<?xml version="1.0" encoding="UTF-8"?>
<svg xmlns="http://www.w3.org/2000/svg" xmlns:xlink="http://www.w3.org/1999/xlink" width="45pt" height="44.999999pt" viewBox="0 0 45 44.999999" version="1.2">
<g id="surface1">
<path style=" stroke:none;fill-rule:nonzero;fill:rgb(100%,100%,100%);fill-opacity:1;" d="M 22.5 0 C 10.074219 0 0 10.074219 0 22.5 C 0 34.925781 10.074219 45 22.5 45 C 34.925781 45 45 34.925781 45 22.5 C 45 10.074219 34.925781 0 22.5 0 Z M 22.5 39.375 C 13.179688 39.375 5.625 31.820312 5.625 22.5 C 5.625 13.179688 13.179688 5.625 22.5 5.625 C 31.820312 5.625 39.375 13.179688 39.375 22.5 C 39.375 31.820312 31.820312 39.375 22.5 39.375 Z M 22.5 39.375 "/>
<path style=" stroke:none;fill-rule:nonzero;fill:rgb(100%,100%,100%);fill-opacity:1;" d="M 33.046875 19.6875 L 11.953125 19.6875 C 10.398438 19.6875 9.140625 20.945312 9.140625 22.5 C 9.140625 24.054688 10.398438 25.3125 11.953125 25.3125 L 33.046875 25.3125 C 34.601562 25.3125 35.859375 24.054688 35.859375 22.5 C 35.859375 20.945312 34.601562 19.6875 33.046875 19.6875 Z M 33.046875 19.6875 "/>
</g>
</svg>
