<?xml version="1.0" encoding="UTF-8"?>
<svg xmlns="http://www.w3.org/2000/svg" xmlns:xlink="http://www.w3.org/1999/xlink" width="45pt" height="44.999999pt" viewBox="0 0 45 44.999999" version="1.2">
<defs>
<clipPath id="clip1">
  <path d="M 0 6.101562 L 45 6.101562 L 45 39.101562 L 0 39.101562 Z M 0 6.101562 "/>
</clipPath>
</defs>
<g id="surface1">
<path style=" stroke:none;fill-rule:nonzero;fill:rgb(100%,100%,100%);fill-opacity:1;" d="M 20.207031 22.347656 L 21.636719 21.773438 C 19.65625 16.800781 14.949219 13.332031 9.636719 12.953125 L 7.132812 12.773438 L 7.023438 14.316406 L 9.527344 14.496094 C 14.253906 14.835938 18.445312 17.921875 20.207031 22.347656 "/>
<g clip-path="url(#clip1)" clip-rule="nonzero">
<path style=" stroke:none;fill-rule:nonzero;fill:rgb(100%,100%,100%);fill-opacity:1;" d="M 42.304688 22.308594 C 42.972656 26.003906 42.972656 29.75 42.304688 33.441406 C 42.164062 34.222656 42.414062 35.023438 42.96875 35.582031 L 43.164062 35.777344 C 43.328125 35.941406 43.417969 36.160156 43.417969 36.394531 C 43.417969 36.621094 43.328125 36.84375 43.164062 37.007812 C 42.828125 37.34375 42.28125 37.34375 41.945312 37.007812 L 41.695312 36.753906 C 41.152344 36.207031 40.378906 35.953125 39.621094 36.074219 L 32.761719 37.164062 C 29.5625 37.671875 26.316406 37.671875 23.117188 37.164062 L 16.257812 36.070312 C 15.503906 35.960938 14.726562 36.207031 14.1875 36.753906 L 13.933594 37.007812 C 13.597656 37.34375 13.050781 37.34375 12.714844 37.007812 C 12.378906 36.667969 12.378906 36.117188 12.714844 35.777344 L 12.910156 35.582031 C 13.464844 35.023438 13.714844 34.222656 13.574219 33.441406 C 13.273438 31.785156 13.117188 30.097656 13.085938 28.410156 C 14.382812 28.570312 15.683594 28.652344 16.984375 28.652344 C 18.675781 28.652344 20.367188 28.519531 22.042969 28.25 L 28.902344 27.160156 C 29.175781 27.113281 29.453125 27.207031 29.648438 27.40625 L 29.902344 27.65625 C 30.839844 28.597656 32.359375 28.597656 33.296875 27.65625 C 33.75 27.203125 34 26.59375 34 25.945312 C 34 25.304688 33.75 24.695312 33.296875 24.238281 L 33.101562 24.042969 C 32.902344 23.84375 32.8125 23.554688 32.863281 23.273438 C 33.140625 21.75 33.304688 20.21875 33.359375 18.6875 L 39.621094 19.679688 C 40.375 19.792969 41.152344 19.542969 41.691406 18.996094 L 41.945312 18.746094 C 42.269531 18.417969 42.835938 18.417969 43.164062 18.746094 C 43.328125 18.910156 43.417969 19.128906 43.417969 19.359375 C 43.417969 19.589844 43.328125 19.8125 43.164062 19.972656 L 42.96875 20.167969 C 42.414062 20.730469 42.164062 21.527344 42.304688 22.308594 Z M 4.929688 25.601562 C 4.296875 25.601562 3.679688 25.851562 3.230469 26.308594 L 2.976562 26.5625 C 2.640625 26.898438 2.09375 26.898438 1.757812 26.5625 C 1.597656 26.398438 1.507812 26.179688 1.507812 25.945312 C 1.507812 25.714844 1.597656 25.5 1.757812 25.332031 L 1.953125 25.136719 C 2.507812 24.578125 2.757812 23.777344 2.617188 23 C 1.949219 19.304688 1.949219 15.558594 2.617188 11.867188 C 2.757812 11.085938 2.507812 10.285156 1.953125 9.726562 L 1.757812 9.527344 C 1.597656 9.367188 1.507812 9.148438 1.507812 8.914062 C 1.507812 8.683594 1.597656 8.46875 1.757812 8.300781 C 2.09375 7.960938 2.640625 7.960938 2.976562 8.300781 L 3.230469 8.554688 C 3.773438 9.101562 4.542969 9.355469 5.300781 9.234375 L 12.160156 8.144531 C 15.359375 7.636719 18.605469 7.636719 21.804688 8.144531 L 28.667969 9.234375 C 29.421875 9.351562 30.195312 9.101562 30.738281 8.554688 L 30.988281 8.300781 C 31.324219 7.960938 31.871094 7.960938 32.210938 8.300781 C 32.546875 8.640625 32.546875 9.191406 32.210938 9.527344 L 32.015625 9.726562 C 31.457031 10.285156 31.207031 11.085938 31.351562 11.867188 C 32.015625 15.558594 32.015625 19.304688 31.351562 23 C 31.207031 23.777344 31.457031 24.578125 32.015625 25.136719 L 32.210938 25.332031 C 32.546875 25.671875 32.546875 26.222656 32.210938 26.5625 C 31.871094 26.898438 31.324219 26.898438 30.988281 26.5625 L 30.738281 26.308594 C 30.195312 25.761719 29.421875 25.507812 28.667969 25.628906 L 21.804688 26.722656 C 18.605469 27.230469 15.359375 27.230469 12.160156 26.722656 L 5.300781 25.628906 C 5.179688 25.613281 5.054688 25.601562 4.929688 25.601562 Z M 44.253906 21.070312 C 44.707031 20.613281 44.957031 20.003906 44.957031 19.359375 C 44.957031 18.714844 44.707031 18.109375 44.253906 17.652344 C 43.347656 16.738281 41.765625 16.738281 40.855469 17.648438 L 40.605469 17.902344 C 40.414062 18.097656 40.132812 18.1875 39.859375 18.148438 L 33.382812 17.117188 C 33.363281 15.269531 33.195312 13.425781 32.863281 11.589844 C 32.8125 11.308594 32.902344 11.019531 33.101562 10.820312 L 33.296875 10.625 C 33.75 10.171875 34 9.5625 34 8.914062 C 34 8.269531 33.75 7.664062 33.296875 7.207031 C 32.359375 6.265625 30.839844 6.265625 29.902344 7.207031 L 29.648438 7.460938 C 29.457031 7.65625 29.179688 7.746094 28.902344 7.707031 L 22.042969 6.613281 C 18.6875 6.078125 15.28125 6.078125 11.921875 6.613281 L 5.0625 7.707031 C 4.789062 7.75 4.515625 7.65625 4.320312 7.460938 L 4.066406 7.207031 C 3.128906 6.265625 1.605469 6.265625 0.671875 7.207031 C 0.21875 7.664062 -0.03125 8.269531 -0.03125 8.914062 C -0.03125 9.5625 0.21875 10.171875 0.671875 10.625 L 0.867188 10.820312 C 1.0625 11.019531 1.15625 11.308594 1.101562 11.589844 C 0.402344 15.464844 0.402344 19.398438 1.101562 23.273438 C 1.15625 23.554688 1.0625 23.84375 0.863281 24.046875 L 0.671875 24.238281 C 0.21875 24.695312 -0.03125 25.304688 -0.03125 25.945312 C -0.03125 26.59375 0.21875 27.203125 0.671875 27.65625 C 1.605469 28.597656 3.128906 28.597656 4.066406 27.65625 L 4.320312 27.40625 C 4.515625 27.207031 4.789062 27.117188 5.0625 27.160156 L 11.546875 28.1875 C 11.566406 30.042969 11.730469 31.898438 12.058594 33.714844 C 12.109375 33.996094 12.019531 34.285156 11.820312 34.488281 L 11.625 34.683594 C 10.691406 35.625 10.691406 37.15625 11.625 38.101562 C 12.5625 39.042969 14.085938 39.042969 15.023438 38.101562 L 15.273438 37.847656 C 15.464844 37.652344 15.746094 37.558594 16.019531 37.601562 L 22.878906 38.695312 C 24.554688 38.960938 26.246094 39.09375 27.9375 39.09375 C 29.632812 39.09375 31.324219 38.960938 33 38.695312 L 39.859375 37.605469 C 40.136719 37.558594 40.414062 37.652344 40.605469 37.847656 L 40.855469 38.101562 C 41.792969 39.042969 43.316406 39.042969 44.253906 38.101562 C 44.707031 37.644531 44.957031 37.035156 44.957031 36.394531 C 44.957031 35.746094 44.707031 35.140625 44.253906 34.683594 L 44.058594 34.488281 C 43.859375 34.285156 43.769531 33.996094 43.820312 33.714844 C 44.519531 29.839844 44.519531 25.910156 43.820312 22.035156 C 43.769531 21.753906 43.859375 21.464844 44.058594 21.261719 L 44.253906 21.070312 "/>
</g>
<path style=" stroke:none;fill-rule:nonzero;fill:rgb(100%,100%,100%);fill-opacity:1;" d="M 25.007812 33.117188 L 22.5 33.300781 L 22.609375 34.839844 L 25.113281 34.660156 C 30.425781 34.277344 35.136719 30.816406 37.117188 25.839844 L 35.6875 25.265625 C 33.929688 29.695312 29.734375 32.777344 25.007812 33.117188 "/>
</g>
</svg>
