<?xml version="1.0" encoding="UTF-8"?>
<svg enable-background="new 0 0 512 512" version="1.1" viewBox="0 0 512 512" xml:space="preserve" xmlns="http://www.w3.org/2000/svg"><g xmlns="http://www.w3.org/2000/svg"><g fill=""><path d="m96.018 325.99c-49.619 0-89.988 40.369-89.988 89.992 0 49.617 40.369 89.986 89.988 89.986 49.618 0 89.988-40.369 89.988-89.986 0-49.623-40.37-89.992-89.988-89.992zm0 159.98c-38.593 0-69.992-31.398-69.992-69.991 0-38.597 31.399-69.989 69.992-69.989 38.592 0 69.991 31.396 69.991 69.989 0 38.59-31.4 69.991-69.991 69.991z" data-original="#000000"/><path d="m415.98 186.01c49.623 0 89.986-40.369 89.986-89.988 0-49.623-40.363-89.993-89.986-89.993-49.619 0-89.988 40.37-89.988 89.993 0 49.619 40.369 89.988 89.988 89.988zm0-159.98c38.592 0 69.988 31.399 69.988 69.996 0 38.593-31.396 69.991-69.988 69.991-38.594 0-69.992-31.396-69.992-69.991 0-38.597 31.401-69.996 69.992-69.996z" data-original="#000000"/><path d="m495.98 325.99h-159.98c-5.521 0-9.996 4.477-9.996 10v159.98c0 5.523 4.477 10 9.996 10h159.98c5.523 0 9.996-4.477 9.996-10v-159.98c3e-3 -5.523-4.47-10-9.993-10zm-10.002 159.98h-139.98v-139.98h139.98z" data-original="#000000"/><path d="m92.639 305.4c2.755 0.996 5.749 0.687 8.092-0.586 1.829-0.976 0.855-0.25 32.357-31.74 3.902-3.906 3.902-10.236 0-14.145-3.906-3.906-10.235-3.906-14.143 0l-11.152 11.154c12.682-92.542 92.239-164.07 188.2-164.07 5.523 0 10-4.478 10-9.996 0-5.522-4.477-10.001-10-10.001-108.05 0-197.28 82.034-208.72 187.08l-14.183-14.17c-3.9-3.906-10.234-3.906-14.141 0-3.902 3.906-3.902 10.236 0 14.145 32.124 32.106 30.816 31.284 33.69 32.323z" data-original="#000000"/><path d="m304.811 420.701c1.538-2.888 1.528-6.217.236-8.949-.999-2.184-.664-1.516-31.975-32.836-3.906-3.902-10.234-3.902-14.141 0-3.904 3.906-3.904 10.236 0 14.143l12.93 12.927h-55.854c-5.523 0-9.996 4.478-9.996 10 0 5.519 4.473 9.997 9.996 9.997h55.854l-12.93 12.932c-3.904 3.9-3.904 10.234 0 14.137 3.904 3.906 10.232 3.906 14.141 0 30.93-30.949 30.941-30.707 31.739-32.351z" data-original="#000000"/><path d="m415.982 305.994c5.521 0 10-4.477 10-9.996v-55.854l12.926 12.931c3.906 3.901 10.234 3.901 14.143 0 3.902-3.906 3.902-10.24 0-14.146-32.051-32.041-30.779-31.279-33.705-32.332-3.146-1.112-6.409-.588-8.916 1.094-1.355.908-.063-.205-31.516 31.238-3.902 3.906-3.902 10.24 0 14.146 3.906 3.901 10.234 3.901 14.141 0l12.934-12.931v55.854c-.003 5.52 4.47 9.996 9.993 9.996z" data-original="#000000"/></g></g></svg>
