<svg width="512" height="512" viewBox="0 0 512 512" fill="none" xmlns="http://www.w3.org/2000/svg">
<path d="M436 0H76C51.186 0 31 20.186 31 45V467C31 491.814 51.186 512 76 512H436C460.814 512 481 491.814 481 467V45C481 20.186 460.814 0 436 0Z" fill="url(#paint0_linear_456_84)"/>
<path d="M376 151C400.814 151 421 130.814 421 106C421 81.186 400.814 61 376 61C351.186 61 331 81.186 331 106C331 130.814 351.186 151 376 151ZM386.624 185.413C380.768 179.542 371.196 179.578 365.376 185.413L335.394 215.395C329.535 221.254 329.535 230.747 335.394 236.606C341.253 242.465 350.746 242.465 356.605 236.606L361 232.211V256C361 280.814 340.814 301 316 301H196C158.961 301 128.324 328.039 122.274 363.368C104.198 369.21 91 386.001 91 406C91 430.814 111.186 451 136 451C160.814 451 181 430.814 181 406C181 387.109 169.267 370.965 152.736 364.303C157.921 345.178 175.258 331 196 331H316C357.367 331 391 297.353 391 256V232.211L395.395 236.606C401.254 242.465 410.746 242.466 416.606 236.606C422.465 230.747 422.465 221.254 416.606 215.395L386.624 185.413ZM377.816 374.184C371.957 368.325 362.464 368.325 356.605 374.184L346 384.789L335.395 374.184C329.536 368.325 320.043 368.325 314.184 374.184C308.325 380.043 308.325 389.536 314.184 395.395L324.789 406L314.184 416.605C308.325 422.464 308.325 431.957 314.184 437.816C320.043 443.675 329.535 443.676 335.395 437.816L346 427.211L356.605 437.816C362.464 443.675 371.956 443.676 377.816 437.816C383.675 431.957 383.675 422.464 377.816 416.605L367.211 406L377.816 395.395C383.676 389.535 383.676 380.043 377.816 374.184ZM104.184 257.816C110.043 263.675 119.535 263.676 125.395 257.816L136 247.211L146.605 257.816C152.464 263.675 161.956 263.676 167.816 257.816C173.675 251.957 173.675 242.464 167.816 236.605L157.211 226L167.816 215.395C173.675 209.536 173.675 200.043 167.816 194.184C161.957 188.325 152.464 188.325 146.605 194.184L136 204.789L125.395 194.184C119.536 188.325 110.043 188.325 104.184 194.184C98.325 200.043 98.325 209.536 104.184 215.395L114.789 226L104.184 236.605C98.324 242.465 98.324 251.957 104.184 257.816ZM224.184 167.816C230.043 173.675 239.535 173.676 245.395 167.816L256 157.211L266.605 167.816C272.464 173.675 281.956 173.676 287.816 167.816C293.675 161.957 293.675 152.464 287.816 146.605L277.211 136L287.816 125.395C293.675 119.536 293.675 110.043 287.816 104.184C281.957 98.325 272.464 98.325 266.605 104.184L256 114.789L245.395 104.184C239.536 98.325 230.043 98.325 224.184 104.184C218.325 110.043 218.325 119.536 224.184 125.395L234.789 136L224.184 146.605C218.324 152.465 218.324 161.957 224.184 167.816V167.816Z" fill="url(#paint1_linear_456_84)"/>
<defs>
<linearGradient id="paint0_linear_456_84" x1="256" y1="512" x2="256" y2="0" gradientUnits="userSpaceOnUse">
<stop stop-color="#01B7A8"/>
<stop offset="1" stop-color="#81FFE8"/>
</linearGradient>
<linearGradient id="paint1_linear_456_84" x1="256" y1="451" x2="256" y2="61" gradientUnits="userSpaceOnUse">
<stop stop-color="#BEFFF7"/>
<stop offset="1" stop-color="#F1FFFD"/>
</linearGradient>
</defs>
</svg>
