<svg id="Capa_1" enable-background="new 0 0 512 512" height="512" viewBox="0 0 512 512" width="512" xmlns="http://www.w3.org/2000/svg"><g><circle cx="256" cy="256" fill="#ff5d5c" r="256"/><path d="m512 256c0 141.38-114.62 256-256 256v-512c141.38 0 256 114.62 256 256z" fill="#e00f5b"/><circle cx="256" cy="256" fill="#f5f0ef" r="192"/><path d="m448 256c0 106.04-85.96 192-192 192v-384c106.04 0 192 85.96 192 192z" fill="#e0d2ce"/><circle cx="256" cy="256" fill="#ff5d5c" r="128"/><path d="m384 256c0 70.69-57.31 128-128 128v-256c70.69 0 128 57.31 128 128z" fill="#e00f5b"/><circle cx="256" cy="256" fill="#f5f0ef" r="64"/><path d="m320 256c0 35.35-28.65 64-64 64v-128c35.35 0 64 28.65 64 64z" fill="#e0d2ce"/><path d="m418.99 114.23-162.99 162.99-21.21-21.21 21.21-21.21 141.77-141.78z" fill="#49458a"/><path d="m418.99 114.23-162.99 162.99v-42.42l141.77-141.78z" fill="#3d3973"/><path d="m417.99 152.886 70-70-39.954-18.922-18.922-39.954-70 70 18.922 39.954z" fill="#647cff"/></g></svg>