<svg width="512" height="512" viewBox="0 0 512 512" fill="none" xmlns="http://www.w3.org/2000/svg">
<path d="M269.01 38.535C266.336 33.874 261.373 31 256 31C250.627 31 245.664 33.874 242.99 38.535L1.99 458.535C-0.674 463.177 -0.662 468.887 2.02 473.517C4.702 478.148 9.648 481 15 481H497C502.352 481 507.298 478.148 509.98 473.517C512.662 468.886 512.673 463.176 510.01 458.535L269.01 38.535ZM15 301H46C54.284 301 61 294.284 61 286C61 277.716 54.284 271 46 271H15C6.716 271 0 277.716 0 286C0 294.284 6.716 301 15 301ZM451 286C451 294.284 457.716 301 466 301H497C505.284 301 512 294.284 512 286C512 277.716 505.284 271 497 271H466C457.716 271 451 277.716 451 286ZM353.5 117.125C360.653 121.256 369.836 118.831 373.99 111.635L388.99 85.654C393.132 78.48 390.674 69.306 383.5 65.164C376.325 61.02 367.151 63.479 363.01 70.654L348.01 96.635C343.868 103.809 346.326 112.983 353.5 117.125V117.125ZM40.654 178.99L66.635 193.99C73.788 198.121 82.971 195.696 87.125 188.5C91.267 181.326 88.809 172.152 81.635 168.01L55.654 153.01C48.479 148.866 39.305 151.326 35.164 158.5C31.022 165.674 33.48 174.848 40.654 178.99V178.99ZM138.01 111.635C142.179 118.856 151.373 121.241 158.5 117.125C165.674 112.983 168.132 103.809 163.99 96.635L148.99 70.654C144.848 63.48 135.674 61.021 128.5 65.164C121.326 69.306 118.868 78.48 123.01 85.654L138.01 111.635ZM445.365 193.99L471.346 178.99C478.52 174.848 480.978 165.674 476.836 158.5C472.694 151.326 463.52 148.867 456.346 153.01L430.365 168.01C423.191 172.152 420.733 181.326 424.875 188.5C429.044 195.721 438.238 198.106 445.365 193.99Z" fill="url(#paint0_linear_456_74)"/>
<path d="M359.417 339.292C358.022 336.503 324.483 271 256 271C187.517 271 153.978 336.503 152.583 339.292C150.472 343.515 150.472 348.485 152.583 352.708C153.978 355.497 187.517 421 256 421C324.483 421 358.022 355.497 359.417 352.708C361.528 348.485 361.528 343.515 359.417 339.292ZM256 361C247.716 361 241 354.284 241 346C241 337.716 247.716 331 256 331C264.284 331 271 337.716 271 346C271 354.284 264.284 361 256 361V361Z" fill="url(#paint1_linear_456_74)"/>
<defs>
<linearGradient id="paint0_linear_456_74" x1="256" y1="481" x2="256" y2="31" gradientUnits="userSpaceOnUse">
<stop stop-color="#01B7A8"/>
<stop offset="1" stop-color="#81FFE8"/>
</linearGradient>
<linearGradient id="paint1_linear_456_74" x1="256" y1="421" x2="256" y2="271" gradientUnits="userSpaceOnUse">
<stop stop-color="#BEFFF7"/>
<stop offset="1" stop-color="#F1FFFD"/>
</linearGradient>
</defs>
</svg>
