<svg width="512" height="512" viewBox="0 0 512 512" fill="none" xmlns="http://www.w3.org/2000/svg">
<g clip-path="url(#clip0_453_34)">
<path d="M256 431C223.206 431 189.315 422.019 155.27 404.307C128.594 390.43 101.739 371.167 75.449 347.055C31.04 306.325 3.70501 266.08 2.56301 264.387C-0.854988 259.318 -0.854988 252.682 2.56301 247.614C3.70501 245.921 31.04 205.676 75.448 164.946C101.738 140.834 128.594 121.571 155.269 107.694C189.315 89.981 223.206 81 256 81C288.794 81 322.685 89.981 356.73 107.693C383.406 121.57 410.261 140.833 436.551 164.945C480.959 205.675 508.294 245.92 509.436 247.613C512.854 252.682 512.854 259.318 509.436 264.386C508.294 266.079 480.959 306.324 436.551 347.054C410.261 371.166 383.405 390.429 356.73 404.306C322.685 422.019 288.794 431 256 431V431Z" fill="url(#paint0_linear_453_34)"/>
<path d="M356 241H349.812C343.377 200.607 311.393 168.623 271 162.188V156C271 147.716 264.284 141 256 141C247.716 141 241 147.716 241 156V162.188C200.607 168.623 168.623 200.606 162.188 241H156C147.716 241 141 247.716 141 256C141 264.284 147.716 271 156 271H162.188C168.623 311.393 200.607 343.377 241 349.812V356C241 364.284 247.716 371 256 371C264.284 371 271 364.284 271 356V349.812C311.393 343.377 343.377 311.394 349.812 271H356C364.284 271 371 264.284 371 256C371 247.716 364.284 241 356 241ZM271 319.234V316C271 307.716 264.284 301 256 301C247.716 301 241 307.716 241 316V319.234C217.188 313.585 198.415 294.812 192.766 271H196C204.284 271 211 264.284 211 256C211 247.716 204.284 241 196 241H192.766C198.415 217.188 217.188 198.415 241 192.766V196C241 204.284 247.716 211 256 211C264.284 211 271 204.284 271 196V192.766C294.812 198.415 313.585 217.188 319.234 241H316C307.716 241 301 247.716 301 256C301 264.284 307.716 271 316 271H319.234C313.585 294.812 294.812 313.585 271 319.234Z" fill="url(#paint1_linear_453_34)"/>
</g>
<defs>
<linearGradient id="paint0_linear_453_34" x1="256" y1="431" x2="256" y2="81" gradientUnits="userSpaceOnUse">
<stop stop-color="#FFC2CC"/>
<stop offset="0.5028" stop-color="#FFE5EE"/>
<stop offset="1" stop-color="#FFF2F4"/>
</linearGradient>
<linearGradient id="paint1_linear_453_34" x1="256" y1="371" x2="256" y2="141" gradientUnits="userSpaceOnUse">
<stop stop-color="#FD3A84"/>
<stop offset="1" stop-color="#FFA68D"/>
</linearGradient>
<clipPath id="clip0_453_34">
<rect width="512" height="512" fill="white"/>
</clipPath>
</defs>
</svg>
