<svg width="512" height="390" viewBox="0 0 512 390" fill="none" xmlns="http://www.w3.org/2000/svg">
<path d="M15 375V285H75V195H15V105H255V15H437V105H497V195H437V285H497V375H15Z" fill="url(#paint0_linear_457_109)"/>
<path d="M497 210C505.291 210 512 203.291 512 195V105C512 96.709 505.291 90 497 90H452V15C452 6.709 445.291 0 437 0H255C246.709 0 240 6.709 240 15V90H15C6.709 90 0 96.709 0 105V195C0 203.291 6.709 210 15 210H60V270H15C6.709 270 0 276.709 0 285V375C0 383.291 6.709 390 15 390H497C505.291 390 512 383.291 512 375V285C512 276.709 505.291 270 497 270H452V210H497ZM482 180H360V120H482V180ZM180 180V120H330V180H180ZM270 30H422V90H270V30ZM30 120H150V180H30V120ZM90 210H240V270H90V210ZM30 300H150V360H30V300ZM180 300H330V360H180V300ZM482 360H360V300H482V360ZM422 270H270V210H422V270Z" fill="url(#paint1_linear_457_109)"/>
<defs>
<linearGradient id="paint0_linear_457_109" x1="256" y1="375" x2="256" y2="15" gradientUnits="userSpaceOnUse">
<stop stop-color="#FD5900"/>
<stop offset="1" stop-color="#FFDE00"/>
</linearGradient>
<linearGradient id="paint1_linear_457_109" x1="256" y1="390" x2="256" y2="0" gradientUnits="userSpaceOnUse">
<stop stop-color="#FFE59A"/>
<stop offset="1" stop-color="#FFFFD5"/>
</linearGradient>
</defs>
</svg>
