<svg width="512" height="512" viewBox="0 0 512 512" fill="none" xmlns="http://www.w3.org/2000/svg">
<path d="M378.365 259.393C386.591 236.295 391.002 211.616 391.002 186.26V106.002C391.002 97.7184 384.286 91.0025 376.002 91.0025C295 91.0025 266.704 65.4749 266.428 65.2169L266.611 65.3959C260.754 59.538 251.256 59.538 245.398 65.3959C245.142 65.6519 217.512 91.0015 136.006 91.0015C127.722 91.0015 121.006 97.7174 121.006 106.001V186.259C121.006 211.615 125.417 236.294 133.643 259.392L121.969 281.123L174.664 351.242L211.909 363.535C223.659 371.98 236.352 379.323 249.873 385.379C251.824 386.253 253.914 386.69 256.005 386.69C258.096 386.69 260.186 386.253 262.137 385.379C275.658 379.323 288.351 371.98 300.102 363.534L330.798 354.301L391.324 273.762L378.365 259.393ZM15.0078 300.999C8.27087 300.999 2.15696 305.519 0.417991 312.465C-0.465996 315.996 0.0899956 319.736 1.73097 322.985L28.2366 375.443L1.56397 429.344C-1.41398 435.362 -0.0940013 442.819 5.31991 447.464C8.07987 449.832 11.6758 450.996 15.3118 450.996H91.0056C99.2895 450.996 106.005 444.28 106.005 435.996V392.768L122.005 343.64L106.005 300.999H15.0078ZM483.77 375.443L510.387 322.764C513.294 317.01 512.25 309.9 507.411 305.193C504.569 302.428 500.682 301 496.716 301H406.001L390.001 336.568L406.001 392.769V435.997C406.001 444.281 412.717 450.997 421 450.997H496.999C503.423 450.997 509.282 446.886 511.321 440.476C512.517 436.716 512.067 432.623 510.317 429.087L483.77 375.443Z" fill="url(#paint0_linear_454_10)"/>
<path d="M133.643 259.393C126.643 261.601 120.602 263.742 115.641 265.634C109.832 267.849 106.006 273.426 106.006 279.643V300.999V392.769C137.526 377.366 174.847 367.771 211.908 363.537C175.708 337.52 148.472 301.029 133.643 259.393V259.393ZM396.367 265.634C391.406 263.742 385.366 261.601 378.365 259.393C363.536 301.029 336.301 337.519 300.1 363.536C337.176 367.771 374.492 377.37 406.002 392.768V300.998V279.642C406.002 273.426 402.176 267.849 396.367 265.634ZM307.89 268.585L302.027 232.64L326.74 207.312C330.666 203.288 332.012 197.406 330.227 192.075C328.443 186.743 323.827 182.858 318.269 182.009L284.723 176.884L269.583 144.629C267.111 139.364 261.819 136.003 256.004 136.003C250.189 136.003 244.897 139.365 242.425 144.629L227.285 176.884L193.739 182.009C188.181 182.858 183.565 186.744 181.781 192.075C179.996 197.406 181.343 203.288 185.268 207.312L209.981 232.64L204.118 268.585C203.193 274.254 205.588 279.954 210.284 283.262C214.979 286.571 221.153 286.907 226.179 284.128L256.004 267.641L285.829 284.128C290.873 286.917 297.046 286.558 301.724 283.262C306.42 279.954 308.814 274.254 307.89 268.585V268.585Z" fill="url(#paint1_linear_454_10)"/>
<defs>
<linearGradient id="paint0_linear_454_10" x1="256" y1="450.997" x2="256" y2="61.003" gradientUnits="userSpaceOnUse">
<stop stop-color="#5F44F8"/>
<stop offset="0.0001" stop-color="#6344F8"/>
<stop offset="1" stop-color="#9CA6FF"/>
</linearGradient>
<linearGradient id="paint1_linear_454_10" x1="256.004" y1="392.768" x2="256.004" y2="136.002" gradientUnits="userSpaceOnUse">
<stop stop-color="#C3D7FF"/>
<stop offset="0.9973" stop-color="#F0F0FF"/>
</linearGradient>
</defs>
</svg>
