<?xml version="1.0" encoding="UTF-8"?>
<svg xmlns="http://www.w3.org/2000/svg" xmlns:xlink="http://www.w3.org/1999/xlink" width="45pt" height="44.999999pt" viewBox="0 0 45 44.999999" version="1.2">
<g id="surface1">
<path style=" stroke:none;fill-rule:nonzero;fill:rgb(100%,100%,100%);fill-opacity:1;" d="M 29.765625 9.933594 C 30.257812 9.441406 30.539062 8.808594 30.539062 8.109375 C 30.539062 7.40625 30.257812 6.773438 29.765625 6.28125 L 24.21875 0.808594 C 23.730469 0.316406 23.097656 0.0351562 22.394531 0.0351562 C 21.691406 0.0351562 21.0625 0.316406 20.570312 0.808594 L 15.164062 6.214844 C 14.671875 6.703125 14.390625 7.335938 14.390625 8.039062 C 14.390625 8.742188 14.671875 9.371094 15.164062 9.863281 L 16.496094 11.199219 C 17.128906 11.898438 18.113281 12.109375 18.953125 11.898438 L 18.953125 14.988281 C 18.953125 16.390625 20.078125 17.585938 21.550781 17.585938 L 23.378906 17.585938 C 24.78125 17.585938 25.976562 16.390625 25.976562 14.988281 L 25.976562 11.898438 C 26.816406 12.109375 27.800781 11.898438 28.433594 11.199219 Z M 25.835938 10.285156 C 25.625 10.074219 25.34375 10.003906 25.0625 10.074219 C 24.78125 10.144531 24.570312 10.425781 24.570312 10.707031 L 24.570312 14.988281 C 24.570312 15.621094 24.007812 16.183594 23.378906 16.183594 L 21.550781 16.183594 C 20.921875 16.183594 20.359375 15.621094 20.359375 14.988281 L 20.359375 10.636719 C 20.359375 10.355469 20.148438 10.144531 19.9375 10.003906 C 19.65625 9.863281 19.375 10.003906 19.164062 10.144531 C 18.746094 10.566406 17.972656 10.566406 17.480469 10.144531 L 16.148438 8.808594 C 15.9375 8.601562 15.796875 8.320312 15.796875 7.96875 C 15.796875 7.6875 15.9375 7.335938 16.148438 7.125 L 21.550781 1.71875 C 21.832031 1.578125 22.113281 1.4375 22.394531 1.4375 C 22.675781 1.4375 23.027344 1.578125 23.238281 1.789062 L 28.78125 7.265625 C 28.992188 7.476562 29.132812 7.757812 29.132812 8.109375 C 29.132812 8.390625 28.992188 8.742188 28.78125 8.949219 L 27.449219 10.285156 C 27.027344 10.707031 26.253906 10.707031 25.835938 10.285156 Z M 25.835938 10.285156 "/>
<path style=" stroke:none;fill-rule:nonzero;fill:rgb(100%,100%,100%);fill-opacity:1;" d="M 16.496094 33.871094 L 15.164062 35.136719 C 14.671875 35.628906 14.390625 36.257812 14.390625 36.960938 C 14.390625 37.664062 14.671875 38.296875 15.164062 38.785156 L 20.570312 44.191406 C 21.0625 44.683594 21.691406 44.964844 22.394531 44.964844 C 23.097656 44.964844 23.730469 44.683594 24.21875 44.191406 L 29.765625 38.71875 C 30.257812 38.226562 30.539062 37.59375 30.539062 36.890625 C 30.539062 36.191406 30.257812 35.558594 29.765625 35.066406 L 28.433594 33.734375 C 27.800781 33.101562 26.816406 32.820312 25.976562 33.03125 L 25.976562 30.011719 C 25.976562 28.609375 24.851562 27.414062 23.378906 27.414062 L 21.550781 27.414062 C 20.148438 27.414062 18.953125 28.539062 18.953125 30.011719 L 18.953125 33.171875 C 18.113281 32.960938 17.128906 33.242188 16.496094 33.871094 Z M 19.164062 34.855469 C 19.375 35.066406 19.65625 35.136719 19.9375 35.066406 C 20.21875 34.996094 20.359375 34.714844 20.359375 34.433594 L 20.359375 30.011719 C 20.359375 29.378906 20.851562 28.816406 21.550781 28.816406 L 23.378906 28.816406 C 24.007812 28.816406 24.570312 29.308594 24.570312 30.011719 L 24.570312 34.292969 C 24.570312 34.574219 24.78125 34.785156 24.992188 34.925781 C 25.273438 35.066406 25.554688 34.925781 25.765625 34.785156 C 26.1875 34.363281 26.957031 34.363281 27.449219 34.785156 L 28.78125 36.121094 C 28.992188 36.328125 29.132812 36.609375 29.132812 36.960938 C 29.132812 37.242188 28.992188 37.59375 28.78125 37.804688 L 23.308594 43.28125 C 23.097656 43.492188 22.816406 43.632812 22.464844 43.632812 C 22.183594 43.632812 21.832031 43.492188 21.621094 43.28125 L 16.148438 37.804688 C 15.9375 37.59375 15.796875 37.3125 15.796875 36.960938 C 15.796875 36.679688 15.9375 36.328125 16.148438 36.121094 L 17.480469 34.785156 C 17.902344 34.433594 18.675781 34.433594 19.164062 34.855469 Z M 19.164062 34.855469 "/>
<path style=" stroke:none;fill-rule:nonzero;fill:rgb(100%,100%,100%);fill-opacity:1;" d="M 22.464844 26.011719 C 24.429688 26.011719 25.976562 24.464844 25.976562 22.5 C 25.976562 20.535156 24.429688 18.988281 22.464844 18.988281 C 20.5 18.988281 18.953125 20.535156 18.953125 22.5 C 18.953125 24.394531 20.5 26.011719 22.464844 26.011719 Z M 22.464844 20.394531 C 23.660156 20.394531 24.570312 21.304688 24.570312 22.5 C 24.570312 23.695312 23.660156 24.605469 22.464844 24.605469 C 21.269531 24.605469 20.359375 23.695312 20.359375 22.5 C 20.359375 21.304688 21.269531 20.394531 22.464844 20.394531 Z M 22.464844 20.394531 "/>
<path style=" stroke:none;fill-rule:nonzero;fill:rgb(100%,100%,100%);fill-opacity:1;" d="M 6.179688 29.800781 C 6.667969 30.292969 7.300781 30.574219 8.003906 30.574219 C 8.707031 30.574219 9.335938 30.292969 9.828125 29.800781 L 11.164062 28.46875 C 11.863281 27.765625 12.074219 26.851562 11.863281 26.011719 L 14.953125 26.011719 C 16.355469 26.011719 17.550781 24.886719 17.550781 23.414062 L 17.550781 21.585938 C 17.550781 20.183594 16.355469 18.988281 14.953125 18.988281 L 11.863281 18.988281 C 12.074219 18.148438 11.863281 17.234375 11.164062 16.601562 L 9.828125 15.410156 C 9.335938 14.917969 8.707031 14.847656 8.003906 14.847656 C 7.300781 14.847656 6.667969 14.988281 6.179688 15.410156 L 0.703125 20.746094 C 0.28125 21.238281 0 21.867188 0 22.570312 C 0 23.273438 0.28125 23.902344 0.773438 24.394531 Z M 1.753906 21.726562 L 7.230469 16.183594 C 7.441406 15.972656 7.722656 15.832031 8.074219 15.832031 C 8.355469 15.832031 8.707031 15.972656 8.914062 16.183594 L 10.25 17.515625 C 10.671875 17.9375 10.671875 18.710938 10.25 19.199219 C 10.039062 19.410156 9.96875 19.691406 10.039062 19.972656 C 10.109375 20.253906 10.390625 20.464844 10.671875 20.464844 L 14.953125 20.464844 C 15.585938 20.464844 16.148438 21.027344 16.148438 21.65625 L 16.148438 23.484375 C 16.148438 24.113281 15.585938 24.675781 14.953125 24.675781 L 10.601562 24.675781 C 10.320312 24.675781 10.109375 24.886719 9.96875 25.097656 C 9.828125 25.378906 9.96875 25.660156 10.109375 25.871094 C 10.53125 26.289062 10.53125 27.0625 10.109375 27.554688 L 8.773438 28.816406 C 8.355469 29.238281 7.582031 29.238281 7.089844 28.816406 L 1.683594 23.414062 C 1.542969 23.132812 1.402344 22.851562 1.402344 22.570312 C 1.402344 22.21875 1.542969 21.9375 1.753906 21.726562 Z M 1.753906 21.726562 "/>
<path style=" stroke:none;fill-rule:nonzero;fill:rgb(100%,100%,100%);fill-opacity:1;" d="M 38.683594 15.199219 C 37.699219 14.214844 36.015625 14.214844 35.03125 15.199219 L 33.699219 16.53125 C 33.207031 17.023438 32.925781 17.65625 32.925781 18.359375 C 32.925781 18.570312 32.925781 18.777344 32.996094 18.988281 L 29.976562 18.988281 C 28.574219 18.988281 27.378906 20.113281 27.378906 21.585938 L 27.378906 23.414062 C 27.378906 24.816406 28.503906 26.011719 29.976562 26.011719 L 33.136719 26.011719 C 32.925781 26.851562 33.136719 27.835938 33.835938 28.46875 L 35.171875 29.800781 C 35.664062 30.292969 36.292969 30.574219 36.996094 30.574219 C 37.699219 30.574219 38.332031 30.292969 38.820312 29.800781 L 44.226562 24.394531 C 44.71875 23.902344 45 23.273438 45 22.570312 C 45 21.867188 44.71875 21.238281 44.226562 20.746094 Z M 43.175781 23.414062 L 37.769531 28.816406 C 37.347656 29.238281 36.574219 29.238281 36.085938 28.816406 L 34.75 27.484375 C 34.328125 27.0625 34.328125 26.289062 34.75 25.800781 C 34.960938 25.589844 35.03125 25.308594 34.960938 25.027344 C 34.890625 24.746094 34.609375 24.605469 34.328125 24.605469 L 29.976562 24.605469 C 29.34375 24.605469 28.78125 24.113281 28.78125 23.414062 L 28.78125 21.585938 C 28.78125 20.957031 29.273438 20.394531 29.976562 20.394531 L 34.257812 20.394531 C 34.539062 20.394531 34.75 20.183594 34.890625 19.972656 C 35.03125 19.691406 34.890625 19.410156 34.75 19.199219 C 34.539062 18.988281 34.398438 18.710938 34.398438 18.359375 C 34.398438 18.078125 34.539062 17.726562 34.75 17.515625 L 36.085938 16.183594 C 36.574219 15.691406 37.277344 15.761719 37.769531 16.183594 L 43.246094 21.726562 C 43.457031 21.9375 43.597656 22.21875 43.597656 22.570312 C 43.527344 22.851562 43.386719 23.132812 43.175781 23.414062 Z M 43.175781 23.414062 "/>
</g>
</svg>
